%TF.GenerationSoftware,KiCad,Pcbnew,10.0.1*%
%TF.CreationDate,2026-08-19T17:50:16+08:00*%
%TF.ProjectId,z80badgev2,7a383062-6164-4676-9576-322e6b696361,rev?*%
%TF.SameCoordinates,Original*%
%TF.FileFunction,Legend,Bot*%
%TF.FilePolarity,Positive*%
%FSLAX46Y46*%
G04 Gerber Fmt 4.6, Leading zero omitted, Abs format (unit mm)*
G04 Created by KiCad (PCBNEW 10.0.1) date 2026-08-19 17:50:16*
%MOMM*%
%LPD*%
G01*
G04 APERTURE LIST*
%ADD10C,0.150000*%
%ADD11C,0.187500*%
%ADD12C,0.120000*%
%ADD13C,0.200000*%
G04 APERTURE END LIST*
D10*
X498110839Y67996847D02*
X497396554Y67996847D01*
X497825125Y68425419D02*
X498110839Y67139704D01*
X497491792Y67568276D02*
X498206077Y67568276D01*
X497777506Y67139704D02*
X497491792Y68425419D01*
X496539411Y68282561D02*
X496634649Y68330180D01*
X496634649Y68330180D02*
X496777506Y68330180D01*
X496777506Y68330180D02*
X496920363Y68282561D01*
X496920363Y68282561D02*
X497015601Y68187323D01*
X497015601Y68187323D02*
X497063220Y68092085D01*
X497063220Y68092085D02*
X497110839Y67901609D01*
X497110839Y67901609D02*
X497110839Y67758752D01*
X497110839Y67758752D02*
X497063220Y67568276D01*
X497063220Y67568276D02*
X497015601Y67473038D01*
X497015601Y67473038D02*
X496920363Y67377800D01*
X496920363Y67377800D02*
X496777506Y67330180D01*
X496777506Y67330180D02*
X496682268Y67330180D01*
X496682268Y67330180D02*
X496539411Y67377800D01*
X496539411Y67377800D02*
X496491792Y67425419D01*
X496491792Y67425419D02*
X496491792Y67758752D01*
X496491792Y67758752D02*
X496682268Y67758752D01*
X496110839Y67615895D02*
X495634649Y67615895D01*
X496206077Y67330180D02*
X495872744Y68330180D01*
X495872744Y68330180D02*
X495539411Y67330180D01*
X495206077Y67330180D02*
X495206077Y68330180D01*
X495206077Y68330180D02*
X494967982Y68330180D01*
X494967982Y68330180D02*
X494825125Y68282561D01*
X494825125Y68282561D02*
X494729887Y68187323D01*
X494729887Y68187323D02*
X494682268Y68092085D01*
X494682268Y68092085D02*
X494634649Y67901609D01*
X494634649Y67901609D02*
X494634649Y67758752D01*
X494634649Y67758752D02*
X494682268Y67568276D01*
X494682268Y67568276D02*
X494729887Y67473038D01*
X494729887Y67473038D02*
X494825125Y67377800D01*
X494825125Y67377800D02*
X494967982Y67330180D01*
X494967982Y67330180D02*
X495206077Y67330180D01*
X493682268Y68282561D02*
X493777506Y68330180D01*
X493777506Y68330180D02*
X493920363Y68330180D01*
X493920363Y68330180D02*
X494063220Y68282561D01*
X494063220Y68282561D02*
X494158458Y68187323D01*
X494158458Y68187323D02*
X494206077Y68092085D01*
X494206077Y68092085D02*
X494253696Y67901609D01*
X494253696Y67901609D02*
X494253696Y67758752D01*
X494253696Y67758752D02*
X494206077Y67568276D01*
X494206077Y67568276D02*
X494158458Y67473038D01*
X494158458Y67473038D02*
X494063220Y67377800D01*
X494063220Y67377800D02*
X493920363Y67330180D01*
X493920363Y67330180D02*
X493825125Y67330180D01*
X493825125Y67330180D02*
X493682268Y67377800D01*
X493682268Y67377800D02*
X493634649Y67425419D01*
X493634649Y67425419D02*
X493634649Y67758752D01*
X493634649Y67758752D02*
X493825125Y67758752D01*
X493206077Y67853990D02*
X492872744Y67853990D01*
X492729887Y67330180D02*
X493206077Y67330180D01*
X493206077Y67330180D02*
X493206077Y68330180D01*
X493206077Y68330180D02*
X492729887Y68330180D01*
X492444172Y68330180D02*
X491872744Y68330180D01*
X492158458Y67330180D02*
X492158458Y68330180D01*
X491539410Y67330180D02*
X491539410Y68330180D01*
X491539410Y68330180D02*
X491206077Y67615895D01*
X491206077Y67615895D02*
X490872744Y68330180D01*
X490872744Y68330180D02*
X490872744Y67330180D01*
X490444172Y67615895D02*
X489967982Y67615895D01*
X490539410Y67330180D02*
X490206077Y68330180D01*
X490206077Y68330180D02*
X489872744Y67330180D01*
X488967982Y67330180D02*
X489301315Y67806371D01*
X489539410Y67330180D02*
X489539410Y68330180D01*
X489539410Y68330180D02*
X489158458Y68330180D01*
X489158458Y68330180D02*
X489063220Y68282561D01*
X489063220Y68282561D02*
X489015601Y68234942D01*
X489015601Y68234942D02*
X488967982Y68139704D01*
X488967982Y68139704D02*
X488967982Y67996847D01*
X488967982Y67996847D02*
X489015601Y67901609D01*
X489015601Y67901609D02*
X489063220Y67853990D01*
X489063220Y67853990D02*
X489158458Y67806371D01*
X489158458Y67806371D02*
X489539410Y67806371D01*
X488539410Y67330180D02*
X488539410Y68330180D01*
X487967982Y67330180D02*
X488396553Y67901609D01*
X487967982Y68330180D02*
X488539410Y67758752D01*
X487539410Y67853990D02*
X487206077Y67853990D01*
X487063220Y67330180D02*
X487539410Y67330180D01*
X487539410Y67330180D02*
X487539410Y68330180D01*
X487539410Y68330180D02*
X487063220Y68330180D01*
X486777505Y68330180D02*
X486206077Y68330180D01*
X486491791Y67330180D02*
X486491791Y68330180D01*
D11*
G36*
X488506677Y59192892D02*
G01*
X488938071Y59192892D01*
X488938071Y59480213D01*
X488942738Y59593979D01*
X488951901Y59636559D01*
X488972667Y59659175D01*
X489012901Y59667700D01*
X489045899Y59662902D01*
X489067355Y59650207D01*
X489080587Y59629781D01*
X489090219Y59581069D01*
X489094875Y59465925D01*
X489094875Y58695827D01*
X489090235Y58585310D01*
X489080587Y58538016D01*
X489067559Y58518079D01*
X489046986Y58505797D01*
X489015923Y58501196D01*
X488986295Y58505747D01*
X488966144Y58518071D01*
X488952909Y58538382D01*
X488943000Y58587969D01*
X488938071Y58713230D01*
X488938071Y58923248D01*
X488506677Y58923248D01*
X488506677Y58858310D01*
X488511931Y58683225D01*
X488525155Y58565667D01*
X488543039Y58491030D01*
X488575286Y58424567D01*
X488627586Y58361579D01*
X488703964Y58301253D01*
X488790389Y58257157D01*
X488891579Y58229568D01*
X489010794Y58219829D01*
X489135743Y58228302D01*
X489238629Y58251858D01*
X489323303Y58288522D01*
X489397402Y58341422D01*
X489450858Y58404343D01*
X489486243Y58478665D01*
X489506396Y58561359D01*
X489520678Y58679896D01*
X489526177Y58844113D01*
X489526177Y59328905D01*
X489522572Y59497022D01*
X489513904Y59597999D01*
X489500669Y59655921D01*
X489476587Y59713240D01*
X489440631Y59770648D01*
X489395759Y59821136D01*
X489339920Y59864660D01*
X489271554Y59901349D01*
X489198059Y59927280D01*
X489115707Y59943438D01*
X489023067Y59949068D01*
X488897752Y59940037D01*
X488794200Y59914851D01*
X488708544Y59875429D01*
X488632721Y59820018D01*
X488579587Y59759162D01*
X488545603Y59692063D01*
X488526091Y59616993D01*
X488512110Y59506538D01*
X488506677Y59350245D01*
X488506677Y59192892D01*
G37*
G36*
X487950170Y59913897D02*
G01*
X487950170Y59538740D01*
X487894069Y59582738D01*
X487834856Y59613478D01*
X487771129Y59632077D01*
X487702141Y59638391D01*
X487631522Y59631901D01*
X487570502Y59613304D01*
X487517219Y59583070D01*
X487471187Y59542483D01*
X487440949Y59500244D01*
X487423979Y59455575D01*
X487412317Y59368566D01*
X487407035Y59191976D01*
X487407035Y58255000D01*
X487821026Y58255000D01*
X487821026Y59211668D01*
X487824918Y59320023D01*
X487832841Y59364259D01*
X487851368Y59389265D01*
X487885598Y59398056D01*
X487917442Y59389313D01*
X487936889Y59363251D01*
X487945938Y59319908D01*
X487950170Y59224949D01*
X487950170Y58255000D01*
X488364070Y58255000D01*
X488364070Y59913897D01*
X487950170Y59913897D01*
G37*
G36*
X486838712Y59913897D02*
G01*
X486838712Y59697009D01*
X487264977Y59697009D01*
X487264977Y59913897D01*
X486838712Y59913897D01*
G37*
G36*
X486838712Y59614944D02*
G01*
X486838712Y58255000D01*
X487264977Y58255000D01*
X487264977Y59614944D01*
X486838712Y59614944D01*
G37*
G36*
X486085338Y59629282D02*
G01*
X486154710Y59602304D01*
X486217010Y59558343D01*
X486276618Y59493219D01*
X486269382Y59614944D01*
X486690518Y59614944D01*
X486690518Y58061559D01*
X486276618Y58061559D01*
X486276618Y58375167D01*
X486218139Y58311476D01*
X486156725Y58267731D01*
X486088554Y58240654D01*
X486014301Y58231552D01*
X485951500Y58237030D01*
X485897196Y58252703D01*
X485849803Y58278080D01*
X485809251Y58312945D01*
X485779505Y58354205D01*
X485759678Y58402919D01*
X485744328Y58494560D01*
X485737604Y58666427D01*
X485737604Y59218995D01*
X486151596Y59218995D01*
X486151596Y58636659D01*
X486154878Y58538009D01*
X486161396Y58500006D01*
X486177606Y58479535D01*
X486211038Y58471887D01*
X486245646Y58480035D01*
X486264344Y58502570D01*
X486272478Y58544496D01*
X486276618Y58656077D01*
X486276618Y59218995D01*
X486272694Y59326051D01*
X486264894Y59367373D01*
X486246613Y59389886D01*
X486212046Y59398056D01*
X486176753Y59390588D01*
X486160846Y59371403D01*
X486154815Y59332918D01*
X486151596Y59218995D01*
X485737604Y59218995D01*
X485737604Y59238321D01*
X485742919Y59388241D01*
X485755006Y59467482D01*
X485771701Y59509375D01*
X485800216Y59548906D01*
X485842659Y59586734D01*
X485891651Y59615129D01*
X485946646Y59632413D01*
X486009172Y59638391D01*
X486085338Y59629282D01*
G37*
G36*
X484306127Y59409780D02*
G01*
X484706747Y59409780D01*
X484706747Y59533611D01*
X484711795Y59612222D01*
X484722134Y59643978D01*
X484741806Y59661381D01*
X484773333Y59667700D01*
X484807777Y59659745D01*
X484832318Y59636284D01*
X484846546Y59600224D01*
X484852285Y59541121D01*
X484845796Y59464773D01*
X484829754Y59417565D01*
X484795611Y59377459D01*
X484707846Y59315716D01*
X484516803Y59190835D01*
X484403803Y59098967D01*
X484345054Y59032424D01*
X484315620Y58977375D01*
X484292103Y58903398D01*
X484276171Y58805734D01*
X484270224Y58678883D01*
X484275953Y58560027D01*
X484290761Y58475609D01*
X484311714Y58417574D01*
X484345532Y58367351D01*
X484397518Y58320447D01*
X484472090Y58276707D01*
X484553196Y58245826D01*
X484644821Y58226559D01*
X484748787Y58219829D01*
X484862673Y58227681D01*
X484960324Y58249918D01*
X485044351Y58285225D01*
X485119610Y58335289D01*
X485171732Y58390583D01*
X485204727Y58451737D01*
X485224161Y58520494D01*
X485237574Y58614128D01*
X485242646Y58738784D01*
X485242646Y58847044D01*
X484842027Y58847044D01*
X484842027Y58646643D01*
X484836543Y58562595D01*
X484825174Y58527666D01*
X484802988Y58508398D01*
X484765182Y58501196D01*
X484727299Y58509810D01*
X484701160Y58534902D01*
X484686105Y58573502D01*
X484680094Y58635286D01*
X484686109Y58733624D01*
X484700689Y58793214D01*
X484720027Y58826619D01*
X484777501Y58876615D01*
X484921986Y58977470D01*
X485068134Y59078736D01*
X485135118Y59132442D01*
X485181443Y59187661D01*
X485221672Y59265615D01*
X485246587Y59357283D01*
X485256018Y59482869D01*
X485249289Y59610483D01*
X485231940Y59700349D01*
X485207383Y59761581D01*
X485169387Y59814787D01*
X485117714Y59860601D01*
X485050030Y59899334D01*
X484975985Y59926046D01*
X484889290Y59943037D01*
X484787713Y59949068D01*
X484676640Y59942442D01*
X484581999Y59923788D01*
X484501308Y59894480D01*
X484427254Y59852128D01*
X484376615Y59806389D01*
X484344596Y59757093D01*
X484325598Y59699660D01*
X484311661Y59609657D01*
X484306127Y59475634D01*
X484306127Y59409780D01*
G37*
G36*
X483794465Y59631973D02*
G01*
X483877968Y59613487D01*
X483952861Y59583620D01*
X484020122Y59541017D01*
X484072119Y59488803D01*
X484110672Y59426083D01*
X484135751Y59355705D01*
X484152591Y59263783D01*
X484158849Y59145265D01*
X484158849Y58749225D01*
X484152584Y58606840D01*
X484137325Y58518507D01*
X484107480Y58443035D01*
X484060022Y58373244D01*
X484019428Y58333682D01*
X483967957Y58299004D01*
X483903768Y58269379D01*
X483798554Y58241495D01*
X483672134Y58231552D01*
X483582348Y58236330D01*
X483508188Y58249563D01*
X483447186Y58269929D01*
X483390659Y58299977D01*
X483341571Y58338217D01*
X483299175Y58385150D01*
X483249811Y58462783D01*
X483224895Y58529590D01*
X483213575Y58604475D01*
X483208958Y58723213D01*
X483208958Y58823597D01*
X483601426Y58823597D01*
X483601426Y58644170D01*
X483606458Y58550923D01*
X483617363Y58507241D01*
X483640151Y58481222D01*
X483680286Y58471887D01*
X483712927Y58479008D01*
X483731577Y58498540D01*
X483740513Y58533372D01*
X483744857Y58617425D01*
X483744857Y58911524D01*
X483208958Y58911524D01*
X483208958Y59091409D01*
X483215009Y59223440D01*
X483216489Y59232643D01*
X483623957Y59232643D01*
X483623957Y59134274D01*
X483744857Y59134274D01*
X483744857Y59232643D01*
X483741337Y59335672D01*
X483734599Y59372136D01*
X483717789Y59390734D01*
X483681293Y59398056D01*
X483652147Y59390280D01*
X483635223Y59367556D01*
X483627651Y59328026D01*
X483623957Y59232643D01*
X483216489Y59232643D01*
X483231085Y59323391D01*
X483254570Y59397598D01*
X483291872Y59464567D01*
X483344143Y59522566D01*
X483413389Y59572445D01*
X483491551Y59607716D01*
X483586178Y59630290D01*
X483700802Y59638391D01*
X483794465Y59631973D01*
G37*
G36*
X482647505Y59913897D02*
G01*
X482647505Y58255000D01*
X483073770Y58255000D01*
X483073770Y59913897D01*
X482647505Y59913897D01*
G37*
G36*
X482147291Y59631973D02*
G01*
X482230794Y59613487D01*
X482305687Y59583620D01*
X482372948Y59541017D01*
X482424945Y59488803D01*
X482463498Y59426083D01*
X482488577Y59355705D01*
X482505418Y59263783D01*
X482511675Y59145265D01*
X482511675Y58749225D01*
X482505410Y58606840D01*
X482490151Y58518507D01*
X482460306Y58443035D01*
X482412848Y58373244D01*
X482372254Y58333682D01*
X482320783Y58299004D01*
X482256594Y58269379D01*
X482151380Y58241495D01*
X482024960Y58231552D01*
X481935174Y58236330D01*
X481861015Y58249563D01*
X481800013Y58269929D01*
X481743485Y58299977D01*
X481694398Y58338217D01*
X481652001Y58385150D01*
X481602637Y58462783D01*
X481577721Y58529590D01*
X481566401Y58604475D01*
X481561784Y58723213D01*
X481561784Y58823597D01*
X481954252Y58823597D01*
X481954252Y58644170D01*
X481959284Y58550923D01*
X481970189Y58507241D01*
X481992977Y58481222D01*
X482033112Y58471887D01*
X482065753Y58479008D01*
X482084403Y58498540D01*
X482093339Y58533372D01*
X482097684Y58617425D01*
X482097684Y58911524D01*
X481561784Y58911524D01*
X481561784Y59091409D01*
X481567835Y59223440D01*
X481569315Y59232643D01*
X481976783Y59232643D01*
X481976783Y59134274D01*
X482097684Y59134274D01*
X482097684Y59232643D01*
X482094163Y59335672D01*
X482087425Y59372136D01*
X482070616Y59390734D01*
X482034119Y59398056D01*
X482004973Y59390280D01*
X481988049Y59367556D01*
X481980477Y59328026D01*
X481976783Y59232643D01*
X481569315Y59232643D01*
X481583911Y59323391D01*
X481607397Y59397598D01*
X481644698Y59464567D01*
X481696970Y59522566D01*
X481766215Y59572445D01*
X481844377Y59607716D01*
X481939004Y59630290D01*
X482053628Y59638391D01*
X482147291Y59631973D01*
G37*
G36*
X480511601Y59099103D02*
G01*
X480901962Y59099103D01*
X480901962Y59256823D01*
X480906163Y59332566D01*
X480915334Y59368655D01*
X480933899Y59390481D01*
X480964519Y59398056D01*
X480995243Y59391223D01*
X481012696Y59372411D01*
X481020946Y59338966D01*
X481024969Y59257830D01*
X481024969Y58617242D01*
X481019629Y58549457D01*
X481006559Y58508157D01*
X480983241Y58480632D01*
X480952246Y58471887D01*
X480916901Y58481506D01*
X480895368Y58510081D01*
X480885195Y58556783D01*
X480880530Y58654611D01*
X480880530Y58817735D01*
X480511601Y58817735D01*
X480515569Y58664562D01*
X480523416Y58572454D01*
X480544943Y58492057D01*
X480592018Y58404751D01*
X480634703Y58352057D01*
X480684850Y58309121D01*
X480743235Y58275241D01*
X480806881Y58251903D01*
X480882951Y58236918D01*
X480973770Y58231552D01*
X481089587Y58239172D01*
X481180544Y58259896D01*
X481251474Y58291361D01*
X481313524Y58337024D01*
X481361412Y58392541D01*
X481396462Y58459156D01*
X481418266Y58532681D01*
X481433286Y58632646D01*
X481438961Y58765620D01*
X481438961Y59151401D01*
X481434215Y59267514D01*
X481421826Y59352221D01*
X481404156Y59412253D01*
X481374351Y59465829D01*
X481326260Y59518007D01*
X481255595Y59569331D01*
X481177002Y59606730D01*
X481085658Y59630141D01*
X480978899Y59638391D01*
X480872805Y59630197D01*
X480781413Y59606877D01*
X480702202Y59569515D01*
X480632131Y59517740D01*
X480582210Y59460146D01*
X480549520Y59395949D01*
X480530090Y59324772D01*
X480516673Y59227917D01*
X480511601Y59099103D01*
G37*
G36*
X479952621Y59796660D02*
G01*
X479952621Y59579773D01*
X479840880Y59579773D01*
X479840880Y59362885D01*
X479952621Y59362885D01*
X479952621Y58636568D01*
X479947388Y58516598D01*
X479938790Y58487183D01*
X479913968Y58477444D01*
X479823477Y58471887D01*
X479823477Y58255000D01*
X479990539Y58255000D01*
X480121829Y58258561D01*
X480192406Y58266723D01*
X480249167Y58286058D01*
X480299018Y58320853D01*
X480336805Y58367016D01*
X480356354Y58417848D01*
X480363872Y58490540D01*
X480367620Y58674670D01*
X480367620Y59362885D01*
X480456738Y59362885D01*
X480456738Y59579773D01*
X480367620Y59579773D01*
X480367620Y59796660D01*
X479952621Y59796660D01*
G37*
G36*
X479323848Y59913897D02*
G01*
X479323848Y59697009D01*
X479750113Y59697009D01*
X479750113Y59913897D01*
X479323848Y59913897D01*
G37*
G36*
X479323848Y59614944D02*
G01*
X479323848Y58255000D01*
X479750113Y58255000D01*
X479750113Y59614944D01*
X479323848Y59614944D01*
G37*
G36*
X478836016Y59630461D02*
G01*
X478925736Y59608390D01*
X478999524Y59573911D01*
X479064315Y59525283D01*
X479112895Y59468632D01*
X479147077Y59403002D01*
X479168178Y59330717D01*
X479182602Y59234085D01*
X479188019Y59107346D01*
X479188019Y58759483D01*
X479181392Y58597359D01*
X479165487Y58500097D01*
X479134919Y58419086D01*
X479090199Y58352727D01*
X479051747Y58316717D01*
X479003001Y58286297D01*
X478942096Y58261686D01*
X478841101Y58239728D01*
X478709455Y58231552D01*
X478590889Y58240808D01*
X478491743Y58266815D01*
X478431712Y58295076D01*
X478380296Y58331483D01*
X478336496Y58376358D01*
X478286113Y58454240D01*
X478257636Y58535909D01*
X478244656Y58633579D01*
X478239135Y58804546D01*
X478239135Y59137021D01*
X478243606Y59239420D01*
X478653127Y59239420D01*
X478653127Y58613121D01*
X478656964Y58532726D01*
X478664942Y58498449D01*
X478682138Y58478990D01*
X478713577Y58471887D01*
X478744010Y58479436D01*
X478761754Y58501013D01*
X478770041Y58538530D01*
X478774027Y58626401D01*
X478774027Y59239420D01*
X478769922Y59334334D01*
X478761754Y59370945D01*
X478744067Y59390857D01*
X478712569Y59398056D01*
X478681286Y59390826D01*
X478664392Y59370945D01*
X478656898Y59334364D01*
X478653127Y59239420D01*
X478243606Y59239420D01*
X478245032Y59272068D01*
X478259102Y59351894D01*
X478286932Y59420139D01*
X478333382Y59489006D01*
X478372964Y59529120D01*
X478423743Y59565134D01*
X478487622Y59596900D01*
X478555482Y59619174D01*
X478634606Y59633359D01*
X478726857Y59638391D01*
X478836016Y59630461D01*
G37*
G36*
X477681803Y59614944D02*
G01*
X477689039Y59490380D01*
X477637975Y59556148D01*
X477578947Y59601388D01*
X477510024Y59628844D01*
X477428737Y59638391D01*
X477359313Y59632312D01*
X477302069Y59615267D01*
X477254623Y59588199D01*
X477214321Y59551218D01*
X477185659Y59509353D01*
X477167520Y59461712D01*
X477153940Y59372782D01*
X477148011Y59207272D01*
X477148011Y58255000D01*
X477561911Y58255000D01*
X477561911Y59196281D01*
X477565111Y59323410D01*
X477571161Y59367281D01*
X477587532Y59389736D01*
X477622361Y59398056D01*
X477658990Y59388760D01*
X477677773Y59362702D01*
X477685179Y59313058D01*
X477689039Y59173750D01*
X477689039Y58255000D01*
X478102939Y58255000D01*
X478102939Y59614944D01*
X477681803Y59614944D01*
G37*
G36*
X476192349Y59913897D02*
G01*
X476192349Y58589124D01*
X475930033Y58589124D01*
X475930033Y58255000D01*
X476623743Y58255000D01*
X476623743Y59913897D01*
X476192349Y59913897D01*
G37*
G36*
X475497705Y59630461D02*
G01*
X475587424Y59608390D01*
X475661213Y59573911D01*
X475726004Y59525283D01*
X475774583Y59468632D01*
X475808766Y59403002D01*
X475829867Y59330717D01*
X475844291Y59234085D01*
X475849707Y59107346D01*
X475849707Y58759483D01*
X475843081Y58597359D01*
X475827176Y58500097D01*
X475796608Y58419086D01*
X475751888Y58352727D01*
X475713436Y58316717D01*
X475664690Y58286297D01*
X475603785Y58261686D01*
X475502790Y58239728D01*
X475371144Y58231552D01*
X475252578Y58240808D01*
X475153432Y58266815D01*
X475093401Y58295076D01*
X475041985Y58331483D01*
X474998185Y58376358D01*
X474947802Y58454240D01*
X474919325Y58535909D01*
X474906345Y58633579D01*
X474900824Y58804546D01*
X474900824Y59137021D01*
X474905295Y59239420D01*
X475314815Y59239420D01*
X475314815Y58613121D01*
X475318653Y58532726D01*
X475326631Y58498449D01*
X475343827Y58478990D01*
X475375266Y58471887D01*
X475405698Y58479436D01*
X475423442Y58501013D01*
X475431729Y58538530D01*
X475435716Y58626401D01*
X475435716Y59239420D01*
X475431611Y59334334D01*
X475423442Y59370945D01*
X475405756Y59390857D01*
X475374258Y59398056D01*
X475342974Y59390826D01*
X475326081Y59370945D01*
X475318586Y59334364D01*
X475314815Y59239420D01*
X474905295Y59239420D01*
X474906721Y59272068D01*
X474920791Y59351894D01*
X474948621Y59420139D01*
X474995071Y59489006D01*
X475034653Y59529120D01*
X475085432Y59565134D01*
X475149310Y59596900D01*
X475217171Y59619174D01*
X475296295Y59633359D01*
X475388546Y59638391D01*
X475497705Y59630461D01*
G37*
G36*
X474565782Y59632366D02*
G01*
X474623039Y59615605D01*
X474669579Y59589241D01*
X474707292Y59553211D01*
X474742955Y59492087D01*
X474767522Y59402387D01*
X474776993Y59274225D01*
X474776993Y58779816D01*
X474769322Y58652345D01*
X474750340Y58570989D01*
X474727812Y58525722D01*
X474695284Y58486474D01*
X474651513Y58452561D01*
X474601407Y58428354D01*
X474540844Y58412931D01*
X474467506Y58407407D01*
X474404277Y58413628D01*
X474344042Y58432228D01*
X474287380Y58462436D01*
X474231843Y58505593D01*
X474231843Y58403652D01*
X474236778Y58323565D01*
X474247230Y58288339D01*
X474268807Y58268526D01*
X474309695Y58260861D01*
X474345074Y58269943D01*
X474366611Y58296489D01*
X474375274Y58348789D01*
X474776993Y58348789D01*
X474766138Y58251954D01*
X474740818Y58179486D01*
X474703187Y58125770D01*
X474652978Y58087113D01*
X474570308Y58051956D01*
X474466070Y58028938D01*
X474335341Y58020526D01*
X474228021Y58025107D01*
X474140000Y58037713D01*
X474068353Y58056888D01*
X474000582Y58085970D01*
X473946098Y58121235D01*
X473902939Y58162493D01*
X473854264Y58233045D01*
X473833788Y58293559D01*
X473827201Y58373990D01*
X473823988Y58567691D01*
X473823988Y59252976D01*
X474238987Y59252976D01*
X474238987Y58829917D01*
X474243061Y58723842D01*
X474251352Y58680623D01*
X474270202Y58656333D01*
X474304566Y58647742D01*
X474334966Y58654953D01*
X474351735Y58675036D01*
X474359327Y58710284D01*
X474363001Y58793921D01*
X474363001Y59252976D01*
X474358303Y59332107D01*
X474348163Y59368655D01*
X474328305Y59390535D01*
X474297422Y59398056D01*
X474266111Y59391093D01*
X474249795Y59372319D01*
X474242565Y59338229D01*
X474238987Y59252976D01*
X473823988Y59252976D01*
X473823988Y59614944D01*
X474209311Y59614944D01*
X474238987Y59510713D01*
X474293550Y59567304D01*
X474353292Y59606426D01*
X474420037Y59630233D01*
X474495167Y59638391D01*
X474565782Y59632366D01*
G37*
G36*
X473249528Y59913897D02*
G01*
X473249528Y59697009D01*
X473675793Y59697009D01*
X473675793Y59913897D01*
X473249528Y59913897D01*
G37*
G36*
X473249528Y59614944D02*
G01*
X473249528Y58255000D01*
X473675793Y58255000D01*
X473675793Y59614944D01*
X473249528Y59614944D01*
G37*
G36*
X472186339Y59099103D02*
G01*
X472576700Y59099103D01*
X472576700Y59256823D01*
X472580901Y59332566D01*
X472590073Y59368655D01*
X472608638Y59390481D01*
X472639257Y59398056D01*
X472669981Y59391223D01*
X472687434Y59372411D01*
X472695684Y59338966D01*
X472699707Y59257830D01*
X472699707Y58617242D01*
X472694368Y58549457D01*
X472681297Y58508157D01*
X472657980Y58480632D01*
X472626984Y58471887D01*
X472591639Y58481506D01*
X472570106Y58510081D01*
X472559934Y58556783D01*
X472555268Y58654611D01*
X472555268Y58817735D01*
X472186339Y58817735D01*
X472190308Y58664562D01*
X472198155Y58572454D01*
X472219681Y58492057D01*
X472266756Y58404751D01*
X472309442Y58352057D01*
X472359588Y58309121D01*
X472417973Y58275241D01*
X472481619Y58251903D01*
X472557689Y58236918D01*
X472648508Y58231552D01*
X472764325Y58239172D01*
X472855282Y58259896D01*
X472926212Y58291361D01*
X472988262Y58337024D01*
X473036150Y58392541D01*
X473071201Y58459156D01*
X473093004Y58532681D01*
X473108024Y58632646D01*
X473113699Y58765620D01*
X473113699Y59151401D01*
X473108954Y59267514D01*
X473096564Y59352221D01*
X473078894Y59412253D01*
X473049090Y59465829D01*
X473000998Y59518007D01*
X472930334Y59569331D01*
X472851740Y59606730D01*
X472760397Y59630141D01*
X472653637Y59638391D01*
X472547543Y59630197D01*
X472456151Y59606877D01*
X472376940Y59569515D01*
X472306869Y59517740D01*
X472256948Y59460146D01*
X472224258Y59395949D01*
X472204828Y59324772D01*
X472191411Y59227917D01*
X472186339Y59099103D01*
G37*
G36*
X457590219Y49199917D02*
G01*
X457590219Y49600536D01*
X457466388Y49600536D01*
X457387777Y49605584D01*
X457356021Y49615923D01*
X457338618Y49635596D01*
X457332299Y49667123D01*
X457340254Y49701566D01*
X457363715Y49726107D01*
X457399775Y49740336D01*
X457458878Y49746074D01*
X457535226Y49739586D01*
X457582434Y49723543D01*
X457622540Y49689400D01*
X457684283Y49601635D01*
X457809164Y49410592D01*
X457901032Y49297592D01*
X457967575Y49238843D01*
X458022624Y49209409D01*
X458096601Y49185892D01*
X458194265Y49169960D01*
X458321116Y49164013D01*
X458439972Y49169742D01*
X458524390Y49184551D01*
X458582425Y49205504D01*
X458632648Y49239322D01*
X458679552Y49291307D01*
X458723292Y49365880D01*
X458754173Y49446985D01*
X458773440Y49538611D01*
X458780170Y49642576D01*
X458772318Y49756463D01*
X458750081Y49854114D01*
X458714774Y49938141D01*
X458664710Y50013400D01*
X458609416Y50065522D01*
X458548262Y50098517D01*
X458479505Y50117950D01*
X458385871Y50131363D01*
X458261215Y50136435D01*
X458152955Y50136435D01*
X458152955Y49735816D01*
X458353356Y49735816D01*
X458437404Y49730332D01*
X458472333Y49718963D01*
X458491601Y49696778D01*
X458498803Y49658971D01*
X458490189Y49621089D01*
X458465097Y49594949D01*
X458426497Y49579894D01*
X458364713Y49573883D01*
X458266375Y49579898D01*
X458206785Y49594478D01*
X458173380Y49613817D01*
X458123384Y49671291D01*
X458022529Y49815775D01*
X457921263Y49961924D01*
X457867557Y50028907D01*
X457812338Y50075233D01*
X457734384Y50115461D01*
X457642716Y50140376D01*
X457517130Y50149808D01*
X457389516Y50143079D01*
X457299650Y50125730D01*
X457238418Y50101173D01*
X457185212Y50063176D01*
X457139398Y50011503D01*
X457100665Y49943819D01*
X457073953Y49869774D01*
X457056962Y49783080D01*
X457050931Y49681502D01*
X457057557Y49570429D01*
X457076211Y49475788D01*
X457105519Y49395097D01*
X457147871Y49321043D01*
X457193610Y49270404D01*
X457242906Y49238385D01*
X457300339Y49219387D01*
X457390342Y49205450D01*
X457524365Y49199917D01*
X457590219Y49199917D01*
G37*
G36*
X458745000Y48596606D02*
G01*
X457994685Y48596606D01*
X457999503Y48537610D01*
X458011020Y48503933D01*
X458026559Y48486514D01*
X458071225Y48472544D01*
X458192064Y48465448D01*
X458745000Y48465448D01*
X458745000Y48064829D01*
X458306370Y48064829D01*
X458123895Y48068558D01*
X458060356Y48075636D01*
X458016126Y48093233D01*
X457962262Y48130408D01*
X457932511Y48163885D01*
X457903770Y48218656D01*
X457876991Y48302507D01*
X457859975Y48210952D01*
X457832640Y48150706D01*
X457797307Y48113005D01*
X457749403Y48089539D01*
X457667778Y48071981D01*
X457537738Y48064829D01*
X457397268Y48074114D01*
X457297998Y48098214D01*
X457229717Y48132972D01*
X457172637Y48183736D01*
X457133204Y48241975D01*
X457109641Y48309193D01*
X457093534Y48441765D01*
X457089437Y48596606D01*
X457367470Y48596606D01*
X457374839Y48528729D01*
X457392108Y48493658D01*
X457425172Y48474016D01*
X457495697Y48465448D01*
X457587014Y48465448D01*
X457661145Y48470234D01*
X457699656Y48481127D01*
X457716798Y48494665D01*
X457730763Y48529942D01*
X457736765Y48596606D01*
X457367470Y48596606D01*
X457089437Y48596606D01*
X457086102Y48722636D01*
X457086102Y49028000D01*
X458745000Y49028000D01*
X458745000Y48596606D01*
G37*
G36*
X458745000Y47549720D02*
G01*
X458446046Y47524166D01*
X458446046Y47369378D01*
X458745000Y47347945D01*
X458745000Y46906293D01*
X457086102Y47153223D01*
X457086102Y47447322D01*
X457451184Y47447322D01*
X457853204Y47412960D01*
X458152955Y47381742D01*
X458152955Y47529296D01*
X457900306Y47504404D01*
X457451184Y47447322D01*
X457086102Y47447322D01*
X457086102Y47777233D01*
X458745000Y47996502D01*
X458745000Y47549720D01*
G37*
G36*
X457086102Y45501744D02*
G01*
X458745000Y45501744D01*
X458745000Y45878825D01*
X457625024Y45878825D01*
X458745000Y46029400D01*
X458745000Y46296846D01*
X457648471Y46455665D01*
X458745000Y46455665D01*
X458745000Y46832745D01*
X457086102Y46832745D01*
X457086102Y46274315D01*
X457438728Y46222016D01*
X457860688Y46162665D01*
X457086102Y46064296D01*
X457086102Y45501744D01*
G37*
G36*
X457912620Y44600854D02*
G01*
X457770104Y44600854D01*
X457666788Y44597363D01*
X457629146Y44590596D01*
X457609488Y44573784D01*
X457601943Y44538389D01*
X457610082Y44506653D01*
X457634275Y44485633D01*
X457675833Y44474865D01*
X457773218Y44469696D01*
X458099099Y44469696D01*
X458377994Y44469696D01*
X458470560Y44473717D01*
X458504115Y44481511D01*
X458521455Y44498703D01*
X458528112Y44532161D01*
X458520022Y44567169D01*
X458497520Y44587024D01*
X458457593Y44596330D01*
X458361599Y44600854D01*
X458275078Y44596267D01*
X458220641Y44585009D01*
X458191018Y44569305D01*
X458151604Y44533994D01*
X458099099Y44469696D01*
X457773218Y44469696D01*
X457851033Y44474286D01*
X457885967Y44484076D01*
X457914612Y44522504D01*
X457993403Y44702337D01*
X458048411Y44830036D01*
X458090482Y44903732D01*
X458122272Y44941024D01*
X458162616Y44964990D01*
X458228280Y44982283D01*
X458329817Y44989200D01*
X458441284Y44989200D01*
X458547158Y44981754D01*
X458622019Y44962370D01*
X458673573Y44934234D01*
X458707630Y44898525D01*
X458741526Y44835822D01*
X458761658Y44769806D01*
X458768447Y44699223D01*
X458758921Y44620509D01*
X458731902Y44556341D01*
X458687310Y44502845D01*
X458622267Y44458430D01*
X458745000Y44458430D01*
X458745000Y44055704D01*
X458063012Y44055704D01*
X457754419Y44062634D01*
X457618155Y44077228D01*
X457551339Y44100280D01*
X457491044Y44141991D01*
X457435888Y44205364D01*
X457397356Y44280320D01*
X457371389Y44383110D01*
X457361608Y44521903D01*
X457369755Y44637321D01*
X457392280Y44730967D01*
X457427187Y44806843D01*
X457475908Y44875100D01*
X457526107Y44922503D01*
X457578221Y44952839D01*
X457636619Y44971519D01*
X457715947Y44984354D01*
X457821487Y44989200D01*
X457912620Y44989200D01*
X457912620Y44600854D01*
G37*
G36*
X457385055Y43491503D02*
G01*
X457509619Y43498739D01*
X457443851Y43447675D01*
X457398611Y43388647D01*
X457371155Y43319724D01*
X457361608Y43238437D01*
X457367687Y43169013D01*
X457384732Y43111769D01*
X457411800Y43064323D01*
X457448781Y43024021D01*
X457490646Y42995359D01*
X457538287Y42977219D01*
X457627217Y42963640D01*
X457792727Y42957711D01*
X458745000Y42957711D01*
X458745000Y43371611D01*
X457803718Y43371611D01*
X457676589Y43374811D01*
X457632718Y43380861D01*
X457610263Y43397232D01*
X457601943Y43432061D01*
X457611239Y43468690D01*
X457637297Y43487473D01*
X457686941Y43494879D01*
X457826250Y43498739D01*
X458745000Y43498739D01*
X458745000Y43912639D01*
X457385055Y43912639D01*
X457385055Y43491503D01*
G37*
G36*
X458523674Y42821352D02*
G01*
X458600652Y42807410D01*
X458641817Y42789299D01*
X458680680Y42759751D01*
X458717797Y42716734D01*
X458745629Y42667462D01*
X458762584Y42612268D01*
X458768447Y42549672D01*
X458760750Y42479579D01*
X458737581Y42412377D01*
X458699895Y42349640D01*
X458644890Y42287356D01*
X458745000Y42287356D01*
X458745000Y41873364D01*
X457086102Y41873364D01*
X457086102Y42287356D01*
X457473532Y42287356D01*
X457424104Y42343242D01*
X457419725Y42350920D01*
X457601943Y42350920D01*
X457608869Y42318286D01*
X457627588Y42300178D01*
X457659370Y42291409D01*
X457727789Y42287356D01*
X458356195Y42287356D01*
X458459404Y42291835D01*
X458498986Y42300728D01*
X458520366Y42319843D01*
X458528112Y42353942D01*
X458521230Y42383814D01*
X458502008Y42401112D01*
X458468800Y42409433D01*
X458393015Y42413385D01*
X457727789Y42413385D01*
X457655168Y42409199D01*
X457625024Y42400562D01*
X457608261Y42382880D01*
X457601943Y42350920D01*
X457419725Y42350920D01*
X457389635Y42403676D01*
X457368779Y42470085D01*
X457361608Y42544543D01*
X457367404Y42609236D01*
X457384077Y42665780D01*
X457411250Y42715727D01*
X457447784Y42759436D01*
X457485979Y42789264D01*
X457526380Y42807410D01*
X457603160Y42821280D01*
X457748397Y42827377D01*
X458383764Y42827377D01*
X458523674Y42821352D01*
G37*
G36*
X457086102Y41343143D02*
G01*
X457086102Y40623879D01*
X457420226Y40623879D01*
X457420226Y40911749D01*
X457730903Y40911749D01*
X457730903Y40642288D01*
X458047442Y40642288D01*
X458047442Y40911749D01*
X458410875Y40911749D01*
X458410875Y40595119D01*
X458745000Y40595119D01*
X458745000Y41343143D01*
X457086102Y41343143D01*
G37*
G36*
X457086102Y40471196D02*
G01*
X457086102Y39751932D01*
X457420226Y39751932D01*
X457420226Y40039802D01*
X457730903Y40039802D01*
X457730903Y39770341D01*
X458047442Y39770341D01*
X458047442Y40039802D01*
X458410875Y40039802D01*
X458410875Y39723172D01*
X458745000Y39723172D01*
X458745000Y40471196D01*
X457086102Y40471196D01*
G37*
G36*
X458745000Y39167855D02*
G01*
X458076751Y39167855D01*
X458076751Y39052084D01*
X458071798Y38958052D01*
X458058281Y38882813D01*
X458037825Y38823107D01*
X458006890Y38769084D01*
X457969811Y38729720D01*
X457926175Y38702664D01*
X457876070Y38686241D01*
X457801465Y38674469D01*
X457694633Y38669875D01*
X457550194Y38669875D01*
X457404660Y38674908D01*
X457320209Y38686819D01*
X457250869Y38711684D01*
X457193722Y38751391D01*
X457149326Y38807747D01*
X457113763Y38893815D01*
X457094105Y38998770D01*
X457086102Y39164833D01*
X457086102Y39167855D01*
X457367470Y39167855D01*
X457375463Y39092254D01*
X457393390Y39057213D01*
X457428138Y39038832D01*
X457505314Y39030560D01*
X457643067Y39030560D01*
X457727634Y39037821D01*
X457765891Y39053641D01*
X457787049Y39083175D01*
X457795383Y39136073D01*
X457794376Y39167855D01*
X457367470Y39167855D01*
X457086102Y39167855D01*
X457086102Y39599249D01*
X458745000Y39599249D01*
X458745000Y39167855D01*
G37*
G36*
X458745000Y38114192D02*
G01*
X457994685Y38114192D01*
X457999503Y38055196D01*
X458011020Y38021518D01*
X458026559Y38004099D01*
X458071225Y37990129D01*
X458192064Y37983033D01*
X458745000Y37983033D01*
X458745000Y37582414D01*
X458306370Y37582414D01*
X458123895Y37586144D01*
X458060356Y37593222D01*
X458016126Y37610818D01*
X457962262Y37647993D01*
X457932511Y37681471D01*
X457903770Y37736242D01*
X457876991Y37820093D01*
X457859975Y37728538D01*
X457832640Y37668292D01*
X457797307Y37630591D01*
X457749403Y37607125D01*
X457667778Y37589567D01*
X457537738Y37582414D01*
X457397268Y37591699D01*
X457297998Y37615799D01*
X457229717Y37650558D01*
X457172637Y37701321D01*
X457133204Y37759560D01*
X457109641Y37826779D01*
X457093534Y37959350D01*
X457089437Y38114192D01*
X457367470Y38114192D01*
X457374839Y38046315D01*
X457392108Y38011243D01*
X457425172Y37991601D01*
X457495697Y37983033D01*
X457587014Y37983033D01*
X457661145Y37987820D01*
X457699656Y37998713D01*
X457716798Y38012251D01*
X457730763Y38047527D01*
X457736765Y38114192D01*
X457367470Y38114192D01*
X457089437Y38114192D01*
X457086102Y38240221D01*
X457086102Y38545586D01*
X458745000Y38545586D01*
X458745000Y38114192D01*
G37*
G36*
X458294547Y37424214D02*
G01*
X458416279Y37415718D01*
X458482533Y37401839D01*
X458545482Y37376443D01*
X458605964Y37338873D01*
X458658882Y37291558D01*
X458702304Y37235068D01*
X458736665Y37168239D01*
X458760379Y37096313D01*
X458775079Y37016944D01*
X458780170Y36929003D01*
X458774687Y36836277D01*
X458759040Y36754827D01*
X458734100Y36683081D01*
X458698248Y36616596D01*
X458654272Y36561176D01*
X458601843Y36515561D01*
X458542173Y36479674D01*
X458479083Y36455237D01*
X458411700Y36441830D01*
X458289337Y36433622D01*
X458057517Y36430015D01*
X457773585Y36430015D01*
X457536555Y36433793D01*
X457414822Y36442288D01*
X457348571Y36456170D01*
X457285653Y36481567D01*
X457225229Y36519133D01*
X457172263Y36566458D01*
X457128842Y36622947D01*
X457094528Y36689767D01*
X457070763Y36761698D01*
X457056032Y36841067D01*
X457051048Y36926988D01*
X457332299Y36926988D01*
X457340688Y36893302D01*
X457364539Y36874232D01*
X457407050Y36865647D01*
X457512550Y36861409D01*
X458274496Y36861409D01*
X458407817Y36865535D01*
X458459877Y36873774D01*
X458481529Y36885511D01*
X458494203Y36903570D01*
X458498803Y36930102D01*
X458489893Y36966073D01*
X458465006Y36984965D01*
X458417810Y36992685D01*
X458286769Y36996689D01*
X457512550Y36996689D01*
X457397132Y36990469D01*
X457358402Y36978737D01*
X457338939Y36957049D01*
X457332299Y36926988D01*
X457051048Y36926988D01*
X457050931Y36929003D01*
X457056425Y37021725D01*
X457072102Y37103174D01*
X457097093Y37174925D01*
X457132892Y37241408D01*
X457176837Y37296827D01*
X457229259Y37342445D01*
X457288927Y37378342D01*
X457352018Y37402810D01*
X457419402Y37416268D01*
X457541765Y37424412D01*
X457773585Y37427991D01*
X458057517Y37427991D01*
X458294547Y37424214D01*
G37*
G36*
X457086102Y34937264D02*
G01*
X458745000Y34937264D01*
X458745000Y35314344D01*
X457625024Y35314344D01*
X458745000Y35464920D01*
X458745000Y35732366D01*
X457648471Y35891185D01*
X458745000Y35891185D01*
X458745000Y36268265D01*
X457086102Y36268265D01*
X457086102Y35709835D01*
X457438728Y35657536D01*
X457860688Y35598185D01*
X457086102Y35499816D01*
X457086102Y34937264D01*
G37*
D10*
G36*
X465071508Y75881500D02*
G01*
X465071508Y75951983D01*
X465527869Y75951983D01*
X465527869Y75881500D01*
X465071508Y75881500D01*
G37*
G36*
X465671270Y75881500D02*
G01*
X465671270Y75951983D01*
X466127632Y75951983D01*
X466127632Y75881500D01*
X465671270Y75881500D01*
G37*
G36*
X466271033Y75881500D02*
G01*
X466271033Y75951983D01*
X466727395Y75951983D01*
X466727395Y75881500D01*
X466271033Y75881500D01*
G37*
G36*
X466870796Y75881500D02*
G01*
X466870796Y75951983D01*
X467327158Y75951983D01*
X467327158Y75881500D01*
X466870796Y75881500D01*
G37*
G36*
X467470559Y75881500D02*
G01*
X467470559Y75951983D01*
X467926920Y75951983D01*
X467926920Y75881500D01*
X467470559Y75881500D01*
G37*
G36*
X468070321Y75881500D02*
G01*
X468070321Y75951983D01*
X468526683Y75951983D01*
X468526683Y75881500D01*
X468070321Y75881500D01*
G37*
G36*
X468670084Y75881500D02*
G01*
X468670084Y75951983D01*
X469126446Y75951983D01*
X469126446Y75881500D01*
X468670084Y75881500D01*
G37*
G36*
X469269847Y75881500D02*
G01*
X469269847Y75951983D01*
X469726209Y75951983D01*
X469726209Y75881500D01*
X469269847Y75881500D01*
G37*
G36*
X469869610Y75881500D02*
G01*
X469869610Y75951983D01*
X470325971Y75951983D01*
X470325971Y75881500D01*
X469869610Y75881500D01*
G37*
G36*
X470469372Y75881500D02*
G01*
X470469372Y75951983D01*
X470925734Y75951983D01*
X470925734Y75881500D01*
X470469372Y75881500D01*
G37*
G36*
X471297295Y75985279D02*
G01*
X471271783Y75990339D01*
X471249295Y76005838D01*
X471233795Y76028327D01*
X471228736Y76053838D01*
X471233862Y76080136D01*
X471249295Y76102308D01*
X471271747Y76117438D01*
X471297295Y76122397D01*
X471323629Y76117373D01*
X471345765Y76102308D01*
X471360829Y76080172D01*
X471365853Y76053838D01*
X471360894Y76028291D01*
X471345765Y76005838D01*
X471323592Y75990405D01*
X471297295Y75985279D01*
G37*
G36*
X471668898Y75881500D02*
G01*
X471668898Y75951983D01*
X472125259Y75951983D01*
X472125259Y75881500D01*
X471668898Y75881500D01*
G37*
G36*
X472268661Y75881500D02*
G01*
X472268661Y75951983D01*
X472725022Y75951983D01*
X472725022Y75881500D01*
X472268661Y75881500D01*
G37*
G36*
X473096583Y75985279D02*
G01*
X473071071Y75990339D01*
X473048583Y76005838D01*
X473033084Y76028327D01*
X473028024Y76053838D01*
X473033150Y76080136D01*
X473048583Y76102308D01*
X473071035Y76117438D01*
X473096583Y76122397D01*
X473122917Y76117373D01*
X473145053Y76102308D01*
X473160117Y76080172D01*
X473165142Y76053838D01*
X473160183Y76028291D01*
X473145053Y76005838D01*
X473122880Y75990405D01*
X473096583Y75985279D01*
G37*
G36*
X473468186Y75881500D02*
G01*
X473468186Y75951983D01*
X473924548Y75951983D01*
X473924548Y75881500D01*
X473468186Y75881500D01*
G37*
G36*
X474067949Y75881500D02*
G01*
X474067949Y75951983D01*
X474524310Y75951983D01*
X474524310Y75881500D01*
X474067949Y75881500D01*
G37*
G36*
X483664153Y75881500D02*
G01*
X483664153Y75951983D01*
X484120514Y75951983D01*
X484120514Y75881500D01*
X483664153Y75881500D01*
G37*
G36*
X484263915Y75881500D02*
G01*
X484263915Y75951983D01*
X484720277Y75951983D01*
X484720277Y75881500D01*
X484263915Y75881500D01*
G37*
G36*
X484863678Y75881500D02*
G01*
X484863678Y75951983D01*
X485320040Y75951983D01*
X485320040Y75881500D01*
X484863678Y75881500D01*
G37*
G36*
X485463441Y75881500D02*
G01*
X485463441Y75951983D01*
X485919802Y75951983D01*
X485919802Y75881500D01*
X485463441Y75881500D01*
G37*
G36*
X486063203Y75881500D02*
G01*
X486063203Y75951983D01*
X486519565Y75951983D01*
X486519565Y75881500D01*
X486063203Y75881500D01*
G37*
G36*
X486662966Y75881500D02*
G01*
X486662966Y75951983D01*
X487119328Y75951983D01*
X487119328Y75881500D01*
X486662966Y75881500D01*
G37*
G36*
X487262729Y75881500D02*
G01*
X487262729Y75951983D01*
X487719091Y75951983D01*
X487719091Y75881500D01*
X487262729Y75881500D01*
G37*
G36*
X487862492Y75881500D02*
G01*
X487862492Y75951983D01*
X488318853Y75951983D01*
X488318853Y75881500D01*
X487862492Y75881500D01*
G37*
G36*
X488462254Y75881500D02*
G01*
X488462254Y75951983D01*
X488918616Y75951983D01*
X488918616Y75881500D01*
X488462254Y75881500D01*
G37*
G36*
X489062017Y75881500D02*
G01*
X489062017Y75951983D01*
X489518379Y75951983D01*
X489518379Y75881500D01*
X489062017Y75881500D01*
G37*
G36*
X490261543Y75881500D02*
G01*
X490261543Y75951983D01*
X490717904Y75951983D01*
X490717904Y75881500D01*
X490261543Y75881500D01*
G37*
G36*
X490861305Y75881500D02*
G01*
X490861305Y75951983D01*
X491317667Y75951983D01*
X491317667Y75881500D01*
X490861305Y75881500D01*
G37*
G36*
X491461068Y75881500D02*
G01*
X491461068Y75951983D01*
X491917430Y75951983D01*
X491917430Y75881500D01*
X491461068Y75881500D01*
G37*
G36*
X492060831Y75881500D02*
G01*
X492060831Y75951983D01*
X492517192Y75951983D01*
X492517192Y75881500D01*
X492060831Y75881500D01*
G37*
G36*
X492660594Y75881500D02*
G01*
X492660594Y75951983D01*
X493116955Y75951983D01*
X493116955Y75881500D01*
X492660594Y75881500D01*
G37*
G36*
X493260356Y75881500D02*
G01*
X493260356Y75951983D01*
X493716718Y75951983D01*
X493716718Y75881500D01*
X493260356Y75881500D01*
G37*
G36*
X494459882Y75881500D02*
G01*
X494459882Y75951983D01*
X494916243Y75951983D01*
X494916243Y75881500D01*
X494459882Y75881500D01*
G37*
G36*
X495059644Y75881500D02*
G01*
X495059644Y75951983D01*
X495516006Y75951983D01*
X495516006Y75881500D01*
X495059644Y75881500D01*
G37*
G36*
X495659407Y75881500D02*
G01*
X495659407Y75951983D01*
X496115769Y75951983D01*
X496115769Y75881500D01*
X495659407Y75881500D01*
G37*
G36*
X496259170Y75881500D02*
G01*
X496259170Y75951983D01*
X496715532Y75951983D01*
X496715532Y75881500D01*
X496259170Y75881500D01*
G37*
G36*
X496858933Y75881500D02*
G01*
X496858933Y75951983D01*
X497315294Y75951983D01*
X497315294Y75881500D01*
X496858933Y75881500D01*
G37*
G36*
X497458695Y75881500D02*
G01*
X497458695Y75951983D01*
X497915057Y75951983D01*
X497915057Y75881500D01*
X497458695Y75881500D01*
G37*
G36*
X498058458Y75881500D02*
G01*
X498058458Y75951983D01*
X498514820Y75951983D01*
X498514820Y75881500D01*
X498058458Y75881500D01*
G37*
G36*
X465407378Y74719178D02*
G01*
X465122414Y75590783D01*
X465190973Y75612325D01*
X465476920Y74740720D01*
X465407378Y74719178D01*
G37*
G36*
X465671270Y74705500D02*
G01*
X465671270Y74775983D01*
X466127632Y74775983D01*
X466127632Y74705500D01*
X465671270Y74705500D01*
G37*
G36*
X466271033Y74705500D02*
G01*
X466271033Y74775983D01*
X466727395Y74775983D01*
X466727395Y74705500D01*
X466271033Y74705500D01*
G37*
G36*
X466870796Y74705500D02*
G01*
X466870796Y74775983D01*
X467327158Y74775983D01*
X467327158Y74705500D01*
X466870796Y74705500D01*
G37*
G36*
X467470559Y74705500D02*
G01*
X467470559Y74775983D01*
X467926920Y74775983D01*
X467926920Y74705500D01*
X467470559Y74705500D01*
G37*
G36*
X470589821Y74719178D02*
G01*
X470520279Y74740720D01*
X470806226Y75612325D01*
X470874785Y75590783D01*
X470589821Y74719178D01*
G37*
G36*
X471262032Y74670238D02*
G01*
X471262032Y75661308D01*
X471332557Y75661308D01*
X471332557Y74670238D01*
X471262032Y74670238D01*
G37*
G36*
X471668898Y74705500D02*
G01*
X471668898Y74775983D01*
X472125259Y74775983D01*
X472125259Y74705500D01*
X471668898Y74705500D01*
G37*
G36*
X472268661Y74705500D02*
G01*
X472268661Y74775983D01*
X472725022Y74775983D01*
X472725022Y74705500D01*
X472268661Y74705500D01*
G37*
G36*
X473061320Y74670238D02*
G01*
X473061320Y75661308D01*
X473131845Y75661308D01*
X473131845Y74670238D01*
X473061320Y74670238D01*
G37*
G36*
X474860608Y74670238D02*
G01*
X474860608Y75661308D01*
X474931133Y75661308D01*
X474931133Y74670238D01*
X474860608Y74670238D01*
G37*
G36*
X477066762Y74705500D02*
G01*
X477066762Y74775983D01*
X477523124Y74775983D01*
X477523124Y74705500D01*
X477066762Y74705500D01*
G37*
G36*
X477666525Y74705500D02*
G01*
X477666525Y74775983D01*
X478122887Y74775983D01*
X478122887Y74705500D01*
X477666525Y74705500D01*
G37*
G36*
X478266288Y74705500D02*
G01*
X478266288Y74775983D01*
X478722650Y74775983D01*
X478722650Y74705500D01*
X478266288Y74705500D01*
G37*
G36*
X478866051Y74705500D02*
G01*
X478866051Y74775983D01*
X479322412Y74775983D01*
X479322412Y74705500D01*
X478866051Y74705500D01*
G37*
G36*
X481265102Y74705500D02*
G01*
X481265102Y74775983D01*
X481721463Y74775983D01*
X481721463Y74705500D01*
X481265102Y74705500D01*
G37*
G36*
X481864864Y74705500D02*
G01*
X481864864Y74775983D01*
X482321226Y74775983D01*
X482321226Y74705500D01*
X481864864Y74705500D01*
G37*
G36*
X482464627Y74705500D02*
G01*
X482464627Y74775983D01*
X482920989Y74775983D01*
X482920989Y74705500D01*
X482464627Y74705500D01*
G37*
G36*
X483064390Y74705500D02*
G01*
X483064390Y74775983D01*
X483520751Y74775983D01*
X483520751Y74705500D01*
X483064390Y74705500D01*
G37*
G36*
X484000023Y74719178D02*
G01*
X483715059Y75590783D01*
X483783618Y75612325D01*
X484069565Y74740720D01*
X484000023Y74719178D01*
G37*
G36*
X484263915Y74705500D02*
G01*
X484263915Y74775983D01*
X484720277Y74775983D01*
X484720277Y74705500D01*
X484263915Y74705500D01*
G37*
G36*
X484863678Y74705500D02*
G01*
X484863678Y74775983D01*
X485320040Y74775983D01*
X485320040Y74705500D01*
X484863678Y74705500D01*
G37*
G36*
X485463441Y74705500D02*
G01*
X485463441Y74775983D01*
X485919802Y74775983D01*
X485919802Y74705500D01*
X485463441Y74705500D01*
G37*
G36*
X486063203Y74705500D02*
G01*
X486063203Y74775983D01*
X486519565Y74775983D01*
X486519565Y74705500D01*
X486063203Y74705500D01*
G37*
G36*
X489182465Y74719178D02*
G01*
X489112923Y74740720D01*
X489398871Y75612325D01*
X489467430Y75590783D01*
X489182465Y74719178D01*
G37*
G36*
X489782228Y74719178D02*
G01*
X489712686Y74740720D01*
X489998633Y75612325D01*
X490067192Y75590783D01*
X489782228Y74719178D01*
G37*
G36*
X491461068Y74705500D02*
G01*
X491461068Y74775983D01*
X491917430Y74775983D01*
X491917430Y74705500D01*
X491461068Y74705500D01*
G37*
G36*
X492060831Y74705500D02*
G01*
X492060831Y74775983D01*
X492517192Y74775983D01*
X492517192Y74705500D01*
X492060831Y74705500D01*
G37*
G36*
X494195990Y74719178D02*
G01*
X493911025Y75590783D01*
X493979584Y75612325D01*
X494265532Y74740720D01*
X494195990Y74719178D01*
G37*
G36*
X494795752Y74719178D02*
G01*
X494510788Y75590783D01*
X494579347Y75612325D01*
X494865294Y74740720D01*
X494795752Y74719178D01*
G37*
G36*
X496858933Y74705500D02*
G01*
X496858933Y74775983D01*
X497315294Y74775983D01*
X497315294Y74705500D01*
X496858933Y74705500D01*
G37*
G36*
X498994091Y74719178D02*
G01*
X498709127Y75590783D01*
X498777686Y75612325D01*
X499063633Y74740720D01*
X498994091Y74719178D01*
G37*
G36*
X466391482Y73543178D02*
G01*
X466321939Y73564720D01*
X466607887Y74436325D01*
X466676446Y74414783D01*
X466391482Y73543178D01*
G37*
G36*
X469990058Y73543178D02*
G01*
X469920516Y73564720D01*
X470206463Y74436325D01*
X470275022Y74414783D01*
X469990058Y73543178D01*
G37*
G36*
X471262032Y73494238D02*
G01*
X471262032Y74485308D01*
X471332557Y74485308D01*
X471332557Y73494238D01*
X471262032Y73494238D01*
G37*
G36*
X473061320Y73494238D02*
G01*
X473061320Y74485308D01*
X473131845Y74485308D01*
X473131845Y73494238D01*
X473061320Y73494238D01*
G37*
G36*
X474860608Y73494238D02*
G01*
X474860608Y74485308D01*
X474931133Y74485308D01*
X474931133Y73494238D01*
X474860608Y73494238D01*
G37*
G36*
X476587448Y73543178D02*
G01*
X476517906Y73564720D01*
X476803853Y74436325D01*
X476872412Y74414783D01*
X476587448Y73543178D01*
G37*
G36*
X478266288Y73529500D02*
G01*
X478266288Y73599983D01*
X478722650Y73599983D01*
X478722650Y73529500D01*
X478266288Y73529500D01*
G37*
G36*
X479801684Y73543178D02*
G01*
X479516720Y74414783D01*
X479585279Y74436325D01*
X479871226Y73564720D01*
X479801684Y73543178D01*
G37*
G36*
X480785787Y73543178D02*
G01*
X480716245Y73564720D01*
X481002192Y74436325D01*
X481070751Y74414783D01*
X480785787Y73543178D01*
G37*
G36*
X481864864Y73529500D02*
G01*
X481864864Y73599983D01*
X482321226Y73599983D01*
X482321226Y73529500D01*
X481864864Y73529500D01*
G37*
G36*
X482464627Y73529500D02*
G01*
X482464627Y73599983D01*
X482920989Y73599983D01*
X482920989Y73529500D01*
X482464627Y73529500D01*
G37*
G36*
X483064390Y73529500D02*
G01*
X483064390Y73599983D01*
X483520751Y73599983D01*
X483520751Y73529500D01*
X483064390Y73529500D01*
G37*
G36*
X484000023Y73543178D02*
G01*
X483715059Y74414783D01*
X483783618Y74436325D01*
X484069565Y73564720D01*
X484000023Y73543178D01*
G37*
G36*
X484984126Y73543178D02*
G01*
X484914584Y73564720D01*
X485200532Y74436325D01*
X485269091Y74414783D01*
X484984126Y73543178D01*
G37*
G36*
X488582703Y73543178D02*
G01*
X488513161Y73564720D01*
X488799108Y74436325D01*
X488867667Y74414783D01*
X488582703Y73543178D01*
G37*
G36*
X489685245Y73774329D02*
G01*
X489685245Y73856566D01*
X490065226Y73983896D01*
X490065226Y73995650D01*
X489685245Y74122937D01*
X489685245Y74205217D01*
X490094633Y74064209D01*
X490094633Y73915337D01*
X489685245Y73774329D01*
G37*
G36*
X494292972Y73774329D02*
G01*
X493883585Y73915337D01*
X493883585Y74064209D01*
X494292972Y74205217D01*
X494292972Y74122937D01*
X493912991Y73995650D01*
X493912991Y73983896D01*
X494292972Y73856566D01*
X494292972Y73774329D01*
G37*
G36*
X494580330Y73543178D02*
G01*
X494510788Y73564720D01*
X494796735Y74436325D01*
X494865294Y74414783D01*
X494580330Y73543178D01*
G37*
G36*
X496379618Y73543178D02*
G01*
X496310076Y73564720D01*
X496596024Y74436325D01*
X496664583Y74414783D01*
X496379618Y73543178D01*
G37*
G36*
X496858933Y73529500D02*
G01*
X496858933Y73599983D01*
X497315294Y73599983D01*
X497315294Y73529500D01*
X496858933Y73529500D01*
G37*
G36*
X497794566Y73543178D02*
G01*
X497509602Y74414783D01*
X497578161Y74436325D01*
X497864108Y73564720D01*
X497794566Y73543178D01*
G37*
G36*
X499593854Y73543178D02*
G01*
X499308890Y74414783D01*
X499377449Y74436325D01*
X499663396Y73564720D01*
X499593854Y73543178D01*
G37*
G36*
X465791719Y72367178D02*
G01*
X465722177Y72388720D01*
X466008124Y73260325D01*
X466076683Y73238783D01*
X465791719Y72367178D01*
G37*
G36*
X469390295Y72367178D02*
G01*
X469320753Y72388720D01*
X469606700Y73260325D01*
X469675259Y73238783D01*
X469390295Y72367178D01*
G37*
G36*
X469869610Y72353500D02*
G01*
X469869610Y72423983D01*
X470325971Y72423983D01*
X470325971Y72353500D01*
X469869610Y72353500D01*
G37*
G36*
X471262032Y72318238D02*
G01*
X471262032Y73309308D01*
X471332557Y73309308D01*
X471332557Y72318238D01*
X471262032Y72318238D01*
G37*
G36*
X473061320Y72318238D02*
G01*
X473061320Y73309308D01*
X473131845Y73309308D01*
X473131845Y72318238D01*
X473061320Y72318238D01*
G37*
G36*
X474860608Y72318238D02*
G01*
X474860608Y73309308D01*
X474931133Y73309308D01*
X474931133Y72318238D01*
X474860608Y72318238D01*
G37*
G36*
X475267474Y72353500D02*
G01*
X475267474Y72423983D01*
X475723836Y72423983D01*
X475723836Y72353500D01*
X475267474Y72353500D01*
G37*
G36*
X476295175Y72318238D02*
G01*
X476249974Y72321094D01*
X476206513Y72329581D01*
X476164426Y72343712D01*
X476124560Y72363186D01*
X476087767Y72387735D01*
X476053765Y72417614D01*
X476024027Y72451752D01*
X475998407Y72490744D01*
X475976871Y72535113D01*
X475961386Y72581953D01*
X475951804Y72633463D01*
X475948490Y72690354D01*
X475948490Y72937149D01*
X475951824Y72994705D01*
X475961425Y73046347D01*
X475976871Y73092860D01*
X475998384Y73136924D01*
X476024001Y73175768D01*
X476053765Y73209889D01*
X476087766Y73239772D01*
X476124558Y73264335D01*
X476164426Y73283834D01*
X476206513Y73297965D01*
X476249974Y73306452D01*
X476295175Y73309308D01*
X476330437Y73309308D01*
X476330437Y73236817D01*
X476295175Y73236817D01*
X476249154Y73232740D01*
X476205310Y73220588D01*
X476162972Y73200101D01*
X476124870Y73172495D01*
X476091667Y73137830D01*
X476063083Y73095296D01*
X476042346Y73048514D01*
X476029408Y72994933D01*
X476024871Y72933217D01*
X476024871Y72694286D01*
X476029408Y72632570D01*
X476042346Y72578989D01*
X476063083Y72532207D01*
X476091665Y72489700D01*
X476124867Y72455048D01*
X476162972Y72427445D01*
X476205313Y72406933D01*
X476249156Y72394768D01*
X476295175Y72390686D01*
X476330437Y72390686D01*
X476330437Y72318238D01*
X476295175Y72318238D01*
G37*
G36*
X478099378Y72598329D02*
G01*
X477689991Y72739337D01*
X477689991Y72888209D01*
X478099378Y73029217D01*
X478099378Y72946937D01*
X477719398Y72819650D01*
X477719398Y72807896D01*
X478099378Y72680566D01*
X478099378Y72598329D01*
G37*
G36*
X478266288Y72353500D02*
G01*
X478266288Y72423983D01*
X478722650Y72423983D01*
X478722650Y72353500D01*
X478266288Y72353500D01*
G37*
G36*
X478889516Y72598329D02*
G01*
X478889516Y72680566D01*
X479269497Y72807896D01*
X479269497Y72819650D01*
X478889516Y72946937D01*
X478889516Y73029217D01*
X479298904Y72888209D01*
X479298904Y72739337D01*
X478889516Y72598329D01*
G37*
G36*
X480058695Y72318238D02*
G01*
X480058695Y72390686D01*
X480093957Y72390686D01*
X480139976Y72394768D01*
X480183819Y72406933D01*
X480226160Y72427445D01*
X480264288Y72455053D01*
X480297490Y72489705D01*
X480326049Y72532207D01*
X480346786Y72578989D01*
X480359724Y72632570D01*
X480364261Y72694286D01*
X480364261Y72933217D01*
X480359724Y72994933D01*
X480346786Y73048514D01*
X480326049Y73095296D01*
X480297488Y73137825D01*
X480264286Y73172491D01*
X480226160Y73200101D01*
X480183821Y73220588D01*
X480139978Y73232740D01*
X480093957Y73236817D01*
X480058695Y73236817D01*
X480058695Y73309308D01*
X480093957Y73309308D01*
X480139158Y73306452D01*
X480182619Y73297965D01*
X480224706Y73283834D01*
X480264573Y73264335D01*
X480301366Y73239772D01*
X480335367Y73209889D01*
X480365127Y73175766D01*
X480390730Y73136923D01*
X480412218Y73092860D01*
X480427688Y73046345D01*
X480437303Y72994703D01*
X480440642Y72937149D01*
X480440642Y72690354D01*
X480437323Y72633465D01*
X480427727Y72581955D01*
X480412218Y72535113D01*
X480390707Y72490745D01*
X480365101Y72451753D01*
X480335367Y72417614D01*
X480301365Y72387735D01*
X480264572Y72363186D01*
X480224706Y72343712D01*
X480182619Y72329581D01*
X480139158Y72321094D01*
X480093957Y72318238D01*
X480058695Y72318238D01*
G37*
G36*
X481385550Y72367178D02*
G01*
X481316008Y72388720D01*
X481601955Y73260325D01*
X481670514Y73238783D01*
X481385550Y72367178D01*
G37*
G36*
X481864864Y72353500D02*
G01*
X481864864Y72423983D01*
X482321226Y72423983D01*
X482321226Y72353500D01*
X481864864Y72353500D01*
G37*
G36*
X482585075Y72367178D02*
G01*
X482515533Y72388720D01*
X482801481Y73260325D01*
X482870040Y73238783D01*
X482585075Y72367178D01*
G37*
G36*
X484287381Y72598329D02*
G01*
X484287381Y72680566D01*
X484667362Y72807896D01*
X484667362Y72819650D01*
X484287381Y72946937D01*
X484287381Y73029217D01*
X484696769Y72888209D01*
X484696769Y72739337D01*
X484287381Y72598329D01*
G37*
G36*
X487982940Y72367178D02*
G01*
X487913398Y72388720D01*
X488199345Y73260325D01*
X488267904Y73238783D01*
X487982940Y72367178D01*
G37*
G36*
X488462254Y72353500D02*
G01*
X488462254Y72423983D01*
X488918616Y72423983D01*
X488918616Y72353500D01*
X488462254Y72353500D01*
G37*
G36*
X489182465Y72367178D02*
G01*
X489112923Y72388720D01*
X489398871Y73260325D01*
X489467430Y73238783D01*
X489182465Y72367178D01*
G37*
G36*
X491542322Y72690354D02*
G01*
X491542322Y72760879D01*
X491836133Y72760879D01*
X491836133Y72690354D01*
X491542322Y72690354D01*
G37*
G36*
X492142084Y72690354D02*
G01*
X492142084Y72760879D01*
X492435896Y72760879D01*
X492435896Y72690354D01*
X492142084Y72690354D01*
G37*
G36*
X494795752Y72367178D02*
G01*
X494510788Y73238783D01*
X494579347Y73260325D01*
X494865294Y72388720D01*
X494795752Y72367178D01*
G37*
G36*
X496595040Y72367178D02*
G01*
X496310076Y73238783D01*
X496378635Y73260325D01*
X496664583Y72388720D01*
X496595040Y72367178D01*
G37*
G36*
X496858933Y72353500D02*
G01*
X496858933Y72423983D01*
X497315294Y72423983D01*
X497315294Y72353500D01*
X496858933Y72353500D01*
G37*
G36*
X497579144Y72367178D02*
G01*
X497509602Y72388720D01*
X497795549Y73260325D01*
X497864108Y73238783D01*
X497579144Y72367178D01*
G37*
G36*
X500193617Y72367178D02*
G01*
X499908653Y73238783D01*
X499977212Y73260325D01*
X500263159Y72388720D01*
X500193617Y72367178D01*
G37*
G36*
X465191956Y71191178D02*
G01*
X465122414Y71212720D01*
X465408361Y72084325D01*
X465476920Y72062783D01*
X465191956Y71191178D01*
G37*
G36*
X465671270Y71177500D02*
G01*
X465671270Y71247983D01*
X466127632Y71247983D01*
X466127632Y71177500D01*
X465671270Y71177500D01*
G37*
G36*
X466271033Y71177500D02*
G01*
X466271033Y71247983D01*
X466727395Y71247983D01*
X466727395Y71177500D01*
X466271033Y71177500D01*
G37*
G36*
X466870796Y71177500D02*
G01*
X466870796Y71247983D01*
X467327158Y71247983D01*
X467327158Y71177500D01*
X466870796Y71177500D01*
G37*
G36*
X467470559Y71177500D02*
G01*
X467470559Y71247983D01*
X467926920Y71247983D01*
X467926920Y71177500D01*
X467470559Y71177500D01*
G37*
G36*
X468070321Y71177500D02*
G01*
X468070321Y71247983D01*
X468526683Y71247983D01*
X468526683Y71177500D01*
X468070321Y71177500D01*
G37*
G36*
X468670084Y71177500D02*
G01*
X468670084Y71247983D01*
X469126446Y71247983D01*
X469126446Y71177500D01*
X468670084Y71177500D01*
G37*
G36*
X469269847Y71177500D02*
G01*
X469269847Y71247983D01*
X469726209Y71247983D01*
X469726209Y71177500D01*
X469269847Y71177500D01*
G37*
G36*
X470805243Y71191178D02*
G01*
X470520279Y72062783D01*
X470588838Y72084325D01*
X470874785Y71212720D01*
X470805243Y71191178D01*
G37*
G36*
X471262032Y71142238D02*
G01*
X471262032Y72133308D01*
X471332557Y72133308D01*
X471332557Y71142238D01*
X471262032Y71142238D01*
G37*
G36*
X471668898Y71177500D02*
G01*
X471668898Y71247983D01*
X472125259Y71247983D01*
X472125259Y71177500D01*
X471668898Y71177500D01*
G37*
G36*
X472268661Y71177500D02*
G01*
X472268661Y71247983D01*
X472725022Y71247983D01*
X472725022Y71177500D01*
X472268661Y71177500D01*
G37*
G36*
X473061320Y71142238D02*
G01*
X473061320Y72133308D01*
X473131845Y72133308D01*
X473131845Y71142238D01*
X473061320Y71142238D01*
G37*
G36*
X473468186Y71177500D02*
G01*
X473468186Y71247983D01*
X473924548Y71247983D01*
X473924548Y71177500D01*
X473468186Y71177500D01*
G37*
G36*
X474067949Y71177500D02*
G01*
X474067949Y71247983D01*
X474524310Y71247983D01*
X474524310Y71177500D01*
X474067949Y71177500D01*
G37*
G36*
X474667711Y71177500D02*
G01*
X474667711Y71247983D01*
X475124073Y71247983D01*
X475124073Y71177500D01*
X474667711Y71177500D01*
G37*
G36*
X475267474Y71177500D02*
G01*
X475267474Y71247983D01*
X475723836Y71247983D01*
X475723836Y71177500D01*
X475267474Y71177500D01*
G37*
G36*
X475987685Y71191178D02*
G01*
X475918143Y71212720D01*
X476204091Y72084325D01*
X476272650Y72062783D01*
X475987685Y71191178D01*
G37*
G36*
X476802870Y71191178D02*
G01*
X476517906Y72062783D01*
X476586465Y72084325D01*
X476872412Y71212720D01*
X476802870Y71191178D01*
G37*
G36*
X477066762Y71177500D02*
G01*
X477066762Y71247983D01*
X477523124Y71247983D01*
X477523124Y71177500D01*
X477066762Y71177500D01*
G37*
G36*
X477666525Y71177500D02*
G01*
X477666525Y71247983D01*
X478122887Y71247983D01*
X478122887Y71177500D01*
X477666525Y71177500D01*
G37*
G36*
X478266288Y71177500D02*
G01*
X478266288Y71247983D01*
X478722650Y71247983D01*
X478722650Y71177500D01*
X478266288Y71177500D01*
G37*
G36*
X478866051Y71177500D02*
G01*
X478866051Y71247983D01*
X479322412Y71247983D01*
X479322412Y71177500D01*
X478866051Y71177500D01*
G37*
G36*
X479586262Y71191178D02*
G01*
X479516720Y71212720D01*
X479802667Y72084325D01*
X479871226Y72062783D01*
X479586262Y71191178D01*
G37*
G36*
X480401447Y71191178D02*
G01*
X480116482Y72062783D01*
X480185041Y72084325D01*
X480470989Y71212720D01*
X480401447Y71191178D01*
G37*
G36*
X480665339Y71177500D02*
G01*
X480665339Y71247983D01*
X481121700Y71247983D01*
X481121700Y71177500D01*
X480665339Y71177500D01*
G37*
G36*
X481265102Y71177500D02*
G01*
X481265102Y71247983D01*
X481721463Y71247983D01*
X481721463Y71177500D01*
X481265102Y71177500D01*
G37*
G36*
X481864864Y71177500D02*
G01*
X481864864Y71247983D01*
X482321226Y71247983D01*
X482321226Y71177500D01*
X481864864Y71177500D01*
G37*
G36*
X483784601Y71191178D02*
G01*
X483715059Y71212720D01*
X484001006Y72084325D01*
X484069565Y72062783D01*
X483784601Y71191178D01*
G37*
G36*
X484263915Y71177500D02*
G01*
X484263915Y71247983D01*
X484720277Y71247983D01*
X484720277Y71177500D01*
X484263915Y71177500D01*
G37*
G36*
X484863678Y71177500D02*
G01*
X484863678Y71247983D01*
X485320040Y71247983D01*
X485320040Y71177500D01*
X484863678Y71177500D01*
G37*
G36*
X485463441Y71177500D02*
G01*
X485463441Y71247983D01*
X485919802Y71247983D01*
X485919802Y71177500D01*
X485463441Y71177500D01*
G37*
G36*
X486063203Y71177500D02*
G01*
X486063203Y71247983D01*
X486519565Y71247983D01*
X486519565Y71177500D01*
X486063203Y71177500D01*
G37*
G36*
X486662966Y71177500D02*
G01*
X486662966Y71247983D01*
X487119328Y71247983D01*
X487119328Y71177500D01*
X486662966Y71177500D01*
G37*
G36*
X487262729Y71177500D02*
G01*
X487262729Y71247983D01*
X487719091Y71247983D01*
X487719091Y71177500D01*
X487262729Y71177500D01*
G37*
G36*
X487862492Y71177500D02*
G01*
X487862492Y71247983D01*
X488318853Y71247983D01*
X488318853Y71177500D01*
X487862492Y71177500D01*
G37*
G36*
X489397888Y71191178D02*
G01*
X489112923Y72062783D01*
X489181482Y72084325D01*
X489467430Y71212720D01*
X489397888Y71191178D01*
G37*
G36*
X489661780Y71177500D02*
G01*
X489661780Y71247983D01*
X490118142Y71247983D01*
X490118142Y71177500D01*
X489661780Y71177500D01*
G37*
G36*
X490261543Y71177500D02*
G01*
X490261543Y71247983D01*
X490717904Y71247983D01*
X490717904Y71177500D01*
X490261543Y71177500D01*
G37*
G36*
X490861305Y71177500D02*
G01*
X490861305Y71247983D01*
X491317667Y71247983D01*
X491317667Y71177500D01*
X490861305Y71177500D01*
G37*
G36*
X491461068Y71177500D02*
G01*
X491461068Y71247983D01*
X491917430Y71247983D01*
X491917430Y71177500D01*
X491461068Y71177500D01*
G37*
G36*
X492060831Y71177500D02*
G01*
X492060831Y71247983D01*
X492517192Y71247983D01*
X492517192Y71177500D01*
X492060831Y71177500D01*
G37*
G36*
X492660594Y71177500D02*
G01*
X492660594Y71247983D01*
X493116955Y71247983D01*
X493116955Y71177500D01*
X492660594Y71177500D01*
G37*
G36*
X494580330Y71191178D02*
G01*
X494510788Y71212720D01*
X494796735Y72084325D01*
X494865294Y72062783D01*
X494580330Y71191178D01*
G37*
G36*
X495395515Y71191178D02*
G01*
X495110551Y72062783D01*
X495179110Y72084325D01*
X495465057Y71212720D01*
X495395515Y71191178D01*
G37*
G36*
X495659407Y71177500D02*
G01*
X495659407Y71247983D01*
X496115769Y71247983D01*
X496115769Y71177500D01*
X495659407Y71177500D01*
G37*
G36*
X496259170Y71177500D02*
G01*
X496259170Y71247983D01*
X496715532Y71247983D01*
X496715532Y71177500D01*
X496259170Y71177500D01*
G37*
G36*
X496858933Y71177500D02*
G01*
X496858933Y71247983D01*
X497315294Y71247983D01*
X497315294Y71177500D01*
X496858933Y71177500D01*
G37*
G36*
X497458695Y71177500D02*
G01*
X497458695Y71247983D01*
X497915057Y71247983D01*
X497915057Y71177500D01*
X497458695Y71177500D01*
G37*
G36*
X498058458Y71177500D02*
G01*
X498058458Y71247983D01*
X498514820Y71247983D01*
X498514820Y71177500D01*
X498058458Y71177500D01*
G37*
G36*
X499978195Y71191178D02*
G01*
X499908653Y71212720D01*
X500194600Y72084325D01*
X500263159Y72062783D01*
X499978195Y71191178D01*
G37*
G36*
X470205480Y70015178D02*
G01*
X469920516Y70886783D01*
X469989075Y70908325D01*
X470275022Y70036720D01*
X470205480Y70015178D01*
G37*
G36*
X470589821Y70015178D02*
G01*
X470520279Y70036720D01*
X470806226Y70908325D01*
X470874785Y70886783D01*
X470589821Y70015178D01*
G37*
G36*
X479586262Y70015178D02*
G01*
X479516720Y70036720D01*
X479802667Y70908325D01*
X479871226Y70886783D01*
X479586262Y70015178D01*
G37*
G36*
X480065576Y70001500D02*
G01*
X480065576Y70071983D01*
X480521938Y70071983D01*
X480521938Y70001500D01*
X480065576Y70001500D01*
G37*
G36*
X480665339Y70001500D02*
G01*
X480665339Y70071983D01*
X481121700Y70071983D01*
X481121700Y70001500D01*
X480665339Y70001500D01*
G37*
G36*
X481265102Y70001500D02*
G01*
X481265102Y70071983D01*
X481721463Y70071983D01*
X481721463Y70001500D01*
X481265102Y70001500D01*
G37*
G36*
X481864864Y70001500D02*
G01*
X481864864Y70071983D01*
X482321226Y70071983D01*
X482321226Y70001500D01*
X481864864Y70001500D01*
G37*
G36*
X482464627Y70001500D02*
G01*
X482464627Y70071983D01*
X482920989Y70071983D01*
X482920989Y70001500D01*
X482464627Y70001500D01*
G37*
G36*
X483184838Y70015178D02*
G01*
X483115296Y70036720D01*
X483401243Y70908325D01*
X483469802Y70886783D01*
X483184838Y70015178D01*
G37*
G36*
X488798125Y70015178D02*
G01*
X488513161Y70886783D01*
X488581720Y70908325D01*
X488867667Y70036720D01*
X488798125Y70015178D01*
G37*
G36*
X489182465Y70015178D02*
G01*
X489112923Y70036720D01*
X489398871Y70908325D01*
X489467430Y70886783D01*
X489182465Y70015178D01*
G37*
G36*
X493596227Y70015178D02*
G01*
X493311263Y70886783D01*
X493379822Y70908325D01*
X493665769Y70036720D01*
X493596227Y70015178D01*
G37*
G36*
X493980567Y70015178D02*
G01*
X493911025Y70036720D01*
X494196973Y70908325D01*
X494265532Y70886783D01*
X493980567Y70015178D01*
G37*
G36*
X498994091Y70015178D02*
G01*
X498709127Y70886783D01*
X498777686Y70908325D01*
X499063633Y70036720D01*
X498994091Y70015178D01*
G37*
G36*
X499378432Y70015178D02*
G01*
X499308890Y70036720D01*
X499594837Y70908325D01*
X499663396Y70886783D01*
X499378432Y70015178D01*
G37*
G36*
X456928491Y75881500D02*
G01*
X456928491Y75951983D01*
X456472130Y75951983D01*
X456472130Y75881500D01*
X456928491Y75881500D01*
G37*
G36*
X456328729Y75881500D02*
G01*
X456328729Y75951983D01*
X455872367Y75951983D01*
X455872367Y75881500D01*
X456328729Y75881500D01*
G37*
G36*
X455728966Y75881500D02*
G01*
X455728966Y75951983D01*
X455272604Y75951983D01*
X455272604Y75881500D01*
X455728966Y75881500D01*
G37*
G36*
X455129203Y75881500D02*
G01*
X455129203Y75951983D01*
X454672841Y75951983D01*
X454672841Y75881500D01*
X455129203Y75881500D01*
G37*
G36*
X454529440Y75881500D02*
G01*
X454529440Y75951983D01*
X454073079Y75951983D01*
X454073079Y75881500D01*
X454529440Y75881500D01*
G37*
G36*
X453929678Y75881500D02*
G01*
X453929678Y75951983D01*
X453473316Y75951983D01*
X453473316Y75881500D01*
X453929678Y75881500D01*
G37*
G36*
X453329915Y75881500D02*
G01*
X453329915Y75951983D01*
X452873553Y75951983D01*
X452873553Y75881500D01*
X453329915Y75881500D01*
G37*
G36*
X452730152Y75881500D02*
G01*
X452730152Y75951983D01*
X452273790Y75951983D01*
X452273790Y75881500D01*
X452730152Y75881500D01*
G37*
G36*
X452130389Y75881500D02*
G01*
X452130389Y75951983D01*
X451674028Y75951983D01*
X451674028Y75881500D01*
X452130389Y75881500D01*
G37*
G36*
X451530627Y75881500D02*
G01*
X451530627Y75951983D01*
X451074265Y75951983D01*
X451074265Y75881500D01*
X451530627Y75881500D01*
G37*
G36*
X450702704Y75985279D02*
G01*
X450728216Y75990339D01*
X450750704Y76005838D01*
X450766204Y76028327D01*
X450771263Y76053838D01*
X450766137Y76080136D01*
X450750704Y76102308D01*
X450728252Y76117438D01*
X450702704Y76122397D01*
X450676370Y76117373D01*
X450654234Y76102308D01*
X450639170Y76080172D01*
X450634146Y76053838D01*
X450639105Y76028291D01*
X450654234Y76005838D01*
X450676407Y75990405D01*
X450702704Y75985279D01*
G37*
G36*
X450331101Y75881500D02*
G01*
X450331101Y75951983D01*
X449874740Y75951983D01*
X449874740Y75881500D01*
X450331101Y75881500D01*
G37*
G36*
X449731338Y75881500D02*
G01*
X449731338Y75951983D01*
X449274977Y75951983D01*
X449274977Y75881500D01*
X449731338Y75881500D01*
G37*
G36*
X448903416Y75985279D02*
G01*
X448928928Y75990339D01*
X448951416Y76005838D01*
X448966915Y76028327D01*
X448971975Y76053838D01*
X448966849Y76080136D01*
X448951416Y76102308D01*
X448928964Y76117438D01*
X448903416Y76122397D01*
X448877082Y76117373D01*
X448854946Y76102308D01*
X448839882Y76080172D01*
X448834857Y76053838D01*
X448839816Y76028291D01*
X448854946Y76005838D01*
X448877119Y75990405D01*
X448903416Y75985279D01*
G37*
G36*
X448531813Y75881500D02*
G01*
X448531813Y75951983D01*
X448075451Y75951983D01*
X448075451Y75881500D01*
X448531813Y75881500D01*
G37*
G36*
X447932050Y75881500D02*
G01*
X447932050Y75951983D01*
X447475689Y75951983D01*
X447475689Y75881500D01*
X447932050Y75881500D01*
G37*
G36*
X438335846Y75881500D02*
G01*
X438335846Y75951983D01*
X437879485Y75951983D01*
X437879485Y75881500D01*
X438335846Y75881500D01*
G37*
G36*
X437736084Y75881500D02*
G01*
X437736084Y75951983D01*
X437279722Y75951983D01*
X437279722Y75881500D01*
X437736084Y75881500D01*
G37*
G36*
X437136321Y75881500D02*
G01*
X437136321Y75951983D01*
X436679959Y75951983D01*
X436679959Y75881500D01*
X437136321Y75881500D01*
G37*
G36*
X436536558Y75881500D02*
G01*
X436536558Y75951983D01*
X436080197Y75951983D01*
X436080197Y75881500D01*
X436536558Y75881500D01*
G37*
G36*
X435936796Y75881500D02*
G01*
X435936796Y75951983D01*
X435480434Y75951983D01*
X435480434Y75881500D01*
X435936796Y75881500D01*
G37*
G36*
X435337033Y75881500D02*
G01*
X435337033Y75951983D01*
X434880671Y75951983D01*
X434880671Y75881500D01*
X435337033Y75881500D01*
G37*
G36*
X434737270Y75881500D02*
G01*
X434737270Y75951983D01*
X434280908Y75951983D01*
X434280908Y75881500D01*
X434737270Y75881500D01*
G37*
G36*
X434137507Y75881500D02*
G01*
X434137507Y75951983D01*
X433681146Y75951983D01*
X433681146Y75881500D01*
X434137507Y75881500D01*
G37*
G36*
X433537745Y75881500D02*
G01*
X433537745Y75951983D01*
X433081383Y75951983D01*
X433081383Y75881500D01*
X433537745Y75881500D01*
G37*
G36*
X432937982Y75881500D02*
G01*
X432937982Y75951983D01*
X432481620Y75951983D01*
X432481620Y75881500D01*
X432937982Y75881500D01*
G37*
G36*
X431738456Y75881500D02*
G01*
X431738456Y75951983D01*
X431282095Y75951983D01*
X431282095Y75881500D01*
X431738456Y75881500D01*
G37*
G36*
X431138694Y75881500D02*
G01*
X431138694Y75951983D01*
X430682332Y75951983D01*
X430682332Y75881500D01*
X431138694Y75881500D01*
G37*
G36*
X430538931Y75881500D02*
G01*
X430538931Y75951983D01*
X430082569Y75951983D01*
X430082569Y75881500D01*
X430538931Y75881500D01*
G37*
G36*
X429939168Y75881500D02*
G01*
X429939168Y75951983D01*
X429482807Y75951983D01*
X429482807Y75881500D01*
X429939168Y75881500D01*
G37*
G36*
X429339405Y75881500D02*
G01*
X429339405Y75951983D01*
X428883044Y75951983D01*
X428883044Y75881500D01*
X429339405Y75881500D01*
G37*
G36*
X428739643Y75881500D02*
G01*
X428739643Y75951983D01*
X428283281Y75951983D01*
X428283281Y75881500D01*
X428739643Y75881500D01*
G37*
G36*
X427540117Y75881500D02*
G01*
X427540117Y75951983D01*
X427083756Y75951983D01*
X427083756Y75881500D01*
X427540117Y75881500D01*
G37*
G36*
X426940355Y75881500D02*
G01*
X426940355Y75951983D01*
X426483993Y75951983D01*
X426483993Y75881500D01*
X426940355Y75881500D01*
G37*
G36*
X426340592Y75881500D02*
G01*
X426340592Y75951983D01*
X425884230Y75951983D01*
X425884230Y75881500D01*
X426340592Y75881500D01*
G37*
G36*
X425740829Y75881500D02*
G01*
X425740829Y75951983D01*
X425284467Y75951983D01*
X425284467Y75881500D01*
X425740829Y75881500D01*
G37*
G36*
X425141066Y75881500D02*
G01*
X425141066Y75951983D01*
X424684705Y75951983D01*
X424684705Y75881500D01*
X425141066Y75881500D01*
G37*
G36*
X424541304Y75881500D02*
G01*
X424541304Y75951983D01*
X424084942Y75951983D01*
X424084942Y75881500D01*
X424541304Y75881500D01*
G37*
G36*
X423941541Y75881500D02*
G01*
X423941541Y75951983D01*
X423485179Y75951983D01*
X423485179Y75881500D01*
X423941541Y75881500D01*
G37*
G36*
X456592621Y74719178D02*
G01*
X456877585Y75590783D01*
X456809026Y75612325D01*
X456523079Y74740720D01*
X456592621Y74719178D01*
G37*
G36*
X456328729Y74705500D02*
G01*
X456328729Y74775983D01*
X455872367Y74775983D01*
X455872367Y74705500D01*
X456328729Y74705500D01*
G37*
G36*
X455728966Y74705500D02*
G01*
X455728966Y74775983D01*
X455272604Y74775983D01*
X455272604Y74705500D01*
X455728966Y74705500D01*
G37*
G36*
X455129203Y74705500D02*
G01*
X455129203Y74775983D01*
X454672841Y74775983D01*
X454672841Y74705500D01*
X455129203Y74705500D01*
G37*
G36*
X454529440Y74705500D02*
G01*
X454529440Y74775983D01*
X454073079Y74775983D01*
X454073079Y74705500D01*
X454529440Y74705500D01*
G37*
G36*
X451410178Y74719178D02*
G01*
X451479720Y74740720D01*
X451193773Y75612325D01*
X451125214Y75590783D01*
X451410178Y74719178D01*
G37*
G36*
X450737967Y74670238D02*
G01*
X450737967Y75661308D01*
X450667442Y75661308D01*
X450667442Y74670238D01*
X450737967Y74670238D01*
G37*
G36*
X450331101Y74705500D02*
G01*
X450331101Y74775983D01*
X449874740Y74775983D01*
X449874740Y74705500D01*
X450331101Y74705500D01*
G37*
G36*
X449731338Y74705500D02*
G01*
X449731338Y74775983D01*
X449274977Y74775983D01*
X449274977Y74705500D01*
X449731338Y74705500D01*
G37*
G36*
X448938679Y74670238D02*
G01*
X448938679Y75661308D01*
X448868154Y75661308D01*
X448868154Y74670238D01*
X448938679Y74670238D01*
G37*
G36*
X447139391Y74670238D02*
G01*
X447139391Y75661308D01*
X447068866Y75661308D01*
X447068866Y74670238D01*
X447139391Y74670238D01*
G37*
G36*
X444933237Y74705500D02*
G01*
X444933237Y74775983D01*
X444476875Y74775983D01*
X444476875Y74705500D01*
X444933237Y74705500D01*
G37*
G36*
X444333474Y74705500D02*
G01*
X444333474Y74775983D01*
X443877112Y74775983D01*
X443877112Y74705500D01*
X444333474Y74705500D01*
G37*
G36*
X443733711Y74705500D02*
G01*
X443733711Y74775983D01*
X443277349Y74775983D01*
X443277349Y74705500D01*
X443733711Y74705500D01*
G37*
G36*
X443133948Y74705500D02*
G01*
X443133948Y74775983D01*
X442677587Y74775983D01*
X442677587Y74705500D01*
X443133948Y74705500D01*
G37*
G36*
X440734897Y74705500D02*
G01*
X440734897Y74775983D01*
X440278536Y74775983D01*
X440278536Y74705500D01*
X440734897Y74705500D01*
G37*
G36*
X440135135Y74705500D02*
G01*
X440135135Y74775983D01*
X439678773Y74775983D01*
X439678773Y74705500D01*
X440135135Y74705500D01*
G37*
G36*
X439535372Y74705500D02*
G01*
X439535372Y74775983D01*
X439079010Y74775983D01*
X439079010Y74705500D01*
X439535372Y74705500D01*
G37*
G36*
X438935609Y74705500D02*
G01*
X438935609Y74775983D01*
X438479248Y74775983D01*
X438479248Y74705500D01*
X438935609Y74705500D01*
G37*
G36*
X437999976Y74719178D02*
G01*
X438284940Y75590783D01*
X438216381Y75612325D01*
X437930434Y74740720D01*
X437999976Y74719178D01*
G37*
G36*
X437736084Y74705500D02*
G01*
X437736084Y74775983D01*
X437279722Y74775983D01*
X437279722Y74705500D01*
X437736084Y74705500D01*
G37*
G36*
X437136321Y74705500D02*
G01*
X437136321Y74775983D01*
X436679959Y74775983D01*
X436679959Y74705500D01*
X437136321Y74705500D01*
G37*
G36*
X436536558Y74705500D02*
G01*
X436536558Y74775983D01*
X436080197Y74775983D01*
X436080197Y74705500D01*
X436536558Y74705500D01*
G37*
G36*
X435936796Y74705500D02*
G01*
X435936796Y74775983D01*
X435480434Y74775983D01*
X435480434Y74705500D01*
X435936796Y74705500D01*
G37*
G36*
X432817534Y74719178D02*
G01*
X432887076Y74740720D01*
X432601128Y75612325D01*
X432532569Y75590783D01*
X432817534Y74719178D01*
G37*
G36*
X432217771Y74719178D02*
G01*
X432287313Y74740720D01*
X432001366Y75612325D01*
X431932807Y75590783D01*
X432217771Y74719178D01*
G37*
G36*
X430538931Y74705500D02*
G01*
X430538931Y74775983D01*
X430082569Y74775983D01*
X430082569Y74705500D01*
X430538931Y74705500D01*
G37*
G36*
X429939168Y74705500D02*
G01*
X429939168Y74775983D01*
X429482807Y74775983D01*
X429482807Y74705500D01*
X429939168Y74705500D01*
G37*
G36*
X427804009Y74719178D02*
G01*
X428088974Y75590783D01*
X428020415Y75612325D01*
X427734467Y74740720D01*
X427804009Y74719178D01*
G37*
G36*
X427204247Y74719178D02*
G01*
X427489211Y75590783D01*
X427420652Y75612325D01*
X427134705Y74740720D01*
X427204247Y74719178D01*
G37*
G36*
X425141066Y74705500D02*
G01*
X425141066Y74775983D01*
X424684705Y74775983D01*
X424684705Y74705500D01*
X425141066Y74705500D01*
G37*
G36*
X423005908Y74719178D02*
G01*
X423290872Y75590783D01*
X423222313Y75612325D01*
X422936366Y74740720D01*
X423005908Y74719178D01*
G37*
G36*
X455608517Y73543178D02*
G01*
X455678060Y73564720D01*
X455392112Y74436325D01*
X455323553Y74414783D01*
X455608517Y73543178D01*
G37*
G36*
X452009941Y73543178D02*
G01*
X452079483Y73564720D01*
X451793536Y74436325D01*
X451724977Y74414783D01*
X452009941Y73543178D01*
G37*
G36*
X450737967Y73494238D02*
G01*
X450737967Y74485308D01*
X450667442Y74485308D01*
X450667442Y73494238D01*
X450737967Y73494238D01*
G37*
G36*
X448938679Y73494238D02*
G01*
X448938679Y74485308D01*
X448868154Y74485308D01*
X448868154Y73494238D01*
X448938679Y73494238D01*
G37*
G36*
X447139391Y73494238D02*
G01*
X447139391Y74485308D01*
X447068866Y74485308D01*
X447068866Y73494238D01*
X447139391Y73494238D01*
G37*
G36*
X445412551Y73543178D02*
G01*
X445482093Y73564720D01*
X445196146Y74436325D01*
X445127587Y74414783D01*
X445412551Y73543178D01*
G37*
G36*
X443733711Y73529500D02*
G01*
X443733711Y73599983D01*
X443277349Y73599983D01*
X443277349Y73529500D01*
X443733711Y73529500D01*
G37*
G36*
X442198315Y73543178D02*
G01*
X442483279Y74414783D01*
X442414720Y74436325D01*
X442128773Y73564720D01*
X442198315Y73543178D01*
G37*
G36*
X441214212Y73543178D02*
G01*
X441283754Y73564720D01*
X440997807Y74436325D01*
X440929248Y74414783D01*
X441214212Y73543178D01*
G37*
G36*
X440135135Y73529500D02*
G01*
X440135135Y73599983D01*
X439678773Y73599983D01*
X439678773Y73529500D01*
X440135135Y73529500D01*
G37*
G36*
X439535372Y73529500D02*
G01*
X439535372Y73599983D01*
X439079010Y73599983D01*
X439079010Y73529500D01*
X439535372Y73529500D01*
G37*
G36*
X438935609Y73529500D02*
G01*
X438935609Y73599983D01*
X438479248Y73599983D01*
X438479248Y73529500D01*
X438935609Y73529500D01*
G37*
G36*
X437999976Y73543178D02*
G01*
X438284940Y74414783D01*
X438216381Y74436325D01*
X437930434Y73564720D01*
X437999976Y73543178D01*
G37*
G36*
X437015873Y73543178D02*
G01*
X437085415Y73564720D01*
X436799467Y74436325D01*
X436730908Y74414783D01*
X437015873Y73543178D01*
G37*
G36*
X433417296Y73543178D02*
G01*
X433486838Y73564720D01*
X433200891Y74436325D01*
X433132332Y74414783D01*
X433417296Y73543178D01*
G37*
G36*
X432314754Y73774329D02*
G01*
X432314754Y73856566D01*
X431934773Y73983896D01*
X431934773Y73995650D01*
X432314754Y74122937D01*
X432314754Y74205217D01*
X431905366Y74064209D01*
X431905366Y73915337D01*
X432314754Y73774329D01*
G37*
G36*
X427707027Y73774329D02*
G01*
X428116414Y73915337D01*
X428116414Y74064209D01*
X427707027Y74205217D01*
X427707027Y74122937D01*
X428087008Y73995650D01*
X428087008Y73983896D01*
X427707027Y73856566D01*
X427707027Y73774329D01*
G37*
G36*
X427419669Y73543178D02*
G01*
X427489211Y73564720D01*
X427203264Y74436325D01*
X427134705Y74414783D01*
X427419669Y73543178D01*
G37*
G36*
X425620381Y73543178D02*
G01*
X425689923Y73564720D01*
X425403975Y74436325D01*
X425335416Y74414783D01*
X425620381Y73543178D01*
G37*
G36*
X425141066Y73529500D02*
G01*
X425141066Y73599983D01*
X424684705Y73599983D01*
X424684705Y73529500D01*
X425141066Y73529500D01*
G37*
G36*
X424205433Y73543178D02*
G01*
X424490397Y74414783D01*
X424421838Y74436325D01*
X424135891Y73564720D01*
X424205433Y73543178D01*
G37*
G36*
X422406145Y73543178D02*
G01*
X422691109Y74414783D01*
X422622550Y74436325D01*
X422336603Y73564720D01*
X422406145Y73543178D01*
G37*
G36*
X456208280Y72367178D02*
G01*
X456277822Y72388720D01*
X455991875Y73260325D01*
X455923316Y73238783D01*
X456208280Y72367178D01*
G37*
G36*
X452609704Y72367178D02*
G01*
X452679246Y72388720D01*
X452393299Y73260325D01*
X452324740Y73238783D01*
X452609704Y72367178D01*
G37*
G36*
X452130389Y72353500D02*
G01*
X452130389Y72423983D01*
X451674028Y72423983D01*
X451674028Y72353500D01*
X452130389Y72353500D01*
G37*
G36*
X450737967Y72318238D02*
G01*
X450737967Y73309308D01*
X450667442Y73309308D01*
X450667442Y72318238D01*
X450737967Y72318238D01*
G37*
G36*
X448938679Y72318238D02*
G01*
X448938679Y73309308D01*
X448868154Y73309308D01*
X448868154Y72318238D01*
X448938679Y72318238D01*
G37*
G36*
X447139391Y72318238D02*
G01*
X447139391Y73309308D01*
X447068866Y73309308D01*
X447068866Y72318238D01*
X447139391Y72318238D01*
G37*
G36*
X446732525Y72353500D02*
G01*
X446732525Y72423983D01*
X446276163Y72423983D01*
X446276163Y72353500D01*
X446732525Y72353500D01*
G37*
G36*
X445704824Y72318238D02*
G01*
X445750025Y72321094D01*
X445793486Y72329581D01*
X445835573Y72343712D01*
X445875439Y72363186D01*
X445912232Y72387735D01*
X445946234Y72417614D01*
X445975972Y72451752D01*
X446001592Y72490744D01*
X446023128Y72535113D01*
X446038613Y72581953D01*
X446048195Y72633463D01*
X446051509Y72690354D01*
X446051509Y72937149D01*
X446048175Y72994705D01*
X446038574Y73046347D01*
X446023128Y73092860D01*
X446001615Y73136924D01*
X445975998Y73175768D01*
X445946234Y73209889D01*
X445912233Y73239772D01*
X445875441Y73264335D01*
X445835573Y73283834D01*
X445793486Y73297965D01*
X445750025Y73306452D01*
X445704824Y73309308D01*
X445669562Y73309308D01*
X445669562Y73236817D01*
X445704824Y73236817D01*
X445750845Y73232740D01*
X445794689Y73220588D01*
X445837027Y73200101D01*
X445875129Y73172495D01*
X445908332Y73137830D01*
X445936916Y73095296D01*
X445957653Y73048514D01*
X445970591Y72994933D01*
X445975128Y72933217D01*
X445975128Y72694286D01*
X445970591Y72632570D01*
X445957653Y72578989D01*
X445936916Y72532207D01*
X445908334Y72489700D01*
X445875132Y72455048D01*
X445837027Y72427445D01*
X445794686Y72406933D01*
X445750843Y72394768D01*
X445704824Y72390686D01*
X445669562Y72390686D01*
X445669562Y72318238D01*
X445704824Y72318238D01*
G37*
G36*
X443900621Y72598329D02*
G01*
X444310008Y72739337D01*
X444310008Y72888209D01*
X443900621Y73029217D01*
X443900621Y72946937D01*
X444280601Y72819650D01*
X444280601Y72807896D01*
X443900621Y72680566D01*
X443900621Y72598329D01*
G37*
G36*
X443733711Y72353500D02*
G01*
X443733711Y72423983D01*
X443277349Y72423983D01*
X443277349Y72353500D01*
X443733711Y72353500D01*
G37*
G36*
X443110483Y72598329D02*
G01*
X443110483Y72680566D01*
X442730502Y72807896D01*
X442730502Y72819650D01*
X443110483Y72946937D01*
X443110483Y73029217D01*
X442701095Y72888209D01*
X442701095Y72739337D01*
X443110483Y72598329D01*
G37*
G36*
X441941304Y72318238D02*
G01*
X441941304Y72390686D01*
X441906042Y72390686D01*
X441860023Y72394768D01*
X441816180Y72406933D01*
X441773839Y72427445D01*
X441735711Y72455053D01*
X441702509Y72489705D01*
X441673950Y72532207D01*
X441653213Y72578989D01*
X441640275Y72632570D01*
X441635738Y72694286D01*
X441635738Y72933217D01*
X441640275Y72994933D01*
X441653213Y73048514D01*
X441673950Y73095296D01*
X441702511Y73137825D01*
X441735713Y73172491D01*
X441773839Y73200101D01*
X441816178Y73220588D01*
X441860021Y73232740D01*
X441906042Y73236817D01*
X441941304Y73236817D01*
X441941304Y73309308D01*
X441906042Y73309308D01*
X441860841Y73306452D01*
X441817380Y73297965D01*
X441775293Y73283834D01*
X441735426Y73264335D01*
X441698633Y73239772D01*
X441664632Y73209889D01*
X441634872Y73175766D01*
X441609269Y73136923D01*
X441587781Y73092860D01*
X441572311Y73046345D01*
X441562696Y72994703D01*
X441559357Y72937149D01*
X441559357Y72690354D01*
X441562676Y72633465D01*
X441572272Y72581955D01*
X441587781Y72535113D01*
X441609292Y72490745D01*
X441634898Y72451753D01*
X441664632Y72417614D01*
X441698634Y72387735D01*
X441735427Y72363186D01*
X441775293Y72343712D01*
X441817380Y72329581D01*
X441860841Y72321094D01*
X441906042Y72318238D01*
X441941304Y72318238D01*
G37*
G36*
X440614449Y72367178D02*
G01*
X440683991Y72388720D01*
X440398044Y73260325D01*
X440329485Y73238783D01*
X440614449Y72367178D01*
G37*
G36*
X440135135Y72353500D02*
G01*
X440135135Y72423983D01*
X439678773Y72423983D01*
X439678773Y72353500D01*
X440135135Y72353500D01*
G37*
G36*
X439414924Y72367178D02*
G01*
X439484466Y72388720D01*
X439198518Y73260325D01*
X439129959Y73238783D01*
X439414924Y72367178D01*
G37*
G36*
X437712618Y72598329D02*
G01*
X437712618Y72680566D01*
X437332637Y72807896D01*
X437332637Y72819650D01*
X437712618Y72946937D01*
X437712618Y73029217D01*
X437303230Y72888209D01*
X437303230Y72739337D01*
X437712618Y72598329D01*
G37*
G36*
X434017059Y72367178D02*
G01*
X434086601Y72388720D01*
X433800654Y73260325D01*
X433732095Y73238783D01*
X434017059Y72367178D01*
G37*
G36*
X433537745Y72353500D02*
G01*
X433537745Y72423983D01*
X433081383Y72423983D01*
X433081383Y72353500D01*
X433537745Y72353500D01*
G37*
G36*
X432817534Y72367178D02*
G01*
X432887076Y72388720D01*
X432601128Y73260325D01*
X432532569Y73238783D01*
X432817534Y72367178D01*
G37*
G36*
X430457677Y72690354D02*
G01*
X430457677Y72760879D01*
X430163866Y72760879D01*
X430163866Y72690354D01*
X430457677Y72690354D01*
G37*
G36*
X429857915Y72690354D02*
G01*
X429857915Y72760879D01*
X429564103Y72760879D01*
X429564103Y72690354D01*
X429857915Y72690354D01*
G37*
G36*
X427204247Y72367178D02*
G01*
X427489211Y73238783D01*
X427420652Y73260325D01*
X427134705Y72388720D01*
X427204247Y72367178D01*
G37*
G36*
X425404959Y72367178D02*
G01*
X425689923Y73238783D01*
X425621364Y73260325D01*
X425335416Y72388720D01*
X425404959Y72367178D01*
G37*
G36*
X425141066Y72353500D02*
G01*
X425141066Y72423983D01*
X424684705Y72423983D01*
X424684705Y72353500D01*
X425141066Y72353500D01*
G37*
G36*
X424420855Y72367178D02*
G01*
X424490397Y72388720D01*
X424204450Y73260325D01*
X424135891Y73238783D01*
X424420855Y72367178D01*
G37*
G36*
X421806382Y72367178D02*
G01*
X422091346Y73238783D01*
X422022787Y73260325D01*
X421736840Y72388720D01*
X421806382Y72367178D01*
G37*
G36*
X456808043Y71191178D02*
G01*
X456877585Y71212720D01*
X456591638Y72084325D01*
X456523079Y72062783D01*
X456808043Y71191178D01*
G37*
G36*
X456328729Y71177500D02*
G01*
X456328729Y71247983D01*
X455872367Y71247983D01*
X455872367Y71177500D01*
X456328729Y71177500D01*
G37*
G36*
X455728966Y71177500D02*
G01*
X455728966Y71247983D01*
X455272604Y71247983D01*
X455272604Y71177500D01*
X455728966Y71177500D01*
G37*
G36*
X455129203Y71177500D02*
G01*
X455129203Y71247983D01*
X454672841Y71247983D01*
X454672841Y71177500D01*
X455129203Y71177500D01*
G37*
G36*
X454529440Y71177500D02*
G01*
X454529440Y71247983D01*
X454073079Y71247983D01*
X454073079Y71177500D01*
X454529440Y71177500D01*
G37*
G36*
X453929678Y71177500D02*
G01*
X453929678Y71247983D01*
X453473316Y71247983D01*
X453473316Y71177500D01*
X453929678Y71177500D01*
G37*
G36*
X453329915Y71177500D02*
G01*
X453329915Y71247983D01*
X452873553Y71247983D01*
X452873553Y71177500D01*
X453329915Y71177500D01*
G37*
G36*
X452730152Y71177500D02*
G01*
X452730152Y71247983D01*
X452273790Y71247983D01*
X452273790Y71177500D01*
X452730152Y71177500D01*
G37*
G36*
X451194756Y71191178D02*
G01*
X451479720Y72062783D01*
X451411161Y72084325D01*
X451125214Y71212720D01*
X451194756Y71191178D01*
G37*
G36*
X450737967Y71142238D02*
G01*
X450737967Y72133308D01*
X450667442Y72133308D01*
X450667442Y71142238D01*
X450737967Y71142238D01*
G37*
G36*
X450331101Y71177500D02*
G01*
X450331101Y71247983D01*
X449874740Y71247983D01*
X449874740Y71177500D01*
X450331101Y71177500D01*
G37*
G36*
X449731338Y71177500D02*
G01*
X449731338Y71247983D01*
X449274977Y71247983D01*
X449274977Y71177500D01*
X449731338Y71177500D01*
G37*
G36*
X448938679Y71142238D02*
G01*
X448938679Y72133308D01*
X448868154Y72133308D01*
X448868154Y71142238D01*
X448938679Y71142238D01*
G37*
G36*
X448531813Y71177500D02*
G01*
X448531813Y71247983D01*
X448075451Y71247983D01*
X448075451Y71177500D01*
X448531813Y71177500D01*
G37*
G36*
X447932050Y71177500D02*
G01*
X447932050Y71247983D01*
X447475689Y71247983D01*
X447475689Y71177500D01*
X447932050Y71177500D01*
G37*
G36*
X447332288Y71177500D02*
G01*
X447332288Y71247983D01*
X446875926Y71247983D01*
X446875926Y71177500D01*
X447332288Y71177500D01*
G37*
G36*
X446732525Y71177500D02*
G01*
X446732525Y71247983D01*
X446276163Y71247983D01*
X446276163Y71177500D01*
X446732525Y71177500D01*
G37*
G36*
X446012314Y71191178D02*
G01*
X446081856Y71212720D01*
X445795908Y72084325D01*
X445727349Y72062783D01*
X446012314Y71191178D01*
G37*
G36*
X445197129Y71191178D02*
G01*
X445482093Y72062783D01*
X445413534Y72084325D01*
X445127587Y71212720D01*
X445197129Y71191178D01*
G37*
G36*
X444933237Y71177500D02*
G01*
X444933237Y71247983D01*
X444476875Y71247983D01*
X444476875Y71177500D01*
X444933237Y71177500D01*
G37*
G36*
X444333474Y71177500D02*
G01*
X444333474Y71247983D01*
X443877112Y71247983D01*
X443877112Y71177500D01*
X444333474Y71177500D01*
G37*
G36*
X443733711Y71177500D02*
G01*
X443733711Y71247983D01*
X443277349Y71247983D01*
X443277349Y71177500D01*
X443733711Y71177500D01*
G37*
G36*
X443133948Y71177500D02*
G01*
X443133948Y71247983D01*
X442677587Y71247983D01*
X442677587Y71177500D01*
X443133948Y71177500D01*
G37*
G36*
X442413737Y71191178D02*
G01*
X442483279Y71212720D01*
X442197332Y72084325D01*
X442128773Y72062783D01*
X442413737Y71191178D01*
G37*
G36*
X441598552Y71191178D02*
G01*
X441883517Y72062783D01*
X441814958Y72084325D01*
X441529010Y71212720D01*
X441598552Y71191178D01*
G37*
G36*
X441334660Y71177500D02*
G01*
X441334660Y71247983D01*
X440878299Y71247983D01*
X440878299Y71177500D01*
X441334660Y71177500D01*
G37*
G36*
X440734897Y71177500D02*
G01*
X440734897Y71247983D01*
X440278536Y71247983D01*
X440278536Y71177500D01*
X440734897Y71177500D01*
G37*
G36*
X440135135Y71177500D02*
G01*
X440135135Y71247983D01*
X439678773Y71247983D01*
X439678773Y71177500D01*
X440135135Y71177500D01*
G37*
G36*
X438215398Y71191178D02*
G01*
X438284940Y71212720D01*
X437998993Y72084325D01*
X437930434Y72062783D01*
X438215398Y71191178D01*
G37*
G36*
X437736084Y71177500D02*
G01*
X437736084Y71247983D01*
X437279722Y71247983D01*
X437279722Y71177500D01*
X437736084Y71177500D01*
G37*
G36*
X437136321Y71177500D02*
G01*
X437136321Y71247983D01*
X436679959Y71247983D01*
X436679959Y71177500D01*
X437136321Y71177500D01*
G37*
G36*
X436536558Y71177500D02*
G01*
X436536558Y71247983D01*
X436080197Y71247983D01*
X436080197Y71177500D01*
X436536558Y71177500D01*
G37*
G36*
X435936796Y71177500D02*
G01*
X435936796Y71247983D01*
X435480434Y71247983D01*
X435480434Y71177500D01*
X435936796Y71177500D01*
G37*
G36*
X435337033Y71177500D02*
G01*
X435337033Y71247983D01*
X434880671Y71247983D01*
X434880671Y71177500D01*
X435337033Y71177500D01*
G37*
G36*
X434737270Y71177500D02*
G01*
X434737270Y71247983D01*
X434280908Y71247983D01*
X434280908Y71177500D01*
X434737270Y71177500D01*
G37*
G36*
X434137507Y71177500D02*
G01*
X434137507Y71247983D01*
X433681146Y71247983D01*
X433681146Y71177500D01*
X434137507Y71177500D01*
G37*
G36*
X432602111Y71191178D02*
G01*
X432887076Y72062783D01*
X432818517Y72084325D01*
X432532569Y71212720D01*
X432602111Y71191178D01*
G37*
G36*
X432338219Y71177500D02*
G01*
X432338219Y71247983D01*
X431881857Y71247983D01*
X431881857Y71177500D01*
X432338219Y71177500D01*
G37*
G36*
X431738456Y71177500D02*
G01*
X431738456Y71247983D01*
X431282095Y71247983D01*
X431282095Y71177500D01*
X431738456Y71177500D01*
G37*
G36*
X431138694Y71177500D02*
G01*
X431138694Y71247983D01*
X430682332Y71247983D01*
X430682332Y71177500D01*
X431138694Y71177500D01*
G37*
G36*
X430538931Y71177500D02*
G01*
X430538931Y71247983D01*
X430082569Y71247983D01*
X430082569Y71177500D01*
X430538931Y71177500D01*
G37*
G36*
X429939168Y71177500D02*
G01*
X429939168Y71247983D01*
X429482807Y71247983D01*
X429482807Y71177500D01*
X429939168Y71177500D01*
G37*
G36*
X429339405Y71177500D02*
G01*
X429339405Y71247983D01*
X428883044Y71247983D01*
X428883044Y71177500D01*
X429339405Y71177500D01*
G37*
G36*
X427419669Y71191178D02*
G01*
X427489211Y71212720D01*
X427203264Y72084325D01*
X427134705Y72062783D01*
X427419669Y71191178D01*
G37*
G36*
X426604484Y71191178D02*
G01*
X426889448Y72062783D01*
X426820889Y72084325D01*
X426534942Y71212720D01*
X426604484Y71191178D01*
G37*
G36*
X426340592Y71177500D02*
G01*
X426340592Y71247983D01*
X425884230Y71247983D01*
X425884230Y71177500D01*
X426340592Y71177500D01*
G37*
G36*
X425740829Y71177500D02*
G01*
X425740829Y71247983D01*
X425284467Y71247983D01*
X425284467Y71177500D01*
X425740829Y71177500D01*
G37*
G36*
X425141066Y71177500D02*
G01*
X425141066Y71247983D01*
X424684705Y71247983D01*
X424684705Y71177500D01*
X425141066Y71177500D01*
G37*
G36*
X424541304Y71177500D02*
G01*
X424541304Y71247983D01*
X424084942Y71247983D01*
X424084942Y71177500D01*
X424541304Y71177500D01*
G37*
G36*
X423941541Y71177500D02*
G01*
X423941541Y71247983D01*
X423485179Y71247983D01*
X423485179Y71177500D01*
X423941541Y71177500D01*
G37*
G36*
X422021804Y71191178D02*
G01*
X422091346Y71212720D01*
X421805399Y72084325D01*
X421736840Y72062783D01*
X422021804Y71191178D01*
G37*
G36*
X451794519Y70015178D02*
G01*
X452079483Y70886783D01*
X452010924Y70908325D01*
X451724977Y70036720D01*
X451794519Y70015178D01*
G37*
G36*
X451410178Y70015178D02*
G01*
X451479720Y70036720D01*
X451193773Y70908325D01*
X451125214Y70886783D01*
X451410178Y70015178D01*
G37*
G36*
X442413737Y70015178D02*
G01*
X442483279Y70036720D01*
X442197332Y70908325D01*
X442128773Y70886783D01*
X442413737Y70015178D01*
G37*
G36*
X441934423Y70001500D02*
G01*
X441934423Y70071983D01*
X441478061Y70071983D01*
X441478061Y70001500D01*
X441934423Y70001500D01*
G37*
G36*
X441334660Y70001500D02*
G01*
X441334660Y70071983D01*
X440878299Y70071983D01*
X440878299Y70001500D01*
X441334660Y70001500D01*
G37*
G36*
X440734897Y70001500D02*
G01*
X440734897Y70071983D01*
X440278536Y70071983D01*
X440278536Y70001500D01*
X440734897Y70001500D01*
G37*
G36*
X440135135Y70001500D02*
G01*
X440135135Y70071983D01*
X439678773Y70071983D01*
X439678773Y70001500D01*
X440135135Y70001500D01*
G37*
G36*
X439535372Y70001500D02*
G01*
X439535372Y70071983D01*
X439079010Y70071983D01*
X439079010Y70001500D01*
X439535372Y70001500D01*
G37*
G36*
X438815161Y70015178D02*
G01*
X438884703Y70036720D01*
X438598756Y70908325D01*
X438530197Y70886783D01*
X438815161Y70015178D01*
G37*
G36*
X433201874Y70015178D02*
G01*
X433486838Y70886783D01*
X433418279Y70908325D01*
X433132332Y70036720D01*
X433201874Y70015178D01*
G37*
G36*
X432817534Y70015178D02*
G01*
X432887076Y70036720D01*
X432601128Y70908325D01*
X432532569Y70886783D01*
X432817534Y70015178D01*
G37*
G36*
X428403772Y70015178D02*
G01*
X428688736Y70886783D01*
X428620177Y70908325D01*
X428334230Y70036720D01*
X428403772Y70015178D01*
G37*
G36*
X428019432Y70015178D02*
G01*
X428088974Y70036720D01*
X427803026Y70908325D01*
X427734467Y70886783D01*
X428019432Y70015178D01*
G37*
G36*
X423005908Y70015178D02*
G01*
X423290872Y70886783D01*
X423222313Y70908325D01*
X422936366Y70036720D01*
X423005908Y70015178D01*
G37*
G36*
X422621567Y70015178D02*
G01*
X422691109Y70036720D01*
X422405162Y70908325D01*
X422336603Y70886783D01*
X422621567Y70015178D01*
G37*
%TO.C,U7*%
D12*
X464707000Y52033750D02*
X464707000Y56351750D01*
X465215000Y56859750D02*
X468263000Y56859750D01*
X468263000Y56859750D02*
X468263000Y52033750D01*
X468263000Y52033750D02*
X464707000Y52033750D01*
D13*
X464961000Y56669250D02*
G75*
G02*
X464834000Y56669250I-63500J0D01*
G01*
X464834000Y56669250D02*
G75*
G02*
X464961000Y56669250I63500J0D01*
G01*
%TO.C,RV1*%
D12*
X421260000Y62609250D02*
X421260000Y59069250D01*
X421260000Y56899250D02*
X421260000Y57149250D01*
X421360000Y56899250D02*
X421260000Y56899250D01*
X421360000Y56699250D02*
X421360000Y56899250D01*
X421360000Y56699250D02*
X422780000Y56699250D01*
X422070000Y60109250D02*
X422070000Y59359250D01*
X422780000Y56899250D02*
X422780000Y56699250D01*
X422780000Y56899250D02*
X426360000Y56899250D01*
X422820000Y60109250D02*
X422070000Y60109250D01*
X424060000Y63919250D02*
X422570000Y63919250D01*
X424570000Y60859250D02*
X424570000Y61859250D01*
X426320000Y60109250D02*
X427070000Y60109250D01*
X426360000Y56899250D02*
X426360000Y56699250D01*
X426360000Y56699250D02*
X427780000Y56699250D01*
X426570000Y63919250D02*
X425080000Y63919250D01*
X427070000Y60109250D02*
X427070000Y59359250D01*
X427780000Y56899250D02*
X427880000Y56899250D01*
X427780000Y56699250D02*
X427780000Y56899250D01*
X427880000Y58629250D02*
X427880000Y62609250D01*
X427880000Y56899250D02*
X427880000Y57589250D01*
X422820000Y60859250D02*
X426320000Y60859250D01*
X426320000Y59359250D01*
X422820000Y59359250D01*
X422820000Y60859250D01*
X421260000Y62609250D02*
G75*
G02*
X422570000Y63919250I1310000J0D01*
G01*
X426570000Y63919250D02*
G75*
G02*
X427880000Y62609250I0J-1310000D01*
G01*
X424570000Y60859250D02*
X424320000Y61359250D01*
X424820000Y61359250D01*
X424570000Y60859250D01*
G36*
X424570000Y60859250D02*
G01*
X424320000Y61359250D01*
X424820000Y61359250D01*
X424570000Y60859250D01*
G37*
%TO.C,R3*%
X466185000Y29248250D02*
X466566000Y29629250D01*
X466185000Y27470250D02*
X466566000Y27089250D01*
X466566000Y29629250D02*
X467963000Y29629250D01*
X466566000Y27089250D02*
X467963000Y27089250D01*
X467963000Y29629250D02*
X468090000Y29502250D01*
X467963000Y27089250D02*
X468090000Y27216250D01*
X468090000Y29502250D02*
X469360000Y29502250D01*
X468090000Y27216250D02*
X469360000Y27216250D01*
X470630000Y29502250D02*
X469360000Y29502250D01*
X470630000Y27216250D02*
X469360000Y27216250D01*
X470757000Y29629250D02*
X470630000Y29502250D01*
X470757000Y27089250D02*
X470630000Y27216250D01*
X472154000Y29629250D02*
X470757000Y29629250D01*
X472154000Y27089250D02*
X470757000Y27089250D01*
X472535000Y29248250D02*
X472154000Y29629250D01*
X472535000Y27470250D02*
X472154000Y27089250D01*
%TO.C,U6*%
X464187000Y60574750D02*
X468505000Y60574750D01*
X464187000Y57018750D02*
X464187000Y60574750D01*
X469013000Y60066750D02*
X469013000Y57018750D01*
X469013000Y57018750D02*
X464187000Y57018750D01*
D13*
X468886000Y60384250D02*
G75*
G02*
X468759000Y60384250I-63500J0D01*
G01*
X468759000Y60384250D02*
G75*
G02*
X468886000Y60384250I63500J0D01*
G01*
%TO.C,U2*%
D12*
X431530000Y60229250D02*
X436790000Y60229250D01*
X431530000Y9309250D02*
X431530000Y60229250D01*
X438790000Y60229250D02*
X444050000Y60229250D01*
X444050000Y60229250D02*
X444050000Y9309250D01*
X444050000Y9309250D02*
X431530000Y9309250D01*
X438790000Y60229250D02*
G75*
G02*
X436790000Y60229250I-1000000J0D01*
G01*
%TO.C,U3*%
X479410000Y45506750D02*
X479410000Y36886750D01*
X479410000Y36886750D02*
X479785000Y36886750D01*
X479785000Y45506750D02*
X479410000Y45506750D01*
X497415000Y36886750D02*
X497790000Y36886750D01*
X497790000Y45506750D02*
X497415000Y45506750D01*
X497790000Y36886750D02*
X497790000Y45506750D01*
X497890000Y35286750D02*
X497420000Y35626750D01*
X497890000Y35966750D01*
X497890000Y35286750D01*
G36*
X497890000Y35286750D02*
G01*
X497420000Y35626750D01*
X497890000Y35966750D01*
X497890000Y35286750D01*
G37*
%TO.C,R4*%
X466205000Y32448250D02*
X466586000Y32829250D01*
X466205000Y30670250D02*
X466586000Y30289250D01*
X466586000Y32829250D02*
X467983000Y32829250D01*
X466586000Y30289250D02*
X467983000Y30289250D01*
X467983000Y32829250D02*
X468110000Y32702250D01*
X467983000Y30289250D02*
X468110000Y30416250D01*
X468110000Y32702250D02*
X469380000Y32702250D01*
X468110000Y30416250D02*
X469380000Y30416250D01*
X470650000Y32702250D02*
X469380000Y32702250D01*
X470650000Y30416250D02*
X469380000Y30416250D01*
X470777000Y32829250D02*
X470650000Y32702250D01*
X470777000Y30289250D02*
X470650000Y30416250D01*
X472174000Y32829250D02*
X470777000Y32829250D01*
X472174000Y30289250D02*
X470777000Y30289250D01*
X472555000Y32448250D02*
X472174000Y32829250D01*
X472555000Y30670250D02*
X472174000Y30289250D01*
%TO.C,U1*%
X481730000Y31969250D02*
X494250000Y31969250D01*
X481730000Y-18950750D02*
X481730000Y31969250D01*
X486990000Y-18950750D02*
X481730000Y-18950750D01*
X494250000Y31969250D02*
X494250000Y-18950750D01*
X494250000Y-18950750D02*
X488990000Y-18950750D01*
X486990000Y-18950750D02*
G75*
G02*
X488990000Y-18950750I1000000J0D01*
G01*
%TO.C,U4*%
X460210000Y45506750D02*
X460210000Y36886750D01*
X460210000Y36886750D02*
X460585000Y36886750D01*
X460585000Y45506750D02*
X460210000Y45506750D01*
X478215000Y36886750D02*
X478590000Y36886750D01*
X478590000Y45506750D02*
X478215000Y45506750D01*
X478590000Y36886750D02*
X478590000Y45506750D01*
X478690000Y35286750D02*
X478220000Y35626750D01*
X478690000Y35966750D01*
X478690000Y35286750D01*
G36*
X478690000Y35286750D02*
G01*
X478220000Y35626750D01*
X478690000Y35966750D01*
X478690000Y35286750D01*
G37*
%TO.C,R5*%
X466195000Y26048250D02*
X466576000Y26429250D01*
X466195000Y24270250D02*
X466576000Y23889250D01*
X466576000Y26429250D02*
X467973000Y26429250D01*
X466576000Y23889250D02*
X467973000Y23889250D01*
X467973000Y26429250D02*
X468100000Y26302250D01*
X467973000Y23889250D02*
X468100000Y24016250D01*
X468100000Y26302250D02*
X469370000Y26302250D01*
X468100000Y24016250D02*
X469370000Y24016250D01*
X470640000Y26302250D02*
X469370000Y26302250D01*
X470640000Y24016250D02*
X469370000Y24016250D01*
X470767000Y26429250D02*
X470640000Y26302250D01*
X470767000Y23889250D02*
X470640000Y24016250D01*
X472164000Y26429250D02*
X470767000Y26429250D01*
X472164000Y23889250D02*
X470767000Y23889250D01*
X472545000Y26048250D02*
X472164000Y26429250D01*
X472545000Y24270250D02*
X472164000Y23889250D01*
%TO.C,R6*%
X431005000Y63448250D02*
X431386000Y63829250D01*
X431005000Y61670250D02*
X431386000Y61289250D01*
X431386000Y63829250D02*
X432783000Y63829250D01*
X431386000Y61289250D02*
X432783000Y61289250D01*
X432783000Y63829250D02*
X432910000Y63702250D01*
X432783000Y61289250D02*
X432910000Y61416250D01*
X432910000Y63702250D02*
X434180000Y63702250D01*
X432910000Y61416250D02*
X434180000Y61416250D01*
X435450000Y63702250D02*
X434180000Y63702250D01*
X435450000Y61416250D02*
X434180000Y61416250D01*
X435577000Y63829250D02*
X435450000Y63702250D01*
X435577000Y61289250D02*
X435450000Y61416250D01*
X436974000Y63829250D02*
X435577000Y63829250D01*
X436974000Y61289250D02*
X435577000Y61289250D01*
X437355000Y63448250D02*
X436974000Y63829250D01*
X437355000Y61670250D02*
X436974000Y61289250D01*
%TO.C,R1*%
X466185000Y22848250D02*
X466566000Y23229250D01*
X466185000Y21070250D02*
X466566000Y20689250D01*
X466566000Y23229250D02*
X467963000Y23229250D01*
X466566000Y20689250D02*
X467963000Y20689250D01*
X467963000Y23229250D02*
X468090000Y23102250D01*
X467963000Y20689250D02*
X468090000Y20816250D01*
X468090000Y23102250D02*
X469360000Y23102250D01*
X468090000Y20816250D02*
X469360000Y20816250D01*
X470630000Y23102250D02*
X469360000Y23102250D01*
X470630000Y20816250D02*
X469360000Y20816250D01*
X470757000Y23229250D02*
X470630000Y23102250D01*
X470757000Y20689250D02*
X470630000Y20816250D01*
X472154000Y23229250D02*
X470757000Y23229250D01*
X472154000Y20689250D02*
X470757000Y20689250D01*
X472535000Y22848250D02*
X472154000Y23229250D01*
X472535000Y21070250D02*
X472154000Y20689250D01*
%TO.C,U5*%
X483887000Y51983750D02*
X483887000Y56301750D01*
X484395000Y56809750D02*
X487443000Y56809750D01*
X487443000Y56809750D02*
X487443000Y51983750D01*
X487443000Y51983750D02*
X483887000Y51983750D01*
D13*
X484141000Y56619250D02*
G75*
G02*
X484014000Y56619250I-63500J0D01*
G01*
X484014000Y56619250D02*
G75*
G02*
X484141000Y56619250I63500J0D01*
G01*
%TD*%
M02*
