%TF.GenerationSoftware,KiCad,Pcbnew,10.0.1*%
%TF.CreationDate,2026-08-19T17:50:16+08:00*%
%TF.ProjectId,z80badgev2,7a383062-6164-4676-9576-322e6b696361,rev?*%
%TF.SameCoordinates,Original*%
%TF.FileFunction,Soldermask,Bot*%
%TF.FilePolarity,Negative*%
%FSLAX46Y46*%
G04 Gerber Fmt 4.6, Leading zero omitted, Abs format (unit mm)*
G04 Created by KiCad (PCBNEW 10.0.1) date 2026-08-19 17:50:16*
%MOMM*%
%LPD*%
G01*
G04 APERTURE LIST*
G04 Aperture macros list*
%AMRoundRect*
0 Rectangle with rounded corners*
0 $1 Rounding radius*
0 $2 $3 $4 $5 $6 $7 $8 $9 X,Y pos of 4 corners*
0 Add a 4 corners polygon primitive as box body*
4,1,4,$2,$3,$4,$5,$6,$7,$8,$9,$2,$3,0*
0 Add four circle primitives for the rounded corners*
1,1,$1+$1,$2,$3*
1,1,$1+$1,$4,$5*
1,1,$1+$1,$6,$7*
1,1,$1+$1,$8,$9*
0 Add four rect primitives between the rounded corners*
20,1,$1+$1,$2,$3,$4,$5,0*
20,1,$1+$1,$4,$5,$6,$7,0*
20,1,$1+$1,$6,$7,$8,$9,0*
20,1,$1+$1,$8,$9,$2,$3,0*%
G04 Aperture macros list end*
%ADD10C,2.000000*%
%ADD11O,2.200000X3.500000*%
%ADD12R,1.500000X2.500000*%
%ADD13O,1.500000X2.500000*%
%ADD14R,1.700000X1.700000*%
%ADD15C,1.700000*%
%ADD16R,1.600000X1.600000*%
%ADD17C,1.600000*%
%ADD18O,1.600000X1.600000*%
%ADD19R,1.800000X2.600000*%
%ADD20O,1.800000X2.600000*%
%ADD21R,0.650000X1.560000*%
%ADD22R,1.550000X1.550000*%
%ADD23C,1.550000*%
%ADD24R,1.560000X0.650000*%
%ADD25RoundRect,0.249999X0.750001X0.640001X-0.750001X0.640001X-0.750001X-0.640001X0.750001X-0.640001X0*%
%ADD26RoundRect,0.150000X0.150000X-0.987500X0.150000X0.987500X-0.150000X0.987500X-0.150000X-0.987500X0*%
%ADD27RoundRect,0.249999X-0.750001X-0.640001X0.750001X-0.640001X0.750001X0.640001X-0.750001X0.640001X0*%
G04 APERTURE END LIST*
D10*
%TO.C,SW7*%
X435520000Y-12583607D03*
X442020000Y-12583607D03*
X435520000Y-17083607D03*
X442020000Y-17083607D03*
%TD*%
%TO.C,SW9*%
X455980000Y-10126464D03*
X462480000Y-10126464D03*
X455980000Y-14626464D03*
X462480000Y-14626464D03*
%TD*%
D11*
%TO.C,SW4*%
X461870000Y5359250D03*
X453670000Y5359250D03*
D12*
X459770000Y5359250D03*
D13*
X457770000Y5359250D03*
X455770000Y5359250D03*
%TD*%
D11*
%TO.C,SW5*%
X465270000Y5359250D03*
X473470000Y5359250D03*
D12*
X467370000Y5359250D03*
D13*
X469370000Y5359250D03*
X471370000Y5359250D03*
%TD*%
D10*
%TO.C,SW8*%
X455980000Y-1319321D03*
X462480000Y-1319321D03*
X455980000Y-5819321D03*
X462480000Y-5819321D03*
%TD*%
%TO.C,SW2*%
X435470000Y3166393D03*
X441970000Y3166393D03*
X435470000Y-1333607D03*
X441970000Y-1333607D03*
%TD*%
D14*
%TO.C,J3*%
X498810000Y30719250D03*
D15*
X498810000Y28179250D03*
X498810000Y25639250D03*
X498810000Y23099250D03*
X498810000Y20559250D03*
X498810000Y18019250D03*
X498810000Y15479250D03*
X498810000Y12939250D03*
X498810000Y10399250D03*
X498810000Y7859250D03*
X498810000Y5319250D03*
X498810000Y2779250D03*
X498810000Y239250D03*
X498810000Y-2300750D03*
X498810000Y-4840750D03*
X498810000Y-7380750D03*
X498810000Y-9920750D03*
X498810000Y-12460750D03*
X498810000Y-15000750D03*
X498810000Y-17540750D03*
%TD*%
D14*
%TO.C,J2*%
X477210000Y-17760750D03*
D15*
X477210000Y-15220750D03*
X477210000Y-12680750D03*
X477210000Y-10140750D03*
X477210000Y-7600750D03*
X477210000Y-5060750D03*
X477210000Y-2520750D03*
X477210000Y19250D03*
X477210000Y2559250D03*
X477210000Y5099250D03*
X477210000Y7639250D03*
X477210000Y10179250D03*
X477210000Y12719250D03*
X477210000Y15259250D03*
X477210000Y17799250D03*
X477210000Y20339250D03*
X477210000Y22879250D03*
X477210000Y25419250D03*
X477210000Y27959250D03*
X477210000Y30499250D03*
%TD*%
D10*
%TO.C,SW3*%
X425870000Y-4633607D03*
X432370000Y-4633607D03*
X425870000Y-9133607D03*
X432370000Y-9133607D03*
%TD*%
%TO.C,SW10*%
X466720000Y-1583607D03*
X473220000Y-1583607D03*
X466720000Y-6083607D03*
X473220000Y-6083607D03*
%TD*%
%TO.C,SW11*%
X466370000Y-10140750D03*
X472870000Y-10140750D03*
X466370000Y-14640750D03*
X472870000Y-14640750D03*
%TD*%
%TO.C,SW6*%
X445120000Y-4783607D03*
X451620000Y-4783607D03*
X445120000Y-9283607D03*
X451620000Y-9283607D03*
%TD*%
%TO.C,SW1*%
X465920000Y15409250D03*
X472420000Y15409250D03*
X465920000Y10909250D03*
X472420000Y10909250D03*
%TD*%
D16*
%TO.C,Y1*%
X457170000Y14759250D03*
D17*
X457170000Y29999250D03*
X449550000Y29999250D03*
X449550000Y14759250D03*
%TD*%
%TO.C,R2*%
X473130000Y18709250D03*
D18*
X465510000Y18709250D03*
%TD*%
D19*
%TO.C,DS1*%
X428500000Y67116750D03*
D20*
X431040000Y67116750D03*
X433580000Y67116750D03*
X436120000Y67116750D03*
X438660000Y67116750D03*
X441200000Y67116750D03*
X443740000Y67116750D03*
X446280000Y67116750D03*
X448820000Y67116750D03*
X451360000Y67116750D03*
X453900000Y67116750D03*
X456440000Y67116750D03*
X458980000Y67116750D03*
X461520000Y67116750D03*
X464060000Y67116750D03*
X466600000Y67116750D03*
%TD*%
D21*
%TO.C,U7*%
X465535000Y55796750D03*
X466485000Y55796750D03*
X467435000Y55796750D03*
X467435000Y53096750D03*
X465535000Y53096750D03*
%TD*%
D22*
%TO.C,RV1*%
X422070000Y58109250D03*
D23*
X424570000Y63109250D03*
X427070000Y58109250D03*
%TD*%
D17*
%TO.C,R3*%
X473170000Y28359250D03*
D18*
X465550000Y28359250D03*
%TD*%
D24*
%TO.C,U6*%
X467950000Y59746750D03*
X467950000Y58796750D03*
X467950000Y57846750D03*
X465250000Y57846750D03*
X465250000Y59746750D03*
%TD*%
D25*
%TO.C,U2*%
X445410000Y58899250D03*
X445410000Y56359250D03*
X445410000Y53819250D03*
X445410000Y51279250D03*
X445410000Y48739250D03*
X445410000Y46199250D03*
X445410000Y43659250D03*
X445410000Y41119250D03*
X445410000Y38579250D03*
X445410000Y36039250D03*
X445410000Y33499250D03*
X445410000Y30959250D03*
X445410000Y28419250D03*
X445410000Y25879250D03*
X445410000Y23339250D03*
X445410000Y20799250D03*
X445410000Y18259250D03*
X445410000Y15719250D03*
X445410000Y13179250D03*
X445410000Y10639250D03*
X430170000Y10639250D03*
X430170000Y13179250D03*
X430170000Y15719250D03*
X430170000Y18259250D03*
X430170000Y20799250D03*
X430170000Y23339250D03*
X430170000Y25879250D03*
X430170000Y28419250D03*
X430170000Y30959250D03*
X430170000Y33499250D03*
X430170000Y36039250D03*
X430170000Y38579250D03*
X430170000Y41119250D03*
X430170000Y43659250D03*
X430170000Y46199250D03*
X430170000Y48739250D03*
X430170000Y51279250D03*
X430170000Y53819250D03*
X430170000Y56359250D03*
X430170000Y58899250D03*
%TD*%
D26*
%TO.C,U3*%
X496855000Y35634250D03*
X495585000Y35634250D03*
X494315000Y35634250D03*
X493045000Y35634250D03*
X491775000Y35634250D03*
X490505000Y35634250D03*
X489235000Y35634250D03*
X487965000Y35634250D03*
X486695000Y35634250D03*
X485425000Y35634250D03*
X484155000Y35634250D03*
X482885000Y35634250D03*
X481615000Y35634250D03*
X480345000Y35634250D03*
X480345000Y46759250D03*
X481615000Y46759250D03*
X482885000Y46759250D03*
X484155000Y46759250D03*
X485425000Y46759250D03*
X486695000Y46759250D03*
X487965000Y46759250D03*
X489235000Y46759250D03*
X490505000Y46759250D03*
X491775000Y46759250D03*
X493045000Y46759250D03*
X494315000Y46759250D03*
X495585000Y46759250D03*
X496855000Y46759250D03*
%TD*%
D17*
%TO.C,R4*%
X473190000Y31559250D03*
D18*
X465570000Y31559250D03*
%TD*%
D27*
%TO.C,U1*%
X480370000Y-17620750D03*
X480370000Y-15080750D03*
X480370000Y-12540750D03*
X480370000Y-10000750D03*
X480370000Y-7460750D03*
X480370000Y-4920750D03*
X480370000Y-2380750D03*
X480370000Y159250D03*
X480370000Y2699250D03*
X480370000Y5239250D03*
X480370000Y7779250D03*
X480370000Y10319250D03*
X480370000Y12859250D03*
X480370000Y15399250D03*
X480370000Y17939250D03*
X480370000Y20479250D03*
X480370000Y23019250D03*
X480370000Y25559250D03*
X480370000Y28099250D03*
X480370000Y30639250D03*
X495610000Y30639250D03*
X495610000Y28099250D03*
X495610000Y25559250D03*
X495610000Y23019250D03*
X495610000Y20479250D03*
X495610000Y17939250D03*
X495610000Y15399250D03*
X495610000Y12859250D03*
X495610000Y10319250D03*
X495610000Y7779250D03*
X495610000Y5239250D03*
X495610000Y2699250D03*
X495610000Y159250D03*
X495610000Y-2380750D03*
X495610000Y-4920750D03*
X495610000Y-7460750D03*
X495610000Y-10000750D03*
X495610000Y-12540750D03*
X495610000Y-15080750D03*
X495610000Y-17620750D03*
%TD*%
D26*
%TO.C,U4*%
X477655000Y35634250D03*
X476385000Y35634250D03*
X475115000Y35634250D03*
X473845000Y35634250D03*
X472575000Y35634250D03*
X471305000Y35634250D03*
X470035000Y35634250D03*
X468765000Y35634250D03*
X467495000Y35634250D03*
X466225000Y35634250D03*
X464955000Y35634250D03*
X463685000Y35634250D03*
X462415000Y35634250D03*
X461145000Y35634250D03*
X461145000Y46759250D03*
X462415000Y46759250D03*
X463685000Y46759250D03*
X464955000Y46759250D03*
X466225000Y46759250D03*
X467495000Y46759250D03*
X468765000Y46759250D03*
X470035000Y46759250D03*
X471305000Y46759250D03*
X472575000Y46759250D03*
X473845000Y46759250D03*
X475115000Y46759250D03*
X476385000Y46759250D03*
X477655000Y46759250D03*
%TD*%
D17*
%TO.C,R5*%
X473180000Y25159250D03*
D18*
X465560000Y25159250D03*
%TD*%
D17*
%TO.C,R6*%
X430370000Y62559250D03*
D18*
X437990000Y62559250D03*
%TD*%
D17*
%TO.C,R1*%
X473170000Y21959250D03*
D18*
X465550000Y21959250D03*
%TD*%
D21*
%TO.C,U5*%
X484715000Y55746750D03*
X485665000Y55746750D03*
X486615000Y55746750D03*
X486615000Y53046750D03*
X484715000Y53046750D03*
%TD*%
M02*
