%TF.GenerationSoftware,KiCad,Pcbnew,10.0.1*%
%TF.CreationDate,2026-08-19T17:50:16+08:00*%
%TF.ProjectId,z80badgev2,7a383062-6164-4676-9576-322e6b696361,rev?*%
%TF.SameCoordinates,Original*%
%TF.FileFunction,Copper,L1,Top*%
%TF.FilePolarity,Positive*%
%FSLAX46Y46*%
G04 Gerber Fmt 4.6, Leading zero omitted, Abs format (unit mm)*
G04 Created by KiCad (PCBNEW 10.0.1) date 2026-08-19 17:50:16*
%MOMM*%
%LPD*%
G01*
G04 APERTURE LIST*
%TA.AperFunction,ComponentPad*%
%ADD10C,2.000000*%
%TD*%
%TA.AperFunction,ComponentPad*%
%ADD11O,2.200000X3.500000*%
%TD*%
%TA.AperFunction,ComponentPad*%
%ADD12R,1.500000X2.500000*%
%TD*%
%TA.AperFunction,ComponentPad*%
%ADD13O,1.500000X2.500000*%
%TD*%
%TA.AperFunction,ComponentPad*%
%ADD14R,1.700000X1.700000*%
%TD*%
%TA.AperFunction,ComponentPad*%
%ADD15C,1.700000*%
%TD*%
%TA.AperFunction,ComponentPad*%
%ADD16R,1.600000X1.600000*%
%TD*%
%TA.AperFunction,ComponentPad*%
%ADD17C,1.600000*%
%TD*%
%TA.AperFunction,ComponentPad*%
%ADD18O,1.600000X1.600000*%
%TD*%
%TA.AperFunction,ComponentPad*%
%ADD19R,1.800000X2.600000*%
%TD*%
%TA.AperFunction,ComponentPad*%
%ADD20O,1.800000X2.600000*%
%TD*%
%TA.AperFunction,ComponentPad*%
%ADD21R,1.550000X1.550000*%
%TD*%
%TA.AperFunction,ComponentPad*%
%ADD22C,1.550000*%
%TD*%
%TA.AperFunction,ViaPad*%
%ADD23C,0.600000*%
%TD*%
%TA.AperFunction,Conductor*%
%ADD24C,0.400000*%
%TD*%
%TA.AperFunction,Conductor*%
%ADD25C,0.200000*%
%TD*%
G04 APERTURE END LIST*
D10*
%TO.P,SW7,1,1_1*%
%TO.N,Net-(U2-PA3)*%
X435520000Y-12583607D03*
X442020000Y-12583607D03*
%TO.P,SW7,2,2_2*%
%TO.N,/Power*%
X435520000Y-17083607D03*
X442020000Y-17083607D03*
%TD*%
%TO.P,SW9,1,1_1*%
%TO.N,Net-(U2-PA5)*%
X455980000Y-10126464D03*
X462480000Y-10126464D03*
%TO.P,SW9,2,2_2*%
%TO.N,/Power*%
X455980000Y-14626464D03*
X462480000Y-14626464D03*
%TD*%
D11*
%TO.P,SW4,*%
%TO.N,*%
X461870000Y5359250D03*
X453670000Y5359250D03*
D12*
%TO.P,SW4,1,A_1*%
%TO.N,+5V*%
X459770000Y5359250D03*
D13*
%TO.P,SW4,2,B_2*%
%TO.N,/~{BUSREQ}*%
X457770000Y5359250D03*
%TO.P,SW4,3,C_3*%
%TO.N,GND*%
X455770000Y5359250D03*
%TD*%
D11*
%TO.P,SW5,*%
%TO.N,*%
X465270000Y5359250D03*
X473470000Y5359250D03*
D12*
%TO.P,SW5,1,A_1*%
%TO.N,+5V*%
X467370000Y5359250D03*
D13*
%TO.P,SW5,2,B_2*%
%TO.N,/Power*%
X469370000Y5359250D03*
%TO.P,SW5,3,C_3*%
%TO.N,unconnected-(SW5-C-Pad3)*%
X471370000Y5359250D03*
%TD*%
D10*
%TO.P,SW8,1,1_1*%
%TO.N,Net-(U2-PA4)*%
X455980000Y-1319321D03*
X462480000Y-1319321D03*
%TO.P,SW8,2,2_2*%
%TO.N,/Power*%
X455980000Y-5819321D03*
X462480000Y-5819321D03*
%TD*%
%TO.P,SW2,1,1_1*%
%TO.N,Net-(U2-PA0)*%
X435470000Y3166393D03*
X441970000Y3166393D03*
%TO.P,SW2,2,2_2*%
%TO.N,/Power*%
X435470000Y-1333607D03*
X441970000Y-1333607D03*
%TD*%
D14*
%TO.P,J3,1,Pin_1_1*%
%TO.N,/~{RD}*%
X498810000Y30719250D03*
D15*
%TO.P,J3,2,Pin_2_2*%
%TO.N,/~{WR}*%
X498810000Y28179250D03*
%TO.P,J3,3,Pin_3_3*%
%TO.N,/~{BUSACK}*%
X498810000Y25639250D03*
%TO.P,J3,4,Pin_4_4*%
%TO.N,/~{WAIT}*%
X498810000Y23099250D03*
%TO.P,J3,5,Pin_5_5*%
%TO.N,/~{BUSREQ}*%
X498810000Y20559250D03*
%TO.P,J3,6,Pin_6_6*%
%TO.N,/~{RESET}*%
X498810000Y18019250D03*
%TO.P,J3,7,Pin_7_7*%
%TO.N,/~{M1}*%
X498810000Y15479250D03*
%TO.P,J3,8,Pin_8_8*%
%TO.N,/~{RFSH}*%
X498810000Y12939250D03*
%TO.P,J3,9,Pin_9_9*%
%TO.N,GND*%
X498810000Y10399250D03*
%TO.P,J3,10,Pin_10_10*%
%TO.N,/A0*%
X498810000Y7859250D03*
%TO.P,J3,11,Pin_11_11*%
%TO.N,/A1*%
X498810000Y5319250D03*
%TO.P,J3,12,Pin_12_12*%
%TO.N,/A2*%
X498810000Y2779250D03*
%TO.P,J3,13,Pin_13_13*%
%TO.N,/A3*%
X498810000Y239250D03*
%TO.P,J3,14,Pin_14_14*%
%TO.N,/A4*%
X498810000Y-2300750D03*
%TO.P,J3,15,Pin_15_15*%
%TO.N,/A5*%
X498810000Y-4840750D03*
%TO.P,J3,16,Pin_16_16*%
%TO.N,/A6*%
X498810000Y-7380750D03*
%TO.P,J3,17,Pin_17_17*%
%TO.N,/A7*%
X498810000Y-9920750D03*
%TO.P,J3,18,Pin_18_18*%
%TO.N,/A8*%
X498810000Y-12460750D03*
%TO.P,J3,19,Pin_19_19*%
%TO.N,/A9*%
X498810000Y-15000750D03*
%TO.P,J3,20,Pin_20_20*%
%TO.N,/A10*%
X498810000Y-17540750D03*
%TD*%
D14*
%TO.P,J2,1,Pin_1_1*%
%TO.N,/A11*%
X477210000Y-17760750D03*
D15*
%TO.P,J2,2,Pin_2_2*%
%TO.N,/A12*%
X477210000Y-15220750D03*
%TO.P,J2,3,Pin_3_3*%
%TO.N,/A13*%
X477210000Y-12680750D03*
%TO.P,J2,4,Pin_4_4*%
%TO.N,/A14*%
X477210000Y-10140750D03*
%TO.P,J2,5,Pin_5_5*%
%TO.N,/A15*%
X477210000Y-7600750D03*
%TO.P,J2,6,Pin_6_6*%
%TO.N,/CLK*%
X477210000Y-5060750D03*
%TO.P,J2,7,Pin_7_7*%
%TO.N,/D4*%
X477210000Y-2520750D03*
%TO.P,J2,8,Pin_8_8*%
%TO.N,/D3*%
X477210000Y19250D03*
%TO.P,J2,9,Pin_9_9*%
%TO.N,/D5*%
X477210000Y2559250D03*
%TO.P,J2,10,Pin_10_10*%
%TO.N,/D6*%
X477210000Y5099250D03*
%TO.P,J2,11,Pin_11_11*%
%TO.N,+5V*%
X477210000Y7639250D03*
%TO.P,J2,12,Pin_12_12*%
%TO.N,/D2*%
X477210000Y10179250D03*
%TO.P,J2,13,Pin_13_13*%
%TO.N,/D7*%
X477210000Y12719250D03*
%TO.P,J2,14,Pin_14_14*%
%TO.N,/D0*%
X477210000Y15259250D03*
%TO.P,J2,15,Pin_15_15*%
%TO.N,/D1*%
X477210000Y17799250D03*
%TO.P,J2,16,Pin_16_16*%
%TO.N,/~{INT}*%
X477210000Y20339250D03*
%TO.P,J2,17,Pin_17_17*%
%TO.N,/~{NMI}*%
X477210000Y22879250D03*
%TO.P,J2,18,Pin_18_18*%
%TO.N,/~{HALT}*%
X477210000Y25419250D03*
%TO.P,J2,19,Pin_19_19*%
%TO.N,/~{MREQ}*%
X477210000Y27959250D03*
%TO.P,J2,20,Pin_20_20*%
%TO.N,/~{IORQ}*%
X477210000Y30499250D03*
%TD*%
D10*
%TO.P,SW3,1,1_1*%
%TO.N,Net-(U2-PA1)*%
X425870000Y-4633607D03*
X432370000Y-4633607D03*
%TO.P,SW3,2,2_2*%
%TO.N,/Power*%
X425870000Y-9133607D03*
X432370000Y-9133607D03*
%TD*%
%TO.P,SW10,1,1_1*%
%TO.N,Net-(U2-PA6)*%
X466720000Y-1583607D03*
X473220000Y-1583607D03*
%TO.P,SW10,2,2_2*%
%TO.N,/Power*%
X466720000Y-6083607D03*
X473220000Y-6083607D03*
%TD*%
%TO.P,SW11,1,1_1*%
%TO.N,Net-(U2-PA7)*%
X466370000Y-10140750D03*
X472870000Y-10140750D03*
%TO.P,SW11,2,2_2*%
%TO.N,/Power*%
X466370000Y-14640750D03*
X472870000Y-14640750D03*
%TD*%
%TO.P,SW6,1,1_1*%
%TO.N,Net-(U2-PA2)*%
X445120000Y-4783607D03*
X451620000Y-4783607D03*
%TO.P,SW6,2,2_2*%
%TO.N,/Power*%
X445120000Y-9283607D03*
X451620000Y-9283607D03*
%TD*%
%TO.P,SW1,1,1_1*%
%TO.N,/~{RESET}*%
X465920000Y15409250D03*
X472420000Y15409250D03*
%TO.P,SW1,2,2_2*%
%TO.N,GND*%
X465920000Y10909250D03*
X472420000Y10909250D03*
%TD*%
D16*
%TO.P,Y1,1,NC_1*%
%TO.N,unconnected-(Y1-NC-Pad1)*%
X457170000Y14759250D03*
D17*
%TO.P,Y1,7,GND_7*%
%TO.N,GND*%
X457170000Y29999250D03*
%TO.P,Y1,8,OUT_8*%
%TO.N,/CLK*%
X449550000Y29999250D03*
%TO.P,Y1,14,Vcc_14*%
%TO.N,/Power*%
X449550000Y14759250D03*
%TD*%
%TO.P,R2,1*%
%TO.N,/~{RESET}*%
X473130000Y18709250D03*
D18*
%TO.P,R2,2*%
%TO.N,/Power*%
X465510000Y18709250D03*
%TD*%
D19*
%TO.P,DS1,1,VSS_1*%
%TO.N,GND*%
X428500000Y67116750D03*
D20*
%TO.P,DS1,2,VDD_2*%
%TO.N,/Power*%
X431040000Y67116750D03*
%TO.P,DS1,3,VO_3*%
%TO.N,Net-(DS1-VO)*%
X433580000Y67116750D03*
%TO.P,DS1,4,RS_4*%
%TO.N,/RS LCD*%
X436120000Y67116750D03*
%TO.P,DS1,5,R/W_5*%
%TO.N,/R{slash}W LCD*%
X438660000Y67116750D03*
%TO.P,DS1,6,E_6*%
%TO.N,/E LCD*%
X441200000Y67116750D03*
%TO.P,DS1,7,D0_7*%
%TO.N,GND*%
X443740000Y67116750D03*
%TO.P,DS1,8,D1_8*%
X446280000Y67116750D03*
%TO.P,DS1,9,D2_9*%
X448820000Y67116750D03*
%TO.P,DS1,10,D3_10*%
X451360000Y67116750D03*
%TO.P,DS1,11,D4_11*%
%TO.N,/LCD4*%
X453900000Y67116750D03*
%TO.P,DS1,12,D5_12*%
%TO.N,/LCD5*%
X456440000Y67116750D03*
%TO.P,DS1,13,D6_13*%
%TO.N,/LCD6*%
X458980000Y67116750D03*
%TO.P,DS1,14,D7_14*%
%TO.N,/LCD7*%
X461520000Y67116750D03*
%TO.P,DS1,15,LED(+)_15*%
%TO.N,Net-(DS1-LED(+))*%
X464060000Y67116750D03*
%TO.P,DS1,16,LED(-)_16*%
%TO.N,GND*%
X466600000Y67116750D03*
%TD*%
D21*
%TO.P,RV1,1,1_1*%
%TO.N,GND*%
X422070000Y58109250D03*
D22*
%TO.P,RV1,2,2_2*%
%TO.N,Net-(DS1-VO)*%
X424570000Y63109250D03*
%TO.P,RV1,3,3_3*%
%TO.N,/Power*%
X427070000Y58109250D03*
%TD*%
D17*
%TO.P,R3,1*%
%TO.N,/~{WAIT}*%
X473170000Y28359250D03*
D18*
%TO.P,R3,2*%
%TO.N,/Power*%
X465550000Y28359250D03*
%TD*%
D17*
%TO.P,R4,1*%
%TO.N,/~{NMI}*%
X473190000Y31559250D03*
D18*
%TO.P,R4,2*%
%TO.N,/Power*%
X465570000Y31559250D03*
%TD*%
D17*
%TO.P,R5,1*%
%TO.N,/~{INT}*%
X473180000Y25159250D03*
D18*
%TO.P,R5,2*%
%TO.N,/Power*%
X465560000Y25159250D03*
%TD*%
D17*
%TO.P,R6,1*%
%TO.N,/Power*%
X430370000Y62559250D03*
D18*
%TO.P,R6,2*%
%TO.N,Net-(DS1-LED(+))*%
X437990000Y62559250D03*
%TD*%
D17*
%TO.P,R1,1*%
%TO.N,/~{BUSREQ}*%
X473170000Y21959250D03*
D18*
%TO.P,R1,2*%
%TO.N,/Power*%
X465550000Y21959250D03*
%TD*%
D23*
%TO.N,GND*%
X494200000Y62800000D03*
X492502944Y64497056D03*
X489391674Y67608325D03*
X490947307Y66052689D03*
X487836039Y69163961D03*
X497200000Y9400000D03*
X497200000Y10319250D03*
X497200000Y11200000D03*
X471000000Y55800000D03*
X470400000Y56200000D03*
X470000000Y56800000D03*
X451400000Y70400000D03*
X448866667Y70400000D03*
X446333333Y70400000D03*
X443800000Y70400000D03*
X479200000Y56600000D03*
X480000000Y56600000D03*
X480800000Y56600000D03*
X481600000Y56600000D03*
X482400000Y56600000D03*
X483200000Y56600000D03*
X480200000Y43200000D03*
X480200000Y44000000D03*
X480200000Y44800000D03*
X442400000Y61400000D03*
X460000000Y61800000D03*
X463200000Y64800000D03*
X475400000Y63200000D03*
X473400000Y64600000D03*
X472400000Y66000000D03*
X470600000Y67600000D03*
X468800000Y67600000D03*
X469600000Y62000000D03*
X471400000Y61000000D03*
X472800000Y59200000D03*
X474000000Y58600000D03*
X475600000Y58600000D03*
X476400000Y61400000D03*
X476400000Y59800000D03*
X476400000Y58600000D03*
X458800000Y48600000D03*
X460000000Y48600000D03*
X459400000Y48200000D03*
X460000000Y47600000D03*
X480200000Y53800000D03*
X481600000Y53800000D03*
X483200000Y53800000D03*
X468000000Y57800000D03*
X461200000Y35800000D03*
X493191676Y54008331D03*
X485413499Y61786501D03*
X474241212Y72958788D03*
X472544156Y74655845D03*
X488383348Y58816652D03*
X491636041Y55563963D03*
X496302944Y50897056D03*
X482160806Y65039190D03*
X479049538Y68150462D03*
X486827713Y60372287D03*
X489938983Y57261017D03*
X475796847Y71403153D03*
X480605173Y66594826D03*
X498000000Y49200000D03*
X477352482Y69847518D03*
X494747309Y52452691D03*
X483716443Y63483557D03*
X499600000Y59599999D03*
X499600000Y50800000D03*
X499600000Y66200001D03*
X499600000Y37000000D03*
X499600000Y39400000D03*
X499600001Y45200000D03*
X499600000Y55200000D03*
X499600000Y48400000D03*
X499600000Y41800000D03*
X499599999Y73000000D03*
X499600000Y68600000D03*
X499600000Y57199999D03*
X499599999Y61799998D03*
X499600001Y70799999D03*
X499599999Y63999999D03*
X499600000Y46200000D03*
X499600000Y53000000D03*
X482200000Y75800000D03*
X432800000Y75800000D03*
X473400000Y75800000D03*
X488800000Y75800000D03*
X443800000Y75800000D03*
X466600000Y75800000D03*
X477800000Y75800000D03*
X471000000Y75800000D03*
X464400000Y75800000D03*
X495600000Y75800000D03*
X439600000Y75800000D03*
X491200000Y75800000D03*
X435000000Y75800000D03*
X428400000Y75800000D03*
X448400000Y75800000D03*
X452800000Y75800000D03*
X441800000Y75800000D03*
X437400000Y75800000D03*
X457400000Y75800000D03*
X479800000Y75800000D03*
X450600000Y75800000D03*
X484400000Y75800000D03*
X426000000Y75800000D03*
X455200000Y75800000D03*
X493400000Y75800000D03*
X486600000Y75800000D03*
X430600000Y75800000D03*
X468800000Y75800000D03*
X446200000Y75800000D03*
X475600000Y75800000D03*
X421400000Y40566249D03*
X421399999Y-8833749D03*
X421400000Y31766250D03*
X421400000Y47166251D03*
X421400000Y2166250D03*
X421400000Y17966250D03*
X421400000Y20366250D03*
X421400001Y24966250D03*
X421400000Y36166250D03*
X421400000Y29366250D03*
X421400000Y22766250D03*
X421399999Y53966250D03*
X421400000Y-2033750D03*
X421400000Y49566250D03*
X421400001Y-6633750D03*
X421400000Y-13233750D03*
X421399999Y6766250D03*
X421400000Y11166250D03*
X421400000Y166250D03*
X421400000Y-4233750D03*
X421400000Y15766250D03*
X421400000Y38166249D03*
X421400000Y8966250D03*
X421399999Y42766248D03*
X421400000Y-15633750D03*
X421400000Y13566250D03*
X421400001Y51766249D03*
X421399999Y44966249D03*
X421400000Y-11033750D03*
X421400000Y27166250D03*
X421400000Y4566250D03*
X421400000Y33966250D03*
X447000000Y-20600000D03*
X438200000Y-20600000D03*
X453600000Y-20600000D03*
X426800000Y-20600000D03*
X431400000Y-20600000D03*
X442600000Y-20600000D03*
X435800000Y-20600000D03*
X429200000Y-20600000D03*
X460400000Y-20600000D03*
X456000000Y-20600000D03*
X444600000Y-20600000D03*
X449200000Y-20600000D03*
X458200000Y-20600000D03*
X451400000Y-20600000D03*
X433600000Y-20600000D03*
X440400000Y-20600000D03*
X465200000Y-20600000D03*
X471800000Y-20600000D03*
X478600000Y-20600000D03*
X474200000Y-20600000D03*
X462800000Y-20600000D03*
X467400000Y-20600000D03*
X476400000Y-20600000D03*
X469600000Y-20600000D03*
X428400000Y69400000D03*
X426600000Y67200000D03*
X422000000Y59800000D03*
X422000000Y56200000D03*
X423800000Y58000000D03*
X454400000Y38000000D03*
X453400000Y39000000D03*
X452200000Y40000000D03*
X451400000Y40800000D03*
X450200000Y41800000D03*
X449400000Y42800000D03*
X448000000Y44200000D03*
X455400000Y37200000D03*
X456200000Y36000000D03*
X458000000Y34400000D03*
X459400000Y33800000D03*
X459400000Y34800000D03*
X459600000Y36200000D03*
X459800000Y38000000D03*
X460800000Y39200000D03*
X461800000Y40000000D03*
X463800000Y40000000D03*
X462800000Y40800000D03*
X462000000Y41600000D03*
X461200000Y42600000D03*
X460400000Y43400000D03*
X459600000Y44200000D03*
X447800000Y45000000D03*
X449400000Y45000000D03*
X451000000Y45000000D03*
X452400000Y45000000D03*
X453600000Y45000000D03*
X455000000Y45000000D03*
X456200000Y45000000D03*
X457400000Y45000000D03*
X458600000Y45000000D03*
X472400000Y55800000D03*
X471600000Y56200000D03*
X471000000Y56800000D03*
%TO.N,Net-(U2-PA3)*%
X445410000Y30959250D03*
%TO.N,/Power*%
X480370000Y7779250D03*
X477770000Y53596750D03*
%TO.N,Net-(U2-PA5)*%
X445410000Y38579250D03*
%TO.N,+5V*%
X500570000Y6559250D03*
%TO.N,Net-(U2-PA4)*%
X445410000Y36039250D03*
%TO.N,Net-(U2-PA0)*%
X445410000Y23339250D03*
%TO.N,/~{RD}*%
X470000000Y51196750D03*
X489235000Y46759250D03*
X441570000Y51359250D03*
X488370000Y30559250D03*
%TO.N,/~{WR}*%
X492970000Y28159250D03*
X476385000Y53196750D03*
X495585000Y46759250D03*
%TO.N,/A0*%
X466225000Y38996750D03*
X485425000Y35634250D03*
X485370000Y7759250D03*
%TO.N,/A1*%
X486695000Y35634250D03*
X486370000Y5359250D03*
X467495000Y39396750D03*
%TO.N,/A2*%
X468765000Y39796750D03*
X487965000Y35634250D03*
X486970000Y2759250D03*
%TO.N,/A3*%
X487970000Y159250D03*
X470035000Y40196750D03*
X489235000Y35634250D03*
%TO.N,/A4*%
X488170000Y-2240750D03*
X471305000Y40596750D03*
X490505000Y35634250D03*
%TO.N,/A5*%
X491775000Y35634250D03*
X472575000Y40996750D03*
X489370000Y-4840750D03*
%TO.N,/A6*%
X473845000Y41396750D03*
X493045000Y35634250D03*
X490570000Y-7440750D03*
%TO.N,/A7*%
X494315000Y35634250D03*
X491370000Y-9840750D03*
X475115000Y41796750D03*
%TO.N,/A8*%
X473845000Y52396750D03*
X493045000Y46759250D03*
X490770000Y-12440750D03*
%TO.N,/A9*%
X491775000Y46759250D03*
X490170000Y-15040750D03*
X472575000Y51996750D03*
%TO.N,/A10*%
X468765000Y50796750D03*
X487370000Y-17540750D03*
X487965000Y46759250D03*
%TO.N,/A11*%
X471305000Y51596750D03*
X488770000Y-16940750D03*
X490505000Y46759250D03*
%TO.N,/A12*%
X476385000Y42196750D03*
X490770000Y-15640750D03*
X495585000Y35634250D03*
%TO.N,/A13*%
X490770000Y-13240750D03*
X475115000Y52796750D03*
X494315000Y46759250D03*
%TO.N,/A14*%
X477655000Y42596750D03*
X499970000Y-11240750D03*
X496855000Y35634250D03*
%TO.N,/A15*%
X484715000Y55746750D03*
%TO.N,/CLK*%
X491370000Y26559250D03*
X491570000Y-3440750D03*
X467062892Y29052142D03*
%TO.N,/D4*%
X483170000Y-2520750D03*
X462400000Y49196750D03*
X442225329Y49204998D03*
X481615000Y46759250D03*
%TO.N,/D3*%
X480345000Y46759250D03*
X482170000Y19250D03*
X461200000Y48596750D03*
X442626815Y48513035D03*
%TO.N,/D5*%
X441600000Y49800000D03*
X482885000Y46759250D03*
X463685000Y49596750D03*
X483770000Y2559250D03*
%TO.N,/D6*%
X484155000Y46759250D03*
X484370000Y5359250D03*
X464955000Y49996750D03*
%TO.N,/D2*%
X462400000Y37796750D03*
X481615000Y35634250D03*
X482943405Y9742091D03*
%TO.N,/D7*%
X485425000Y46759250D03*
X466225000Y50396750D03*
X485770000Y12759250D03*
%TO.N,/D0*%
X464955000Y38596750D03*
X484370000Y15359250D03*
X484155000Y35634250D03*
%TO.N,/D1*%
X483670000Y17799250D03*
X482885000Y35634250D03*
X463800000Y38196750D03*
%TO.N,/~{IORQ}*%
X479400000Y33259250D03*
X442805951Y47733347D03*
%TO.N,Net-(U2-PA1)*%
X445410000Y25879250D03*
%TO.N,Net-(U2-PA6)*%
X445410000Y41119250D03*
%TO.N,Net-(U2-PA7)*%
X445410000Y43659250D03*
%TO.N,Net-(U2-PA2)*%
X445410000Y28419250D03*
%TO.N,/RS LCD*%
X436170000Y25959250D03*
%TO.N,/R{slash}W LCD*%
X436720000Y28559250D03*
%TO.N,/E LCD*%
X439170000Y30959250D03*
%TO.N,/LCD4*%
X439690000Y33559250D03*
%TO.N,/LCD5*%
X440090000Y36159250D03*
%TO.N,/LCD6*%
X440490000Y38559250D03*
%TO.N,/LCD7*%
X440890000Y41159250D03*
%TO.N,GND*%
X496400000Y-20600000D03*
X494200000Y-20600000D03*
X492000000Y-20600000D03*
X489600000Y-20600000D03*
X485200000Y-20600000D03*
X487400000Y-20600000D03*
X483000000Y-20600000D03*
X480600000Y-20600000D03*
%TD*%
%TO.N,/Power*%
D24*
X477770000Y62156845D02*
X477770000Y53596750D01*
X470926845Y69000000D02*
X477770000Y62156845D01*
X431040000Y67116750D02*
X432923250Y69000000D01*
X432923250Y69000000D02*
X470926845Y69000000D01*
%TO.N,/LCD7*%
D25*
X440890000Y64159250D02*
X440890000Y41159250D01*
X458562500Y64159250D02*
X440890000Y64159250D01*
X461520000Y67116750D02*
X458562500Y64159250D01*
%TO.N,/Power*%
D24*
X464370000Y17569250D02*
X464370000Y9630000D01*
X464370000Y9630000D02*
X465110750Y8889250D01*
X465510000Y18709250D02*
X464370000Y17569250D01*
X465110750Y8889250D02*
X472689250Y8889250D01*
%TO.N,/D5*%
D25*
X462481750Y50800000D02*
X463685000Y49596750D01*
X443148043Y50800000D02*
X462481750Y50800000D01*
X442148043Y49800000D02*
X443148043Y50800000D01*
X441600000Y49800000D02*
X442148043Y49800000D01*
%TO.N,/D4*%
X461424892Y50171858D02*
X462400000Y49196750D01*
X443756754Y50171858D02*
X461424892Y50171858D01*
X443482453Y49934358D02*
X443519254Y49934358D01*
X442753092Y49204998D02*
X443482453Y49934358D01*
X442225329Y49204998D02*
X442753092Y49204998D01*
%TO.N,/D3*%
X443648138Y49534358D02*
X460262392Y49534358D01*
X460262392Y49534358D02*
X461200000Y48596750D01*
%TO.N,/D4*%
X443519254Y49934358D02*
X443756754Y50171858D01*
%TO.N,/D3*%
X442626815Y48513035D02*
X443648138Y49534358D01*
%TO.N,Net-(U2-PA3)*%
X444810000Y30359250D02*
X445410000Y30959250D01*
X442020000Y-12583607D02*
X442020000Y-6045129D01*
X444810000Y27859250D02*
X444810000Y30359250D01*
X442020000Y-6045129D02*
X450770000Y2704871D01*
X450770000Y2704871D02*
X450770000Y21899250D01*
X450770000Y21899250D02*
X444810000Y27859250D01*
%TO.N,/Power*%
D24*
X465570000Y31559250D02*
X465570000Y21979250D01*
X469370000Y5570000D02*
X472689250Y8889250D01*
X465510000Y21919250D02*
X465550000Y21959250D01*
X465570000Y21979250D02*
X465550000Y21959250D01*
X479260000Y8889250D02*
X480370000Y7779250D01*
X469370000Y5359250D02*
X469370000Y5570000D01*
X472689250Y8889250D02*
X479260000Y8889250D01*
X465510000Y18709250D02*
X465510000Y21919250D01*
%TO.N,Net-(U2-PA5)*%
D25*
X447829999Y34499251D02*
X446101470Y34499251D01*
X451570000Y2524994D02*
X451570000Y30759250D01*
X446101470Y34499251D02*
X444810000Y35790721D01*
X454680000Y-585006D02*
X451570000Y2524994D01*
X451570000Y30759250D02*
X447829999Y34499251D01*
X444810000Y35790721D02*
X444810000Y37979250D01*
X454680000Y-8826464D02*
X454680000Y-585006D01*
X455980000Y-10126464D02*
X454680000Y-8826464D01*
X444810000Y37979250D02*
X445410000Y38579250D01*
%TO.N,+5V*%
X475800000Y6229250D02*
X477210000Y7639250D01*
X478290000Y6559250D02*
X477210000Y7639250D01*
X467370000Y5359250D02*
X469420000Y3309250D01*
X469420000Y3309250D02*
X474049899Y3309250D01*
X500570000Y6559250D02*
X478290000Y6559250D01*
X474049899Y3309250D02*
X475800000Y5059351D01*
X475800000Y5059351D02*
X475800000Y6229250D01*
%TO.N,/~{BUSREQ}*%
X497200000Y18949250D02*
X498810000Y20559250D01*
X476180000Y18949250D02*
X497200000Y18949250D01*
X473170000Y21959250D02*
X476180000Y18949250D01*
%TO.N,Net-(U2-PA4)*%
X451970000Y31559250D02*
X447490000Y36039250D01*
X455980000Y-1319321D02*
X451970000Y2690679D01*
X447490000Y36039250D02*
X445410000Y36039250D01*
X451970000Y2690679D02*
X451970000Y31559250D01*
%TO.N,Net-(U2-PA0)*%
X441970000Y3166393D02*
X445410000Y6606393D01*
X445410000Y6606393D02*
X445410000Y23339250D01*
%TO.N,/~{RD}*%
X488370000Y30559250D02*
X494570000Y30559250D01*
X494730000Y30719250D02*
X498810000Y30719250D01*
X470000000Y51196750D02*
X470200000Y50996750D01*
X469800000Y51396750D02*
X441607500Y51396750D01*
X470200000Y50996750D02*
X484997500Y50996750D01*
X494570000Y30559250D02*
X494730000Y30719250D01*
X470000000Y51196750D02*
X469800000Y51396750D01*
X484997500Y50996750D02*
X489235000Y46759250D01*
X441607500Y51396750D02*
X441570000Y51359250D01*
%TO.N,/~{WR}*%
X476585000Y52996750D02*
X489347500Y52996750D01*
X489347500Y52996750D02*
X495585000Y46759250D01*
X476385000Y53196750D02*
X476585000Y52996750D01*
X498790000Y28159250D02*
X498810000Y28179250D01*
X492970000Y28159250D02*
X498790000Y28159250D01*
%TO.N,/~{WAIT}*%
X473170000Y28359250D02*
X475660000Y25869250D01*
X475660000Y22802904D02*
X476733654Y21729250D01*
X497440000Y21729250D02*
X498810000Y23099250D01*
X476733654Y21729250D02*
X497440000Y21729250D01*
X475660000Y25869250D02*
X475660000Y22802904D01*
%TO.N,/~{RESET}*%
X472420000Y15409250D02*
X472420000Y17999250D01*
X472420000Y17999250D02*
X473130000Y18709250D01*
X472420000Y15409250D02*
X465920000Y15409250D01*
X497350000Y16559250D02*
X498810000Y18019250D01*
X473130000Y18709250D02*
X475280000Y16559250D01*
X475280000Y16559250D02*
X497350000Y16559250D01*
%TO.N,/A0*%
X466400000Y38996750D02*
X466600000Y38796750D01*
X482262500Y38796750D02*
X485425000Y35634250D01*
X466600000Y38796750D02*
X482262500Y38796750D01*
X485370000Y7759250D02*
X485470000Y7859250D01*
X485470000Y7859250D02*
X498810000Y7859250D01*
X466225000Y38996750D02*
X466400000Y38996750D01*
%TO.N,/A1*%
X467495000Y39396750D02*
X467695000Y39196750D01*
X467695000Y39196750D02*
X483132500Y39196750D01*
X487210000Y5319250D02*
X498810000Y5319250D01*
X487170000Y5359250D02*
X487210000Y5319250D01*
X483132500Y39196750D02*
X486695000Y35634250D01*
X486370000Y5359250D02*
X487170000Y5359250D01*
%TO.N,/A2*%
X486990000Y2779250D02*
X498810000Y2779250D01*
X468765000Y39796750D02*
X468965000Y39596750D01*
X486970000Y2759250D02*
X486990000Y2779250D01*
X468965000Y39596750D02*
X484002500Y39596750D01*
X484002500Y39596750D02*
X487965000Y35634250D01*
%TO.N,/A3*%
X470235000Y39996750D02*
X484872500Y39996750D01*
X487970000Y159250D02*
X498730000Y159250D01*
X498730000Y159250D02*
X498810000Y239250D01*
X484872500Y39996750D02*
X489235000Y35634250D01*
X470035000Y40196750D02*
X470235000Y39996750D01*
%TO.N,/A4*%
X485742500Y40396750D02*
X490505000Y35634250D01*
X471505000Y40396750D02*
X485742500Y40396750D01*
X471305000Y40596750D02*
X471505000Y40396750D01*
X488170000Y-2240750D02*
X498750000Y-2240750D01*
X498750000Y-2240750D02*
X498810000Y-2300750D01*
%TO.N,/A5*%
X472775000Y40796750D02*
X486612500Y40796750D01*
X472575000Y40996750D02*
X472775000Y40796750D01*
X486612500Y40796750D02*
X491775000Y35634250D01*
X489370000Y-4840750D02*
X498810000Y-4840750D01*
%TO.N,/A6*%
X490570000Y-7440750D02*
X498750000Y-7440750D01*
X474045000Y41196750D02*
X487482500Y41196750D01*
X487482500Y41196750D02*
X493045000Y35634250D01*
X473845000Y41396750D02*
X474045000Y41196750D01*
X498750000Y-7440750D02*
X498810000Y-7380750D01*
%TO.N,/A7*%
X498730000Y-9840750D02*
X498810000Y-9920750D01*
X488352500Y41596750D02*
X494315000Y35634250D01*
X475115000Y41796750D02*
X475315000Y41596750D01*
X491370000Y-9840750D02*
X498730000Y-9840750D01*
X475315000Y41596750D02*
X488352500Y41596750D01*
%TO.N,/A8*%
X492370000Y-12440750D02*
X492390000Y-12460750D01*
X487607500Y52196750D02*
X493045000Y46759250D01*
X492390000Y-12460750D02*
X498810000Y-12460750D01*
X473845000Y52396750D02*
X474045000Y52196750D01*
X490770000Y-12440750D02*
X492370000Y-12440750D01*
X474045000Y52196750D02*
X487607500Y52196750D01*
%TO.N,/A9*%
X486737500Y51796750D02*
X491775000Y46759250D01*
X472575000Y51996750D02*
X472775000Y51796750D01*
X472775000Y51796750D02*
X486737500Y51796750D01*
X490210000Y-15000750D02*
X498810000Y-15000750D01*
X490170000Y-15040750D02*
X490210000Y-15000750D01*
%TO.N,/A10*%
X487370000Y-17540750D02*
X498810000Y-17540750D01*
X468765000Y50796750D02*
X468965000Y50596750D01*
X484127500Y50596750D02*
X487965000Y46759250D01*
X468965000Y50596750D02*
X484127500Y50596750D01*
%TO.N,/A11*%
X488770000Y-16940750D02*
X478030000Y-16940750D01*
X478030000Y-16940750D02*
X477210000Y-17760750D01*
X485867500Y51396750D02*
X490505000Y46759250D01*
X471505000Y51396750D02*
X485867500Y51396750D01*
X471305000Y51596750D02*
X471505000Y51396750D01*
%TO.N,/A12*%
X476585000Y41996750D02*
X489222500Y41996750D01*
X477630000Y-15640750D02*
X477210000Y-15220750D01*
X490770000Y-15640750D02*
X477630000Y-15640750D01*
X489222500Y41996750D02*
X495585000Y35634250D01*
X476385000Y42196750D02*
X476585000Y41996750D01*
%TO.N,/A13*%
X475315000Y52596750D02*
X488477500Y52596750D01*
X479210000Y-12680750D02*
X477210000Y-12680750D01*
X490770000Y-13240750D02*
X479770000Y-13240750D01*
X488477500Y52596750D02*
X494315000Y46759250D01*
X479770000Y-13240750D02*
X479210000Y-12680750D01*
X475115000Y52796750D02*
X475315000Y52596750D01*
%TO.N,/A14*%
X478310000Y-11240750D02*
X477210000Y-10140750D01*
X477855000Y42396750D02*
X490092500Y42396750D01*
X477655000Y42596750D02*
X477855000Y42396750D01*
X499970000Y-11240750D02*
X478310000Y-11240750D01*
X490092500Y42396750D02*
X496855000Y35634250D01*
%TO.N,/A15*%
X476060000Y-18910750D02*
X476190000Y-19040750D01*
X487446029Y55746750D02*
X484715000Y55746750D01*
X498936346Y-19040750D02*
X501170000Y-16807096D01*
X476060000Y-8750750D02*
X476060000Y-18910750D01*
X501170000Y-16807096D02*
X501170000Y42022779D01*
X476190000Y-19040750D02*
X498936346Y-19040750D01*
X501170000Y42022779D02*
X487446029Y55746750D01*
X477210000Y-7600750D02*
X476060000Y-8750750D01*
%TO.N,/CLK*%
X485270000Y32659250D02*
X491370000Y26559250D01*
X471470000Y32659250D02*
X485270000Y32659250D01*
X467862892Y29052142D02*
X471470000Y32659250D01*
X491570000Y-3440750D02*
X478830000Y-3440750D01*
X478830000Y-3440750D02*
X477210000Y-5060750D01*
X467062892Y29052142D02*
X467862892Y29052142D01*
%TO.N,/D4*%
X462600000Y48996750D02*
X479377500Y48996750D01*
X479377500Y48996750D02*
X481615000Y46759250D01*
X483170000Y-2520750D02*
X477210000Y-2520750D01*
X462400000Y49196750D02*
X462600000Y48996750D01*
%TO.N,/D3*%
X461200000Y48596750D02*
X478507500Y48596750D01*
X478507500Y48596750D02*
X480345000Y46759250D01*
X482170000Y19250D02*
X477210000Y19250D01*
%TO.N,/D5*%
X463685000Y49596750D02*
X463885000Y49396750D01*
X483770000Y2559250D02*
X477210000Y2559250D01*
X463885000Y49396750D02*
X480247500Y49396750D01*
X480247500Y49396750D02*
X482885000Y46759250D01*
%TO.N,/D6*%
X464955000Y49996750D02*
X465155000Y49796750D01*
X481117500Y49796750D02*
X484155000Y46759250D01*
X484370000Y5359250D02*
X484110000Y5099250D01*
X484110000Y5099250D02*
X477210000Y5099250D01*
X465155000Y49796750D02*
X481117500Y49796750D01*
%TO.N,/D2*%
X462400000Y37796750D02*
X462600000Y37596750D01*
X462600000Y37596750D02*
X479652500Y37596750D01*
X479652500Y37596750D02*
X481615000Y35634250D01*
X482943405Y9742091D02*
X482926246Y9759250D01*
X482926246Y9759250D02*
X477630000Y9759250D01*
X477630000Y9759250D02*
X477210000Y10179250D01*
%TO.N,/D7*%
X466225000Y50396750D02*
X466425000Y50196750D01*
X485770000Y12759250D02*
X485730000Y12719250D01*
X481987500Y50196750D02*
X485425000Y46759250D01*
X485730000Y12719250D02*
X477210000Y12719250D01*
X466425000Y50196750D02*
X481987500Y50196750D01*
%TO.N,/D0*%
X481392500Y38396750D02*
X484155000Y35634250D01*
X465200000Y38396750D02*
X481392500Y38396750D01*
X484370000Y15359250D02*
X484270000Y15259250D01*
X464955000Y38596750D02*
X465000000Y38596750D01*
X465000000Y38596750D02*
X465200000Y38396750D01*
X484270000Y15259250D02*
X477210000Y15259250D01*
%TO.N,/D1*%
X463800000Y38196750D02*
X464000000Y37996750D01*
X483670000Y17799250D02*
X477210000Y17799250D01*
X464000000Y37996750D02*
X480522500Y37996750D01*
X480522500Y37996750D02*
X482885000Y35634250D01*
%TO.N,/~{INT}*%
X473180000Y25159250D02*
X473180000Y24369250D01*
X473180000Y24369250D02*
X477210000Y20339250D01*
%TO.N,/~{NMI}*%
X476060000Y24029250D02*
X477210000Y22879250D01*
X476060000Y28689250D02*
X476060000Y24029250D01*
X473190000Y31559250D02*
X476060000Y28689250D01*
%TO.N,/~{IORQ}*%
X443395903Y47733347D02*
X442805951Y47733347D01*
X479340750Y33200000D02*
X457929250Y33200000D01*
X479400000Y33259250D02*
X479340750Y33200000D01*
X457929250Y33200000D02*
X443395903Y47733347D01*
%TO.N,Net-(U2-PA1)*%
X432370000Y12839250D02*
X445410000Y25879250D01*
X432370000Y-4633607D02*
X432370000Y12839250D01*
%TO.N,Net-(U2-PA6)*%
X463870000Y1266393D02*
X463870000Y31259250D01*
X447605635Y41119250D02*
X445410000Y41119250D01*
X466720000Y-1583607D02*
X463870000Y1266393D01*
X462570000Y32559250D02*
X456165635Y32559250D01*
X463870000Y31259250D02*
X462570000Y32559250D01*
X456165635Y32559250D02*
X447605635Y41119250D01*
%TO.N,Net-(U2-PA7)*%
X462404314Y32159250D02*
X453521471Y32159250D01*
X463470000Y31093564D02*
X462404314Y32159250D01*
X453521471Y32159250D02*
X444810000Y40870721D01*
X463470000Y-172085D02*
X463470000Y31093564D01*
X468020000Y-4722085D02*
X463470000Y-172085D01*
X468020000Y-8490750D02*
X468020000Y-4722085D01*
X444810000Y43059250D02*
X445410000Y43659250D01*
X444810000Y40870721D02*
X444810000Y43059250D01*
X466370000Y-10140750D02*
X468020000Y-8490750D01*
%TO.N,Net-(U2-PA2)*%
X451620000Y-4783607D02*
X451370000Y-4533607D01*
X451170000Y25559250D02*
X448310000Y28419250D01*
X451170000Y2359309D02*
X451170000Y25559250D01*
X451370000Y2159308D02*
X451170000Y2359309D01*
X451370000Y-4533607D02*
X451370000Y2159308D01*
X448310000Y28419250D02*
X445410000Y28419250D01*
%TO.N,/RS LCD*%
X436120000Y67116750D02*
X436120000Y26009250D01*
X436120000Y26009250D02*
X436170000Y25959250D01*
%TO.N,/R{slash}W LCD*%
X438660000Y67116750D02*
X436720000Y65176750D01*
X436720000Y65176750D02*
X436720000Y28559250D01*
%TO.N,/E LCD*%
X441200000Y67116750D02*
X441200000Y66989250D01*
X439090000Y64879250D02*
X439090000Y31039250D01*
X439090000Y31039250D02*
X439170000Y30959250D01*
X441200000Y66989250D02*
X439090000Y64879250D01*
%TO.N,/LCD4*%
X439490000Y64713564D02*
X439490000Y33759250D01*
X452142500Y65359250D02*
X440135686Y65359250D01*
X439490000Y33759250D02*
X439690000Y33559250D01*
X440135686Y65359250D02*
X439490000Y64713564D01*
X453900000Y67116750D02*
X452142500Y65359250D01*
%TO.N,/LCD5*%
X454282500Y64959250D02*
X440301372Y64959250D01*
X439890000Y36359250D02*
X440090000Y36159250D01*
X439890000Y64547878D02*
X439890000Y36359250D01*
X456440000Y67116750D02*
X454282500Y64959250D01*
X440301372Y64959250D02*
X439890000Y64547878D01*
%TO.N,/LCD6*%
X456422500Y64559250D02*
X440467058Y64559250D01*
X440290000Y64382192D02*
X440290000Y38759250D01*
X440290000Y38759250D02*
X440490000Y38559250D01*
X458980000Y67116750D02*
X456422500Y64559250D01*
X440467058Y64559250D02*
X440290000Y64382192D01*
%TD*%
%TA.AperFunction,Conductor*%
%TO.N,GND*%
G36*
X495856978Y77299499D02*
G01*
X495856979Y77299500D01*
X495864583Y77299499D01*
X495864587Y77299499D01*
X495895085Y77299499D01*
X495927921Y77299499D01*
X495933042Y77299393D01*
X496379497Y77280931D01*
X496389711Y77280085D01*
X496830581Y77225133D01*
X496840690Y77223446D01*
X497275511Y77132276D01*
X497285446Y77129760D01*
X497711253Y77002994D01*
X497720947Y76999666D01*
X498134824Y76838172D01*
X498144209Y76834056D01*
X498543354Y76638927D01*
X498552367Y76634049D01*
X498934025Y76406632D01*
X498942605Y76401026D01*
X499304167Y76142876D01*
X499312255Y76136582D01*
X499651290Y75849435D01*
X499658830Y75842493D01*
X499972969Y75528354D01*
X499979911Y75520814D01*
X500267058Y75181779D01*
X500273352Y75173691D01*
X500531502Y74812129D01*
X500537108Y74803549D01*
X500764525Y74421891D01*
X500769403Y74412878D01*
X500964532Y74013733D01*
X500968648Y74004348D01*
X501130142Y73590471D01*
X501133470Y73580777D01*
X501260236Y73154970D01*
X501262752Y73145035D01*
X501353922Y72710214D01*
X501355609Y72700105D01*
X501410561Y72259235D01*
X501411407Y72249021D01*
X501429869Y71802566D01*
X501429975Y71797445D01*
X501429975Y71764086D01*
X501429975Y71734111D01*
X501429975Y71734108D01*
X501429976Y71724117D01*
X501429976Y42911399D01*
X501410291Y42844360D01*
X501357487Y42798605D01*
X501288329Y42788661D01*
X501224773Y42817686D01*
X501218309Y42823704D01*
X487936758Y56105254D01*
X487936757Y56105257D01*
X487926549Y56115464D01*
X487926549Y56115466D01*
X487814745Y56227270D01*
X487727933Y56277389D01*
X487677814Y56306327D01*
X487525086Y56347251D01*
X487366972Y56347251D01*
X487359376Y56347251D01*
X487359360Y56347250D01*
X485294766Y56347250D01*
X485227727Y56366935D01*
X485225875Y56368148D01*
X485094185Y56456140D01*
X485094184Y56456140D01*
X485094179Y56456144D01*
X484948497Y56516487D01*
X484871520Y56531798D01*
X484793845Y56547250D01*
X484793842Y56547250D01*
X484636158Y56547250D01*
X484636155Y56547250D01*
X484542858Y56528691D01*
X484481503Y56516487D01*
X484481498Y56516485D01*
X484335827Y56456147D01*
X484335814Y56456140D01*
X484204711Y56368539D01*
X484204707Y56368536D01*
X484093213Y56257042D01*
X484093210Y56257038D01*
X484005609Y56125935D01*
X484005602Y56125922D01*
X483945264Y55980251D01*
X483945261Y55980239D01*
X483914500Y55825596D01*
X483914500Y55667903D01*
X483945261Y55513260D01*
X483945264Y55513248D01*
X484005602Y55367577D01*
X484005609Y55367564D01*
X484093210Y55236461D01*
X484093213Y55236457D01*
X484204707Y55124963D01*
X484204711Y55124960D01*
X484335814Y55037359D01*
X484335827Y55037352D01*
X484481498Y54977014D01*
X484481510Y54977011D01*
X484636153Y54946250D01*
X484636158Y54946250D01*
X484793846Y54946250D01*
X484948489Y54977011D01*
X484948501Y54977014D01*
X485094172Y55037352D01*
X485094185Y55037359D01*
X485225875Y55125352D01*
X485292553Y55146230D01*
X485294766Y55146250D01*
X487145932Y55146250D01*
X487212971Y55126565D01*
X487233613Y55109931D01*
X488534613Y53808931D01*
X488568098Y53747608D01*
X488563114Y53677916D01*
X488521242Y53621983D01*
X488455778Y53597566D01*
X488446932Y53597250D01*
X478687848Y53597250D01*
X478620809Y53616935D01*
X478575054Y53669739D01*
X478566231Y53697058D01*
X478539738Y53830241D01*
X478539737Y53830247D01*
X478479939Y53974614D01*
X478470500Y54022066D01*
X478470500Y62225840D01*
X478443581Y62361167D01*
X478443580Y62361173D01*
X478390775Y62488656D01*
X478314114Y62603388D01*
X471373388Y69544114D01*
X471258656Y69620775D01*
X471258653Y69620776D01*
X471258652Y69620777D01*
X471194914Y69647177D01*
X471131173Y69673580D01*
X471086885Y69682389D01*
X470995841Y69700500D01*
X470995839Y69700500D01*
X470995838Y69700500D01*
X463683144Y69700500D01*
X463616105Y69720185D01*
X463570350Y69772989D01*
X463560406Y69842147D01*
X463575757Y69886500D01*
X464679035Y71797441D01*
X465306838Y72884831D01*
X465340206Y73009364D01*
X465340946Y73012124D01*
X465340946Y73143907D01*
X465340945Y73143909D01*
X465306837Y73271203D01*
X465240945Y73385331D01*
X463377402Y76613091D01*
X463377397Y76613104D01*
X463369239Y76627233D01*
X463369239Y76627235D01*
X463303347Y76741363D01*
X463210161Y76834549D01*
X463096033Y76900441D01*
X463096030Y76900441D01*
X463096030Y76900442D01*
X463002849Y76925409D01*
X463002847Y76925409D01*
X462968740Y76934549D01*
X462968739Y76934549D01*
X459093520Y76934549D01*
X458961736Y76934549D01*
X458961735Y76934549D01*
X458951301Y76931752D01*
X458927632Y76925410D01*
X458927626Y76925410D01*
X458927627Y76925409D01*
X458834445Y76900442D01*
X458834444Y76900441D01*
X458834443Y76900441D01*
X458720315Y76834549D01*
X458720312Y76834546D01*
X458627131Y76741365D01*
X458627126Y76741359D01*
X458556917Y76619753D01*
X458556906Y76619732D01*
X457276109Y74401317D01*
X456689531Y73385331D01*
X456623639Y73271203D01*
X456589530Y73143909D01*
X456589530Y73143908D01*
X456589530Y73143907D01*
X456589530Y73012121D01*
X456607807Y72943908D01*
X456623636Y72884834D01*
X456623639Y72884827D01*
X458354719Y69886500D01*
X458371192Y69818600D01*
X458348339Y69752573D01*
X458293418Y69709382D01*
X458247332Y69700500D01*
X432854254Y69700500D01*
X432718927Y69673581D01*
X432718922Y69673580D01*
X432718917Y69673578D01*
X432591442Y69620777D01*
X432476704Y69544112D01*
X432476703Y69544111D01*
X431753684Y68821091D01*
X431692361Y68787606D01*
X431622670Y68792590D01*
X431609715Y68798284D01*
X431577606Y68814645D01*
X431367951Y68882765D01*
X431150222Y68917250D01*
X430929778Y68917250D01*
X430712049Y68882765D01*
X430607221Y68848705D01*
X430502396Y68814646D01*
X430502393Y68814645D01*
X430434375Y68779987D01*
X430305978Y68714565D01*
X430305974Y68714562D01*
X430127641Y68584997D01*
X430127636Y68584993D01*
X430077076Y68534433D01*
X430015753Y68500948D01*
X429946061Y68505932D01*
X429890128Y68547804D01*
X429873213Y68578781D01*
X429843354Y68658836D01*
X429843350Y68658843D01*
X429757190Y68773937D01*
X429757187Y68773940D01*
X429642093Y68860100D01*
X429642086Y68860104D01*
X429507379Y68910346D01*
X429507372Y68910348D01*
X429447844Y68916749D01*
X429447828Y68916750D01*
X428750000Y68916750D01*
X428750000Y67665232D01*
X428731591Y67675861D01*
X428578991Y67716750D01*
X428421009Y67716750D01*
X428268409Y67675861D01*
X428250000Y67665232D01*
X428250000Y68916750D01*
X427552172Y68916750D01*
X427552155Y68916749D01*
X427492627Y68910348D01*
X427492620Y68910346D01*
X427357913Y68860104D01*
X427357906Y68860100D01*
X427242812Y68773940D01*
X427242809Y68773937D01*
X427156649Y68658843D01*
X427156645Y68658836D01*
X427106403Y68524129D01*
X427106401Y68524122D01*
X427100000Y68464594D01*
X427100000Y67366750D01*
X427951518Y67366750D01*
X427940889Y67348341D01*
X427900000Y67195741D01*
X427900000Y67037759D01*
X427940889Y66885159D01*
X427951518Y66866750D01*
X427100000Y66866750D01*
X427100000Y65768905D01*
X427106401Y65709377D01*
X427106403Y65709370D01*
X427156645Y65574663D01*
X427156649Y65574656D01*
X427242809Y65459562D01*
X427242812Y65459559D01*
X427357906Y65373399D01*
X427357913Y65373395D01*
X427492620Y65323153D01*
X427492627Y65323151D01*
X427552155Y65316750D01*
X428250000Y65316750D01*
X428250000Y66568267D01*
X428268409Y66557639D01*
X428421009Y66516750D01*
X428578991Y66516750D01*
X428731591Y66557639D01*
X428750000Y66568267D01*
X428750000Y65316750D01*
X429447844Y65316750D01*
X429507372Y65323151D01*
X429507379Y65323153D01*
X429642086Y65373395D01*
X429642093Y65373399D01*
X429757187Y65459559D01*
X429757190Y65459562D01*
X429843350Y65574656D01*
X429843354Y65574663D01*
X429873213Y65654718D01*
X429915084Y65710652D01*
X429980549Y65735069D01*
X430048822Y65720217D01*
X430077075Y65699067D01*
X430127636Y65648506D01*
X430127641Y65648502D01*
X430305974Y65518937D01*
X430502393Y65418854D01*
X430502396Y65418853D01*
X430712047Y65350735D01*
X430842402Y65330089D01*
X430929778Y65316250D01*
X430929779Y65316250D01*
X431150221Y65316250D01*
X431150222Y65316250D01*
X431293190Y65338894D01*
X431367952Y65350735D01*
X431577603Y65418853D01*
X431577606Y65418854D01*
X431727595Y65495279D01*
X431774022Y65518935D01*
X431774611Y65519363D01*
X431952358Y65648502D01*
X431952363Y65648506D01*
X432108243Y65804386D01*
X432108247Y65804391D01*
X432209682Y65944004D01*
X432265012Y65986670D01*
X432334625Y65992649D01*
X432396420Y65960043D01*
X432410318Y65944004D01*
X432511752Y65804391D01*
X432511756Y65804386D01*
X432667636Y65648506D01*
X432667641Y65648502D01*
X432845974Y65518937D01*
X433042393Y65418854D01*
X433042396Y65418853D01*
X433252047Y65350735D01*
X433382402Y65330089D01*
X433469778Y65316250D01*
X433469779Y65316250D01*
X433690221Y65316250D01*
X433690222Y65316250D01*
X433833190Y65338894D01*
X433907952Y65350735D01*
X434117603Y65418853D01*
X434117606Y65418854D01*
X434267595Y65495279D01*
X434314022Y65518935D01*
X434314611Y65519363D01*
X434492358Y65648502D01*
X434492363Y65648506D01*
X434648243Y65804386D01*
X434648247Y65804391D01*
X434749682Y65944004D01*
X434805012Y65986670D01*
X434874625Y65992649D01*
X434936420Y65960043D01*
X434950318Y65944004D01*
X435051752Y65804391D01*
X435051756Y65804386D01*
X435207636Y65648506D01*
X435207641Y65648502D01*
X435385976Y65518935D01*
X435451796Y65485398D01*
X435502591Y65437424D01*
X435519500Y65374914D01*
X435519500Y26464185D01*
X435499815Y26397146D01*
X435498633Y26395340D01*
X435478006Y26364470D01*
X435460606Y26338429D01*
X435460602Y26338422D01*
X435400264Y26192751D01*
X435400261Y26192739D01*
X435369500Y26038096D01*
X435369500Y25880403D01*
X435400261Y25725760D01*
X435400264Y25725748D01*
X435460602Y25580077D01*
X435460609Y25580064D01*
X435548210Y25448961D01*
X435548213Y25448957D01*
X435659707Y25337463D01*
X435659711Y25337460D01*
X435790814Y25249859D01*
X435790827Y25249852D01*
X435936498Y25189514D01*
X435936510Y25189511D01*
X436091153Y25158750D01*
X436091158Y25158750D01*
X436248846Y25158750D01*
X436403489Y25189511D01*
X436403501Y25189514D01*
X436549172Y25249852D01*
X436549185Y25249859D01*
X436680288Y25337460D01*
X436680292Y25337463D01*
X436791786Y25448957D01*
X436791789Y25448961D01*
X436879390Y25580064D01*
X436879397Y25580077D01*
X436939735Y25725748D01*
X436939737Y25725753D01*
X436970499Y25880403D01*
X436970500Y25880405D01*
X436970500Y26038094D01*
X436970499Y26038096D01*
X436955649Y26112751D01*
X436939737Y26192747D01*
X436884645Y26325753D01*
X436879397Y26338422D01*
X436879396Y26338422D01*
X436879394Y26338429D01*
X436791789Y26469539D01*
X436756820Y26504508D01*
X436723334Y26565830D01*
X436720500Y26592190D01*
X436720500Y27641402D01*
X436740185Y27708441D01*
X436792989Y27754196D01*
X436820308Y27763019D01*
X436953491Y27789511D01*
X436953501Y27789514D01*
X437099172Y27849852D01*
X437099185Y27849859D01*
X437230288Y27937460D01*
X437230292Y27937463D01*
X437341786Y28048957D01*
X437341789Y28048961D01*
X437429390Y28180064D01*
X437429397Y28180077D01*
X437489735Y28325748D01*
X437489737Y28325753D01*
X437520499Y28480403D01*
X437520500Y28480405D01*
X437520500Y28638094D01*
X437520499Y28638096D01*
X437489737Y28792747D01*
X437429394Y28938429D01*
X437341789Y29069539D01*
X437341788Y29069539D01*
X437341398Y29070124D01*
X437320520Y29136801D01*
X437320500Y29139015D01*
X437320500Y61238983D01*
X437340185Y61306022D01*
X437392989Y61351777D01*
X437462147Y61361721D01*
X437486028Y61355169D01*
X437486147Y61355535D01*
X437685463Y61290773D01*
X437833704Y61267294D01*
X437887648Y61258750D01*
X437887649Y61258750D01*
X438092351Y61258750D01*
X438092352Y61258750D01*
X438193443Y61274761D01*
X438294535Y61290773D01*
X438294542Y61290774D01*
X438327183Y61301380D01*
X438397024Y61303375D01*
X438456857Y61267294D01*
X438487684Y61204593D01*
X438489500Y61183449D01*
X438489500Y31419286D01*
X438469815Y31352247D01*
X438468653Y31350472D01*
X438460606Y31338429D01*
X438460604Y31338426D01*
X438460602Y31338422D01*
X438400264Y31192751D01*
X438400261Y31192739D01*
X438369500Y31038096D01*
X438369500Y30880403D01*
X438400261Y30725760D01*
X438400264Y30725748D01*
X438460602Y30580077D01*
X438460609Y30580064D01*
X438548210Y30448961D01*
X438548213Y30448957D01*
X438659707Y30337463D01*
X438659711Y30337460D01*
X438790814Y30249859D01*
X438790827Y30249852D01*
X438936498Y30189514D01*
X438936510Y30189511D01*
X439091153Y30158750D01*
X439091158Y30158750D01*
X439248846Y30158750D01*
X439403489Y30189511D01*
X439403501Y30189514D01*
X439549172Y30249852D01*
X439549185Y30249859D01*
X439680288Y30337460D01*
X439680292Y30337463D01*
X439791786Y30448957D01*
X439791789Y30448961D01*
X439879390Y30580064D01*
X439879397Y30580077D01*
X439939735Y30725748D01*
X439939737Y30725753D01*
X439970499Y30880403D01*
X439970500Y30880405D01*
X439970500Y31038094D01*
X439970499Y31038096D01*
X439966136Y31060031D01*
X439939737Y31192747D01*
X439879394Y31338429D01*
X439791789Y31469539D01*
X439726817Y31534510D01*
X439693334Y31595831D01*
X439690500Y31622190D01*
X439690500Y32641402D01*
X439710185Y32708441D01*
X439762989Y32754196D01*
X439790308Y32763019D01*
X439923491Y32789511D01*
X439923501Y32789514D01*
X440069172Y32849852D01*
X440069185Y32849859D01*
X440200288Y32937460D01*
X440200292Y32937463D01*
X440311786Y33048957D01*
X440311789Y33048961D01*
X440399390Y33180064D01*
X440399397Y33180077D01*
X440459735Y33325748D01*
X440459737Y33325753D01*
X440490499Y33480403D01*
X440490500Y33480405D01*
X440490500Y33638094D01*
X440490499Y33638096D01*
X440490432Y33638435D01*
X440459737Y33792747D01*
X440399394Y33938429D01*
X440311789Y34069539D01*
X440200289Y34181039D01*
X440145608Y34217575D01*
X440100805Y34271185D01*
X440090500Y34320676D01*
X440090500Y35241402D01*
X440110185Y35308441D01*
X440162989Y35354196D01*
X440190308Y35363019D01*
X440323491Y35389511D01*
X440323501Y35389514D01*
X440469172Y35449852D01*
X440469185Y35449859D01*
X440600288Y35537460D01*
X440600292Y35537463D01*
X440711786Y35648957D01*
X440711789Y35648961D01*
X440799390Y35780064D01*
X440799397Y35780077D01*
X440859735Y35925748D01*
X440859737Y35925753D01*
X440890499Y36080403D01*
X440890500Y36080405D01*
X440890500Y36238094D01*
X440890499Y36238096D01*
X440859737Y36392747D01*
X440799394Y36538429D01*
X440711789Y36669539D01*
X440600289Y36781039D01*
X440545608Y36817575D01*
X440500805Y36871185D01*
X440490500Y36920676D01*
X440490500Y37641402D01*
X440510185Y37708441D01*
X440562989Y37754196D01*
X440590308Y37763019D01*
X440723491Y37789511D01*
X440723501Y37789514D01*
X440869172Y37849852D01*
X440869185Y37849859D01*
X441000288Y37937460D01*
X441000292Y37937463D01*
X441111786Y38048957D01*
X441111789Y38048961D01*
X441199390Y38180064D01*
X441199397Y38180077D01*
X441259735Y38325748D01*
X441259737Y38325753D01*
X441290499Y38480403D01*
X441290500Y38480405D01*
X441290500Y38638094D01*
X441290499Y38638096D01*
X441289993Y38640642D01*
X441259737Y38792747D01*
X441199394Y38938429D01*
X441111789Y39069539D01*
X441000289Y39181039D01*
X440945608Y39217575D01*
X440900805Y39271185D01*
X440890500Y39320676D01*
X440890500Y40241402D01*
X440910185Y40308441D01*
X440962989Y40354196D01*
X440990308Y40363019D01*
X441123491Y40389511D01*
X441123501Y40389514D01*
X441269172Y40449852D01*
X441269185Y40449859D01*
X441400288Y40537460D01*
X441400292Y40537463D01*
X441511786Y40648957D01*
X441511789Y40648961D01*
X441599390Y40780064D01*
X441599397Y40780077D01*
X441659735Y40925748D01*
X441659737Y40925753D01*
X441690499Y41080403D01*
X441690500Y41080405D01*
X441690500Y41238094D01*
X441690499Y41238096D01*
X441659737Y41392747D01*
X441599394Y41538429D01*
X441511789Y41669539D01*
X441511788Y41669539D01*
X441511398Y41670124D01*
X441490520Y41736801D01*
X441490500Y41739015D01*
X441490500Y48508386D01*
X441510185Y48575425D01*
X441562989Y48621180D01*
X441632147Y48631124D01*
X441688862Y48607614D01*
X441695937Y48602311D01*
X441715040Y48583209D01*
X441773977Y48543827D01*
X441776677Y48541805D01*
X441795666Y48516410D01*
X441816011Y48492066D01*
X441816836Y48488099D01*
X441818519Y48485850D01*
X441819147Y48477003D01*
X441826315Y48442577D01*
X441826315Y48434188D01*
X441857076Y48279545D01*
X441857079Y48279533D01*
X441917417Y48133862D01*
X441917424Y48133849D01*
X442006026Y48001248D01*
X442026904Y47934570D01*
X442024541Y47908166D01*
X442005451Y47812193D01*
X442005451Y47654500D01*
X442036212Y47499857D01*
X442036215Y47499845D01*
X442096553Y47354174D01*
X442096560Y47354161D01*
X442184161Y47223058D01*
X442184164Y47223054D01*
X442295658Y47111560D01*
X442295662Y47111557D01*
X442426765Y47023956D01*
X442426778Y47023949D01*
X442572449Y46963611D01*
X442572461Y46963608D01*
X442727104Y46932847D01*
X442727109Y46932847D01*
X442884797Y46932847D01*
X443039440Y46963608D01*
X443039452Y46963611D01*
X443158739Y47013021D01*
X443228208Y47020490D01*
X443290687Y46989214D01*
X443293872Y46986141D01*
X445613511Y44666503D01*
X445646996Y44605180D01*
X445642012Y44535488D01*
X445600140Y44479555D01*
X445534676Y44455138D01*
X445501637Y44457205D01*
X445488843Y44459750D01*
X445488842Y44459750D01*
X445331158Y44459750D01*
X445331155Y44459750D01*
X445237858Y44441191D01*
X445176503Y44428987D01*
X445176498Y44428985D01*
X445030827Y44368647D01*
X445030814Y44368640D01*
X444899711Y44281039D01*
X444899707Y44281036D01*
X444788213Y44169542D01*
X444788210Y44169538D01*
X444700609Y44038435D01*
X444700602Y44038422D01*
X444640264Y43892751D01*
X444640261Y43892741D01*
X444609361Y43737399D01*
X444600595Y43720642D01*
X444596576Y43702164D01*
X444577833Y43677127D01*
X444576976Y43675488D01*
X444575425Y43673910D01*
X444448355Y43546840D01*
X444448349Y43546835D01*
X444441284Y43539770D01*
X444329480Y43427966D01*
X444285115Y43351123D01*
X444250423Y43291035D01*
X444209499Y43138307D01*
X444209499Y43138304D01*
X444209499Y42972598D01*
X444209500Y42972580D01*
X444209500Y40959780D01*
X444209499Y40959767D01*
X444209499Y40791666D01*
X444209498Y40791666D01*
X444250423Y40638935D01*
X444264835Y40613974D01*
X444264835Y40613973D01*
X444329477Y40502008D01*
X444329481Y40502003D01*
X445267690Y39563795D01*
X445301175Y39502472D01*
X445296191Y39432780D01*
X445254319Y39376847D01*
X445204201Y39354497D01*
X445176508Y39348988D01*
X445176503Y39348987D01*
X445176498Y39348985D01*
X445030827Y39288647D01*
X445030814Y39288640D01*
X444899711Y39201039D01*
X444899707Y39201036D01*
X444788213Y39089542D01*
X444788210Y39089538D01*
X444700609Y38958435D01*
X444700602Y38958422D01*
X444640264Y38812751D01*
X444640261Y38812741D01*
X444609361Y38657399D01*
X444600595Y38640642D01*
X444596576Y38622164D01*
X444577833Y38597127D01*
X444576976Y38595488D01*
X444575425Y38593910D01*
X444448355Y38466840D01*
X444448349Y38466835D01*
X444329481Y38347967D01*
X444329475Y38347959D01*
X444287695Y38275593D01*
X444287695Y38275592D01*
X444250423Y38211035D01*
X444209499Y38058307D01*
X444209499Y38058304D01*
X444209499Y37892598D01*
X444209500Y37892580D01*
X444209500Y35879780D01*
X444209499Y35879767D01*
X444209499Y35711664D01*
X444250421Y35558939D01*
X444250423Y35558936D01*
X444252585Y35555192D01*
X444252588Y35555185D01*
X444252590Y35555183D01*
X444329477Y35422008D01*
X444329481Y35422003D01*
X445732752Y34018732D01*
X445732760Y34018726D01*
X445869679Y33939677D01*
X445869684Y33939674D01*
X445981364Y33909750D01*
X445981363Y33909749D01*
X446022411Y33898751D01*
X446022412Y33898751D01*
X446022413Y33898751D01*
X447529902Y33898751D01*
X447596941Y33879066D01*
X447617583Y33862432D01*
X450019258Y31460756D01*
X450052743Y31399433D01*
X450047759Y31329741D01*
X450005887Y31273808D01*
X449940423Y31249391D01*
X449893258Y31255144D01*
X449854534Y31267727D01*
X449652352Y31299750D01*
X449447648Y31299750D01*
X449346557Y31283738D01*
X449245465Y31267727D01*
X449161374Y31240404D01*
X449050781Y31204470D01*
X449050778Y31204468D01*
X449050776Y31204468D01*
X449001647Y31179435D01*
X448868390Y31111537D01*
X448858157Y31104102D01*
X448702786Y30991221D01*
X448558028Y30846463D01*
X448437715Y30680863D01*
X448437713Y30680860D01*
X448418874Y30643887D01*
X448344781Y30498473D01*
X448281522Y30303784D01*
X448249500Y30101601D01*
X448249500Y29896898D01*
X448281522Y29694715D01*
X448344781Y29500026D01*
X448437714Y29317637D01*
X448512534Y29214655D01*
X448516981Y29202190D01*
X448525543Y29192098D01*
X448528494Y29169921D01*
X448536013Y29148849D01*
X448533015Y29135957D01*
X448534761Y29122839D01*
X448525254Y29102587D01*
X448520187Y29080795D01*
X448510695Y29071570D01*
X448505072Y29059591D01*
X448486125Y29047693D01*
X448470081Y29032101D01*
X448455783Y29028639D01*
X448445901Y29022434D01*
X448423455Y29020813D01*
X448410916Y29017778D01*
X448395830Y29017936D01*
X448389057Y29019751D01*
X448230943Y29019751D01*
X448230939Y29019750D01*
X445989766Y29019750D01*
X445922727Y29039435D01*
X445920875Y29040648D01*
X445789185Y29128640D01*
X445789184Y29128640D01*
X445789179Y29128644D01*
X445643497Y29188987D01*
X445510309Y29215480D01*
X445448398Y29247865D01*
X445413824Y29308580D01*
X445410500Y29337097D01*
X445410500Y30041402D01*
X445430185Y30108441D01*
X445482989Y30154196D01*
X445510308Y30163019D01*
X445643491Y30189511D01*
X445643501Y30189514D01*
X445789172Y30249852D01*
X445789185Y30249859D01*
X445920288Y30337460D01*
X445920292Y30337463D01*
X446031786Y30448957D01*
X446031789Y30448961D01*
X446119390Y30580064D01*
X446119397Y30580077D01*
X446179735Y30725748D01*
X446179737Y30725753D01*
X446210499Y30880403D01*
X446210500Y30880405D01*
X446210500Y31038094D01*
X446210499Y31038096D01*
X446206136Y31060031D01*
X446179737Y31192747D01*
X446119394Y31338429D01*
X446031789Y31469539D01*
X445920289Y31581039D01*
X445789179Y31668644D01*
X445643497Y31728987D01*
X445566520Y31744298D01*
X445488845Y31759750D01*
X445488842Y31759750D01*
X445331158Y31759750D01*
X445331155Y31759750D01*
X445237858Y31741191D01*
X445176503Y31728987D01*
X445176498Y31728985D01*
X445030827Y31668647D01*
X445030814Y31668640D01*
X444899711Y31581039D01*
X444899707Y31581036D01*
X444788213Y31469542D01*
X444788210Y31469538D01*
X444700609Y31338435D01*
X444700602Y31338422D01*
X444640264Y31192751D01*
X444640261Y31192741D01*
X444609361Y31037399D01*
X444600595Y31020642D01*
X444596576Y31002164D01*
X444577833Y30977127D01*
X444576976Y30975488D01*
X444575425Y30973910D01*
X444448355Y30846840D01*
X444448349Y30846835D01*
X444329481Y30727967D01*
X444329477Y30727962D01*
X444320280Y30712031D01*
X444289518Y30658749D01*
X444250423Y30591035D01*
X444209499Y30438307D01*
X444209499Y30438304D01*
X444209499Y30272598D01*
X444209500Y30272580D01*
X444209500Y27948309D01*
X444209499Y27948296D01*
X444209499Y27780195D01*
X444209498Y27780195D01*
X444250422Y27627468D01*
X444250424Y27627463D01*
X444255457Y27618746D01*
X444329477Y27490537D01*
X444329481Y27490532D01*
X444441286Y27378728D01*
X445044201Y26775812D01*
X445077686Y26714489D01*
X445072702Y26644797D01*
X445030830Y26588864D01*
X445025411Y26585029D01*
X444899710Y26501039D01*
X444788213Y26389542D01*
X444788210Y26389538D01*
X444700609Y26258435D01*
X444700602Y26258422D01*
X444640264Y26112751D01*
X444640261Y26112741D01*
X444609361Y25957399D01*
X444576976Y25895488D01*
X444575425Y25893910D01*
X432008355Y13326840D01*
X432008349Y13326835D01*
X432001284Y13319770D01*
X431889480Y13207966D01*
X431849333Y13138429D01*
X431810423Y13071035D01*
X431769499Y12918307D01*
X431769499Y12918304D01*
X431769499Y12752598D01*
X431769500Y12752580D01*
X431769500Y-3179538D01*
X431749815Y-3246577D01*
X431701796Y-3290022D01*
X431583568Y-3350262D01*
X431449896Y-3447381D01*
X431392490Y-3489090D01*
X431392488Y-3489092D01*
X431392487Y-3489092D01*
X431225485Y-3656094D01*
X431225485Y-3656095D01*
X431225483Y-3656097D01*
X431173067Y-3728241D01*
X431086657Y-3847173D01*
X430979433Y-4057610D01*
X430906446Y-4282238D01*
X430869500Y-4515509D01*
X430869500Y-4751704D01*
X430906446Y-4984975D01*
X430979433Y-5209603D01*
X431086657Y-5420040D01*
X431225483Y-5611117D01*
X431392490Y-5778124D01*
X431583567Y-5916950D01*
X431629869Y-5940542D01*
X431794003Y-6024173D01*
X431794005Y-6024173D01*
X431794008Y-6024175D01*
X431914412Y-6063296D01*
X432018631Y-6097160D01*
X432251903Y-6134107D01*
X432251908Y-6134107D01*
X432488097Y-6134107D01*
X432721368Y-6097160D01*
X432740776Y-6090854D01*
X432945992Y-6024175D01*
X433156433Y-5916950D01*
X433347510Y-5778124D01*
X433514517Y-5611117D01*
X433653343Y-5420040D01*
X433760568Y-5209599D01*
X433833553Y-4984975D01*
X433840820Y-4939092D01*
X433870500Y-4751704D01*
X433870500Y-4515509D01*
X433833553Y-4282238D01*
X433762168Y-4062539D01*
X433760568Y-4057615D01*
X433760566Y-4057612D01*
X433760566Y-4057610D01*
X433680888Y-3901234D01*
X433653343Y-3847174D01*
X433514517Y-3656097D01*
X433347510Y-3489090D01*
X433215308Y-3393039D01*
X433156431Y-3350262D01*
X433038204Y-3290022D01*
X432987409Y-3242048D01*
X432970500Y-3179538D01*
X432970500Y-1215509D01*
X433969500Y-1215509D01*
X433969500Y-1451704D01*
X434006446Y-1684975D01*
X434079433Y-1909603D01*
X434179378Y-2105754D01*
X434186657Y-2120040D01*
X434325483Y-2311117D01*
X434492490Y-2478124D01*
X434683567Y-2616950D01*
X434742461Y-2646958D01*
X434894003Y-2724173D01*
X434894005Y-2724173D01*
X434894008Y-2724175D01*
X434976687Y-2751039D01*
X435118631Y-2797160D01*
X435351903Y-2834107D01*
X435351908Y-2834107D01*
X435588097Y-2834107D01*
X435821368Y-2797160D01*
X436045992Y-2724175D01*
X436256433Y-2616950D01*
X436447510Y-2478124D01*
X436614517Y-2311117D01*
X436753343Y-2120040D01*
X436860568Y-1909599D01*
X436933553Y-1684975D01*
X436941975Y-1631801D01*
X436970500Y-1451704D01*
X436970500Y-1215509D01*
X440469500Y-1215509D01*
X440469500Y-1451704D01*
X440506446Y-1684975D01*
X440579433Y-1909603D01*
X440679378Y-2105754D01*
X440686657Y-2120040D01*
X440825483Y-2311117D01*
X440992490Y-2478124D01*
X441183567Y-2616950D01*
X441242461Y-2646958D01*
X441394003Y-2724173D01*
X441394005Y-2724173D01*
X441394008Y-2724175D01*
X441476687Y-2751039D01*
X441618631Y-2797160D01*
X441851903Y-2834107D01*
X441851908Y-2834107D01*
X442088097Y-2834107D01*
X442321368Y-2797160D01*
X442545992Y-2724175D01*
X442756433Y-2616950D01*
X442947510Y-2478124D01*
X443114517Y-2311117D01*
X443253343Y-2120040D01*
X443360568Y-1909599D01*
X443433553Y-1684975D01*
X443441975Y-1631801D01*
X443470500Y-1451704D01*
X443470500Y-1215509D01*
X443433553Y-982238D01*
X443373502Y-797422D01*
X443360568Y-757615D01*
X443360566Y-757612D01*
X443360566Y-757610D01*
X443285603Y-610488D01*
X443253343Y-547174D01*
X443114517Y-356097D01*
X442947510Y-189090D01*
X442756433Y-50264D01*
X442545992Y56961D01*
X442321368Y129946D01*
X442309397Y131842D01*
X442088097Y166893D01*
X442088092Y166893D01*
X441851908Y166893D01*
X441851903Y166893D01*
X441618631Y129946D01*
X441530260Y101232D01*
X441394008Y56961D01*
X441394005Y56959D01*
X441394003Y56959D01*
X441183566Y-50264D01*
X441074550Y-129469D01*
X440992490Y-189090D01*
X440992488Y-189092D01*
X440992487Y-189092D01*
X440825485Y-356094D01*
X440825485Y-356095D01*
X440825483Y-356097D01*
X440822704Y-359922D01*
X440686657Y-547173D01*
X440579433Y-757610D01*
X440506446Y-982238D01*
X440469500Y-1215509D01*
X436970500Y-1215509D01*
X436933553Y-982238D01*
X436873502Y-797422D01*
X436860568Y-757615D01*
X436860566Y-757612D01*
X436860566Y-757610D01*
X436785603Y-610488D01*
X436753343Y-547174D01*
X436614517Y-356097D01*
X436447510Y-189090D01*
X436256433Y-50264D01*
X436045992Y56961D01*
X435821368Y129946D01*
X435809397Y131842D01*
X435588097Y166893D01*
X435588092Y166893D01*
X435351908Y166893D01*
X435351903Y166893D01*
X435118631Y129946D01*
X435030260Y101232D01*
X434894008Y56961D01*
X434894005Y56959D01*
X434894003Y56959D01*
X434683566Y-50264D01*
X434574550Y-129469D01*
X434492490Y-189090D01*
X434492488Y-189092D01*
X434492487Y-189092D01*
X434325485Y-356094D01*
X434325485Y-356095D01*
X434325483Y-356097D01*
X434322704Y-359922D01*
X434186657Y-547173D01*
X434079433Y-757610D01*
X434006446Y-982238D01*
X433969500Y-1215509D01*
X432970500Y-1215509D01*
X432970500Y3284490D01*
X433969500Y3284490D01*
X433969500Y3048295D01*
X434006446Y2815024D01*
X434079433Y2590396D01*
X434186657Y2379959D01*
X434226044Y2325748D01*
X434325483Y2188883D01*
X434325485Y2188881D01*
X434325485Y2188880D01*
X434492487Y2021878D01*
X434683566Y1883050D01*
X434894003Y1775826D01*
X435118631Y1702839D01*
X435351903Y1665893D01*
X435351908Y1665893D01*
X435588097Y1665893D01*
X435821368Y1702839D01*
X436045996Y1775826D01*
X436256433Y1883050D01*
X436267437Y1891045D01*
X436447510Y2021876D01*
X436614517Y2188883D01*
X436753343Y2379960D01*
X436827632Y2525760D01*
X436860566Y2590396D01*
X436889812Y2680403D01*
X436912319Y2749674D01*
X436933553Y2815024D01*
X436970500Y3048295D01*
X436970500Y3284490D01*
X440469500Y3284490D01*
X440469500Y3048295D01*
X440506446Y2815024D01*
X440579433Y2590396D01*
X440686657Y2379959D01*
X440726044Y2325748D01*
X440825483Y2188883D01*
X440825485Y2188881D01*
X440825485Y2188880D01*
X440992487Y2021878D01*
X441183566Y1883050D01*
X441394003Y1775826D01*
X441618631Y1702839D01*
X441851903Y1665893D01*
X441851908Y1665893D01*
X442088097Y1665893D01*
X442321368Y1702839D01*
X442545996Y1775826D01*
X442756433Y1883050D01*
X442767437Y1891045D01*
X442947510Y2021876D01*
X443114517Y2188883D01*
X443253343Y2379960D01*
X443327632Y2525760D01*
X443360566Y2590396D01*
X443389812Y2680403D01*
X443412319Y2749674D01*
X443433553Y2815024D01*
X443470500Y3048295D01*
X443470500Y3284490D01*
X443453705Y3390519D01*
X443433553Y3517761D01*
X443392547Y3643959D01*
X443390553Y3713797D01*
X443422798Y3769956D01*
X444632907Y4980064D01*
X445890520Y6237677D01*
X445890521Y6237679D01*
X445890524Y6237683D01*
X445969573Y6374602D01*
X445969576Y6374607D01*
X445972103Y6384035D01*
X446010501Y6527336D01*
X446010501Y6685451D01*
X446010501Y6695440D01*
X446010500Y6695453D01*
X446010500Y22759484D01*
X446030185Y22826523D01*
X446031398Y22828375D01*
X446119390Y22960064D01*
X446119397Y22960077D01*
X446179735Y23105748D01*
X446179737Y23105753D01*
X446210499Y23260403D01*
X446210500Y23260405D01*
X446210500Y23418094D01*
X446210499Y23418096D01*
X446199890Y23471431D01*
X446179737Y23572747D01*
X446119394Y23718429D01*
X446031789Y23849539D01*
X445920289Y23961039D01*
X445789179Y24048644D01*
X445643497Y24108987D01*
X445563920Y24124816D01*
X445488845Y24139750D01*
X445488842Y24139750D01*
X445331158Y24139750D01*
X445331155Y24139750D01*
X445256080Y24124816D01*
X445176503Y24108987D01*
X445176498Y24108985D01*
X445030827Y24048647D01*
X445030814Y24048640D01*
X444899711Y23961039D01*
X444899707Y23961036D01*
X444788213Y23849542D01*
X444788210Y23849538D01*
X444700609Y23718435D01*
X444700602Y23718422D01*
X444640264Y23572751D01*
X444640261Y23572739D01*
X444609500Y23418096D01*
X444609500Y23260403D01*
X444640261Y23105760D01*
X444640264Y23105748D01*
X444700602Y22960077D01*
X444700609Y22960064D01*
X444788602Y22828375D01*
X444809480Y22761697D01*
X444809500Y22759484D01*
X444809500Y6906490D01*
X444789815Y6839451D01*
X444773181Y6818809D01*
X442573563Y4619191D01*
X442512240Y4585706D01*
X442447566Y4588940D01*
X442321368Y4629946D01*
X442188153Y4651045D01*
X442088097Y4666893D01*
X442088092Y4666893D01*
X441851908Y4666893D01*
X441851903Y4666893D01*
X441618631Y4629946D01*
X441514412Y4596082D01*
X441394008Y4556961D01*
X441394005Y4556959D01*
X441394003Y4556959D01*
X441364910Y4542135D01*
X441183567Y4449736D01*
X440992490Y4310910D01*
X440825483Y4143903D01*
X440743314Y4030807D01*
X440686657Y3952826D01*
X440579433Y3742389D01*
X440506446Y3517761D01*
X440469500Y3284490D01*
X436970500Y3284490D01*
X436933553Y3517761D01*
X436906820Y3600037D01*
X436860568Y3742385D01*
X436753343Y3952826D01*
X436614517Y4143903D01*
X436447510Y4310910D01*
X436256433Y4449736D01*
X436045992Y4556961D01*
X435821368Y4629946D01*
X435588097Y4666893D01*
X435588092Y4666893D01*
X435351908Y4666893D01*
X435351903Y4666893D01*
X435118631Y4629946D01*
X435014412Y4596082D01*
X434894008Y4556961D01*
X434894005Y4556959D01*
X434894003Y4556959D01*
X434864910Y4542135D01*
X434683567Y4449736D01*
X434492490Y4310910D01*
X434325483Y4143903D01*
X434243314Y4030807D01*
X434186657Y3952826D01*
X434079433Y3742389D01*
X434006446Y3517761D01*
X433969500Y3284490D01*
X432970500Y3284490D01*
X432970500Y12539153D01*
X432990185Y12606192D01*
X433006819Y12626834D01*
X445424660Y25044675D01*
X445485983Y25078160D01*
X445488149Y25078611D01*
X445643491Y25109511D01*
X445643501Y25109514D01*
X445789172Y25169852D01*
X445789185Y25169859D01*
X445920288Y25257460D01*
X445920292Y25257463D01*
X446031789Y25368960D01*
X446115779Y25494661D01*
X446169391Y25539466D01*
X446238716Y25548173D01*
X446301743Y25518019D01*
X446306562Y25513451D01*
X450133181Y21686833D01*
X450166666Y21625510D01*
X450169500Y21599152D01*
X450169500Y16096059D01*
X450149815Y16029020D01*
X450097011Y15983265D01*
X450027853Y15973321D01*
X450007191Y15978125D01*
X449854534Y16027727D01*
X449652352Y16059750D01*
X449447648Y16059750D01*
X449407184Y16053341D01*
X449245465Y16027727D01*
X449190138Y16009750D01*
X449050781Y15964470D01*
X449050778Y15964468D01*
X449050776Y15964468D01*
X449000921Y15939065D01*
X448868390Y15871537D01*
X448868386Y15871534D01*
X448702786Y15751221D01*
X448558028Y15606463D01*
X448437715Y15440863D01*
X448344781Y15258473D01*
X448281522Y15063784D01*
X448249500Y14861601D01*
X448249500Y14656898D01*
X448281522Y14454715D01*
X448344781Y14260026D01*
X448437715Y14077636D01*
X448558028Y13912036D01*
X448702786Y13767278D01*
X448868386Y13646965D01*
X449050776Y13554031D01*
X449245465Y13490772D01*
X449423329Y13462601D01*
X449447648Y13458750D01*
X449447649Y13458750D01*
X449652351Y13458750D01*
X449652352Y13458750D01*
X449753443Y13474761D01*
X449854535Y13490773D01*
X449854538Y13490773D01*
X450007182Y13540371D01*
X450077023Y13542366D01*
X450136856Y13506286D01*
X450167684Y13443585D01*
X450169500Y13422440D01*
X450169500Y3004968D01*
X450149815Y2937929D01*
X450133181Y2917287D01*
X445854659Y-1361234D01*
X441651286Y-5564607D01*
X441539481Y-5676411D01*
X441539479Y-5676414D01*
X441523364Y-5704326D01*
X441507249Y-5732239D01*
X441460423Y-5813344D01*
X441419499Y-5966072D01*
X441419499Y-5966074D01*
X441419499Y-6134175D01*
X441419500Y-6134188D01*
X441419500Y-11129538D01*
X441399815Y-11196577D01*
X441351796Y-11240022D01*
X441233568Y-11300262D01*
X441128684Y-11376466D01*
X441042490Y-11439090D01*
X441042488Y-11439092D01*
X441042487Y-11439092D01*
X440875485Y-11606094D01*
X440875485Y-11606095D01*
X440875483Y-11606097D01*
X440849943Y-11641250D01*
X440736657Y-11797173D01*
X440629433Y-12007610D01*
X440556446Y-12232238D01*
X440519500Y-12465509D01*
X440519500Y-12701704D01*
X440556446Y-12934975D01*
X440629433Y-13159603D01*
X440721624Y-13340536D01*
X440736657Y-13370040D01*
X440875483Y-13561117D01*
X441042490Y-13728124D01*
X441233567Y-13866950D01*
X441330748Y-13916466D01*
X441444003Y-13974173D01*
X441444005Y-13974173D01*
X441444008Y-13974175D01*
X441555768Y-14010488D01*
X441668631Y-14047160D01*
X441901903Y-14084107D01*
X441901908Y-14084107D01*
X442138097Y-14084107D01*
X442371368Y-14047160D01*
X442389560Y-14041249D01*
X442595992Y-13974175D01*
X442806433Y-13866950D01*
X442997510Y-13728124D01*
X443164517Y-13561117D01*
X443303343Y-13370040D01*
X443410568Y-13159599D01*
X443483553Y-12934975D01*
X443508575Y-12776993D01*
X443520500Y-12701704D01*
X443520500Y-12465509D01*
X443483553Y-12232238D01*
X443435403Y-12084049D01*
X443410568Y-12007615D01*
X443410566Y-12007612D01*
X443410566Y-12007610D01*
X443330546Y-11850563D01*
X443303343Y-11797174D01*
X443164517Y-11606097D01*
X442997510Y-11439090D01*
X442901971Y-11369677D01*
X442806431Y-11300262D01*
X442688204Y-11240022D01*
X442637409Y-11192048D01*
X442620500Y-11129538D01*
X442620500Y-9165509D01*
X443619500Y-9165509D01*
X443619500Y-9401704D01*
X443656446Y-9634975D01*
X443729433Y-9859603D01*
X443836657Y-10070040D01*
X443975483Y-10261117D01*
X444142490Y-10428124D01*
X444333567Y-10566950D01*
X444419013Y-10610487D01*
X444544003Y-10674173D01*
X444544005Y-10674173D01*
X444544008Y-10674175D01*
X444631048Y-10702456D01*
X444768631Y-10747160D01*
X445001903Y-10784107D01*
X445001908Y-10784107D01*
X445238097Y-10784107D01*
X445471368Y-10747160D01*
X445695992Y-10674175D01*
X445906433Y-10566950D01*
X446097510Y-10428124D01*
X446264517Y-10261117D01*
X446403343Y-10070040D01*
X446510568Y-9859599D01*
X446583553Y-9634975D01*
X446620500Y-9401704D01*
X446620500Y-9165509D01*
X450119500Y-9165509D01*
X450119500Y-9401704D01*
X450156446Y-9634975D01*
X450229433Y-9859603D01*
X450336657Y-10070040D01*
X450475483Y-10261117D01*
X450642490Y-10428124D01*
X450833567Y-10566950D01*
X450919013Y-10610487D01*
X451044003Y-10674173D01*
X451044005Y-10674173D01*
X451044008Y-10674175D01*
X451131048Y-10702456D01*
X451268631Y-10747160D01*
X451501903Y-10784107D01*
X451501908Y-10784107D01*
X451738097Y-10784107D01*
X451971368Y-10747160D01*
X452195992Y-10674175D01*
X452406433Y-10566950D01*
X452597510Y-10428124D01*
X452764517Y-10261117D01*
X452903343Y-10070040D01*
X453010568Y-9859599D01*
X453083553Y-9634975D01*
X453120500Y-9401704D01*
X453120500Y-9165509D01*
X453083553Y-8932238D01*
X453034815Y-8782239D01*
X453010568Y-8707615D01*
X453010566Y-8707612D01*
X453010566Y-8707610D01*
X452934139Y-8557615D01*
X452903343Y-8497174D01*
X452764517Y-8306097D01*
X452597510Y-8139090D01*
X452406433Y-8000264D01*
X452325984Y-7959273D01*
X452195996Y-7893040D01*
X451971368Y-7820053D01*
X451738097Y-7783107D01*
X451738092Y-7783107D01*
X451501908Y-7783107D01*
X451501903Y-7783107D01*
X451268631Y-7820053D01*
X451044003Y-7893040D01*
X450833566Y-8000264D01*
X450777127Y-8041270D01*
X450642490Y-8139090D01*
X450642488Y-8139092D01*
X450642487Y-8139092D01*
X450475485Y-8306094D01*
X450475485Y-8306095D01*
X450475483Y-8306097D01*
X450445639Y-8347174D01*
X450336657Y-8497173D01*
X450229433Y-8707610D01*
X450156446Y-8932238D01*
X450119500Y-9165509D01*
X446620500Y-9165509D01*
X446583553Y-8932238D01*
X446534815Y-8782239D01*
X446510568Y-8707615D01*
X446510566Y-8707612D01*
X446510566Y-8707610D01*
X446434139Y-8557615D01*
X446403343Y-8497174D01*
X446264517Y-8306097D01*
X446097510Y-8139090D01*
X445906433Y-8000264D01*
X445825984Y-7959273D01*
X445695996Y-7893040D01*
X445471368Y-7820053D01*
X445238097Y-7783107D01*
X445238092Y-7783107D01*
X445001908Y-7783107D01*
X445001903Y-7783107D01*
X444768631Y-7820053D01*
X444544003Y-7893040D01*
X444333566Y-8000264D01*
X444277127Y-8041270D01*
X444142490Y-8139090D01*
X444142488Y-8139092D01*
X444142487Y-8139092D01*
X443975485Y-8306094D01*
X443975485Y-8306095D01*
X443975483Y-8306097D01*
X443945639Y-8347174D01*
X443836657Y-8497173D01*
X443729433Y-8707610D01*
X443656446Y-8932238D01*
X443619500Y-9165509D01*
X442620500Y-9165509D01*
X442620500Y-6345226D01*
X442640185Y-6278187D01*
X442656819Y-6257545D01*
X443101022Y-5813342D01*
X443549793Y-5364570D01*
X443611114Y-5331087D01*
X443680805Y-5336071D01*
X443736739Y-5377943D01*
X443747957Y-5395958D01*
X443825714Y-5548564D01*
X443836657Y-5570040D01*
X443975483Y-5761117D01*
X444142490Y-5928124D01*
X444333567Y-6066950D01*
X444429955Y-6116062D01*
X444544003Y-6174173D01*
X444544005Y-6174173D01*
X444544008Y-6174175D01*
X444664412Y-6213296D01*
X444768631Y-6247160D01*
X445001903Y-6284107D01*
X445001908Y-6284107D01*
X445238097Y-6284107D01*
X445471368Y-6247160D01*
X445695992Y-6174175D01*
X445906433Y-6066950D01*
X446097510Y-5928124D01*
X446264517Y-5761117D01*
X446403343Y-5570040D01*
X446510568Y-5359599D01*
X446583553Y-5134975D01*
X446593171Y-5074251D01*
X446620500Y-4901704D01*
X446620500Y-4665509D01*
X446583553Y-4432238D01*
X446546701Y-4318821D01*
X446510568Y-4207615D01*
X446510566Y-4207612D01*
X446510566Y-4207610D01*
X446434139Y-4057615D01*
X446403343Y-3997174D01*
X446264517Y-3806097D01*
X446097510Y-3639090D01*
X445906433Y-3500264D01*
X445873787Y-3483630D01*
X445732351Y-3411564D01*
X445681555Y-3363589D01*
X445664760Y-3295768D01*
X445687298Y-3229633D01*
X445700959Y-3213404D01*
X450557819Y1643454D01*
X450619142Y1676939D01*
X450688834Y1671955D01*
X450744767Y1630083D01*
X450769184Y1564619D01*
X450769500Y1555773D01*
X450769500Y-3483630D01*
X450749815Y-3550669D01*
X450718386Y-3583947D01*
X450642496Y-3639085D01*
X450642487Y-3639092D01*
X450475485Y-3806094D01*
X450475485Y-3806095D01*
X450475483Y-3806097D01*
X450445639Y-3847174D01*
X450336657Y-3997173D01*
X450229433Y-4207610D01*
X450156446Y-4432238D01*
X450119500Y-4665509D01*
X450119500Y-4901704D01*
X450156446Y-5134975D01*
X450229433Y-5359603D01*
X450325714Y-5548564D01*
X450336657Y-5570040D01*
X450475483Y-5761117D01*
X450642490Y-5928124D01*
X450833567Y-6066950D01*
X450929955Y-6116062D01*
X451044003Y-6174173D01*
X451044005Y-6174173D01*
X451044008Y-6174175D01*
X451164412Y-6213296D01*
X451268631Y-6247160D01*
X451501903Y-6284107D01*
X451501908Y-6284107D01*
X451738097Y-6284107D01*
X451971368Y-6247160D01*
X452195992Y-6174175D01*
X452406433Y-6066950D01*
X452597510Y-5928124D01*
X452764517Y-5761117D01*
X452903343Y-5570040D01*
X453010568Y-5359599D01*
X453083553Y-5134975D01*
X453093171Y-5074251D01*
X453120500Y-4901704D01*
X453120500Y-4665509D01*
X453083553Y-4432238D01*
X453046701Y-4318821D01*
X453010568Y-4207615D01*
X453010566Y-4207612D01*
X453010566Y-4207610D01*
X452934139Y-4057615D01*
X452903343Y-3997174D01*
X452764517Y-3806097D01*
X452597510Y-3639090D01*
X452406433Y-3500264D01*
X452373787Y-3483630D01*
X452195996Y-3393040D01*
X452056181Y-3347611D01*
X451998506Y-3308173D01*
X451971308Y-3243814D01*
X451970500Y-3229680D01*
X451970500Y975897D01*
X451990185Y1042936D01*
X452042989Y1088691D01*
X452112147Y1098635D01*
X452175703Y1069610D01*
X452182181Y1063578D01*
X454043181Y-797422D01*
X454076666Y-858745D01*
X454079500Y-885103D01*
X454079500Y-8739794D01*
X454079499Y-8739812D01*
X454079499Y-8905518D01*
X454079498Y-8905518D01*
X454103806Y-8996233D01*
X454120423Y-9058249D01*
X454127792Y-9071013D01*
X454149358Y-9108364D01*
X454149359Y-9108368D01*
X454149360Y-9108368D01*
X454199479Y-9195178D01*
X454199481Y-9195181D01*
X454318349Y-9314049D01*
X454318355Y-9314054D01*
X454527200Y-9522899D01*
X454560685Y-9584222D01*
X454557450Y-9648897D01*
X454516447Y-9775092D01*
X454479500Y-10008366D01*
X454479500Y-10244561D01*
X454516446Y-10477832D01*
X454589433Y-10702460D01*
X454631035Y-10784107D01*
X454696657Y-10912897D01*
X454835483Y-11103974D01*
X455002490Y-11270981D01*
X455193567Y-11409807D01*
X455251042Y-11439092D01*
X455404003Y-11517030D01*
X455404005Y-11517030D01*
X455404008Y-11517032D01*
X455447976Y-11531318D01*
X455628631Y-11590017D01*
X455861903Y-11626964D01*
X455861908Y-11626964D01*
X456098097Y-11626964D01*
X456331368Y-11590017D01*
X456555992Y-11517032D01*
X456766433Y-11409807D01*
X456957510Y-11270981D01*
X457124517Y-11103974D01*
X457263343Y-10912897D01*
X457370568Y-10702456D01*
X457443553Y-10477832D01*
X457445975Y-10462539D01*
X457480500Y-10244561D01*
X457480500Y-10008366D01*
X460979500Y-10008366D01*
X460979500Y-10244561D01*
X461016446Y-10477832D01*
X461089433Y-10702460D01*
X461131035Y-10784107D01*
X461196657Y-10912897D01*
X461335483Y-11103974D01*
X461502490Y-11270981D01*
X461693567Y-11409807D01*
X461751042Y-11439092D01*
X461904003Y-11517030D01*
X461904005Y-11517030D01*
X461904008Y-11517032D01*
X461947976Y-11531318D01*
X462128631Y-11590017D01*
X462361903Y-11626964D01*
X462361908Y-11626964D01*
X462598097Y-11626964D01*
X462831368Y-11590017D01*
X463055992Y-11517032D01*
X463266433Y-11409807D01*
X463457510Y-11270981D01*
X463624517Y-11103974D01*
X463763343Y-10912897D01*
X463870568Y-10702456D01*
X463943553Y-10477832D01*
X463945975Y-10462539D01*
X463980500Y-10244561D01*
X463980500Y-10008366D01*
X463943553Y-9775095D01*
X463893918Y-9622335D01*
X463870568Y-9550472D01*
X463870566Y-9550469D01*
X463870566Y-9550467D01*
X463770622Y-9354317D01*
X463763343Y-9340031D01*
X463624517Y-9148954D01*
X463457510Y-8981947D01*
X463266433Y-8843121D01*
X463240303Y-8829807D01*
X463055996Y-8735897D01*
X462831368Y-8662910D01*
X462598097Y-8625964D01*
X462598092Y-8625964D01*
X462361908Y-8625964D01*
X462361903Y-8625964D01*
X462128631Y-8662910D01*
X461904003Y-8735897D01*
X461693566Y-8843121D01*
X461607685Y-8905518D01*
X461502490Y-8981947D01*
X461502488Y-8981949D01*
X461502487Y-8981949D01*
X461335485Y-9148951D01*
X461335485Y-9148952D01*
X461335483Y-9148954D01*
X461325106Y-9163237D01*
X461196657Y-9340030D01*
X461089433Y-9550467D01*
X461016446Y-9775095D01*
X460979500Y-10008366D01*
X457480500Y-10008366D01*
X457443553Y-9775095D01*
X457393918Y-9622335D01*
X457370568Y-9550472D01*
X457370566Y-9550469D01*
X457370566Y-9550467D01*
X457270622Y-9354317D01*
X457263343Y-9340031D01*
X457124517Y-9148954D01*
X456957510Y-8981947D01*
X456766433Y-8843121D01*
X456740303Y-8829807D01*
X456555996Y-8735897D01*
X456331368Y-8662910D01*
X456098097Y-8625964D01*
X456098092Y-8625964D01*
X455861908Y-8625964D01*
X455861903Y-8625964D01*
X455628630Y-8662911D01*
X455502435Y-8703914D01*
X455487222Y-8704348D01*
X455472962Y-8709667D01*
X455453006Y-8705325D01*
X455432593Y-8705909D01*
X455418506Y-8697820D01*
X455404689Y-8694815D01*
X455376435Y-8673664D01*
X455353521Y-8650750D01*
X455316818Y-8614046D01*
X455283334Y-8552722D01*
X455280500Y-8526365D01*
X455280500Y-7340430D01*
X455300185Y-7273391D01*
X455352989Y-7227636D01*
X455422147Y-7217692D01*
X455442813Y-7222497D01*
X455555396Y-7259078D01*
X455628631Y-7282874D01*
X455861903Y-7319821D01*
X455861908Y-7319821D01*
X456098097Y-7319821D01*
X456331368Y-7282874D01*
X456357254Y-7274463D01*
X456555992Y-7209889D01*
X456766433Y-7102664D01*
X456957510Y-6963838D01*
X457124517Y-6796831D01*
X457263343Y-6605754D01*
X457370568Y-6395313D01*
X457443553Y-6170689D01*
X457452205Y-6116062D01*
X457480500Y-5937418D01*
X457480500Y-5701223D01*
X460979500Y-5701223D01*
X460979500Y-5937418D01*
X461016446Y-6170689D01*
X461089433Y-6395317D01*
X461196657Y-6605754D01*
X461335483Y-6796831D01*
X461502490Y-6963838D01*
X461693567Y-7102664D01*
X461780499Y-7146958D01*
X461904003Y-7209887D01*
X461904005Y-7209887D01*
X461904008Y-7209889D01*
X462024412Y-7249010D01*
X462128631Y-7282874D01*
X462361903Y-7319821D01*
X462361908Y-7319821D01*
X462598097Y-7319821D01*
X462831368Y-7282874D01*
X462857254Y-7274463D01*
X463055992Y-7209889D01*
X463266433Y-7102664D01*
X463457510Y-6963838D01*
X463624517Y-6796831D01*
X463763343Y-6605754D01*
X463870568Y-6395313D01*
X463943553Y-6170689D01*
X463952205Y-6116062D01*
X463980500Y-5937418D01*
X463980500Y-5701223D01*
X463943553Y-5467952D01*
X463870566Y-5243324D01*
X463763342Y-5032887D01*
X463624517Y-4841811D01*
X463457510Y-4674804D01*
X463266433Y-4535978D01*
X463226272Y-4515515D01*
X463055996Y-4428754D01*
X462831368Y-4355767D01*
X462598097Y-4318821D01*
X462598092Y-4318821D01*
X462361908Y-4318821D01*
X462361903Y-4318821D01*
X462128631Y-4355767D01*
X461904003Y-4428754D01*
X461693566Y-4535978D01*
X461595466Y-4607253D01*
X461502490Y-4674804D01*
X461502488Y-4674806D01*
X461502487Y-4674806D01*
X461335485Y-4841808D01*
X461335485Y-4841809D01*
X461335483Y-4841811D01*
X461291972Y-4901699D01*
X461196657Y-5032887D01*
X461089433Y-5243324D01*
X461016446Y-5467952D01*
X460979500Y-5701223D01*
X457480500Y-5701223D01*
X457443553Y-5467952D01*
X457370566Y-5243324D01*
X457263342Y-5032887D01*
X457124517Y-4841811D01*
X456957510Y-4674804D01*
X456766433Y-4535978D01*
X456726272Y-4515515D01*
X456555996Y-4428754D01*
X456331368Y-4355767D01*
X456098097Y-4318821D01*
X456098092Y-4318821D01*
X455861908Y-4318821D01*
X455861903Y-4318821D01*
X455628630Y-4355768D01*
X455628627Y-4355768D01*
X455442818Y-4416142D01*
X455372977Y-4418137D01*
X455313144Y-4382057D01*
X455282316Y-4319356D01*
X455280500Y-4298211D01*
X455280500Y-2840430D01*
X455300185Y-2773391D01*
X455352989Y-2727636D01*
X455422147Y-2717692D01*
X455442813Y-2722497D01*
X455555396Y-2759078D01*
X455628631Y-2782874D01*
X455861903Y-2819821D01*
X455861908Y-2819821D01*
X456098097Y-2819821D01*
X456331368Y-2782874D01*
X456335855Y-2781416D01*
X456555992Y-2709889D01*
X456766433Y-2602664D01*
X456957510Y-2463838D01*
X457124517Y-2296831D01*
X457263343Y-2105754D01*
X457370568Y-1895313D01*
X457443553Y-1670689D01*
X457472070Y-1490640D01*
X457480500Y-1437418D01*
X457480500Y-1201223D01*
X457443553Y-967952D01*
X457382889Y-781249D01*
X457370568Y-743329D01*
X457370566Y-743326D01*
X457370566Y-743324D01*
X457296600Y-598159D01*
X457263343Y-532888D01*
X457124517Y-341811D01*
X456957510Y-174804D01*
X456766433Y-35978D01*
X456555992Y71247D01*
X456331368Y144232D01*
X456098097Y181179D01*
X456098092Y181179D01*
X455861908Y181179D01*
X455861903Y181179D01*
X455716110Y158087D01*
X455628632Y144232D01*
X455502433Y103226D01*
X455432593Y101232D01*
X455376437Y133475D01*
X452606817Y2903096D01*
X452573334Y2964417D01*
X452570500Y2990775D01*
X452570500Y3286392D01*
X452590185Y3353431D01*
X452642989Y3399186D01*
X452712147Y3409130D01*
X452767384Y3386711D01*
X452831152Y3340381D01*
X453055616Y3226010D01*
X453295214Y3148160D01*
X453419626Y3128455D01*
X453544038Y3108750D01*
X453544039Y3108750D01*
X453795961Y3108750D01*
X453795962Y3108750D01*
X454044785Y3148160D01*
X454080517Y3159770D01*
X454284383Y3226010D01*
X454462945Y3316993D01*
X454508845Y3340380D01*
X454508848Y3340382D01*
X454712649Y3488451D01*
X454712654Y3488455D01*
X454890794Y3666595D01*
X454890798Y3666600D01*
X454954597Y3754412D01*
X455009926Y3797078D01*
X455079540Y3803057D01*
X455111209Y3792012D01*
X455290161Y3700832D01*
X455477294Y3640028D01*
X455519999Y3633264D01*
X455520000Y3633264D01*
X455520000Y5043564D01*
X455524394Y5039170D01*
X455615606Y4986509D01*
X455717339Y4959250D01*
X455822661Y4959250D01*
X455924394Y4986509D01*
X456015606Y5039170D01*
X456020000Y5043564D01*
X456020000Y3633264D01*
X456062705Y3640028D01*
X456249835Y3700831D01*
X456425143Y3790154D01*
X456584321Y3905805D01*
X456681964Y4003448D01*
X456743287Y4036933D01*
X456812979Y4031949D01*
X456857325Y4003449D01*
X456955350Y3905425D01*
X456955352Y3905424D01*
X456955354Y3905422D01*
X457008349Y3866919D01*
X457114594Y3789726D01*
X457289970Y3700367D01*
X457477173Y3639540D01*
X457671578Y3608750D01*
X457671583Y3608750D01*
X457868422Y3608750D01*
X458062826Y3639540D01*
X458250029Y3700367D01*
X458425405Y3789726D01*
X458461613Y3816033D01*
X458527419Y3839513D01*
X458595473Y3823688D01*
X458633765Y3790027D01*
X458662455Y3751702D01*
X458777664Y3665456D01*
X458777671Y3665452D01*
X458912517Y3615158D01*
X458912516Y3615158D01*
X458972116Y3608751D01*
X458972119Y3608750D01*
X458972127Y3608750D01*
X458972134Y3608750D01*
X458972135Y3608750D01*
X460567870Y3608750D01*
X460567876Y3608751D01*
X460634555Y3615919D01*
X460703314Y3603512D01*
X460735488Y3580311D01*
X460827345Y3488455D01*
X460827350Y3488451D01*
X461031151Y3340382D01*
X461255616Y3226010D01*
X461495214Y3148160D01*
X461619626Y3128455D01*
X461744038Y3108750D01*
X461744039Y3108750D01*
X461995961Y3108750D01*
X461995962Y3108750D01*
X462244785Y3148160D01*
X462280517Y3159770D01*
X462484383Y3226010D01*
X462689205Y3330373D01*
X462757874Y3343269D01*
X462822615Y3316993D01*
X462862872Y3259886D01*
X462869500Y3219888D01*
X462869500Y283377D01*
X462849815Y216338D01*
X462797011Y170583D01*
X462727853Y160639D01*
X462726174Y160892D01*
X462664993Y170583D01*
X462598096Y181179D01*
X462598092Y181179D01*
X462361908Y181179D01*
X462361903Y181179D01*
X462128631Y144232D01*
X462024412Y110368D01*
X461904008Y71247D01*
X461904005Y71245D01*
X461904003Y71245D01*
X461693566Y-35978D01*
X461584550Y-115183D01*
X461502490Y-174804D01*
X461502488Y-174806D01*
X461502487Y-174806D01*
X461335485Y-341808D01*
X461335485Y-341809D01*
X461335483Y-341811D01*
X461275862Y-423871D01*
X461196657Y-532887D01*
X461089433Y-743324D01*
X461016446Y-967952D01*
X460979500Y-1201223D01*
X460979500Y-1437418D01*
X461016446Y-1670689D01*
X461089433Y-1895317D01*
X461196657Y-2105754D01*
X461335483Y-2296831D01*
X461502490Y-2463838D01*
X461693567Y-2602664D01*
X461741400Y-2627036D01*
X461904003Y-2709887D01*
X461904005Y-2709887D01*
X461904008Y-2709889D01*
X462024412Y-2749010D01*
X462128631Y-2782874D01*
X462361903Y-2819821D01*
X462361908Y-2819821D01*
X462598097Y-2819821D01*
X462831368Y-2782874D01*
X462835855Y-2781416D01*
X463055992Y-2709889D01*
X463266433Y-2602664D01*
X463457510Y-2463838D01*
X463624517Y-2296831D01*
X463763343Y-2105754D01*
X463870568Y-1895313D01*
X463924140Y-1730436D01*
X463963578Y-1672760D01*
X464027936Y-1645562D01*
X464096783Y-1657477D01*
X464129752Y-1681073D01*
X466820105Y-4371426D01*
X466853590Y-4432749D01*
X466848606Y-4502441D01*
X466806734Y-4558374D01*
X466741270Y-4582791D01*
X466732424Y-4583107D01*
X466601903Y-4583107D01*
X466368631Y-4620053D01*
X466144003Y-4693040D01*
X465933566Y-4800264D01*
X465824550Y-4879469D01*
X465742490Y-4939090D01*
X465742488Y-4939092D01*
X465742487Y-4939092D01*
X465575485Y-5106094D01*
X465575485Y-5106095D01*
X465575483Y-5106097D01*
X465515862Y-5188157D01*
X465436657Y-5297173D01*
X465329433Y-5507610D01*
X465256446Y-5732238D01*
X465219500Y-5965509D01*
X465219500Y-6201704D01*
X465256446Y-6434975D01*
X465329433Y-6659603D01*
X465421478Y-6840250D01*
X465436657Y-6870040D01*
X465575483Y-7061117D01*
X465742490Y-7228124D01*
X465933567Y-7366950D01*
X466020499Y-7411244D01*
X466144003Y-7474173D01*
X466144005Y-7474173D01*
X466144008Y-7474175D01*
X466206448Y-7494463D01*
X466368631Y-7547160D01*
X466601903Y-7584107D01*
X466601908Y-7584107D01*
X466838097Y-7584107D01*
X467071368Y-7547160D01*
X467257182Y-7486784D01*
X467327022Y-7484790D01*
X467386855Y-7520870D01*
X467417684Y-7583571D01*
X467419500Y-7604716D01*
X467419500Y-8190652D01*
X467399815Y-8257691D01*
X467383181Y-8278333D01*
X466973563Y-8687950D01*
X466912240Y-8721435D01*
X466847564Y-8718200D01*
X466721370Y-8677197D01*
X466488097Y-8640250D01*
X466488092Y-8640250D01*
X466251908Y-8640250D01*
X466251903Y-8640250D01*
X466018631Y-8677196D01*
X465794003Y-8750183D01*
X465583566Y-8857407D01*
X465517348Y-8905518D01*
X465392490Y-8996233D01*
X465392488Y-8996235D01*
X465392487Y-8996235D01*
X465225485Y-9163237D01*
X465225485Y-9163238D01*
X465225483Y-9163240D01*
X465189382Y-9212929D01*
X465086657Y-9354316D01*
X464979433Y-9564753D01*
X464906446Y-9789381D01*
X464869500Y-10022652D01*
X464869500Y-10258847D01*
X464906446Y-10492118D01*
X464979433Y-10716746D01*
X465079378Y-10912897D01*
X465086657Y-10927183D01*
X465225483Y-11118260D01*
X465392490Y-11285267D01*
X465583567Y-11424093D01*
X465682991Y-11474752D01*
X465794003Y-11531316D01*
X465794005Y-11531316D01*
X465794008Y-11531318D01*
X465914412Y-11570439D01*
X466018631Y-11604303D01*
X466251903Y-11641250D01*
X466251908Y-11641250D01*
X466488097Y-11641250D01*
X466721368Y-11604303D01*
X466945992Y-11531318D01*
X467156433Y-11424093D01*
X467347510Y-11285267D01*
X467514517Y-11118260D01*
X467653343Y-10927183D01*
X467760568Y-10716742D01*
X467833553Y-10492118D01*
X467841610Y-10441250D01*
X467870500Y-10258847D01*
X467870500Y-10022652D01*
X471369500Y-10022652D01*
X471369500Y-10258847D01*
X471406446Y-10492118D01*
X471479433Y-10716746D01*
X471579378Y-10912897D01*
X471586657Y-10927183D01*
X471725483Y-11118260D01*
X471892490Y-11285267D01*
X472083567Y-11424093D01*
X472182991Y-11474752D01*
X472294003Y-11531316D01*
X472294005Y-11531316D01*
X472294008Y-11531318D01*
X472414412Y-11570439D01*
X472518631Y-11604303D01*
X472751903Y-11641250D01*
X472751908Y-11641250D01*
X472988097Y-11641250D01*
X473221368Y-11604303D01*
X473445992Y-11531318D01*
X473656433Y-11424093D01*
X473847510Y-11285267D01*
X474014517Y-11118260D01*
X474153343Y-10927183D01*
X474260568Y-10716742D01*
X474333553Y-10492118D01*
X474341610Y-10441250D01*
X474370500Y-10258847D01*
X474370500Y-10022652D01*
X474333553Y-9789381D01*
X474292549Y-9663184D01*
X474260568Y-9564758D01*
X474260566Y-9564755D01*
X474260566Y-9564753D01*
X474153342Y-9354316D01*
X474014517Y-9163240D01*
X473847510Y-8996233D01*
X473656433Y-8857407D01*
X473621895Y-8839809D01*
X473445996Y-8750183D01*
X473221368Y-8677196D01*
X472988097Y-8640250D01*
X472988092Y-8640250D01*
X472751908Y-8640250D01*
X472751903Y-8640250D01*
X472518631Y-8677196D01*
X472294003Y-8750183D01*
X472083566Y-8857407D01*
X472017348Y-8905518D01*
X471892490Y-8996233D01*
X471892488Y-8996235D01*
X471892487Y-8996235D01*
X471725485Y-9163237D01*
X471725485Y-9163238D01*
X471725483Y-9163240D01*
X471689382Y-9212929D01*
X471586657Y-9354316D01*
X471479433Y-9564753D01*
X471406446Y-9789381D01*
X471369500Y-10022652D01*
X467870500Y-10022652D01*
X467844674Y-9859599D01*
X467833553Y-9789382D01*
X467792547Y-9663183D01*
X467790553Y-9593343D01*
X467822796Y-9537187D01*
X468378506Y-8981478D01*
X468378511Y-8981474D01*
X468388714Y-8971270D01*
X468388716Y-8971270D01*
X468500520Y-8859466D01*
X468579577Y-8722534D01*
X468613836Y-8594679D01*
X468620500Y-8569808D01*
X468620500Y-8411693D01*
X468620500Y-5965509D01*
X471719500Y-5965509D01*
X471719500Y-6201704D01*
X471756446Y-6434975D01*
X471829433Y-6659603D01*
X471921478Y-6840250D01*
X471936657Y-6870040D01*
X472075483Y-7061117D01*
X472242490Y-7228124D01*
X472433567Y-7366950D01*
X472520499Y-7411244D01*
X472644003Y-7474173D01*
X472644005Y-7474173D01*
X472644008Y-7474175D01*
X472706448Y-7494463D01*
X472868631Y-7547160D01*
X473101903Y-7584107D01*
X473101908Y-7584107D01*
X473338097Y-7584107D01*
X473571368Y-7547160D01*
X473795992Y-7474175D01*
X474006433Y-7366950D01*
X474197510Y-7228124D01*
X474364517Y-7061117D01*
X474503343Y-6870040D01*
X474610568Y-6659599D01*
X474683553Y-6434975D01*
X474720500Y-6201704D01*
X474720500Y-5965509D01*
X474683553Y-5732238D01*
X474630851Y-5570040D01*
X474610568Y-5507615D01*
X474610566Y-5507612D01*
X474610566Y-5507610D01*
X474530790Y-5351042D01*
X474503343Y-5297174D01*
X474364517Y-5106097D01*
X474197510Y-4939090D01*
X474006433Y-4800264D01*
X473795996Y-4693040D01*
X473571368Y-4620053D01*
X473338097Y-4583107D01*
X473338092Y-4583107D01*
X473101908Y-4583107D01*
X473101903Y-4583107D01*
X472868631Y-4620053D01*
X472644003Y-4693040D01*
X472433566Y-4800264D01*
X472324550Y-4879469D01*
X472242490Y-4939090D01*
X472242488Y-4939092D01*
X472242487Y-4939092D01*
X472075485Y-5106094D01*
X472075485Y-5106095D01*
X472075483Y-5106097D01*
X472015862Y-5188157D01*
X471936657Y-5297173D01*
X471829433Y-5507610D01*
X471756446Y-5732238D01*
X471719500Y-5965509D01*
X468620500Y-5965509D01*
X468620500Y-4811145D01*
X468620501Y-4811132D01*
X468620501Y-4643029D01*
X468614345Y-4620054D01*
X468579577Y-4490301D01*
X468544043Y-4428753D01*
X468500524Y-4353375D01*
X468500518Y-4353367D01*
X467300965Y-3153814D01*
X467267480Y-3092491D01*
X467272464Y-3022799D01*
X467314336Y-2966866D01*
X467332346Y-2955651D01*
X467506433Y-2866950D01*
X467697510Y-2728124D01*
X467864517Y-2561117D01*
X468003343Y-2370040D01*
X468110568Y-2159599D01*
X468183553Y-1934975D01*
X468185888Y-1920230D01*
X468220500Y-1701704D01*
X468220500Y-1465509D01*
X471719500Y-1465509D01*
X471719500Y-1701704D01*
X471756446Y-1934975D01*
X471829433Y-2159603D01*
X471936657Y-2370040D01*
X472075483Y-2561117D01*
X472242490Y-2728124D01*
X472433567Y-2866950D01*
X472532991Y-2917609D01*
X472644003Y-2974173D01*
X472644005Y-2974173D01*
X472644008Y-2974175D01*
X472749852Y-3008566D01*
X472868631Y-3047160D01*
X473101903Y-3084107D01*
X473101908Y-3084107D01*
X473338097Y-3084107D01*
X473571368Y-3047160D01*
X473611433Y-3034142D01*
X473795992Y-2974175D01*
X474006433Y-2866950D01*
X474197510Y-2728124D01*
X474364517Y-2561117D01*
X474503343Y-2370040D01*
X474610568Y-2159599D01*
X474683553Y-1934975D01*
X474685888Y-1920230D01*
X474720500Y-1701704D01*
X474720500Y-1465509D01*
X474683553Y-1232238D01*
X474638396Y-1093262D01*
X474610568Y-1007615D01*
X474610566Y-1007612D01*
X474610566Y-1007610D01*
X474548145Y-885103D01*
X474503343Y-797174D01*
X474364517Y-606097D01*
X474197510Y-439090D01*
X474006433Y-300264D01*
X474000013Y-296993D01*
X473795996Y-193040D01*
X473571368Y-120053D01*
X473338097Y-83107D01*
X473338092Y-83107D01*
X473101908Y-83107D01*
X473101903Y-83107D01*
X472868631Y-120053D01*
X472644003Y-193040D01*
X472433566Y-300264D01*
X472351455Y-359922D01*
X472242490Y-439090D01*
X472242488Y-439092D01*
X472242487Y-439092D01*
X472075485Y-606094D01*
X472075485Y-606095D01*
X472075483Y-606097D01*
X472049943Y-641250D01*
X471936657Y-797173D01*
X471829433Y-1007610D01*
X471756446Y-1232238D01*
X471719500Y-1465509D01*
X468220500Y-1465509D01*
X468183553Y-1232238D01*
X468138396Y-1093262D01*
X468110568Y-1007615D01*
X468110566Y-1007612D01*
X468110566Y-1007610D01*
X468048145Y-885103D01*
X468003343Y-797174D01*
X467864517Y-606097D01*
X467697510Y-439090D01*
X467506433Y-300264D01*
X467500013Y-296993D01*
X467295996Y-193040D01*
X467071368Y-120053D01*
X466838097Y-83107D01*
X466838092Y-83107D01*
X466601908Y-83107D01*
X466601903Y-83107D01*
X466368628Y-120054D01*
X466242433Y-161057D01*
X466172592Y-163052D01*
X466116435Y-130807D01*
X464506819Y1478809D01*
X464473334Y1540132D01*
X464470500Y1566490D01*
X464470500Y3117982D01*
X464490185Y3185021D01*
X464542989Y3230776D01*
X464612147Y3240720D01*
X464650787Y3228471D01*
X464655614Y3226011D01*
X464895214Y3148160D01*
X465019626Y3128455D01*
X465144038Y3108750D01*
X465144039Y3108750D01*
X465395961Y3108750D01*
X465395962Y3108750D01*
X465644785Y3148160D01*
X465680517Y3159770D01*
X465884383Y3226010D01*
X466062945Y3316993D01*
X466108845Y3340380D01*
X466108848Y3340382D01*
X466312649Y3488451D01*
X466312654Y3488455D01*
X466404510Y3580311D01*
X466465833Y3613796D01*
X466505446Y3615919D01*
X466572116Y3608751D01*
X466572119Y3608750D01*
X466572127Y3608750D01*
X466572134Y3608750D01*
X466572135Y3608750D01*
X468167870Y3608750D01*
X468167879Y3608751D01*
X468202243Y3612445D01*
X468271003Y3600037D01*
X468303176Y3576836D01*
X469051282Y2828731D01*
X469051287Y2828727D01*
X469188211Y2749674D01*
X469188210Y2749674D01*
X469233587Y2737515D01*
X469340943Y2708749D01*
X469340946Y2708749D01*
X469506654Y2708749D01*
X469506670Y2708750D01*
X473963230Y2708750D01*
X473963246Y2708749D01*
X473970842Y2708749D01*
X474128953Y2708749D01*
X474128956Y2708749D01*
X474281684Y2749673D01*
X474331799Y2778608D01*
X474331803Y2778609D01*
X474331803Y2778610D01*
X474418613Y2828729D01*
X474418616Y2828731D01*
X474537487Y2947602D01*
X474537489Y2947605D01*
X475921302Y4331418D01*
X475982625Y4364903D01*
X476052317Y4359919D01*
X476108250Y4318047D01*
X476109301Y4316622D01*
X476179890Y4219464D01*
X476179894Y4219459D01*
X476330213Y4069140D01*
X476502182Y3944199D01*
X476510946Y3939734D01*
X476561742Y3891759D01*
X476578536Y3823938D01*
X476555998Y3757803D01*
X476510946Y3718766D01*
X476502182Y3714300D01*
X476330213Y3589359D01*
X476179890Y3439036D01*
X476054951Y3267070D01*
X476054949Y3267066D01*
X475958443Y3077662D01*
X475913201Y2938422D01*
X475892753Y2875489D01*
X475859500Y2665536D01*
X475859500Y2452963D01*
X475892753Y2243010D01*
X475958444Y2040835D01*
X476054951Y1851429D01*
X476179890Y1679463D01*
X476330213Y1529140D01*
X476502182Y1404199D01*
X476510946Y1399734D01*
X476561742Y1351759D01*
X476578536Y1283938D01*
X476555998Y1217803D01*
X476510946Y1178766D01*
X476502182Y1174300D01*
X476330213Y1049359D01*
X476179890Y899036D01*
X476054951Y727070D01*
X476054949Y727066D01*
X475958443Y537662D01*
X475896018Y345537D01*
X475892753Y335489D01*
X475869534Y188894D01*
X475859500Y125537D01*
X475859500Y-87037D01*
X475892754Y-296993D01*
X475955803Y-491038D01*
X475958444Y-499164D01*
X476054951Y-688570D01*
X476179890Y-860536D01*
X476330213Y-1010859D01*
X476502182Y-1135800D01*
X476510946Y-1140266D01*
X476561742Y-1188241D01*
X476578536Y-1256062D01*
X476555998Y-1322197D01*
X476510946Y-1361234D01*
X476502182Y-1365699D01*
X476330213Y-1490640D01*
X476179890Y-1640963D01*
X476054951Y-1812929D01*
X475958444Y-2002335D01*
X475892753Y-2204510D01*
X475859500Y-2414463D01*
X475859500Y-2627036D01*
X475881788Y-2767761D01*
X475892754Y-2836993D01*
X475953126Y-3022799D01*
X475958444Y-3039164D01*
X476054951Y-3228570D01*
X476179890Y-3400536D01*
X476330213Y-3550859D01*
X476502182Y-3675800D01*
X476510946Y-3680266D01*
X476561742Y-3728241D01*
X476578536Y-3796062D01*
X476555998Y-3862197D01*
X476510946Y-3901234D01*
X476502182Y-3905699D01*
X476330213Y-4030640D01*
X476179890Y-4180963D01*
X476054951Y-4352929D01*
X475958444Y-4542335D01*
X475892753Y-4744510D01*
X475859500Y-4954463D01*
X475859500Y-5167036D01*
X475890786Y-5364572D01*
X475892754Y-5376993D01*
X475953714Y-5564609D01*
X475958444Y-5579164D01*
X476054951Y-5768570D01*
X476179890Y-5940536D01*
X476330213Y-6090859D01*
X476502182Y-6215800D01*
X476510946Y-6220266D01*
X476561742Y-6268241D01*
X476578536Y-6336062D01*
X476555998Y-6402197D01*
X476510946Y-6441234D01*
X476502182Y-6445699D01*
X476330213Y-6570640D01*
X476179890Y-6720963D01*
X476054951Y-6892929D01*
X475958444Y-7082335D01*
X475892753Y-7284510D01*
X475859500Y-7494463D01*
X475859500Y-7707036D01*
X475892754Y-7916994D01*
X475892754Y-7916997D01*
X475906491Y-7959273D01*
X475908486Y-8029114D01*
X475876241Y-8085272D01*
X475770862Y-8190652D01*
X475691286Y-8270228D01*
X475691284Y-8270230D01*
X475655420Y-8306094D01*
X475579481Y-8382032D01*
X475579480Y-8382034D01*
X475562357Y-8411693D01*
X475500423Y-8518965D01*
X475459499Y-8671693D01*
X475459499Y-8671695D01*
X475459499Y-8839796D01*
X475459500Y-8839809D01*
X475459500Y-18824080D01*
X475459499Y-18824098D01*
X475459499Y-18989804D01*
X475459498Y-18989804D01*
X475500423Y-19142535D01*
X475529358Y-19192650D01*
X475529359Y-19192654D01*
X475529360Y-19192654D01*
X475579479Y-19279464D01*
X475579481Y-19279467D01*
X475796602Y-19496588D01*
X475821284Y-19521270D01*
X475821286Y-19521271D01*
X475821290Y-19521274D01*
X475958209Y-19600323D01*
X475958216Y-19600327D01*
X476110943Y-19641251D01*
X476110945Y-19641251D01*
X476276654Y-19641251D01*
X476276670Y-19641250D01*
X498849677Y-19641250D01*
X498849693Y-19641251D01*
X498857289Y-19641251D01*
X499015400Y-19641251D01*
X499015403Y-19641251D01*
X499168131Y-19600327D01*
X499218250Y-19571389D01*
X499305062Y-19521270D01*
X499416866Y-19409466D01*
X499416866Y-19409464D01*
X499427074Y-19399257D01*
X499427076Y-19399254D01*
X500346946Y-18479383D01*
X500364587Y-18469750D01*
X500379326Y-18456080D01*
X500394625Y-18453348D01*
X500408267Y-18445900D01*
X500428317Y-18447333D01*
X500448108Y-18443801D01*
X500462455Y-18449775D01*
X500477959Y-18450884D01*
X500494052Y-18462931D01*
X500512610Y-18470659D01*
X500521450Y-18483442D01*
X500533892Y-18492756D01*
X500540916Y-18511589D01*
X500552352Y-18528125D01*
X500552877Y-18543658D01*
X500558309Y-18558220D01*
X500554035Y-18577863D01*
X500554716Y-18597954D01*
X500544139Y-18623354D01*
X500543457Y-18626493D01*
X500541149Y-18630537D01*
X500537117Y-18637304D01*
X500531510Y-18645886D01*
X500273355Y-19007456D01*
X500267061Y-19015544D01*
X499979925Y-19354566D01*
X499972983Y-19362106D01*
X499658832Y-19676257D01*
X499651292Y-19683199D01*
X499312270Y-19970335D01*
X499304182Y-19976629D01*
X498942612Y-20234784D01*
X498934032Y-20240390D01*
X498552373Y-20467807D01*
X498543360Y-20472685D01*
X498144211Y-20667815D01*
X498134832Y-20671928D01*
X497799726Y-20802685D01*
X497720955Y-20833422D01*
X497711262Y-20836749D01*
X497285449Y-20963516D01*
X497275513Y-20966032D01*
X496840695Y-21057199D01*
X496830587Y-21058886D01*
X496389714Y-21113837D01*
X496379500Y-21114683D01*
X495933046Y-21133143D01*
X495927925Y-21133249D01*
X495895088Y-21133249D01*
X495864590Y-21133249D01*
X495864586Y-21133249D01*
X495856982Y-21133250D01*
X495856981Y-21133249D01*
X495856980Y-21133250D01*
X426073499Y-21133250D01*
X426073483Y-21133249D01*
X426002556Y-21133249D01*
X425997433Y-21133143D01*
X425550978Y-21114681D01*
X425540765Y-21113835D01*
X425099919Y-21058886D01*
X425099895Y-21058883D01*
X425089786Y-21057196D01*
X425007430Y-21039928D01*
X424654962Y-20966024D01*
X424645029Y-20963509D01*
X424219223Y-20836743D01*
X424209529Y-20833415D01*
X423795652Y-20671921D01*
X423786267Y-20667805D01*
X423574755Y-20564404D01*
X423387121Y-20472675D01*
X423378120Y-20467805D01*
X422996469Y-20240390D01*
X422996446Y-20240376D01*
X422987867Y-20234770D01*
X422626303Y-19976619D01*
X422618215Y-19970325D01*
X422279181Y-19683178D01*
X422271653Y-19676247D01*
X421957502Y-19362096D01*
X421950569Y-19354566D01*
X421663420Y-19015529D01*
X421657130Y-19007446D01*
X421398979Y-18645882D01*
X421393373Y-18637303D01*
X421339659Y-18547160D01*
X421165939Y-18255621D01*
X421161078Y-18246637D01*
X420965941Y-17847476D01*
X420961828Y-17838097D01*
X420940032Y-17782237D01*
X420800328Y-17424203D01*
X420797011Y-17414542D01*
X420670233Y-16988696D01*
X420667728Y-16978804D01*
X420664940Y-16965509D01*
X434019500Y-16965509D01*
X434019500Y-17201704D01*
X434056446Y-17434975D01*
X434129433Y-17659603D01*
X434191919Y-17782237D01*
X434236657Y-17870040D01*
X434375483Y-18061117D01*
X434542490Y-18228124D01*
X434733567Y-18366950D01*
X434832991Y-18417609D01*
X434944003Y-18474173D01*
X434944005Y-18474173D01*
X434944008Y-18474175D01*
X435059156Y-18511589D01*
X435168631Y-18547160D01*
X435401903Y-18584107D01*
X435401908Y-18584107D01*
X435638097Y-18584107D01*
X435871368Y-18547160D01*
X435882146Y-18543658D01*
X436095992Y-18474175D01*
X436306433Y-18366950D01*
X436497510Y-18228124D01*
X436664517Y-18061117D01*
X436803343Y-17870040D01*
X436910568Y-17659599D01*
X436983553Y-17434975D01*
X436986792Y-17414526D01*
X437020500Y-17201704D01*
X437020500Y-16965509D01*
X440519500Y-16965509D01*
X440519500Y-17201704D01*
X440556446Y-17434975D01*
X440629433Y-17659603D01*
X440691919Y-17782237D01*
X440736657Y-17870040D01*
X440875483Y-18061117D01*
X441042490Y-18228124D01*
X441233567Y-18366950D01*
X441332991Y-18417609D01*
X441444003Y-18474173D01*
X441444005Y-18474173D01*
X441444008Y-18474175D01*
X441559156Y-18511589D01*
X441668631Y-18547160D01*
X441901903Y-18584107D01*
X441901908Y-18584107D01*
X442138097Y-18584107D01*
X442371368Y-18547160D01*
X442382146Y-18543658D01*
X442595992Y-18474175D01*
X442806433Y-18366950D01*
X442997510Y-18228124D01*
X443164517Y-18061117D01*
X443303343Y-17870040D01*
X443410568Y-17659599D01*
X443483553Y-17434975D01*
X443486792Y-17414526D01*
X443520500Y-17201704D01*
X443520500Y-16965509D01*
X443483553Y-16732238D01*
X443449689Y-16628019D01*
X443410568Y-16507615D01*
X443410566Y-16507612D01*
X443410566Y-16507610D01*
X443346174Y-16381234D01*
X443303343Y-16297174D01*
X443164517Y-16106097D01*
X442997510Y-15939090D01*
X442806433Y-15800264D01*
X442748962Y-15770981D01*
X442595996Y-15693040D01*
X442371368Y-15620053D01*
X442138097Y-15583107D01*
X442138092Y-15583107D01*
X441901908Y-15583107D01*
X441901903Y-15583107D01*
X441668631Y-15620053D01*
X441444003Y-15693040D01*
X441233566Y-15800264D01*
X441131749Y-15874239D01*
X441042490Y-15939090D01*
X441042488Y-15939092D01*
X441042487Y-15939092D01*
X440875485Y-16106094D01*
X440875485Y-16106095D01*
X440875483Y-16106097D01*
X440839373Y-16155798D01*
X440736657Y-16297173D01*
X440629433Y-16507610D01*
X440556446Y-16732238D01*
X440519500Y-16965509D01*
X437020500Y-16965509D01*
X436983553Y-16732238D01*
X436949689Y-16628019D01*
X436910568Y-16507615D01*
X436910566Y-16507612D01*
X436910566Y-16507610D01*
X436846174Y-16381234D01*
X436803343Y-16297174D01*
X436664517Y-16106097D01*
X436497510Y-15939090D01*
X436306433Y-15800264D01*
X436248962Y-15770981D01*
X436095996Y-15693040D01*
X435871368Y-15620053D01*
X435638097Y-15583107D01*
X435638092Y-15583107D01*
X435401908Y-15583107D01*
X435401903Y-15583107D01*
X435168631Y-15620053D01*
X434944003Y-15693040D01*
X434733566Y-15800264D01*
X434631749Y-15874239D01*
X434542490Y-15939090D01*
X434542488Y-15939092D01*
X434542487Y-15939092D01*
X434375485Y-16106094D01*
X434375485Y-16106095D01*
X434375483Y-16106097D01*
X434339373Y-16155798D01*
X434236657Y-16297173D01*
X434129433Y-16507610D01*
X434056446Y-16732238D01*
X434019500Y-16965509D01*
X420664940Y-16965509D01*
X420576549Y-16543944D01*
X420574869Y-16533873D01*
X420519912Y-16092962D01*
X420519069Y-16082793D01*
X420500606Y-15636316D01*
X420500500Y-15631193D01*
X420500500Y-15601250D01*
X420500501Y-15567861D01*
X420500500Y-15567857D01*
X420500500Y-14508366D01*
X454479500Y-14508366D01*
X454479500Y-14744561D01*
X454516446Y-14977832D01*
X454589433Y-15202460D01*
X454647789Y-15316989D01*
X454696657Y-15412897D01*
X454835483Y-15603974D01*
X455002490Y-15770981D01*
X455193567Y-15909807D01*
X455251042Y-15939092D01*
X455404003Y-16017030D01*
X455404005Y-16017030D01*
X455404008Y-16017032D01*
X455447976Y-16031318D01*
X455628631Y-16090017D01*
X455861903Y-16126964D01*
X455861908Y-16126964D01*
X456098097Y-16126964D01*
X456331368Y-16090017D01*
X456555992Y-16017032D01*
X456766433Y-15909807D01*
X456957510Y-15770981D01*
X457124517Y-15603974D01*
X457263343Y-15412897D01*
X457370568Y-15202456D01*
X457443553Y-14977832D01*
X457449475Y-14940442D01*
X457480500Y-14744561D01*
X457480500Y-14508366D01*
X460979500Y-14508366D01*
X460979500Y-14744561D01*
X461016446Y-14977832D01*
X461089433Y-15202460D01*
X461147789Y-15316989D01*
X461196657Y-15412897D01*
X461335483Y-15603974D01*
X461502490Y-15770981D01*
X461693567Y-15909807D01*
X461751042Y-15939092D01*
X461904003Y-16017030D01*
X461904005Y-16017030D01*
X461904008Y-16017032D01*
X461947976Y-16031318D01*
X462128631Y-16090017D01*
X462361903Y-16126964D01*
X462361908Y-16126964D01*
X462598097Y-16126964D01*
X462831368Y-16090017D01*
X463055992Y-16017032D01*
X463266433Y-15909807D01*
X463457510Y-15770981D01*
X463624517Y-15603974D01*
X463763343Y-15412897D01*
X463870568Y-15202456D01*
X463943553Y-14977832D01*
X463949475Y-14940442D01*
X463980500Y-14744561D01*
X463980500Y-14522652D01*
X464869500Y-14522652D01*
X464869500Y-14758847D01*
X464906446Y-14992118D01*
X464979433Y-15216746D01*
X465030510Y-15316989D01*
X465086657Y-15427183D01*
X465225483Y-15618260D01*
X465392490Y-15785267D01*
X465583567Y-15924093D01*
X465682991Y-15974752D01*
X465794003Y-16031316D01*
X465794005Y-16031316D01*
X465794008Y-16031318D01*
X465914412Y-16070439D01*
X466018631Y-16104303D01*
X466251903Y-16141250D01*
X466251908Y-16141250D01*
X466488097Y-16141250D01*
X466721368Y-16104303D01*
X466756201Y-16092985D01*
X466945992Y-16031318D01*
X467156433Y-15924093D01*
X467347510Y-15785267D01*
X467514517Y-15618260D01*
X467653343Y-15427183D01*
X467760568Y-15216742D01*
X467833553Y-14992118D01*
X467862833Y-14807253D01*
X467870500Y-14758847D01*
X467870500Y-14522652D01*
X471369500Y-14522652D01*
X471369500Y-14758847D01*
X471406446Y-14992118D01*
X471479433Y-15216746D01*
X471530510Y-15316989D01*
X471586657Y-15427183D01*
X471725483Y-15618260D01*
X471892490Y-15785267D01*
X472083567Y-15924093D01*
X472182991Y-15974752D01*
X472294003Y-16031316D01*
X472294005Y-16031316D01*
X472294008Y-16031318D01*
X472414412Y-16070439D01*
X472518631Y-16104303D01*
X472751903Y-16141250D01*
X472751908Y-16141250D01*
X472988097Y-16141250D01*
X473221368Y-16104303D01*
X473256201Y-16092985D01*
X473445992Y-16031318D01*
X473656433Y-15924093D01*
X473847510Y-15785267D01*
X474014517Y-15618260D01*
X474153343Y-15427183D01*
X474260568Y-15216742D01*
X474333553Y-14992118D01*
X474362833Y-14807253D01*
X474370500Y-14758847D01*
X474370500Y-14522652D01*
X474333553Y-14289381D01*
X474278830Y-14120963D01*
X474260568Y-14064758D01*
X474260566Y-14064755D01*
X474260566Y-14064753D01*
X474185009Y-13916466D01*
X474153343Y-13854317D01*
X474014517Y-13663240D01*
X473847510Y-13496233D01*
X473656433Y-13357407D01*
X473582221Y-13319594D01*
X473445996Y-13250183D01*
X473221368Y-13177196D01*
X472988097Y-13140250D01*
X472988092Y-13140250D01*
X472751908Y-13140250D01*
X472751903Y-13140250D01*
X472518631Y-13177196D01*
X472294003Y-13250183D01*
X472083566Y-13357407D01*
X472040680Y-13388566D01*
X471892490Y-13496233D01*
X471892488Y-13496235D01*
X471892487Y-13496235D01*
X471725485Y-13663237D01*
X471725485Y-13663238D01*
X471725483Y-13663240D01*
X471678344Y-13728121D01*
X471586657Y-13854316D01*
X471479433Y-14064753D01*
X471406446Y-14289381D01*
X471369500Y-14522652D01*
X467870500Y-14522652D01*
X467833553Y-14289381D01*
X467778830Y-14120963D01*
X467760568Y-14064758D01*
X467760566Y-14064755D01*
X467760566Y-14064753D01*
X467685009Y-13916466D01*
X467653343Y-13854317D01*
X467514517Y-13663240D01*
X467347510Y-13496233D01*
X467156433Y-13357407D01*
X467082221Y-13319594D01*
X466945996Y-13250183D01*
X466721368Y-13177196D01*
X466488097Y-13140250D01*
X466488092Y-13140250D01*
X466251908Y-13140250D01*
X466251903Y-13140250D01*
X466018631Y-13177196D01*
X465794003Y-13250183D01*
X465583566Y-13357407D01*
X465540680Y-13388566D01*
X465392490Y-13496233D01*
X465392488Y-13496235D01*
X465392487Y-13496235D01*
X465225485Y-13663237D01*
X465225485Y-13663238D01*
X465225483Y-13663240D01*
X465178344Y-13728121D01*
X465086657Y-13854316D01*
X464979433Y-14064753D01*
X464906446Y-14289381D01*
X464869500Y-14522652D01*
X463980500Y-14522652D01*
X463980500Y-14508366D01*
X463943553Y-14275095D01*
X463893470Y-14120958D01*
X463870568Y-14050472D01*
X463870566Y-14050469D01*
X463870566Y-14050467D01*
X463810360Y-13932307D01*
X463763343Y-13840031D01*
X463624517Y-13648954D01*
X463457510Y-13481947D01*
X463266433Y-13343121D01*
X463220255Y-13319592D01*
X463055996Y-13235897D01*
X462831368Y-13162910D01*
X462598097Y-13125964D01*
X462598092Y-13125964D01*
X462361908Y-13125964D01*
X462361903Y-13125964D01*
X462128631Y-13162910D01*
X461904003Y-13235897D01*
X461693566Y-13343121D01*
X461584550Y-13422326D01*
X461502490Y-13481947D01*
X461502488Y-13481949D01*
X461502487Y-13481949D01*
X461335485Y-13648951D01*
X461335485Y-13648952D01*
X461335483Y-13648954D01*
X461290510Y-13710854D01*
X461196657Y-13840030D01*
X461089433Y-14050467D01*
X461016446Y-14275095D01*
X460979500Y-14508366D01*
X457480500Y-14508366D01*
X457443553Y-14275095D01*
X457393470Y-14120958D01*
X457370568Y-14050472D01*
X457370566Y-14050469D01*
X457370566Y-14050467D01*
X457310360Y-13932307D01*
X457263343Y-13840031D01*
X457124517Y-13648954D01*
X456957510Y-13481947D01*
X456766433Y-13343121D01*
X456720255Y-13319592D01*
X456555996Y-13235897D01*
X456331368Y-13162910D01*
X456098097Y-13125964D01*
X456098092Y-13125964D01*
X455861908Y-13125964D01*
X455861903Y-13125964D01*
X455628631Y-13162910D01*
X455404003Y-13235897D01*
X455193566Y-13343121D01*
X455084550Y-13422326D01*
X455002490Y-13481947D01*
X455002488Y-13481949D01*
X455002487Y-13481949D01*
X454835485Y-13648951D01*
X454835485Y-13648952D01*
X454835483Y-13648954D01*
X454790510Y-13710854D01*
X454696657Y-13840030D01*
X454589433Y-14050467D01*
X454516446Y-14275095D01*
X454479500Y-14508366D01*
X420500500Y-14508366D01*
X420500500Y-12465509D01*
X434019500Y-12465509D01*
X434019500Y-12701704D01*
X434056446Y-12934975D01*
X434129433Y-13159603D01*
X434221624Y-13340536D01*
X434236657Y-13370040D01*
X434375483Y-13561117D01*
X434542490Y-13728124D01*
X434733567Y-13866950D01*
X434830748Y-13916466D01*
X434944003Y-13974173D01*
X434944005Y-13974173D01*
X434944008Y-13974175D01*
X435055768Y-14010488D01*
X435168631Y-14047160D01*
X435401903Y-14084107D01*
X435401908Y-14084107D01*
X435638097Y-14084107D01*
X435871368Y-14047160D01*
X435889560Y-14041249D01*
X436095992Y-13974175D01*
X436306433Y-13866950D01*
X436497510Y-13728124D01*
X436664517Y-13561117D01*
X436803343Y-13370040D01*
X436910568Y-13159599D01*
X436983553Y-12934975D01*
X437008575Y-12776993D01*
X437020500Y-12701704D01*
X437020500Y-12465509D01*
X436983553Y-12232238D01*
X436935403Y-12084049D01*
X436910568Y-12007615D01*
X436910566Y-12007612D01*
X436910566Y-12007610D01*
X436830546Y-11850563D01*
X436803343Y-11797174D01*
X436664517Y-11606097D01*
X436497510Y-11439090D01*
X436306433Y-11300264D01*
X436248962Y-11270981D01*
X436095996Y-11193040D01*
X435871368Y-11120053D01*
X435638097Y-11083107D01*
X435638092Y-11083107D01*
X435401908Y-11083107D01*
X435401903Y-11083107D01*
X435168631Y-11120053D01*
X434944003Y-11193040D01*
X434733566Y-11300264D01*
X434628684Y-11376466D01*
X434542490Y-11439090D01*
X434542488Y-11439092D01*
X434542487Y-11439092D01*
X434375485Y-11606094D01*
X434375485Y-11606095D01*
X434375483Y-11606097D01*
X434349943Y-11641250D01*
X434236657Y-11797173D01*
X434129433Y-12007610D01*
X434056446Y-12232238D01*
X434019500Y-12465509D01*
X420500500Y-12465509D01*
X420500500Y-9015509D01*
X424369500Y-9015509D01*
X424369500Y-9251704D01*
X424406446Y-9484975D01*
X424479433Y-9709603D01*
X424555863Y-9859603D01*
X424586657Y-9920040D01*
X424725483Y-10111117D01*
X424892490Y-10278124D01*
X425083567Y-10416950D01*
X425182991Y-10467609D01*
X425294003Y-10524173D01*
X425294005Y-10524173D01*
X425294008Y-10524175D01*
X425373932Y-10550144D01*
X425518631Y-10597160D01*
X425751903Y-10634107D01*
X425751908Y-10634107D01*
X425988097Y-10634107D01*
X426221368Y-10597160D01*
X426445992Y-10524175D01*
X426656433Y-10416950D01*
X426847510Y-10278124D01*
X427014517Y-10111117D01*
X427153343Y-9920040D01*
X427260568Y-9709599D01*
X427333553Y-9484975D01*
X427337261Y-9461564D01*
X427370500Y-9251704D01*
X427370500Y-9015509D01*
X430869500Y-9015509D01*
X430869500Y-9251704D01*
X430906446Y-9484975D01*
X430979433Y-9709603D01*
X431055863Y-9859603D01*
X431086657Y-9920040D01*
X431225483Y-10111117D01*
X431392490Y-10278124D01*
X431583567Y-10416950D01*
X431682991Y-10467609D01*
X431794003Y-10524173D01*
X431794005Y-10524173D01*
X431794008Y-10524175D01*
X431873932Y-10550144D01*
X432018631Y-10597160D01*
X432251903Y-10634107D01*
X432251908Y-10634107D01*
X432488097Y-10634107D01*
X432721368Y-10597160D01*
X432945992Y-10524175D01*
X433156433Y-10416950D01*
X433347510Y-10278124D01*
X433514517Y-10111117D01*
X433653343Y-9920040D01*
X433760568Y-9709599D01*
X433833553Y-9484975D01*
X433837261Y-9461564D01*
X433870500Y-9251704D01*
X433870500Y-9015509D01*
X433833553Y-8782238D01*
X433794781Y-8662911D01*
X433760568Y-8557615D01*
X433760566Y-8557612D01*
X433760566Y-8557610D01*
X433704002Y-8446598D01*
X433653343Y-8347174D01*
X433514517Y-8156097D01*
X433347510Y-7989090D01*
X433156433Y-7850264D01*
X433097141Y-7820053D01*
X432945996Y-7743040D01*
X432721368Y-7670053D01*
X432488097Y-7633107D01*
X432488092Y-7633107D01*
X432251908Y-7633107D01*
X432251903Y-7633107D01*
X432018631Y-7670053D01*
X431794003Y-7743040D01*
X431583566Y-7850264D01*
X431524692Y-7893039D01*
X431392490Y-7989090D01*
X431392488Y-7989092D01*
X431392487Y-7989092D01*
X431225485Y-8156094D01*
X431225485Y-8156095D01*
X431225483Y-8156097D01*
X431185968Y-8210485D01*
X431086657Y-8347173D01*
X430979433Y-8557610D01*
X430906446Y-8782238D01*
X430869500Y-9015509D01*
X427370500Y-9015509D01*
X427333553Y-8782238D01*
X427294781Y-8662911D01*
X427260568Y-8557615D01*
X427260566Y-8557612D01*
X427260566Y-8557610D01*
X427204002Y-8446598D01*
X427153343Y-8347174D01*
X427014517Y-8156097D01*
X426847510Y-7989090D01*
X426656433Y-7850264D01*
X426597141Y-7820053D01*
X426445996Y-7743040D01*
X426221368Y-7670053D01*
X425988097Y-7633107D01*
X425988092Y-7633107D01*
X425751908Y-7633107D01*
X425751903Y-7633107D01*
X425518631Y-7670053D01*
X425294003Y-7743040D01*
X425083566Y-7850264D01*
X425024692Y-7893039D01*
X424892490Y-7989090D01*
X424892488Y-7989092D01*
X424892487Y-7989092D01*
X424725485Y-8156094D01*
X424725485Y-8156095D01*
X424725483Y-8156097D01*
X424685968Y-8210485D01*
X424586657Y-8347173D01*
X424479433Y-8557610D01*
X424406446Y-8782238D01*
X424369500Y-9015509D01*
X420500500Y-9015509D01*
X420500500Y-4515509D01*
X424369500Y-4515509D01*
X424369500Y-4751704D01*
X424406446Y-4984975D01*
X424479433Y-5209603D01*
X424586657Y-5420040D01*
X424725483Y-5611117D01*
X424892490Y-5778124D01*
X425083567Y-5916950D01*
X425129869Y-5940542D01*
X425294003Y-6024173D01*
X425294005Y-6024173D01*
X425294008Y-6024175D01*
X425414412Y-6063296D01*
X425518631Y-6097160D01*
X425751903Y-6134107D01*
X425751908Y-6134107D01*
X425988097Y-6134107D01*
X426221368Y-6097160D01*
X426240776Y-6090854D01*
X426445992Y-6024175D01*
X426656433Y-5916950D01*
X426847510Y-5778124D01*
X427014517Y-5611117D01*
X427153343Y-5420040D01*
X427260568Y-5209599D01*
X427333553Y-4984975D01*
X427340820Y-4939092D01*
X427370500Y-4751704D01*
X427370500Y-4515509D01*
X427333553Y-4282238D01*
X427262168Y-4062539D01*
X427260568Y-4057615D01*
X427260566Y-4057612D01*
X427260566Y-4057610D01*
X427180888Y-3901234D01*
X427153343Y-3847174D01*
X427014517Y-3656097D01*
X426847510Y-3489090D01*
X426656433Y-3350264D01*
X426596872Y-3319916D01*
X426445996Y-3243040D01*
X426221368Y-3170053D01*
X425988097Y-3133107D01*
X425988092Y-3133107D01*
X425751908Y-3133107D01*
X425751903Y-3133107D01*
X425518631Y-3170053D01*
X425294003Y-3243040D01*
X425083566Y-3350264D01*
X425014365Y-3400542D01*
X424892490Y-3489090D01*
X424892488Y-3489092D01*
X424892487Y-3489092D01*
X424725485Y-3656094D01*
X424725485Y-3656095D01*
X424725483Y-3656097D01*
X424673067Y-3728241D01*
X424586657Y-3847173D01*
X424479433Y-4057610D01*
X424406446Y-4282238D01*
X424369500Y-4515509D01*
X420500500Y-4515509D01*
X420500500Y58932094D01*
X420795000Y58932094D01*
X420795000Y58359250D01*
X421636988Y58359250D01*
X421604075Y58302243D01*
X421570000Y58175076D01*
X421570000Y58043424D01*
X421604075Y57916257D01*
X421636988Y57859250D01*
X420795000Y57859250D01*
X420795000Y57286405D01*
X420801401Y57226877D01*
X420801403Y57226870D01*
X420851645Y57092163D01*
X420851649Y57092156D01*
X420937809Y56977062D01*
X420937812Y56977059D01*
X421052906Y56890899D01*
X421052913Y56890895D01*
X421187620Y56840653D01*
X421187627Y56840651D01*
X421247155Y56834250D01*
X421820000Y56834250D01*
X421820000Y57676238D01*
X421877007Y57643325D01*
X422004174Y57609250D01*
X422135826Y57609250D01*
X422262993Y57643325D01*
X422320000Y57676238D01*
X422320000Y56834250D01*
X422892844Y56834250D01*
X422952372Y56840651D01*
X422952379Y56840653D01*
X423087086Y56890895D01*
X423087093Y56890899D01*
X423202187Y56977059D01*
X423202190Y56977062D01*
X423288350Y57092156D01*
X423288354Y57092163D01*
X423338596Y57226870D01*
X423338598Y57226877D01*
X423344999Y57286405D01*
X423345000Y57286422D01*
X423345000Y57859250D01*
X422503012Y57859250D01*
X422535925Y57916257D01*
X422570000Y58043424D01*
X422570000Y58175076D01*
X422560740Y58209633D01*
X425794500Y58209633D01*
X425794500Y58008866D01*
X425825907Y57810569D01*
X425887949Y57619623D01*
X425979095Y57440741D01*
X426046423Y57348072D01*
X426097103Y57278318D01*
X426097105Y57278316D01*
X426097105Y57278315D01*
X426239065Y57136355D01*
X426401491Y57018345D01*
X426580373Y56927199D01*
X426771319Y56865157D01*
X426870468Y56849453D01*
X426969616Y56833750D01*
X426969617Y56833750D01*
X427170383Y56833750D01*
X427170384Y56833750D01*
X427368680Y56865157D01*
X427559626Y56927199D01*
X427738508Y57018345D01*
X427900932Y57136353D01*
X428042897Y57278318D01*
X428160905Y57440742D01*
X428203967Y57525257D01*
X428252050Y57619623D01*
X428252052Y57619628D01*
X428314093Y57810570D01*
X428345500Y58008866D01*
X428345500Y58209634D01*
X428314093Y58407930D01*
X428252052Y58598872D01*
X428160905Y58777758D01*
X428042897Y58940182D01*
X427900932Y59082147D01*
X427738508Y59200155D01*
X427559622Y59291302D01*
X427368680Y59353343D01*
X427170384Y59384750D01*
X426969616Y59384750D01*
X426771320Y59353343D01*
X426580378Y59291302D01*
X426580375Y59291300D01*
X426580373Y59291300D01*
X426486007Y59243217D01*
X426401492Y59200155D01*
X426239068Y59082147D01*
X426097103Y58940182D01*
X425979095Y58777758D01*
X425887949Y58598876D01*
X425825907Y58407930D01*
X425794500Y58209633D01*
X422560740Y58209633D01*
X422535925Y58302243D01*
X422503012Y58359250D01*
X423345000Y58359250D01*
X423345000Y58932077D01*
X423344999Y58932094D01*
X423338598Y58991622D01*
X423338596Y58991629D01*
X423288354Y59126336D01*
X423288350Y59126343D01*
X423202190Y59241437D01*
X423202187Y59241440D01*
X423087093Y59327600D01*
X423087086Y59327604D01*
X422952379Y59377846D01*
X422952372Y59377848D01*
X422892844Y59384249D01*
X422892828Y59384250D01*
X422320000Y59384250D01*
X422320000Y58542262D01*
X422262993Y58575175D01*
X422135826Y58609250D01*
X422004174Y58609250D01*
X421877007Y58575175D01*
X421820000Y58542262D01*
X421820000Y59384250D01*
X421247172Y59384250D01*
X421247155Y59384249D01*
X421187627Y59377848D01*
X421187620Y59377846D01*
X421052913Y59327604D01*
X421052906Y59327600D01*
X420937812Y59241440D01*
X420937809Y59241437D01*
X420851649Y59126343D01*
X420851645Y59126336D01*
X420801403Y58991629D01*
X420801401Y58991622D01*
X420795000Y58932094D01*
X420500500Y58932094D01*
X420500500Y63209633D01*
X423294500Y63209633D01*
X423294500Y63008866D01*
X423325907Y62810569D01*
X423387949Y62619623D01*
X423479095Y62440741D01*
X423536902Y62361177D01*
X423597103Y62278318D01*
X423597105Y62278316D01*
X423597105Y62278315D01*
X423739065Y62136355D01*
X423901491Y62018345D01*
X424080373Y61927199D01*
X424271319Y61865157D01*
X424370468Y61849453D01*
X424469616Y61833750D01*
X424469617Y61833750D01*
X424670383Y61833750D01*
X424670384Y61833750D01*
X424868680Y61865157D01*
X424907099Y61877640D01*
X425059626Y61927199D01*
X425238508Y62018345D01*
X425400932Y62136353D01*
X425542897Y62278318D01*
X425660905Y62440742D01*
X425703967Y62525257D01*
X425752050Y62619623D01*
X425765690Y62661601D01*
X429069500Y62661601D01*
X429069500Y62456898D01*
X429101522Y62254715D01*
X429164781Y62060026D01*
X429257715Y61877636D01*
X429378028Y61712036D01*
X429522786Y61567278D01*
X429688386Y61446965D01*
X429870776Y61354031D01*
X430065465Y61290772D01*
X430243329Y61262601D01*
X430267648Y61258750D01*
X430267649Y61258750D01*
X430472351Y61258750D01*
X430472352Y61258750D01*
X430499995Y61263128D01*
X430674534Y61290772D01*
X430869223Y61354031D01*
X430994653Y61417941D01*
X431051610Y61446963D01*
X431051613Y61446965D01*
X431217213Y61567278D01*
X431361971Y61712036D01*
X431482284Y61877636D01*
X431482287Y61877640D01*
X431553980Y62018345D01*
X431575218Y62060026D01*
X431600019Y62136353D01*
X431638477Y62254716D01*
X431655338Y62361167D01*
X431670500Y62456898D01*
X431670500Y62661601D01*
X431638477Y62863784D01*
X431575220Y63058469D01*
X431482287Y63240860D01*
X431414732Y63333840D01*
X431361971Y63406463D01*
X431361968Y63406465D01*
X431361966Y63406469D01*
X431217219Y63551216D01*
X431217215Y63551218D01*
X431217213Y63551221D01*
X431110697Y63628608D01*
X431051610Y63671537D01*
X430869219Y63764470D01*
X430674534Y63827727D01*
X430472352Y63859750D01*
X430267648Y63859750D01*
X430166557Y63843738D01*
X430065465Y63827727D01*
X429975137Y63798377D01*
X429870781Y63764470D01*
X429870778Y63764468D01*
X429870776Y63764468D01*
X429804607Y63730753D01*
X429688390Y63671537D01*
X429688386Y63671534D01*
X429522786Y63551221D01*
X429378028Y63406463D01*
X429257715Y63240863D01*
X429164781Y63058473D01*
X429101522Y62863784D01*
X429069500Y62661601D01*
X425765690Y62661601D01*
X425779724Y62704793D01*
X425814092Y62810565D01*
X425814092Y62810568D01*
X425814093Y62810570D01*
X425845500Y63008866D01*
X425845500Y63209634D01*
X425814093Y63407930D01*
X425752052Y63598872D01*
X425660905Y63777758D01*
X425542897Y63940182D01*
X425400932Y64082147D01*
X425238508Y64200155D01*
X425059622Y64291302D01*
X424868680Y64353343D01*
X424670384Y64384750D01*
X424469616Y64384750D01*
X424271320Y64353343D01*
X424080378Y64291302D01*
X424080375Y64291300D01*
X424080373Y64291300D01*
X423986007Y64243217D01*
X423901492Y64200155D01*
X423739068Y64082147D01*
X423597103Y63940182D01*
X423511425Y63822256D01*
X423479095Y63777758D01*
X423387949Y63598876D01*
X423325907Y63407930D01*
X423294500Y63209633D01*
X420500500Y63209633D01*
X420500500Y66065892D01*
X420500500Y71797445D01*
X420500606Y71802565D01*
X420510560Y72043231D01*
X420519072Y72249036D01*
X420519915Y72259209D01*
X420574873Y72700114D01*
X420576555Y72710194D01*
X420667733Y73145043D01*
X420670242Y73154951D01*
X420797019Y73580786D01*
X420800338Y73590454D01*
X420917656Y73891114D01*
X420961841Y74004349D01*
X420965958Y74013734D01*
X421161076Y74412854D01*
X421165953Y74421868D01*
X421393383Y74803545D01*
X421398989Y74812124D01*
X421657139Y75173687D01*
X421663434Y75181775D01*
X421663438Y75181779D01*
X421950571Y75520796D01*
X421957512Y75528336D01*
X422271663Y75842487D01*
X422279203Y75849428D01*
X422618224Y76136565D01*
X422626312Y76142860D01*
X422626335Y76142876D01*
X422986131Y76399765D01*
X422987875Y76401010D01*
X422996454Y76406616D01*
X423378131Y76634046D01*
X423387145Y76638923D01*
X423786265Y76834041D01*
X423795650Y76838158D01*
X424209533Y76999656D01*
X424219226Y77002984D01*
X424645035Y77129753D01*
X424654970Y77132269D01*
X425089791Y77223441D01*
X425099900Y77225128D01*
X425540769Y77280082D01*
X425550983Y77280928D01*
X425997437Y77299394D01*
X426002561Y77299500D01*
X426065892Y77299500D01*
X495856977Y77299500D01*
X495856978Y77299499D01*
G37*
%TD.AperFunction*%
%TA.AperFunction,Conductor*%
G36*
X446348118Y38466195D02*
G01*
X446394545Y38436940D01*
X453152753Y31678731D01*
X453152761Y31678725D01*
X453289680Y31599676D01*
X453289685Y31599673D01*
X453385187Y31574084D01*
X453385186Y31574083D01*
X453442412Y31558750D01*
X453442413Y31558750D01*
X453442414Y31558750D01*
X462104217Y31558750D01*
X462171256Y31539065D01*
X462191898Y31522431D01*
X462833181Y30881147D01*
X462866666Y30819824D01*
X462869500Y30793466D01*
X462869500Y7498611D01*
X462849815Y7431572D01*
X462797011Y7385817D01*
X462727853Y7375873D01*
X462689210Y7388124D01*
X462484379Y7492491D01*
X462244785Y7570340D01*
X461995962Y7609750D01*
X461744038Y7609750D01*
X461495215Y7570340D01*
X461255621Y7492491D01*
X461255618Y7492489D01*
X461255616Y7492489D01*
X461174893Y7451358D01*
X461031155Y7378120D01*
X461005871Y7359750D01*
X460827350Y7230048D01*
X460827345Y7230044D01*
X460735490Y7138189D01*
X460674167Y7104704D01*
X460634554Y7102581D01*
X460621551Y7103978D01*
X460567873Y7109750D01*
X458972128Y7109749D01*
X458923757Y7104549D01*
X458912516Y7103341D01*
X458777671Y7053047D01*
X458777664Y7053043D01*
X458662456Y6966798D01*
X458662455Y6966796D01*
X458662454Y6966796D01*
X458633766Y6928474D01*
X458633764Y6928471D01*
X458577829Y6886601D01*
X458508137Y6881618D01*
X458461616Y6902464D01*
X458425405Y6928774D01*
X458250025Y7018134D01*
X458062826Y7078959D01*
X457868422Y7109750D01*
X457868417Y7109750D01*
X457671583Y7109750D01*
X457671578Y7109750D01*
X457477173Y7078959D01*
X457397422Y7053046D01*
X457289975Y7018134D01*
X457289972Y7018132D01*
X457289970Y7018132D01*
X457197455Y6970993D01*
X457114595Y6928774D01*
X456955354Y6813078D01*
X456955351Y6813075D01*
X456857327Y6715051D01*
X456796004Y6681566D01*
X456726312Y6686550D01*
X456681965Y6715051D01*
X456584322Y6812693D01*
X456584321Y6812694D01*
X456425143Y6928345D01*
X456249837Y7017668D01*
X456062716Y7078468D01*
X456020000Y7085233D01*
X456020000Y5674936D01*
X456015606Y5679330D01*
X455924394Y5731991D01*
X455822661Y5759250D01*
X455717339Y5759250D01*
X455615606Y5731991D01*
X455524394Y5679330D01*
X455520000Y5674936D01*
X455520000Y7085234D01*
X455477283Y7078468D01*
X455290162Y7017668D01*
X455111209Y6926487D01*
X455042539Y6913591D01*
X454977799Y6939868D01*
X454954600Y6964082D01*
X454890793Y7051906D01*
X454712656Y7230043D01*
X454508845Y7378120D01*
X454284379Y7492491D01*
X454044785Y7570340D01*
X453795962Y7609750D01*
X453544038Y7609750D01*
X453295215Y7570340D01*
X453055621Y7492491D01*
X453055618Y7492489D01*
X453055616Y7492489D01*
X452974893Y7451358D01*
X452831155Y7378120D01*
X452831151Y7378117D01*
X452767385Y7331789D01*
X452701579Y7308309D01*
X452633525Y7324134D01*
X452584830Y7374240D01*
X452570500Y7432107D01*
X452570500Y15607114D01*
X455869500Y15607114D01*
X455869500Y13911379D01*
X455869501Y13911373D01*
X455875908Y13851766D01*
X455926202Y13716921D01*
X455926206Y13716914D01*
X456012452Y13601705D01*
X456012455Y13601702D01*
X456127664Y13515456D01*
X456127671Y13515452D01*
X456262517Y13465158D01*
X456262516Y13465158D01*
X456322116Y13458751D01*
X456322119Y13458750D01*
X456322127Y13458750D01*
X456322134Y13458750D01*
X456322135Y13458750D01*
X458017870Y13458750D01*
X458017876Y13458751D01*
X458077483Y13465158D01*
X458212328Y13515452D01*
X458212335Y13515456D01*
X458327544Y13601702D01*
X458327547Y13601705D01*
X458413793Y13716914D01*
X458413797Y13716921D01*
X458464091Y13851767D01*
X458466513Y13874298D01*
X458470500Y13911377D01*
X458470499Y15607122D01*
X458464091Y15666733D01*
X458413796Y15801581D01*
X458327546Y15916796D01*
X458212331Y16003046D01*
X458077483Y16053341D01*
X458017873Y16059750D01*
X456322128Y16059749D01*
X456273757Y16054549D01*
X456262516Y16053341D01*
X456127671Y16003047D01*
X456127664Y16003043D01*
X456012455Y15916797D01*
X456012452Y15916794D01*
X455926206Y15801585D01*
X455926202Y15801578D01*
X455875908Y15666732D01*
X455869501Y15607133D01*
X455869501Y15607126D01*
X455869500Y15607114D01*
X452570500Y15607114D01*
X452570500Y30101567D01*
X455870000Y30101567D01*
X455870000Y29896932D01*
X455902009Y29694832D01*
X455965244Y29500218D01*
X456058143Y29317894D01*
X456090523Y29273327D01*
X456090524Y29273327D01*
X456770000Y29952803D01*
X456770000Y29946589D01*
X456797259Y29844856D01*
X456849920Y29753644D01*
X456924394Y29679170D01*
X457015606Y29626509D01*
X457117339Y29599250D01*
X457123554Y29599250D01*
X456444077Y28919774D01*
X456444077Y28919773D01*
X456488644Y28887393D01*
X456670968Y28794494D01*
X456865582Y28731259D01*
X457067683Y28699250D01*
X457272317Y28699250D01*
X457474417Y28731259D01*
X457669031Y28794494D01*
X457851350Y28887391D01*
X457851359Y28887397D01*
X457895921Y28919773D01*
X457895922Y28919774D01*
X457216446Y29599250D01*
X457222661Y29599250D01*
X457324394Y29626509D01*
X457415606Y29679170D01*
X457490080Y29753644D01*
X457542741Y29844856D01*
X457570000Y29946589D01*
X457570000Y29952801D01*
X458249474Y29273326D01*
X458249474Y29273327D01*
X458281859Y29317900D01*
X458374755Y29500218D01*
X458437990Y29694832D01*
X458470000Y29896932D01*
X458470000Y30101567D01*
X458437990Y30303667D01*
X458374755Y30498281D01*
X458281859Y30680599D01*
X458249474Y30725171D01*
X458249474Y30725172D01*
X457570000Y30045698D01*
X457570000Y30051911D01*
X457542741Y30153644D01*
X457490080Y30244856D01*
X457415606Y30319330D01*
X457324394Y30371991D01*
X457222661Y30399250D01*
X457216447Y30399250D01*
X457895921Y31078724D01*
X457851349Y31111109D01*
X457669031Y31204005D01*
X457474417Y31267240D01*
X457272317Y31299250D01*
X457067683Y31299250D01*
X456865582Y31267240D01*
X456670968Y31204005D01*
X456488650Y31111109D01*
X456444077Y31078724D01*
X456444076Y31078724D01*
X457123553Y30399250D01*
X457117339Y30399250D01*
X457015606Y30371991D01*
X456924394Y30319330D01*
X456849920Y30244856D01*
X456797259Y30153644D01*
X456770000Y30051911D01*
X456770000Y30045696D01*
X456090524Y30725172D01*
X456090523Y30725171D01*
X456058147Y30680609D01*
X456058141Y30680600D01*
X455965244Y30498281D01*
X455902009Y30303667D01*
X455870000Y30101567D01*
X452570500Y30101567D01*
X452570500Y31472579D01*
X452570501Y31472597D01*
X452570501Y31638305D01*
X452570501Y31638307D01*
X452529577Y31791034D01*
X452450520Y31927966D01*
X447980727Y36397756D01*
X447980724Y36397761D01*
X447970520Y36407964D01*
X447970520Y36407966D01*
X447858716Y36519770D01*
X447764926Y36573919D01*
X447721785Y36598827D01*
X447569057Y36639751D01*
X447410943Y36639751D01*
X447403347Y36639751D01*
X447403331Y36639750D01*
X445989766Y36639750D01*
X445922727Y36659435D01*
X445920875Y36660648D01*
X445789185Y36748640D01*
X445789184Y36748640D01*
X445789179Y36748644D01*
X445643497Y36808987D01*
X445510309Y36835480D01*
X445448398Y36867865D01*
X445413824Y36928580D01*
X445410500Y36957097D01*
X445410500Y37661402D01*
X445430185Y37728441D01*
X445482989Y37774196D01*
X445510308Y37783019D01*
X445643491Y37809511D01*
X445643501Y37809514D01*
X445789172Y37869852D01*
X445789185Y37869859D01*
X445920288Y37957460D01*
X445920292Y37957463D01*
X446031786Y38068957D01*
X446031789Y38068961D01*
X446119390Y38200064D01*
X446119397Y38200077D01*
X446179735Y38345748D01*
X446179738Y38345758D01*
X446185247Y38373451D01*
X446217632Y38435362D01*
X446278348Y38469936D01*
X446348118Y38466195D01*
G37*
%TD.AperFunction*%
%TA.AperFunction,Conductor*%
G36*
X497270939Y15958749D02*
G01*
X497270943Y15958749D01*
X497375128Y15958749D01*
X497442167Y15939064D01*
X497487922Y15886259D01*
X497495328Y15834749D01*
X497497865Y15817102D01*
X497493059Y15796433D01*
X497492754Y15795493D01*
X497462815Y15606463D01*
X497459500Y15585536D01*
X497459500Y15372963D01*
X497492753Y15163010D01*
X497558444Y14960835D01*
X497654951Y14771429D01*
X497779890Y14599463D01*
X497930213Y14449140D01*
X498102182Y14324199D01*
X498110946Y14319734D01*
X498161742Y14271759D01*
X498178536Y14203938D01*
X498155998Y14137803D01*
X498110946Y14098766D01*
X498102182Y14094300D01*
X497930213Y13969359D01*
X497779890Y13819036D01*
X497654951Y13647070D01*
X497610459Y13559750D01*
X497558443Y13457662D01*
X497497319Y13269542D01*
X497492753Y13255489D01*
X497459500Y13045536D01*
X497459500Y12832963D01*
X497492753Y12623010D01*
X497558444Y12420835D01*
X497654951Y12231429D01*
X497779890Y12059463D01*
X497930213Y11909140D01*
X498102182Y11784199D01*
X498111499Y11779452D01*
X498162293Y11731477D01*
X498179087Y11663655D01*
X498156548Y11597521D01*
X498111495Y11558484D01*
X498102452Y11553876D01*
X498048282Y11514520D01*
X498048282Y11514519D01*
X498680590Y10882212D01*
X498617007Y10865175D01*
X498502993Y10799349D01*
X498409901Y10706257D01*
X498344075Y10592243D01*
X498327037Y10528658D01*
X497694728Y11160966D01*
X497655375Y11106800D01*
X497558904Y10917467D01*
X497493242Y10715380D01*
X497493242Y10715377D01*
X497460000Y10505496D01*
X497460000Y10293003D01*
X497493242Y10083122D01*
X497493242Y10083119D01*
X497558904Y9881032D01*
X497655380Y9691689D01*
X497694727Y9637532D01*
X497694728Y9637532D01*
X498327037Y10269841D01*
X498344075Y10206257D01*
X498409901Y10092243D01*
X498502993Y9999151D01*
X498617007Y9933325D01*
X498680591Y9916287D01*
X498048282Y9283978D01*
X498048282Y9283977D01*
X498102440Y9244630D01*
X498102446Y9244626D01*
X498111505Y9240010D01*
X498162297Y9192031D01*
X498179087Y9124209D01*
X498156543Y9058076D01*
X498111493Y9019044D01*
X498102184Y9014301D01*
X498102181Y9014299D01*
X498102179Y9014298D01*
X497930213Y8889359D01*
X497779890Y8739036D01*
X497654948Y8567065D01*
X497654947Y8567064D01*
X497634765Y8527455D01*
X497586791Y8476659D01*
X497524281Y8459750D01*
X485795316Y8459750D01*
X485747864Y8469189D01*
X485678963Y8497728D01*
X485603497Y8528987D01*
X485526520Y8544298D01*
X485448845Y8559750D01*
X485448842Y8559750D01*
X485291158Y8559750D01*
X485291155Y8559750D01*
X485197858Y8541191D01*
X485136503Y8528987D01*
X485136498Y8528985D01*
X484990827Y8468647D01*
X484990814Y8468640D01*
X484859711Y8381039D01*
X484859707Y8381036D01*
X484748213Y8269542D01*
X484748210Y8269538D01*
X484660609Y8138435D01*
X484660602Y8138422D01*
X484600264Y7992751D01*
X484600261Y7992739D01*
X484569500Y7838096D01*
X484569500Y7680403D01*
X484600261Y7525760D01*
X484600264Y7525748D01*
X484660602Y7380077D01*
X484660610Y7380062D01*
X484678933Y7352642D01*
X484699812Y7285965D01*
X484681328Y7218584D01*
X484629350Y7171894D01*
X484575832Y7159750D01*
X481150805Y7159750D01*
X481083766Y7179435D01*
X481038011Y7232239D01*
X481028067Y7301397D01*
X481047703Y7352641D01*
X481079390Y7400064D01*
X481079397Y7400077D01*
X481139735Y7545748D01*
X481139737Y7545753D01*
X481170499Y7700403D01*
X481170500Y7700405D01*
X481170500Y7858094D01*
X481170499Y7858096D01*
X481151126Y7955489D01*
X481139737Y8012747D01*
X481087676Y8138435D01*
X481079397Y8158422D01*
X481079396Y8158422D01*
X481079394Y8158429D01*
X480991789Y8289539D01*
X480880289Y8401039D01*
X480749179Y8488644D01*
X480749176Y8488645D01*
X480749173Y8488647D01*
X480627987Y8538843D01*
X480604810Y8548442D01*
X480564586Y8575319D01*
X480192838Y8947069D01*
X480159353Y9008392D01*
X480164337Y9078084D01*
X480206209Y9134017D01*
X480271673Y9158434D01*
X480280519Y9158750D01*
X482343305Y9158750D01*
X482410344Y9139065D01*
X482430986Y9122431D01*
X482433112Y9120304D01*
X482433116Y9120301D01*
X482564219Y9032700D01*
X482564232Y9032693D01*
X482709903Y8972355D01*
X482709915Y8972352D01*
X482864558Y8941591D01*
X482864563Y8941591D01*
X483022251Y8941591D01*
X483176894Y8972352D01*
X483176906Y8972355D01*
X483322577Y9032693D01*
X483322590Y9032700D01*
X483453693Y9120301D01*
X483453697Y9120304D01*
X483565191Y9231798D01*
X483565194Y9231802D01*
X483652795Y9362905D01*
X483652802Y9362918D01*
X483713140Y9508589D01*
X483713142Y9508594D01*
X483743904Y9663244D01*
X483743905Y9663246D01*
X483743905Y9820935D01*
X483743904Y9820937D01*
X483731950Y9881032D01*
X483713142Y9975588D01*
X483652799Y10121270D01*
X483565194Y10252380D01*
X483453694Y10363880D01*
X483400761Y10399249D01*
X483388762Y10407267D01*
X483322590Y10451481D01*
X483322589Y10451481D01*
X483322584Y10451485D01*
X483176902Y10511828D01*
X483099925Y10527139D01*
X483022250Y10542591D01*
X483022247Y10542591D01*
X482864563Y10542591D01*
X482864560Y10542591D01*
X482771263Y10524032D01*
X482709908Y10511828D01*
X482709903Y10511826D01*
X482564232Y10451488D01*
X482564219Y10451481D01*
X482458210Y10380648D01*
X482391532Y10359770D01*
X482389319Y10359750D01*
X478654651Y10359750D01*
X478587612Y10379435D01*
X478541857Y10432239D01*
X478532179Y10464344D01*
X478527246Y10495493D01*
X478461557Y10697662D01*
X478365051Y10887066D01*
X478284202Y10998346D01*
X478240109Y11059036D01*
X478240106Y11059038D01*
X478240104Y11059042D01*
X478089792Y11209354D01*
X478089788Y11209356D01*
X478089786Y11209359D01*
X477917820Y11334298D01*
X477917816Y11334301D01*
X477909054Y11338764D01*
X477858259Y11386738D01*
X477841463Y11454558D01*
X477863999Y11520694D01*
X477909054Y11559734D01*
X477917816Y11564199D01*
X477917820Y11564201D01*
X478089786Y11689140D01*
X478240109Y11839463D01*
X478365051Y12011434D01*
X478365052Y12011435D01*
X478385235Y12051045D01*
X478433209Y12101841D01*
X478495719Y12118750D01*
X485250099Y12118750D01*
X485317138Y12099065D01*
X485318990Y12097852D01*
X485390815Y12049859D01*
X485390827Y12049852D01*
X485536498Y11989514D01*
X485536510Y11989511D01*
X485691153Y11958750D01*
X485691158Y11958750D01*
X485848846Y11958750D01*
X486003489Y11989511D01*
X486003501Y11989514D01*
X486149172Y12049852D01*
X486149185Y12049859D01*
X486280288Y12137460D01*
X486280292Y12137463D01*
X486391786Y12248957D01*
X486391789Y12248961D01*
X486479390Y12380064D01*
X486479397Y12380077D01*
X486539735Y12525748D01*
X486539737Y12525753D01*
X486570499Y12680403D01*
X486570500Y12680405D01*
X486570500Y12838094D01*
X486570499Y12838096D01*
X486539737Y12992747D01*
X486479394Y13138429D01*
X486391789Y13269539D01*
X486280289Y13381039D01*
X486149179Y13468644D01*
X486003497Y13528987D01*
X485926520Y13544298D01*
X485848845Y13559750D01*
X485848842Y13559750D01*
X485691158Y13559750D01*
X485691155Y13559750D01*
X485603763Y13542366D01*
X485536503Y13528987D01*
X485536498Y13528985D01*
X485390827Y13468647D01*
X485390814Y13468640D01*
X485259711Y13381039D01*
X485259707Y13381036D01*
X485234740Y13356069D01*
X485173417Y13322584D01*
X485147059Y13319750D01*
X478495719Y13319750D01*
X478428680Y13339435D01*
X478385235Y13387455D01*
X478365052Y13427064D01*
X478365051Y13427066D01*
X478268651Y13559750D01*
X478240109Y13599036D01*
X478240106Y13599038D01*
X478240104Y13599042D01*
X478089792Y13749354D01*
X478089788Y13749356D01*
X478089786Y13749359D01*
X477917820Y13874298D01*
X477917816Y13874301D01*
X477909054Y13878764D01*
X477858259Y13926738D01*
X477841463Y13994558D01*
X477863999Y14060694D01*
X477909054Y14099734D01*
X477917816Y14104199D01*
X477917820Y14104201D01*
X478089786Y14229140D01*
X478240109Y14379463D01*
X478365051Y14551434D01*
X478365052Y14551435D01*
X478385235Y14591045D01*
X478433209Y14641841D01*
X478495719Y14658750D01*
X483944684Y14658750D01*
X483992136Y14649311D01*
X484136498Y14589514D01*
X484136510Y14589511D01*
X484291153Y14558750D01*
X484291158Y14558750D01*
X484448846Y14558750D01*
X484603489Y14589511D01*
X484603501Y14589514D01*
X484749172Y14649852D01*
X484749185Y14649859D01*
X484880288Y14737460D01*
X484880292Y14737463D01*
X484991786Y14848957D01*
X484991789Y14848961D01*
X485079390Y14980064D01*
X485079397Y14980077D01*
X485139735Y15125748D01*
X485139737Y15125753D01*
X485170499Y15280403D01*
X485170500Y15280405D01*
X485170500Y15438094D01*
X485170499Y15438096D01*
X485152746Y15527347D01*
X485139737Y15592747D01*
X485079394Y15738429D01*
X485061067Y15765858D01*
X485040188Y15832535D01*
X485058672Y15899916D01*
X485110650Y15946606D01*
X485164168Y15958750D01*
X497263332Y15958750D01*
X497270939Y15958749D01*
G37*
%TD.AperFunction*%
%TA.AperFunction,Conductor*%
G36*
X483894442Y49976565D02*
G01*
X483915084Y49959931D01*
X487130426Y46744587D01*
X487163911Y46683264D01*
X487164362Y46681098D01*
X487195261Y46525758D01*
X487195264Y46525748D01*
X487255602Y46380077D01*
X487255609Y46380064D01*
X487343210Y46248961D01*
X487343213Y46248957D01*
X487454707Y46137463D01*
X487454711Y46137460D01*
X487585814Y46049859D01*
X487585827Y46049852D01*
X487731498Y45989514D01*
X487731510Y45989511D01*
X487886153Y45958750D01*
X487886158Y45958750D01*
X488043846Y45958750D01*
X488198489Y45989511D01*
X488198501Y45989514D01*
X488344172Y46049852D01*
X488344185Y46049859D01*
X488475288Y46137460D01*
X488475292Y46137463D01*
X488512319Y46174490D01*
X488573642Y46207975D01*
X488643334Y46202991D01*
X488687681Y46174490D01*
X488724707Y46137463D01*
X488724711Y46137460D01*
X488855814Y46049859D01*
X488855827Y46049852D01*
X489001498Y45989514D01*
X489001510Y45989511D01*
X489156153Y45958750D01*
X489156158Y45958750D01*
X489313846Y45958750D01*
X489468489Y45989511D01*
X489468501Y45989514D01*
X489614172Y46049852D01*
X489614185Y46049859D01*
X489745288Y46137460D01*
X489745292Y46137463D01*
X489782319Y46174490D01*
X489843642Y46207975D01*
X489913334Y46202991D01*
X489957681Y46174490D01*
X489994707Y46137463D01*
X489994711Y46137460D01*
X490125814Y46049859D01*
X490125827Y46049852D01*
X490271498Y45989514D01*
X490271510Y45989511D01*
X490426153Y45958750D01*
X490426158Y45958750D01*
X490583846Y45958750D01*
X490738489Y45989511D01*
X490738501Y45989514D01*
X490884172Y46049852D01*
X490884185Y46049859D01*
X491015288Y46137460D01*
X491015292Y46137463D01*
X491052319Y46174490D01*
X491113642Y46207975D01*
X491183334Y46202991D01*
X491227681Y46174490D01*
X491264707Y46137463D01*
X491264711Y46137460D01*
X491395814Y46049859D01*
X491395827Y46049852D01*
X491541498Y45989514D01*
X491541510Y45989511D01*
X491696153Y45958750D01*
X491696158Y45958750D01*
X491853846Y45958750D01*
X492008489Y45989511D01*
X492008501Y45989514D01*
X492154172Y46049852D01*
X492154185Y46049859D01*
X492285288Y46137460D01*
X492285292Y46137463D01*
X492322319Y46174490D01*
X492383642Y46207975D01*
X492453334Y46202991D01*
X492497681Y46174490D01*
X492534707Y46137463D01*
X492534711Y46137460D01*
X492665814Y46049859D01*
X492665827Y46049852D01*
X492811498Y45989514D01*
X492811510Y45989511D01*
X492966153Y45958750D01*
X492966158Y45958750D01*
X493123846Y45958750D01*
X493278489Y45989511D01*
X493278501Y45989514D01*
X493424172Y46049852D01*
X493424185Y46049859D01*
X493555288Y46137460D01*
X493555292Y46137463D01*
X493592319Y46174490D01*
X493653642Y46207975D01*
X493723334Y46202991D01*
X493767681Y46174490D01*
X493804707Y46137463D01*
X493804711Y46137460D01*
X493935814Y46049859D01*
X493935827Y46049852D01*
X494081498Y45989514D01*
X494081510Y45989511D01*
X494236153Y45958750D01*
X494236158Y45958750D01*
X494393846Y45958750D01*
X494548489Y45989511D01*
X494548501Y45989514D01*
X494694172Y46049852D01*
X494694185Y46049859D01*
X494825288Y46137460D01*
X494825292Y46137463D01*
X494862319Y46174490D01*
X494923642Y46207975D01*
X494993334Y46202991D01*
X495037681Y46174490D01*
X495074707Y46137463D01*
X495074711Y46137460D01*
X495205814Y46049859D01*
X495205827Y46049852D01*
X495351498Y45989514D01*
X495351510Y45989511D01*
X495506153Y45958750D01*
X495506158Y45958750D01*
X495663846Y45958750D01*
X495818489Y45989511D01*
X495818501Y45989514D01*
X495964172Y46049852D01*
X495964185Y46049859D01*
X496077091Y46125301D01*
X496143769Y46146179D01*
X496211149Y46127695D01*
X496233663Y46109880D01*
X500533181Y41810363D01*
X500566666Y41749040D01*
X500569500Y41722682D01*
X500569500Y7477097D01*
X500561817Y7450932D01*
X500557557Y7424002D01*
X500552117Y7417900D01*
X500549815Y7410058D01*
X500529210Y7392203D01*
X500511063Y7371847D01*
X500501226Y7367955D01*
X500497011Y7364303D01*
X500478755Y7357640D01*
X500474261Y7356389D01*
X500336503Y7328987D01*
X500255900Y7295600D01*
X500248653Y7293583D01*
X500220943Y7293973D01*
X500193382Y7291010D01*
X500186492Y7294458D01*
X500178790Y7294567D01*
X500155687Y7309878D01*
X500130902Y7322285D01*
X500126970Y7328910D01*
X500120550Y7333166D01*
X500109392Y7358537D01*
X500095250Y7382374D01*
X500095499Y7390130D01*
X500092424Y7397124D01*
X500096565Y7423303D01*
X500097467Y7451358D01*
X500105843Y7477136D01*
X500127246Y7543007D01*
X500160500Y7752963D01*
X500160500Y7965537D01*
X500127246Y8175493D01*
X500061557Y8377662D01*
X499965051Y8567066D01*
X499949086Y8589039D01*
X499840109Y8739036D01*
X499840106Y8739038D01*
X499840104Y8739042D01*
X499689792Y8889354D01*
X499689788Y8889356D01*
X499689786Y8889359D01*
X499575550Y8972355D01*
X499517816Y9014301D01*
X499508508Y9019043D01*
X499457711Y9067013D01*
X499440911Y9134833D01*
X499463445Y9200969D01*
X499508500Y9240013D01*
X499517547Y9244622D01*
X499517547Y9244623D01*
X499571716Y9283978D01*
X498939409Y9916287D01*
X499002993Y9933325D01*
X499117007Y9999151D01*
X499210099Y10092243D01*
X499275925Y10206257D01*
X499292962Y10269840D01*
X499925269Y9637532D01*
X499925270Y9637532D01*
X499964624Y9691699D01*
X500061095Y9881032D01*
X500126757Y10083119D01*
X500126757Y10083122D01*
X500160000Y10293003D01*
X500160000Y10505496D01*
X500126757Y10715377D01*
X500126757Y10715380D01*
X500061095Y10917467D01*
X499964622Y11106804D01*
X499925270Y11160966D01*
X499925270Y11160967D01*
X499292962Y10528659D01*
X499275925Y10592243D01*
X499210099Y10706257D01*
X499117007Y10799349D01*
X499002993Y10865175D01*
X498939408Y10882212D01*
X499571717Y11514520D01*
X499517555Y11553872D01*
X499508507Y11558482D01*
X499457709Y11606455D01*
X499440912Y11674275D01*
X499463447Y11740411D01*
X499508504Y11779454D01*
X499517817Y11784199D01*
X499689786Y11909140D01*
X499840109Y12059463D01*
X499965048Y12231429D01*
X499973981Y12248961D01*
X500061557Y12420838D01*
X500127246Y12623007D01*
X500160500Y12832963D01*
X500160500Y13045537D01*
X500127246Y13255493D01*
X500061557Y13457662D01*
X499965051Y13647066D01*
X499890735Y13749354D01*
X499840109Y13819036D01*
X499840106Y13819038D01*
X499840104Y13819042D01*
X499689792Y13969354D01*
X499689788Y13969356D01*
X499689786Y13969359D01*
X499517820Y14094298D01*
X499517816Y14094301D01*
X499509054Y14098764D01*
X499458259Y14146738D01*
X499441463Y14214558D01*
X499463999Y14280694D01*
X499509054Y14319734D01*
X499517816Y14324199D01*
X499517820Y14324201D01*
X499689786Y14449140D01*
X499840109Y14599463D01*
X499965048Y14771429D01*
X499974034Y14789065D01*
X500061557Y14960838D01*
X500127246Y15163007D01*
X500160500Y15372963D01*
X500160500Y15585537D01*
X500127246Y15795493D01*
X500061557Y15997662D01*
X499965051Y16187066D01*
X499949086Y16209039D01*
X499840109Y16359036D01*
X499840106Y16359038D01*
X499840104Y16359042D01*
X499689792Y16509354D01*
X499689788Y16509356D01*
X499689786Y16509359D01*
X499517820Y16634298D01*
X499517816Y16634301D01*
X499509054Y16638764D01*
X499458259Y16686738D01*
X499441463Y16754558D01*
X499463999Y16820694D01*
X499509054Y16859734D01*
X499517816Y16864199D01*
X499517820Y16864201D01*
X499689786Y16989140D01*
X499840109Y17139463D01*
X499965048Y17311429D01*
X499965051Y17311434D01*
X500061557Y17500838D01*
X500127246Y17703007D01*
X500160500Y17912963D01*
X500160500Y18125537D01*
X500127246Y18335493D01*
X500061557Y18537662D01*
X499965051Y18727066D01*
X499903633Y18811601D01*
X499840109Y18899036D01*
X499840106Y18899038D01*
X499840104Y18899042D01*
X499689792Y19049354D01*
X499689788Y19049356D01*
X499689786Y19049359D01*
X499517820Y19174298D01*
X499517816Y19174301D01*
X499509054Y19178764D01*
X499458259Y19226738D01*
X499441463Y19294558D01*
X499463999Y19360694D01*
X499509054Y19399734D01*
X499517816Y19404199D01*
X499517820Y19404201D01*
X499689786Y19529140D01*
X499840109Y19679463D01*
X499965048Y19851429D01*
X500029400Y19977727D01*
X500061557Y20040838D01*
X500127246Y20243007D01*
X500160500Y20452963D01*
X500160500Y20665537D01*
X500127246Y20875493D01*
X500061557Y21077662D01*
X499965051Y21267066D01*
X499949086Y21289039D01*
X499840109Y21439036D01*
X499840106Y21439038D01*
X499840104Y21439042D01*
X499689792Y21589354D01*
X499689788Y21589356D01*
X499689786Y21589359D01*
X499517820Y21714298D01*
X499517816Y21714301D01*
X499509054Y21718764D01*
X499458259Y21766738D01*
X499441463Y21834558D01*
X499463999Y21900694D01*
X499509054Y21939734D01*
X499517816Y21944199D01*
X499517820Y21944201D01*
X499689786Y22069140D01*
X499840109Y22219463D01*
X499965048Y22391429D01*
X500005794Y22471397D01*
X500061557Y22580838D01*
X500127246Y22783007D01*
X500160500Y22992963D01*
X500160500Y23205537D01*
X500127246Y23415493D01*
X500061557Y23617662D01*
X499965051Y23807066D01*
X499905719Y23888730D01*
X499840109Y23979036D01*
X499840106Y23979038D01*
X499840104Y23979042D01*
X499689792Y24129354D01*
X499689788Y24129356D01*
X499689786Y24129359D01*
X499517820Y24254298D01*
X499517816Y24254301D01*
X499509054Y24258764D01*
X499458259Y24306738D01*
X499441463Y24374558D01*
X499463999Y24440694D01*
X499509054Y24479734D01*
X499517816Y24484199D01*
X499517820Y24484201D01*
X499689786Y24609140D01*
X499840109Y24759463D01*
X499965048Y24931429D01*
X500028978Y25056898D01*
X500061557Y25120838D01*
X500127246Y25323007D01*
X500160500Y25532963D01*
X500160500Y25745537D01*
X500127246Y25955493D01*
X500061557Y26157662D01*
X499965051Y26347066D01*
X499928666Y26397146D01*
X499840109Y26519036D01*
X499840106Y26519038D01*
X499840104Y26519042D01*
X499689792Y26669354D01*
X499689788Y26669356D01*
X499689786Y26669359D01*
X499517820Y26794298D01*
X499517816Y26794301D01*
X499509054Y26798764D01*
X499458259Y26846738D01*
X499441463Y26914558D01*
X499463999Y26980694D01*
X499509054Y27019734D01*
X499517816Y27024199D01*
X499517820Y27024201D01*
X499689786Y27149140D01*
X499840109Y27299463D01*
X499965048Y27471429D01*
X499965051Y27471434D01*
X500061557Y27660838D01*
X500127246Y27863007D01*
X500160500Y28072963D01*
X500160500Y28285537D01*
X500127246Y28495493D01*
X500061557Y28697662D01*
X499965051Y28887066D01*
X499890731Y28989359D01*
X499840110Y29059034D01*
X499840108Y29059036D01*
X499840104Y29059042D01*
X499726566Y29172579D01*
X499693084Y29233898D01*
X499698068Y29303590D01*
X499739939Y29359524D01*
X499770917Y29376439D01*
X499902328Y29425452D01*
X499902335Y29425456D01*
X500017544Y29511702D01*
X500017547Y29511705D01*
X500103793Y29626914D01*
X500103797Y29626921D01*
X500154091Y29761767D01*
X500157280Y29791429D01*
X500160500Y29821377D01*
X500160499Y31617122D01*
X500154091Y31676733D01*
X500103796Y31811581D01*
X500017546Y31926796D01*
X499902331Y32013046D01*
X499767483Y32063341D01*
X499707873Y32069750D01*
X497912128Y32069749D01*
X497863757Y32064549D01*
X497852516Y32063341D01*
X497717671Y32013047D01*
X497717664Y32013043D01*
X497602455Y31926797D01*
X497602452Y31926794D01*
X497516206Y31811585D01*
X497516202Y31811578D01*
X497465908Y31676732D01*
X497461777Y31638305D01*
X497459501Y31617126D01*
X497459500Y31617114D01*
X497459500Y31443750D01*
X497439815Y31376711D01*
X497387011Y31330956D01*
X497335500Y31319750D01*
X494809057Y31319750D01*
X494650943Y31319750D01*
X494498215Y31278827D01*
X494456454Y31254716D01*
X494361284Y31199770D01*
X494347726Y31186212D01*
X494335929Y31178791D01*
X494315183Y31172916D01*
X494296260Y31162584D01*
X494269902Y31159750D01*
X488949766Y31159750D01*
X488882727Y31179435D01*
X488880875Y31180648D01*
X488749185Y31268640D01*
X488749184Y31268640D01*
X488749179Y31268644D01*
X488603497Y31328987D01*
X488526520Y31344298D01*
X488448845Y31359750D01*
X488448842Y31359750D01*
X488291158Y31359750D01*
X488291155Y31359750D01*
X488197858Y31341191D01*
X488136503Y31328987D01*
X488136498Y31328985D01*
X487990827Y31268647D01*
X487990814Y31268640D01*
X487859711Y31181039D01*
X487859707Y31181036D01*
X487816258Y31137587D01*
X487754935Y31104102D01*
X487685243Y31109086D01*
X487640898Y31137585D01*
X485760728Y33017756D01*
X485760724Y33017761D01*
X485750520Y33027964D01*
X485750520Y33027966D01*
X485638716Y33139770D01*
X485635213Y33141791D01*
X485550789Y33190535D01*
X485550788Y33190535D01*
X485540432Y33196513D01*
X485501785Y33218827D01*
X485349057Y33259751D01*
X485190943Y33259751D01*
X485183347Y33259751D01*
X485183331Y33259750D01*
X480317848Y33259750D01*
X480250809Y33279435D01*
X480205054Y33332239D01*
X480196231Y33359558D01*
X480169738Y33492741D01*
X480169737Y33492747D01*
X480109394Y33638429D01*
X480021789Y33769539D01*
X479910289Y33881039D01*
X479779179Y33968644D01*
X479633497Y34028987D01*
X479556520Y34044298D01*
X479478845Y34059750D01*
X479478842Y34059750D01*
X479321158Y34059750D01*
X479321155Y34059750D01*
X479227858Y34041191D01*
X479166503Y34028987D01*
X479166498Y34028985D01*
X479020827Y33968647D01*
X479020814Y33968640D01*
X478889711Y33881039D01*
X478889707Y33881036D01*
X478845492Y33836820D01*
X478784169Y33803334D01*
X478757810Y33800500D01*
X458229347Y33800500D01*
X458162308Y33820185D01*
X458141666Y33836819D01*
X456198408Y35780077D01*
X454102889Y37875596D01*
X461599500Y37875596D01*
X461599500Y37717903D01*
X461630261Y37563260D01*
X461630264Y37563248D01*
X461690602Y37417577D01*
X461690609Y37417564D01*
X461778210Y37286461D01*
X461778213Y37286457D01*
X461889707Y37174963D01*
X461889711Y37174960D01*
X462020814Y37087359D01*
X462020827Y37087352D01*
X462166498Y37027014D01*
X462166510Y37027011D01*
X462321153Y36996250D01*
X462321158Y36996250D01*
X462478844Y36996250D01*
X462484907Y36996847D01*
X462484943Y36996474D01*
X462500862Y36997968D01*
X462515014Y36997837D01*
X462520943Y36996249D01*
X462679058Y36996249D01*
X462679062Y36996250D01*
X479352403Y36996250D01*
X479419442Y36976565D01*
X479440084Y36959931D01*
X480780425Y35619589D01*
X480813910Y35558266D01*
X480814361Y35556100D01*
X480845261Y35400758D01*
X480845264Y35400748D01*
X480905602Y35255077D01*
X480905609Y35255064D01*
X480993210Y35123961D01*
X480993213Y35123957D01*
X481104707Y35012463D01*
X481104711Y35012460D01*
X481235814Y34924859D01*
X481235827Y34924852D01*
X481381498Y34864514D01*
X481381510Y34864511D01*
X481536153Y34833750D01*
X481536158Y34833750D01*
X481693846Y34833750D01*
X481848489Y34864511D01*
X481848501Y34864514D01*
X481994172Y34924852D01*
X481994185Y34924859D01*
X482125288Y35012460D01*
X482125292Y35012463D01*
X482162319Y35049490D01*
X482223642Y35082975D01*
X482293334Y35077991D01*
X482337681Y35049490D01*
X482374707Y35012463D01*
X482374711Y35012460D01*
X482505814Y34924859D01*
X482505827Y34924852D01*
X482651498Y34864514D01*
X482651510Y34864511D01*
X482806153Y34833750D01*
X482806158Y34833750D01*
X482963846Y34833750D01*
X483118489Y34864511D01*
X483118501Y34864514D01*
X483264172Y34924852D01*
X483264185Y34924859D01*
X483395288Y35012460D01*
X483395292Y35012463D01*
X483432319Y35049490D01*
X483493642Y35082975D01*
X483563334Y35077991D01*
X483607681Y35049490D01*
X483644707Y35012463D01*
X483644711Y35012460D01*
X483775814Y34924859D01*
X483775827Y34924852D01*
X483921498Y34864514D01*
X483921510Y34864511D01*
X484076153Y34833750D01*
X484076158Y34833750D01*
X484233846Y34833750D01*
X484388489Y34864511D01*
X484388501Y34864514D01*
X484534172Y34924852D01*
X484534185Y34924859D01*
X484665288Y35012460D01*
X484665292Y35012463D01*
X484702319Y35049490D01*
X484763642Y35082975D01*
X484833334Y35077991D01*
X484877681Y35049490D01*
X484914707Y35012463D01*
X484914711Y35012460D01*
X485045814Y34924859D01*
X485045827Y34924852D01*
X485191498Y34864514D01*
X485191510Y34864511D01*
X485346153Y34833750D01*
X485346158Y34833750D01*
X485503846Y34833750D01*
X485658489Y34864511D01*
X485658501Y34864514D01*
X485804172Y34924852D01*
X485804185Y34924859D01*
X485935288Y35012460D01*
X485935292Y35012463D01*
X485972319Y35049490D01*
X486033642Y35082975D01*
X486103334Y35077991D01*
X486147681Y35049490D01*
X486184707Y35012463D01*
X486184711Y35012460D01*
X486315814Y34924859D01*
X486315827Y34924852D01*
X486461498Y34864514D01*
X486461510Y34864511D01*
X486616153Y34833750D01*
X486616158Y34833750D01*
X486773846Y34833750D01*
X486928489Y34864511D01*
X486928501Y34864514D01*
X487074172Y34924852D01*
X487074185Y34924859D01*
X487205288Y35012460D01*
X487205292Y35012463D01*
X487242319Y35049490D01*
X487303642Y35082975D01*
X487373334Y35077991D01*
X487417681Y35049490D01*
X487454707Y35012463D01*
X487454711Y35012460D01*
X487585814Y34924859D01*
X487585827Y34924852D01*
X487731498Y34864514D01*
X487731510Y34864511D01*
X487886153Y34833750D01*
X487886158Y34833750D01*
X488043846Y34833750D01*
X488198489Y34864511D01*
X488198501Y34864514D01*
X488344172Y34924852D01*
X488344185Y34924859D01*
X488475288Y35012460D01*
X488475292Y35012463D01*
X488512319Y35049490D01*
X488573642Y35082975D01*
X488643334Y35077991D01*
X488687681Y35049490D01*
X488724707Y35012463D01*
X488724711Y35012460D01*
X488855814Y34924859D01*
X488855827Y34924852D01*
X489001498Y34864514D01*
X489001510Y34864511D01*
X489156153Y34833750D01*
X489156158Y34833750D01*
X489313846Y34833750D01*
X489468489Y34864511D01*
X489468501Y34864514D01*
X489614172Y34924852D01*
X489614185Y34924859D01*
X489745288Y35012460D01*
X489745292Y35012463D01*
X489782319Y35049490D01*
X489843642Y35082975D01*
X489913334Y35077991D01*
X489957681Y35049490D01*
X489994707Y35012463D01*
X489994711Y35012460D01*
X490125814Y34924859D01*
X490125827Y34924852D01*
X490271498Y34864514D01*
X490271510Y34864511D01*
X490426153Y34833750D01*
X490426158Y34833750D01*
X490583846Y34833750D01*
X490738489Y34864511D01*
X490738501Y34864514D01*
X490884172Y34924852D01*
X490884185Y34924859D01*
X491015288Y35012460D01*
X491015292Y35012463D01*
X491052319Y35049490D01*
X491113642Y35082975D01*
X491183334Y35077991D01*
X491227681Y35049490D01*
X491264707Y35012463D01*
X491264711Y35012460D01*
X491395814Y34924859D01*
X491395827Y34924852D01*
X491541498Y34864514D01*
X491541510Y34864511D01*
X491696153Y34833750D01*
X491696158Y34833750D01*
X491853846Y34833750D01*
X492008489Y34864511D01*
X492008501Y34864514D01*
X492154172Y34924852D01*
X492154185Y34924859D01*
X492285288Y35012460D01*
X492285292Y35012463D01*
X492322319Y35049490D01*
X492383642Y35082975D01*
X492453334Y35077991D01*
X492497681Y35049490D01*
X492534707Y35012463D01*
X492534711Y35012460D01*
X492665814Y34924859D01*
X492665827Y34924852D01*
X492811498Y34864514D01*
X492811510Y34864511D01*
X492966153Y34833750D01*
X492966158Y34833750D01*
X493123846Y34833750D01*
X493278489Y34864511D01*
X493278501Y34864514D01*
X493424172Y34924852D01*
X493424185Y34924859D01*
X493555288Y35012460D01*
X493555292Y35012463D01*
X493592319Y35049490D01*
X493653642Y35082975D01*
X493723334Y35077991D01*
X493767681Y35049490D01*
X493804707Y35012463D01*
X493804711Y35012460D01*
X493935814Y34924859D01*
X493935827Y34924852D01*
X494081498Y34864514D01*
X494081510Y34864511D01*
X494236153Y34833750D01*
X494236158Y34833750D01*
X494393846Y34833750D01*
X494548489Y34864511D01*
X494548501Y34864514D01*
X494694172Y34924852D01*
X494694185Y34924859D01*
X494825288Y35012460D01*
X494825292Y35012463D01*
X494862319Y35049490D01*
X494923642Y35082975D01*
X494993334Y35077991D01*
X495037681Y35049490D01*
X495074707Y35012463D01*
X495074711Y35012460D01*
X495205814Y34924859D01*
X495205827Y34924852D01*
X495351498Y34864514D01*
X495351510Y34864511D01*
X495506153Y34833750D01*
X495506158Y34833750D01*
X495663846Y34833750D01*
X495818489Y34864511D01*
X495818501Y34864514D01*
X495964172Y34924852D01*
X495964185Y34924859D01*
X496095288Y35012460D01*
X496095292Y35012463D01*
X496132319Y35049490D01*
X496193642Y35082975D01*
X496263334Y35077991D01*
X496307681Y35049490D01*
X496344707Y35012463D01*
X496344711Y35012460D01*
X496475814Y34924859D01*
X496475827Y34924852D01*
X496621498Y34864514D01*
X496621510Y34864511D01*
X496776153Y34833750D01*
X496776158Y34833750D01*
X496933846Y34833750D01*
X497088489Y34864511D01*
X497088501Y34864514D01*
X497234172Y34924852D01*
X497234185Y34924859D01*
X497365288Y35012460D01*
X497365292Y35012463D01*
X497476786Y35123957D01*
X497476789Y35123961D01*
X497564390Y35255064D01*
X497564397Y35255077D01*
X497624735Y35400748D01*
X497624737Y35400753D01*
X497655499Y35555403D01*
X497655500Y35555405D01*
X497655500Y35713094D01*
X497655499Y35713096D01*
X497642177Y35780071D01*
X497624737Y35867747D01*
X497564394Y36013429D01*
X497476789Y36144539D01*
X497365289Y36256039D01*
X497234179Y36343644D01*
X497088497Y36403987D01*
X496991085Y36423363D01*
X496933150Y36434888D01*
X496871239Y36467273D01*
X496869716Y36468768D01*
X490583229Y42755254D01*
X490583228Y42755257D01*
X490573020Y42765464D01*
X490573020Y42765466D01*
X490461216Y42877270D01*
X490374404Y42927389D01*
X490324285Y42956327D01*
X490171557Y42997251D01*
X490013443Y42997251D01*
X490005847Y42997251D01*
X490005831Y42997250D01*
X478416427Y42997250D01*
X478349388Y43016935D01*
X478313325Y43052360D01*
X478276792Y43107034D01*
X478276789Y43107039D01*
X478165289Y43218539D01*
X478034179Y43306144D01*
X477888497Y43366487D01*
X477811520Y43381798D01*
X477733845Y43397250D01*
X477733842Y43397250D01*
X477576158Y43397250D01*
X477576155Y43397250D01*
X477482858Y43378691D01*
X477421503Y43366487D01*
X477421498Y43366485D01*
X477275827Y43306147D01*
X477275814Y43306140D01*
X477144711Y43218539D01*
X477144707Y43218536D01*
X477033213Y43107042D01*
X477033210Y43107038D01*
X476945609Y42975935D01*
X476945607Y42975930D01*
X476945606Y42975929D01*
X476944219Y42972580D01*
X476941408Y42965794D01*
X476897566Y42911391D01*
X476831272Y42889327D01*
X476768379Y42903898D01*
X476764188Y42906137D01*
X476764179Y42906144D01*
X476618497Y42966487D01*
X476541520Y42981798D01*
X476463845Y42997250D01*
X476463842Y42997250D01*
X476306158Y42997250D01*
X476306155Y42997250D01*
X476220407Y42980193D01*
X476151503Y42966487D01*
X476151498Y42966485D01*
X476005827Y42906147D01*
X476005814Y42906140D01*
X475874711Y42818539D01*
X475874707Y42818536D01*
X475763213Y42707042D01*
X475763210Y42707038D01*
X475675609Y42575935D01*
X475675606Y42575928D01*
X475671408Y42565794D01*
X475627566Y42511391D01*
X475561272Y42489327D01*
X475498379Y42503898D01*
X475494188Y42506137D01*
X475494179Y42506144D01*
X475348497Y42566487D01*
X475271520Y42581798D01*
X475193845Y42597250D01*
X475193842Y42597250D01*
X475036158Y42597250D01*
X475036155Y42597250D01*
X474942858Y42578691D01*
X474881503Y42566487D01*
X474881498Y42566485D01*
X474735827Y42506147D01*
X474735814Y42506140D01*
X474604711Y42418539D01*
X474604707Y42418536D01*
X474493213Y42307042D01*
X474493210Y42307038D01*
X474405609Y42175935D01*
X474405606Y42175928D01*
X474401408Y42165794D01*
X474357566Y42111391D01*
X474291272Y42089327D01*
X474228379Y42103898D01*
X474224188Y42106137D01*
X474224179Y42106144D01*
X474078497Y42166487D01*
X474001520Y42181798D01*
X473923845Y42197250D01*
X473923842Y42197250D01*
X473766158Y42197250D01*
X473766155Y42197250D01*
X473672858Y42178691D01*
X473611503Y42166487D01*
X473611498Y42166485D01*
X473465827Y42106147D01*
X473465814Y42106140D01*
X473334711Y42018539D01*
X473334707Y42018536D01*
X473223213Y41907042D01*
X473223210Y41907038D01*
X473135609Y41775935D01*
X473135607Y41775930D01*
X473135606Y41775929D01*
X473131695Y41766488D01*
X473131408Y41765794D01*
X473087566Y41711391D01*
X473021272Y41689327D01*
X472958379Y41703898D01*
X472954188Y41706137D01*
X472954179Y41706144D01*
X472808497Y41766487D01*
X472731520Y41781798D01*
X472653845Y41797250D01*
X472653842Y41797250D01*
X472496158Y41797250D01*
X472496155Y41797250D01*
X472402858Y41778691D01*
X472341503Y41766487D01*
X472341498Y41766485D01*
X472195827Y41706147D01*
X472195814Y41706140D01*
X472064711Y41618539D01*
X472064707Y41618536D01*
X471953213Y41507042D01*
X471953210Y41507038D01*
X471865609Y41375935D01*
X471865606Y41375928D01*
X471861408Y41365794D01*
X471817566Y41311391D01*
X471751272Y41289327D01*
X471688379Y41303898D01*
X471684188Y41306137D01*
X471684179Y41306144D01*
X471538497Y41366487D01*
X471461520Y41381798D01*
X471383845Y41397250D01*
X471383842Y41397250D01*
X471226158Y41397250D01*
X471226155Y41397250D01*
X471132858Y41378691D01*
X471071503Y41366487D01*
X471071498Y41366485D01*
X470925827Y41306147D01*
X470925814Y41306140D01*
X470794711Y41218539D01*
X470794707Y41218536D01*
X470683213Y41107042D01*
X470683210Y41107038D01*
X470595609Y40975935D01*
X470595606Y40975928D01*
X470591408Y40965794D01*
X470547566Y40911391D01*
X470481272Y40889327D01*
X470418379Y40903898D01*
X470414188Y40906137D01*
X470414179Y40906144D01*
X470268497Y40966487D01*
X470191520Y40981798D01*
X470113845Y40997250D01*
X470113842Y40997250D01*
X469956158Y40997250D01*
X469956155Y40997250D01*
X469862858Y40978691D01*
X469801503Y40966487D01*
X469801498Y40966485D01*
X469655827Y40906147D01*
X469655814Y40906140D01*
X469524711Y40818539D01*
X469524707Y40818536D01*
X469413213Y40707042D01*
X469413210Y40707038D01*
X469325609Y40575935D01*
X469325606Y40575928D01*
X469321408Y40565794D01*
X469277566Y40511391D01*
X469211272Y40489327D01*
X469148379Y40503898D01*
X469144188Y40506137D01*
X469144179Y40506144D01*
X468998497Y40566487D01*
X468921520Y40581798D01*
X468843845Y40597250D01*
X468843842Y40597250D01*
X468686158Y40597250D01*
X468686155Y40597250D01*
X468592858Y40578691D01*
X468531503Y40566487D01*
X468531498Y40566485D01*
X468385827Y40506147D01*
X468385814Y40506140D01*
X468254711Y40418539D01*
X468254707Y40418536D01*
X468143213Y40307042D01*
X468143210Y40307038D01*
X468055609Y40175935D01*
X468055606Y40175928D01*
X468051408Y40165794D01*
X468007566Y40111391D01*
X467941272Y40089327D01*
X467878379Y40103898D01*
X467874188Y40106137D01*
X467874179Y40106144D01*
X467728497Y40166487D01*
X467651520Y40181798D01*
X467573845Y40197250D01*
X467573842Y40197250D01*
X467416158Y40197250D01*
X467416155Y40197250D01*
X467322858Y40178691D01*
X467261503Y40166487D01*
X467261498Y40166485D01*
X467115827Y40106147D01*
X467115814Y40106140D01*
X466984711Y40018539D01*
X466984707Y40018536D01*
X466873213Y39907042D01*
X466873210Y39907038D01*
X466785609Y39775935D01*
X466785606Y39775928D01*
X466781408Y39765794D01*
X466737566Y39711391D01*
X466671272Y39689327D01*
X466608379Y39703898D01*
X466604188Y39706137D01*
X466604179Y39706144D01*
X466458497Y39766487D01*
X466381520Y39781798D01*
X466303845Y39797250D01*
X466303842Y39797250D01*
X466146158Y39797250D01*
X466146155Y39797250D01*
X466052858Y39778691D01*
X465991503Y39766487D01*
X465991498Y39766485D01*
X465845827Y39706147D01*
X465845814Y39706140D01*
X465714711Y39618539D01*
X465714707Y39618536D01*
X465603213Y39507042D01*
X465603210Y39507038D01*
X465515609Y39375935D01*
X465515606Y39375928D01*
X465511408Y39365794D01*
X465467566Y39311391D01*
X465401272Y39289327D01*
X465338379Y39303898D01*
X465334188Y39306137D01*
X465334179Y39306144D01*
X465188497Y39366487D01*
X465111520Y39381798D01*
X465033845Y39397250D01*
X465033842Y39397250D01*
X464876158Y39397250D01*
X464876155Y39397250D01*
X464788180Y39379750D01*
X464721503Y39366487D01*
X464721498Y39366485D01*
X464575827Y39306147D01*
X464575814Y39306140D01*
X464444711Y39218539D01*
X464444707Y39218536D01*
X464333213Y39107042D01*
X464333210Y39107038D01*
X464251221Y38984334D01*
X464197608Y38939529D01*
X464128283Y38930822D01*
X464100672Y38938662D01*
X464033497Y38966487D01*
X463943775Y38984334D01*
X463878845Y38997250D01*
X463878842Y38997250D01*
X463721158Y38997250D01*
X463721155Y38997250D01*
X463627858Y38978691D01*
X463566503Y38966487D01*
X463566498Y38966485D01*
X463420827Y38906147D01*
X463420814Y38906140D01*
X463289711Y38818539D01*
X463289707Y38818536D01*
X463178213Y38707042D01*
X463178210Y38707038D01*
X463090609Y38575935D01*
X463090604Y38575925D01*
X463058278Y38497883D01*
X463014437Y38443480D01*
X462948143Y38421415D01*
X462880443Y38438694D01*
X462874859Y38442212D01*
X462779179Y38506144D01*
X462633497Y38566487D01*
X462556520Y38581798D01*
X462478845Y38597250D01*
X462478842Y38597250D01*
X462321158Y38597250D01*
X462321155Y38597250D01*
X462227858Y38578691D01*
X462166503Y38566487D01*
X462166498Y38566485D01*
X462020827Y38506147D01*
X462020814Y38506140D01*
X461889711Y38418539D01*
X461889707Y38418536D01*
X461778213Y38307042D01*
X461778210Y38307038D01*
X461690609Y38175935D01*
X461690602Y38175922D01*
X461630264Y38030251D01*
X461630261Y38030239D01*
X461599500Y37875596D01*
X454102889Y37875596D01*
X443886632Y48091851D01*
X443886631Y48091854D01*
X443876423Y48102061D01*
X443876423Y48102063D01*
X443764619Y48213867D01*
X443677807Y48263986D01*
X443627688Y48292924D01*
X443535463Y48317635D01*
X443529204Y48320064D01*
X443506624Y48337430D01*
X443482294Y48352261D01*
X443479282Y48358460D01*
X443473821Y48362661D01*
X443464213Y48389480D01*
X443451765Y48415108D01*
X443452583Y48421949D01*
X443450259Y48428438D01*
X443456678Y48456200D01*
X443460060Y48484484D01*
X443464856Y48491571D01*
X443465999Y48496511D01*
X443472461Y48502807D01*
X443486367Y48523352D01*
X443860554Y48897539D01*
X443921877Y48931024D01*
X443948235Y48933858D01*
X459962295Y48933858D01*
X460029334Y48914173D01*
X460049976Y48897539D01*
X460365425Y48582089D01*
X460398910Y48520766D01*
X460399361Y48518600D01*
X460430261Y48363258D01*
X460430264Y48363248D01*
X460490602Y48217577D01*
X460490609Y48217564D01*
X460578210Y48086461D01*
X460578213Y48086457D01*
X460689707Y47974963D01*
X460689711Y47974960D01*
X460820814Y47887359D01*
X460820827Y47887352D01*
X460966498Y47827014D01*
X460966510Y47827011D01*
X461121153Y47796250D01*
X461121158Y47796250D01*
X461278846Y47796250D01*
X461433489Y47827011D01*
X461433501Y47827014D01*
X461579172Y47887352D01*
X461579185Y47887359D01*
X461710875Y47975352D01*
X461777553Y47996230D01*
X461779766Y47996250D01*
X478207403Y47996250D01*
X478274442Y47976565D01*
X478295084Y47959931D01*
X479510425Y46744589D01*
X479543910Y46683266D01*
X479544361Y46681100D01*
X479575261Y46525758D01*
X479575264Y46525748D01*
X479635602Y46380077D01*
X479635609Y46380064D01*
X479723210Y46248961D01*
X479723213Y46248957D01*
X479834707Y46137463D01*
X479834711Y46137460D01*
X479965814Y46049859D01*
X479965827Y46049852D01*
X480111498Y45989514D01*
X480111510Y45989511D01*
X480266153Y45958750D01*
X480266158Y45958750D01*
X480423846Y45958750D01*
X480578489Y45989511D01*
X480578501Y45989514D01*
X480724172Y46049852D01*
X480724185Y46049859D01*
X480855288Y46137460D01*
X480855292Y46137463D01*
X480892319Y46174490D01*
X480953642Y46207975D01*
X481023334Y46202991D01*
X481067681Y46174490D01*
X481104707Y46137463D01*
X481104711Y46137460D01*
X481235814Y46049859D01*
X481235827Y46049852D01*
X481381498Y45989514D01*
X481381510Y45989511D01*
X481536153Y45958750D01*
X481536158Y45958750D01*
X481693846Y45958750D01*
X481848489Y45989511D01*
X481848501Y45989514D01*
X481994172Y46049852D01*
X481994185Y46049859D01*
X482125288Y46137460D01*
X482125292Y46137463D01*
X482162319Y46174490D01*
X482223642Y46207975D01*
X482293334Y46202991D01*
X482337681Y46174490D01*
X482374707Y46137463D01*
X482374711Y46137460D01*
X482505814Y46049859D01*
X482505827Y46049852D01*
X482651498Y45989514D01*
X482651510Y45989511D01*
X482806153Y45958750D01*
X482806158Y45958750D01*
X482963846Y45958750D01*
X483118489Y45989511D01*
X483118501Y45989514D01*
X483264172Y46049852D01*
X483264185Y46049859D01*
X483395288Y46137460D01*
X483395292Y46137463D01*
X483432319Y46174490D01*
X483493642Y46207975D01*
X483563334Y46202991D01*
X483607681Y46174490D01*
X483644707Y46137463D01*
X483644711Y46137460D01*
X483775814Y46049859D01*
X483775827Y46049852D01*
X483921498Y45989514D01*
X483921510Y45989511D01*
X484076153Y45958750D01*
X484076158Y45958750D01*
X484233846Y45958750D01*
X484388489Y45989511D01*
X484388501Y45989514D01*
X484534172Y46049852D01*
X484534185Y46049859D01*
X484665288Y46137460D01*
X484665292Y46137463D01*
X484702319Y46174490D01*
X484763642Y46207975D01*
X484833334Y46202991D01*
X484877681Y46174490D01*
X484914707Y46137463D01*
X484914711Y46137460D01*
X485045814Y46049859D01*
X485045827Y46049852D01*
X485191498Y45989514D01*
X485191510Y45989511D01*
X485346153Y45958750D01*
X485346158Y45958750D01*
X485503846Y45958750D01*
X485658489Y45989511D01*
X485658501Y45989514D01*
X485804172Y46049852D01*
X485804185Y46049859D01*
X485935288Y46137460D01*
X485935292Y46137463D01*
X486046786Y46248957D01*
X486046789Y46248961D01*
X486134390Y46380064D01*
X486134397Y46380077D01*
X486194735Y46525748D01*
X486194737Y46525753D01*
X486225499Y46680403D01*
X486225500Y46680405D01*
X486225500Y46838094D01*
X486225499Y46838096D01*
X486194737Y46992747D01*
X486134394Y47138429D01*
X486046789Y47269539D01*
X485935289Y47381039D01*
X485804179Y47468644D01*
X485658497Y47528987D01*
X485561085Y47548363D01*
X485503150Y47559888D01*
X485441239Y47592273D01*
X485439716Y47593768D01*
X483248916Y49784569D01*
X483215431Y49845892D01*
X483220415Y49915584D01*
X483262287Y49971517D01*
X483327751Y49995934D01*
X483336597Y49996250D01*
X483827403Y49996250D01*
X483894442Y49976565D01*
G37*
%TD.AperFunction*%
%TA.AperFunction,Conductor*%
G36*
X473574842Y17415171D02*
G01*
X474799478Y16190536D01*
X474911282Y16078731D01*
X474911285Y16078729D01*
X474944160Y16059749D01*
X474998095Y16028610D01*
X474998096Y16028609D01*
X475048209Y15999675D01*
X475048212Y15999674D01*
X475048214Y15999673D01*
X475048215Y15999673D01*
X475200943Y15958750D01*
X475848362Y15958750D01*
X475915401Y15939065D01*
X475961156Y15886261D01*
X475971100Y15817103D01*
X475960057Y15782275D01*
X475960310Y15782171D01*
X475959092Y15779229D01*
X475958846Y15778454D01*
X475958444Y15777666D01*
X475952905Y15760618D01*
X475898362Y15592751D01*
X475892753Y15575489D01*
X475859500Y15365536D01*
X475859500Y15152963D01*
X475892753Y14943010D01*
X475958444Y14740835D01*
X476054951Y14551429D01*
X476179890Y14379463D01*
X476330213Y14229140D01*
X476502182Y14104199D01*
X476510946Y14099734D01*
X476561742Y14051759D01*
X476578536Y13983938D01*
X476555998Y13917803D01*
X476510946Y13878766D01*
X476502182Y13874300D01*
X476330213Y13749359D01*
X476179890Y13599036D01*
X476054951Y13427070D01*
X476054949Y13427066D01*
X475958443Y13237662D01*
X475896018Y13045537D01*
X475892753Y13035489D01*
X475859500Y12825536D01*
X475859500Y12612963D01*
X475892753Y12403010D01*
X475958444Y12200835D01*
X476054951Y12011429D01*
X476179890Y11839463D01*
X476330213Y11689140D01*
X476502182Y11564199D01*
X476510946Y11559734D01*
X476561742Y11511759D01*
X476578536Y11443938D01*
X476555998Y11377803D01*
X476510946Y11338766D01*
X476502182Y11334300D01*
X476330213Y11209359D01*
X476179890Y11059036D01*
X476054951Y10887070D01*
X476054949Y10887066D01*
X475958443Y10697662D01*
X475908057Y10542591D01*
X475892753Y10495489D01*
X475859500Y10285536D01*
X475859500Y10072963D01*
X475892753Y9863010D01*
X475892754Y9863007D01*
X475928801Y9752066D01*
X475930796Y9682227D01*
X475894716Y9622394D01*
X475832015Y9591566D01*
X475810870Y9589750D01*
X473415626Y9589750D01*
X473348587Y9609435D01*
X473302832Y9662239D01*
X473300550Y9675145D01*
X472590234Y10385462D01*
X472632292Y10396732D01*
X472757708Y10469140D01*
X472860110Y10571542D01*
X472932518Y10696958D01*
X472943787Y10739015D01*
X473642658Y10040143D01*
X473642658Y10040144D01*
X473702914Y10123078D01*
X473810102Y10333447D01*
X473883065Y10558002D01*
X473920000Y10791197D01*
X473920000Y11027302D01*
X473883065Y11260497D01*
X473810102Y11485052D01*
X473702918Y11695413D01*
X473702914Y11695419D01*
X473642658Y11778354D01*
X473642658Y11778355D01*
X472943787Y11079484D01*
X472932518Y11121542D01*
X472860110Y11246958D01*
X472757708Y11349360D01*
X472632292Y11421768D01*
X472590233Y11433037D01*
X473289105Y12131908D01*
X473206169Y12192164D01*
X473206163Y12192168D01*
X472995802Y12299352D01*
X472771247Y12372315D01*
X472771248Y12372315D01*
X472538052Y12409250D01*
X472301948Y12409250D01*
X472068752Y12372315D01*
X471844197Y12299352D01*
X471633828Y12192164D01*
X471550894Y12131908D01*
X471550893Y12131908D01*
X472249765Y11433037D01*
X472207708Y11421768D01*
X472082292Y11349360D01*
X471979890Y11246958D01*
X471907482Y11121542D01*
X471896212Y11079483D01*
X471197340Y11778355D01*
X471197338Y11778354D01*
X471137087Y11695424D01*
X471029897Y11485052D01*
X470956934Y11260497D01*
X470920000Y11027302D01*
X470920000Y10791197D01*
X470956934Y10558002D01*
X471029897Y10333447D01*
X471137084Y10123080D01*
X471197340Y10040144D01*
X471896212Y10739016D01*
X471907482Y10696958D01*
X471979890Y10571542D01*
X472082292Y10469140D01*
X472207708Y10396732D01*
X472249766Y10385462D01*
X471537408Y9673104D01*
X471533627Y9655103D01*
X471484576Y9605345D01*
X471424373Y9589750D01*
X466915626Y9589750D01*
X466848587Y9609435D01*
X466802832Y9662239D01*
X466800550Y9675145D01*
X466090233Y10385462D01*
X466132292Y10396732D01*
X466257708Y10469140D01*
X466360110Y10571542D01*
X466432518Y10696958D01*
X466443787Y10739015D01*
X467142658Y10040143D01*
X467142658Y10040144D01*
X467202914Y10123078D01*
X467310102Y10333447D01*
X467383065Y10558002D01*
X467420000Y10791197D01*
X467420000Y11027302D01*
X467383065Y11260497D01*
X467310102Y11485052D01*
X467202918Y11695413D01*
X467202914Y11695419D01*
X467142658Y11778354D01*
X467142658Y11778355D01*
X466443787Y11079484D01*
X466432518Y11121542D01*
X466360110Y11246958D01*
X466257708Y11349360D01*
X466132292Y11421768D01*
X466090233Y11433037D01*
X466789105Y12131908D01*
X466706169Y12192164D01*
X466706163Y12192168D01*
X466495802Y12299352D01*
X466271247Y12372315D01*
X466271248Y12372315D01*
X466038052Y12409250D01*
X465801948Y12409250D01*
X465568752Y12372315D01*
X465344195Y12299352D01*
X465250796Y12251762D01*
X465182127Y12238865D01*
X465117386Y12265141D01*
X465077128Y12322247D01*
X465070500Y12362246D01*
X465070500Y13955691D01*
X465090185Y14022730D01*
X465142989Y14068485D01*
X465212147Y14078429D01*
X465250795Y14066176D01*
X465344003Y14018684D01*
X465344005Y14018683D01*
X465344008Y14018682D01*
X465377829Y14007693D01*
X465568631Y13945696D01*
X465801903Y13908750D01*
X465801908Y13908750D01*
X466038097Y13908750D01*
X466271368Y13945696D01*
X466495996Y14018683D01*
X466706433Y14125907D01*
X466735104Y14146738D01*
X466897510Y14264733D01*
X467064517Y14431740D01*
X467203343Y14622817D01*
X467263583Y14741045D01*
X467311558Y14791841D01*
X467374068Y14808750D01*
X470965932Y14808750D01*
X471032971Y14789065D01*
X471076416Y14741046D01*
X471104060Y14686790D01*
X471136657Y14622816D01*
X471215862Y14513800D01*
X471275483Y14431740D01*
X471275485Y14431738D01*
X471275485Y14431737D01*
X471442487Y14264735D01*
X471633566Y14125907D01*
X471844003Y14018683D01*
X472068631Y13945696D01*
X472301903Y13908750D01*
X472301908Y13908750D01*
X472538097Y13908750D01*
X472771368Y13945696D01*
X472995996Y14018683D01*
X473206433Y14125907D01*
X473235104Y14146738D01*
X473397510Y14264733D01*
X473564517Y14431740D01*
X473703343Y14622817D01*
X473798081Y14808750D01*
X473810566Y14833253D01*
X473819778Y14861602D01*
X473883553Y15057882D01*
X473894304Y15125760D01*
X473920500Y15291152D01*
X473920500Y15527347D01*
X473883553Y15760618D01*
X473865200Y15817103D01*
X473810568Y15985242D01*
X473703343Y16195683D01*
X473564517Y16386760D01*
X473397510Y16553767D01*
X473206433Y16692593D01*
X473088205Y16752832D01*
X473037410Y16800806D01*
X473020500Y16863317D01*
X473020500Y17284750D01*
X473040185Y17351789D01*
X473092989Y17397544D01*
X473144500Y17408750D01*
X473232351Y17408750D01*
X473232352Y17408750D01*
X473272892Y17415171D01*
X473434534Y17440772D01*
X473448848Y17445423D01*
X473518690Y17447415D01*
X473574842Y17415171D01*
G37*
%TD.AperFunction*%
%TA.AperFunction,Conductor*%
G36*
X470652365Y68279815D02*
G01*
X470673007Y68263181D01*
X477033181Y61903007D01*
X477066666Y61841684D01*
X477069500Y61815326D01*
X477069500Y54022066D01*
X477067873Y54013889D01*
X477068790Y54008811D01*
X477060061Y53974614D01*
X477056695Y53966487D01*
X477031530Y53905733D01*
X476987689Y53851330D01*
X476921395Y53829265D01*
X476853696Y53846544D01*
X476848105Y53850066D01*
X476764179Y53906144D01*
X476618497Y53966487D01*
X476541520Y53981798D01*
X476463845Y53997250D01*
X476463842Y53997250D01*
X476306158Y53997250D01*
X476306155Y53997250D01*
X476212858Y53978691D01*
X476151503Y53966487D01*
X476151498Y53966485D01*
X476005827Y53906147D01*
X476005814Y53906140D01*
X475874711Y53818539D01*
X475874707Y53818536D01*
X475763213Y53707042D01*
X475763210Y53707038D01*
X475675609Y53575935D01*
X475675606Y53575928D01*
X475671408Y53565794D01*
X475627566Y53511391D01*
X475561272Y53489327D01*
X475498379Y53503898D01*
X475494188Y53506137D01*
X475494179Y53506144D01*
X475348497Y53566487D01*
X475271520Y53581798D01*
X475193845Y53597250D01*
X475193842Y53597250D01*
X475036158Y53597250D01*
X475036155Y53597250D01*
X474942858Y53578691D01*
X474881503Y53566487D01*
X474881498Y53566485D01*
X474735827Y53506147D01*
X474735814Y53506140D01*
X474604711Y53418539D01*
X474604707Y53418536D01*
X474493213Y53307042D01*
X474493210Y53307038D01*
X474405609Y53175935D01*
X474405606Y53175928D01*
X474401408Y53165794D01*
X474357566Y53111391D01*
X474291272Y53089327D01*
X474228379Y53103898D01*
X474224188Y53106137D01*
X474224179Y53106144D01*
X474078497Y53166487D01*
X474001520Y53181798D01*
X473923845Y53197250D01*
X473923842Y53197250D01*
X473766158Y53197250D01*
X473766155Y53197250D01*
X473672858Y53178691D01*
X473611503Y53166487D01*
X473611498Y53166485D01*
X473465827Y53106147D01*
X473465814Y53106140D01*
X473334711Y53018539D01*
X473334707Y53018536D01*
X473223213Y52907042D01*
X473223210Y52907038D01*
X473135609Y52775935D01*
X473135606Y52775928D01*
X473131408Y52765794D01*
X473087566Y52711391D01*
X473021272Y52689327D01*
X472958379Y52703898D01*
X472954188Y52706137D01*
X472954179Y52706144D01*
X472808497Y52766487D01*
X472731520Y52781798D01*
X472653845Y52797250D01*
X472653842Y52797250D01*
X472496158Y52797250D01*
X472496155Y52797250D01*
X472402858Y52778691D01*
X472341503Y52766487D01*
X472341498Y52766485D01*
X472195827Y52706147D01*
X472195814Y52706140D01*
X472064711Y52618539D01*
X472064707Y52618536D01*
X471953213Y52507042D01*
X471953210Y52507038D01*
X471865609Y52375935D01*
X471865606Y52375928D01*
X471861408Y52365794D01*
X471817566Y52311391D01*
X471751272Y52289327D01*
X471688379Y52303898D01*
X471684188Y52306137D01*
X471684179Y52306144D01*
X471538497Y52366487D01*
X471461520Y52381798D01*
X471383845Y52397250D01*
X471383842Y52397250D01*
X471226158Y52397250D01*
X471226155Y52397250D01*
X471132858Y52378691D01*
X471071503Y52366487D01*
X471071498Y52366485D01*
X470925827Y52306147D01*
X470925814Y52306140D01*
X470794711Y52218539D01*
X470794707Y52218536D01*
X470683213Y52107042D01*
X470683210Y52107038D01*
X470595609Y51975935D01*
X470595605Y51975928D01*
X470583873Y51947602D01*
X470540032Y51893198D01*
X470473738Y51871132D01*
X470406039Y51888411D01*
X470400432Y51891943D01*
X470379179Y51906144D01*
X470233497Y51966487D01*
X470156520Y51981798D01*
X470078845Y51997250D01*
X470078842Y51997250D01*
X469921158Y51997250D01*
X469921156Y51997250D01*
X469915098Y51996653D01*
X469915061Y51997026D01*
X469899137Y51995531D01*
X469884987Y51995661D01*
X469879057Y51997251D01*
X469720943Y51997251D01*
X469720939Y51997250D01*
X442093643Y51997250D01*
X442026604Y52016935D01*
X442024753Y52018148D01*
X441949180Y52068643D01*
X441949179Y52068644D01*
X441803497Y52128987D01*
X441726520Y52144298D01*
X441648845Y52159750D01*
X441648842Y52159750D01*
X441614500Y52159750D01*
X441547461Y52179435D01*
X441501706Y52232239D01*
X441490500Y52283750D01*
X441490500Y63434750D01*
X441510185Y63501789D01*
X441562989Y63547544D01*
X441614500Y63558750D01*
X458475831Y63558750D01*
X458475847Y63558749D01*
X458483443Y63558749D01*
X458641554Y63558749D01*
X458641557Y63558749D01*
X458794285Y63599673D01*
X458844400Y63628608D01*
X458844404Y63628609D01*
X458844404Y63628610D01*
X458931214Y63678729D01*
X458931217Y63678731D01*
X459050088Y63797602D01*
X459050090Y63797605D01*
X460712629Y65460143D01*
X460773952Y65493628D01*
X460843644Y65488644D01*
X460856604Y65482947D01*
X460982388Y65418857D01*
X460982396Y65418853D01*
X461192047Y65350735D01*
X461322402Y65330089D01*
X461409778Y65316250D01*
X461409779Y65316250D01*
X461630221Y65316250D01*
X461630222Y65316250D01*
X461773190Y65338894D01*
X461847952Y65350735D01*
X462057603Y65418853D01*
X462057606Y65418854D01*
X462207595Y65495279D01*
X462254022Y65518935D01*
X462254611Y65519363D01*
X462432358Y65648502D01*
X462432363Y65648506D01*
X462588243Y65804386D01*
X462588247Y65804391D01*
X462689682Y65944004D01*
X462745012Y65986670D01*
X462814625Y65992649D01*
X462876420Y65960043D01*
X462890318Y65944004D01*
X462991752Y65804391D01*
X462991756Y65804386D01*
X463147636Y65648506D01*
X463147641Y65648502D01*
X463325974Y65518937D01*
X463522393Y65418854D01*
X463522396Y65418853D01*
X463732047Y65350735D01*
X463862402Y65330089D01*
X463949778Y65316250D01*
X463949779Y65316250D01*
X464170221Y65316250D01*
X464170222Y65316250D01*
X464313190Y65338894D01*
X464387952Y65350735D01*
X464597603Y65418853D01*
X464597606Y65418854D01*
X464747595Y65495279D01*
X464794022Y65518935D01*
X464794611Y65519363D01*
X464972358Y65648502D01*
X464972363Y65648506D01*
X465128243Y65804386D01*
X465128247Y65804391D01*
X465229991Y65944430D01*
X465285320Y65987096D01*
X465354934Y65993075D01*
X465416729Y65960470D01*
X465430627Y65944431D01*
X465532142Y65804709D01*
X465532142Y65804708D01*
X465687958Y65648892D01*
X465866239Y65519363D01*
X466062589Y65419317D01*
X466272163Y65351223D01*
X466350000Y65338894D01*
X466350000Y66568267D01*
X466368409Y66557639D01*
X466521009Y66516750D01*
X466678991Y66516750D01*
X466831591Y66557639D01*
X466850000Y66568267D01*
X466850000Y65338894D01*
X466927835Y65351223D01*
X466927838Y65351223D01*
X467137410Y65419317D01*
X467333760Y65519363D01*
X467512041Y65648892D01*
X467667857Y65804708D01*
X467797386Y65982989D01*
X467897432Y66179339D01*
X467965526Y66388914D01*
X468000000Y66606568D01*
X468000000Y66866750D01*
X467148482Y66866750D01*
X467159111Y66885159D01*
X467200000Y67037759D01*
X467200000Y67195741D01*
X467159111Y67348341D01*
X467148482Y67366750D01*
X468000000Y67366750D01*
X468000000Y67626931D01*
X467965526Y67844585D01*
X467897431Y68054162D01*
X467864291Y68119204D01*
X467851394Y68187874D01*
X467877670Y68252614D01*
X467934776Y68292872D01*
X467974775Y68299500D01*
X470585326Y68299500D01*
X470652365Y68279815D01*
G37*
%TD.AperFunction*%
%TA.AperFunction,Conductor*%
G36*
X445720889Y67348341D02*
G01*
X445680000Y67195741D01*
X445680000Y67037759D01*
X445720889Y66885159D01*
X445731518Y66866750D01*
X444288482Y66866750D01*
X444299111Y66885159D01*
X444340000Y67037759D01*
X444340000Y67195741D01*
X444299111Y67348341D01*
X444288482Y67366750D01*
X445731518Y67366750D01*
X445720889Y67348341D01*
G37*
%TD.AperFunction*%
%TA.AperFunction,Conductor*%
G36*
X448260889Y67348341D02*
G01*
X448220000Y67195741D01*
X448220000Y67037759D01*
X448260889Y66885159D01*
X448271518Y66866750D01*
X446828482Y66866750D01*
X446839111Y66885159D01*
X446880000Y67037759D01*
X446880000Y67195741D01*
X446839111Y67348341D01*
X446828482Y67366750D01*
X448271518Y67366750D01*
X448260889Y67348341D01*
G37*
%TD.AperFunction*%
%TA.AperFunction,Conductor*%
G36*
X450800889Y67348341D02*
G01*
X450760000Y67195741D01*
X450760000Y67037759D01*
X450800889Y66885159D01*
X450811518Y66866750D01*
X449368482Y66866750D01*
X449379111Y66885159D01*
X449420000Y67037759D01*
X449420000Y67195741D01*
X449379111Y67348341D01*
X449368482Y67366750D01*
X450811518Y67366750D01*
X450800889Y67348341D01*
G37*
%TD.AperFunction*%
%TD*%
M02*
