M48
; DRILL file KiCad 10.0.1 date 2026-08-22T17:59:48
; FORMAT={-:-/ absolute / metric / decimal}
; #@! TF.CreationDate,2026-08-22T17:59:48+08:00
; #@! TF.GenerationSoftware,Kicad,Pcbnew,10.0.1
; #@! TF.FileFunction,Plated,1,2,PTH
FMAT,2
METRIC
; #@! TA.AperFunction,Plated,PTH,ViaDrill
T1C0.300
; #@! TA.AperFunction,Plated,PTH,ComponentDrill
T2C0.800
; #@! TA.AperFunction,Plated,PTH,ComponentDrill
T3C1.000
; #@! TA.AperFunction,Plated,PTH,ComponentDrill
T4C1.100
; #@! TA.AperFunction,Plated,PTH,ComponentDrill
T5C1.200
; #@! TA.AperFunction,Plated,PTH,ComponentDrill
T6C1.500
%
G90
G05
T1
X421.4Y53.966
X421.4Y44.966
X421.4Y42.766
X421.4Y6.766
X421.4Y-8.834
X421.4Y49.566
X421.4Y47.166
X421.4Y40.566
X421.4Y38.166
X421.4Y36.166
X421.4Y33.966
X421.4Y31.766
X421.4Y29.366
X421.4Y27.166
X421.4Y22.766
X421.4Y20.366
X421.4Y17.966
X421.4Y15.766
X421.4Y13.566
X421.4Y11.166
X421.4Y8.966
X421.4Y4.566
X421.4Y2.166
X421.4Y0.166
X421.4Y-2.034
X421.4Y-4.234
X421.4Y-11.034
X421.4Y-13.234
X421.4Y-15.634
X421.4Y51.766
X421.4Y24.966
X421.4Y-6.634
X422.0Y59.8
X422.0Y56.2
X423.8Y58.0
X426.0Y75.8
X426.2Y14.8
X426.2Y13.2
X426.2Y12.4
X426.2Y14.0
X426.6Y67.2
X426.8Y-20.6
X427.2Y14.8
X427.2Y14.0
X427.2Y12.4
X427.2Y13.2
X428.0Y22.8
X428.4Y75.8
X428.4Y69.4
X429.0Y-6.8
X429.2Y-20.6
X430.6Y75.8
X431.4Y-20.6
X432.8Y42.8
X432.8Y75.8
X432.8Y45.2
X432.8Y44.4
X432.8Y43.6
X433.6Y22.6
X433.6Y61.2
X433.6Y25.0
X433.6Y63.6
X433.6Y24.2
X433.6Y23.4
X433.6Y-20.6
X433.6Y62.8
X433.6Y62.0
X433.8Y42.8
X433.8Y44.4
X433.8Y45.2
X433.8Y43.6
X434.6Y22.6
X434.6Y8.0
X434.6Y61.2
X434.6Y24.2
X434.6Y62.8
X434.6Y25.0
X434.6Y6.4
X434.6Y63.6
X434.6Y23.4
X434.6Y8.8
X434.6Y7.2
X434.6Y62.0
X435.0Y75.8
X435.6Y8.0
X435.6Y7.2
X435.6Y8.8
X435.6Y6.4
X435.8Y-20.6
X436.17Y25.959
X436.72Y28.559
X437.4Y75.8
X438.2Y-20.6
X438.6Y1.0
X438.8Y17.0
X438.8Y16.0
X438.8Y-14.8
X439.17Y30.959
X439.6Y17.0
X439.6Y16.0
X439.6Y75.8
X439.69Y33.559
X440.09Y36.159
X440.4Y16.0
X440.4Y17.0
X440.4Y-20.6
X440.49Y38.559
X440.89Y41.159
X441.2Y16.0
X441.2Y17.0
X441.57Y51.359
X441.6Y33.4
X441.6Y35.8
X441.6Y35.0
X441.6Y34.2
X441.6Y49.8
X441.8Y75.8
X442.0Y55.8
X442.0Y58.2
X442.0Y57.4
X442.0Y56.6
X442.225Y49.205
X442.4Y61.4
X442.6Y33.4
X442.6Y35.0
X442.6Y35.8
X442.6Y34.2
X442.6Y-20.6
X442.627Y48.513
X442.806Y47.733
X443.0Y55.8
X443.0Y57.4
X443.0Y58.2
X443.0Y56.6
X443.2Y43.0
X443.4Y38.0
X443.6Y30.2
X443.6Y25.4
X443.8Y75.8
X443.8Y70.4
X443.8Y22.2
X444.6Y-20.6
X446.2Y75.8
X446.333Y70.4
X447.0Y-20.6
X447.2Y41.119
X447.2Y28.419
X447.4Y36.039
X448.0Y-14.876
X448.0Y-15.876
X448.4Y59.2
X448.4Y60.2
X448.4Y75.8
X448.4Y-7.0
X448.8Y-14.876
X448.8Y-15.876
X448.867Y70.4
X449.2Y59.2
X449.2Y60.2
X449.2Y-20.6
X449.6Y-15.876
X449.6Y-14.876
X449.8Y45.2
X449.8Y44.2
X450.0Y60.2
X450.0Y59.2
X450.4Y-15.876
X450.4Y-14.876
X450.6Y45.2
X450.6Y75.8
X450.6Y44.2
X450.8Y60.2
X450.8Y59.2
X451.4Y44.2
X451.4Y70.4
X451.4Y-20.6
X451.4Y45.2
X452.2Y45.2
X452.2Y44.2
X452.8Y75.8
X453.2Y31.0
X453.2Y30.0
X453.6Y-20.6
X453.8Y26.0
X453.8Y25.2
X454.0Y31.0
X454.0Y30.0
X454.6Y26.0
X454.6Y25.2
X454.8Y31.0
X454.8Y30.0
X454.903Y38.697
X455.2Y75.8
X455.4Y26.0
X455.4Y25.2
X455.469Y38.131
X455.6Y31.0
X455.6Y30.0
X455.61Y39.404
X456.0Y-20.6
X456.034Y37.566
X456.176Y38.838
X456.2Y26.0
X456.2Y25.2
X456.6Y37.0
X456.741Y38.273
X457.0Y58.8
X457.0Y59.8
X457.307Y37.707
X457.4Y75.8
X457.8Y58.8
X457.8Y59.8
X457.893Y44.093
X458.2Y-20.6
X458.459Y43.527
X458.6Y59.8
X458.6Y44.8
X458.6Y58.8
X458.82Y-12.191
X459.024Y42.962
X459.166Y44.234
X459.2Y-3.6
X459.4Y31.0
X459.4Y30.0
X459.4Y59.8
X459.4Y58.8
X459.59Y42.396
X459.731Y43.669
X460.0Y61.8
X460.2Y31.0
X460.2Y30.0
X460.269Y41.731
X460.297Y43.103
X460.4Y-20.6
X460.834Y41.166
X460.976Y42.438
X461.0Y31.0
X461.0Y30.0
X461.2Y48.597
X461.2Y37.4
X461.4Y40.6
X461.541Y41.873
X461.8Y31.0
X461.8Y30.0
X461.966Y40.034
X462.107Y41.307
X462.4Y37.797
X462.582Y49.343
X462.673Y40.741
X462.8Y-20.6
X463.2Y64.8
X463.679Y38.407
X463.964Y50.088
X464.4Y75.8
X464.955Y50.827
X464.959Y39.018
X465.2Y-20.6
X466.2Y51.6
X466.238Y39.628
X466.6Y75.8
X467.063Y29.052
X467.4Y-20.6
X467.517Y40.238
X468.797Y40.849
X468.8Y75.8
X468.8Y67.6
X468.8Y52.325
X469.2Y61.473
X469.6Y-20.6
X469.62Y-12.391
X470.0Y60.473
X470.0Y53.071
X470.0Y-3.8
X470.076Y41.459
X470.4Y59.873
X470.6Y67.6
X471.0Y75.8
X471.0Y60.473
X471.0Y59.473
X471.2Y53.8
X471.355Y42.07
X471.6Y59.873
X471.8Y-20.6
X472.4Y66.0
X472.4Y59.473
X472.544Y74.656
X472.6Y54.6
X472.634Y42.68
X473.2Y59.6
X473.4Y75.8
X473.4Y64.6
X473.8Y55.308
X473.914Y43.291
X474.2Y-20.6
X474.241Y72.959
X474.996Y67.59
X475.018Y56.054
X475.193Y43.901
X475.4Y63.2
X475.562Y67.024
X475.6Y75.8
X475.703Y68.297
X475.797Y71.403
X476.127Y66.459
X476.269Y67.731
X476.4Y56.8
X476.4Y-20.6
X476.472Y44.511
X476.693Y65.893
X476.834Y67.166
X477.352Y69.848
X477.4Y66.6
X477.655Y57.625
X477.752Y45.122
X477.8Y75.8
X478.4Y46.2
X478.6Y-20.6
X479.0Y7.8
X479.05Y68.15
X479.2Y60.273
X479.4Y33.259
X479.8Y75.8
X480.0Y60.273
X480.345Y48.6
X480.345Y37.197
X480.6Y-20.6
X480.605Y66.595
X480.8Y60.273
X481.6Y60.273
X481.615Y48.6
X481.615Y37.2
X482.161Y65.039
X482.17Y0.019
X482.2Y75.8
X482.4Y60.273
X482.885Y48.6
X482.885Y37.33
X482.943Y9.742
X483.0Y-20.6
X483.17Y-2.521
X483.2Y60.273
X483.67Y17.799
X483.716Y63.484
X483.77Y2.559
X483.8Y59.473
X484.155Y48.6
X484.155Y37.4
X484.37Y15.359
X484.37Y5.359
X484.4Y75.8
X485.2Y62.8
X485.2Y-20.6
X485.37Y7.759
X485.425Y48.6
X485.425Y37.4
X485.77Y12.759
X486.37Y5.359
X486.6Y75.8
X486.695Y37.4
X486.97Y2.759
X487.37Y-17.541
X487.4Y62.4
X487.4Y-20.6
X487.836Y69.164
X487.965Y48.6
X487.97Y0.159
X488.0Y37.4
X488.17Y-2.241
X488.37Y30.559
X488.77Y-16.941
X488.8Y75.8
X489.235Y48.6
X489.235Y37.4
X489.37Y-4.841
X489.392Y67.608
X489.6Y60.6
X489.6Y-20.6
X490.17Y-15.041
X490.435Y37.4
X490.505Y48.6
X490.57Y-7.441
X490.77Y-12.441
X490.77Y-13.241
X490.77Y-15.641
X490.947Y66.053
X491.122Y59.0
X491.2Y75.8
X491.37Y26.559
X491.57Y-3.441
X491.775Y37.4
X491.8Y48.6
X491.8Y-9.841
X492.0Y-20.6
X492.503Y64.497
X492.6Y57.4
X492.97Y28.159
X493.0Y48.6
X493.0Y37.4
X493.4Y75.8
X494.2Y62.8
X494.2Y56.0
X494.2Y-20.6
X494.315Y48.6
X494.315Y37.4
X495.585Y48.6
X495.585Y37.4
X495.6Y75.8
X495.8Y54.6
X496.4Y-20.6
X496.8Y37.4
X496.855Y48.8
X497.2Y53.4
X497.2Y11.2
X497.2Y10.319
X497.2Y9.4
X498.4Y51.8
X499.6Y73.0
X499.6Y64.0
X499.6Y61.8
X499.6Y68.6
X499.6Y66.2
X499.6Y59.6
X499.6Y57.2
X499.6Y55.2
X499.6Y53.0
X499.6Y50.8
X499.6Y48.4
X499.6Y41.8
X499.6Y39.4
X499.6Y37.0
X499.6Y70.8
X499.8Y45.0
X499.8Y44.0
X499.97Y-11.241
X500.57Y6.559
T2
X430.37Y62.559
X437.99Y62.559
X449.55Y29.999
X449.55Y14.759
X455.77Y5.359
X457.17Y29.999
X457.17Y14.759
X457.77Y5.359
X459.77Y5.359
X465.51Y18.709
X465.55Y28.359
X465.55Y21.959
X465.56Y25.159
X465.57Y31.559
X467.37Y5.359
X469.37Y5.359
X471.37Y5.359
X473.13Y18.709
X473.17Y28.359
X473.17Y21.959
X473.18Y25.159
X473.19Y31.559
T3
X422.07Y58.109
X424.57Y63.109
X427.07Y58.109
X477.21Y30.499
X477.21Y27.959
X477.21Y25.419
X477.21Y22.879
X477.21Y20.339
X477.21Y17.799
X477.21Y15.259
X477.21Y12.719
X477.21Y10.179
X477.21Y7.639
X477.21Y5.099
X477.21Y2.559
X477.21Y0.019
X477.21Y-2.521
X477.21Y-5.061
X477.21Y-7.601
X477.21Y-10.141
X477.21Y-12.681
X477.21Y-15.221
X477.21Y-17.761
X498.81Y30.719
X498.81Y28.179
X498.81Y25.639
X498.81Y23.099
X498.81Y20.559
X498.81Y18.019
X498.81Y15.479
X498.81Y12.939
X498.81Y10.399
X498.81Y7.859
X498.81Y5.319
X498.81Y2.779
X498.81Y0.239
X498.81Y-2.301
X498.81Y-4.841
X498.81Y-7.381
X498.81Y-9.921
X498.81Y-12.461
X498.81Y-15.001
X498.81Y-17.541
T4
X425.87Y-4.634
X425.87Y-9.134
X432.37Y-4.634
X432.37Y-9.134
X435.47Y3.166
X435.47Y-1.334
X435.52Y-12.584
X435.52Y-17.084
X441.97Y3.166
X441.97Y-1.334
X442.02Y-12.584
X442.02Y-17.084
X445.12Y-4.784
X445.12Y-9.284
X451.62Y-4.784
X451.62Y-9.284
X455.98Y-1.319
X455.98Y-5.819
X455.98Y-10.126
X455.98Y-14.626
X462.48Y-1.319
X462.48Y-5.819
X462.48Y-10.126
X462.48Y-14.626
X465.92Y15.409
X465.92Y10.909
X466.37Y-10.141
X466.37Y-14.641
X466.72Y-1.584
X466.72Y-6.084
X472.42Y15.409
X472.42Y10.909
X472.87Y-10.141
X472.87Y-14.641
X473.22Y-1.584
X473.22Y-6.084
T5
X428.5Y67.117
X431.04Y67.117
X433.58Y67.117
X436.12Y67.117
X438.66Y67.117
X441.2Y67.117
X443.74Y67.117
X446.28Y67.117
X448.82Y67.117
X451.36Y67.117
X453.9Y67.117
X456.44Y67.117
X458.98Y67.117
X461.52Y67.117
X464.06Y67.117
X466.6Y67.117
T6
X453.67Y5.359
X461.87Y5.359
X465.27Y5.359
X473.47Y5.359
M30
