%TF.GenerationSoftware,KiCad,Pcbnew,10.0.1*%
%TF.CreationDate,2026-08-15T10:22:26+08:00*%
%TF.ProjectId,z80badgev2,7a383062-6164-4676-9576-322e6b696361,rev?*%
%TF.SameCoordinates,Original*%
%TF.FileFunction,Copper,L2,Bot*%
%TF.FilePolarity,Positive*%
%FSLAX46Y46*%
G04 Gerber Fmt 4.6, Leading zero omitted, Abs format (unit mm)*
G04 Created by KiCad (PCBNEW 10.0.1) date 2026-08-15 10:22:26*
%MOMM*%
%LPD*%
G01*
G04 APERTURE LIST*
G04 Aperture macros list*
%AMRoundRect*
0 Rectangle with rounded corners*
0 $1 Rounding radius*
0 $2 $3 $4 $5 $6 $7 $8 $9 X,Y pos of 4 corners*
0 Add a 4 corners polygon primitive as box body*
4,1,4,$2,$3,$4,$5,$6,$7,$8,$9,$2,$3,0*
0 Add four circle primitives for the rounded corners*
1,1,$1+$1,$2,$3*
1,1,$1+$1,$4,$5*
1,1,$1+$1,$6,$7*
1,1,$1+$1,$8,$9*
0 Add four rect primitives between the rounded corners*
20,1,$1+$1,$2,$3,$4,$5,0*
20,1,$1+$1,$4,$5,$6,$7,0*
20,1,$1+$1,$6,$7,$8,$9,0*
20,1,$1+$1,$8,$9,$2,$3,0*%
G04 Aperture macros list end*
%TA.AperFunction,ComponentPad*%
%ADD10C,2.000000*%
%TD*%
%TA.AperFunction,ComponentPad*%
%ADD11O,2.200000X3.500000*%
%TD*%
%TA.AperFunction,ComponentPad*%
%ADD12R,1.500000X2.500000*%
%TD*%
%TA.AperFunction,ComponentPad*%
%ADD13O,1.500000X2.500000*%
%TD*%
%TA.AperFunction,ComponentPad*%
%ADD14R,1.700000X1.700000*%
%TD*%
%TA.AperFunction,ComponentPad*%
%ADD15C,1.700000*%
%TD*%
%TA.AperFunction,ComponentPad*%
%ADD16R,1.600000X1.600000*%
%TD*%
%TA.AperFunction,ComponentPad*%
%ADD17C,1.600000*%
%TD*%
%TA.AperFunction,ComponentPad*%
%ADD18O,1.600000X1.600000*%
%TD*%
%TA.AperFunction,ComponentPad*%
%ADD19R,1.800000X2.600000*%
%TD*%
%TA.AperFunction,ComponentPad*%
%ADD20O,1.800000X2.600000*%
%TD*%
%TA.AperFunction,SMDPad,CuDef*%
%ADD21R,0.650000X1.560000*%
%TD*%
%TA.AperFunction,ComponentPad*%
%ADD22R,1.550000X1.550000*%
%TD*%
%TA.AperFunction,ComponentPad*%
%ADD23C,1.550000*%
%TD*%
%TA.AperFunction,SMDPad,CuDef*%
%ADD24R,1.560000X0.650000*%
%TD*%
%TA.AperFunction,SMDPad,CuDef*%
%ADD25RoundRect,0.249999X0.750001X0.640001X-0.750001X0.640001X-0.750001X-0.640001X0.750001X-0.640001X0*%
%TD*%
%TA.AperFunction,SMDPad,CuDef*%
%ADD26RoundRect,0.150000X0.150000X-0.987500X0.150000X0.987500X-0.150000X0.987500X-0.150000X-0.987500X0*%
%TD*%
%TA.AperFunction,SMDPad,CuDef*%
%ADD27RoundRect,0.249999X-0.750001X-0.640001X0.750001X-0.640001X0.750001X0.640001X-0.750001X0.640001X0*%
%TD*%
%TA.AperFunction,ViaPad*%
%ADD28C,0.600000*%
%TD*%
%TA.AperFunction,Conductor*%
%ADD29C,0.200000*%
%TD*%
G04 APERTURE END LIST*
D10*
%TO.P,SW7,1,1_1*%
%TO.N,Net-(U2-PA3)*%
X435520000Y-12583607D03*
X442020000Y-12583607D03*
%TO.P,SW7,2,2_2*%
%TO.N,/Power*%
X435520000Y-17083607D03*
X442020000Y-17083607D03*
%TD*%
%TO.P,SW9,1,1_1*%
%TO.N,Net-(U2-PA5)*%
X455980000Y-10126464D03*
X462480000Y-10126464D03*
%TO.P,SW9,2,2_2*%
%TO.N,/Power*%
X455980000Y-14626464D03*
X462480000Y-14626464D03*
%TD*%
D11*
%TO.P,SW4,*%
%TO.N,*%
X461870000Y5359250D03*
X453670000Y5359250D03*
D12*
%TO.P,SW4,1,A_1*%
%TO.N,+5V*%
X459770000Y5359250D03*
D13*
%TO.P,SW4,2,B_2*%
%TO.N,/~{BUSREQ}*%
X457770000Y5359250D03*
%TO.P,SW4,3,C_3*%
%TO.N,GND*%
X455770000Y5359250D03*
%TD*%
D11*
%TO.P,SW5,*%
%TO.N,*%
X465270000Y5359250D03*
X473470000Y5359250D03*
D12*
%TO.P,SW5,1,A_1*%
%TO.N,+5V*%
X467370000Y5359250D03*
D13*
%TO.P,SW5,2,B_2*%
%TO.N,/Power*%
X469370000Y5359250D03*
%TO.P,SW5,3,C_3*%
%TO.N,unconnected-(SW5-C-Pad3)*%
X471370000Y5359250D03*
%TD*%
D10*
%TO.P,SW8,1,1_1*%
%TO.N,Net-(U2-PA4)*%
X455980000Y-1319321D03*
X462480000Y-1319321D03*
%TO.P,SW8,2,2_2*%
%TO.N,/Power*%
X455980000Y-5819321D03*
X462480000Y-5819321D03*
%TD*%
%TO.P,SW2,1,1_1*%
%TO.N,Net-(U2-PA0)*%
X435470000Y3166393D03*
X441970000Y3166393D03*
%TO.P,SW2,2,2_2*%
%TO.N,/Power*%
X435470000Y-1333607D03*
X441970000Y-1333607D03*
%TD*%
D14*
%TO.P,J3,1,Pin_1_1*%
%TO.N,/~{RD}*%
X498810000Y30719250D03*
D15*
%TO.P,J3,2,Pin_2_2*%
%TO.N,/~{WR}*%
X498810000Y28179250D03*
%TO.P,J3,3,Pin_3_3*%
%TO.N,/~{BUSACK}*%
X498810000Y25639250D03*
%TO.P,J3,4,Pin_4_4*%
%TO.N,/~{WAIT}*%
X498810000Y23099250D03*
%TO.P,J3,5,Pin_5_5*%
%TO.N,/~{BUSREQ}*%
X498810000Y20559250D03*
%TO.P,J3,6,Pin_6_6*%
%TO.N,/~{RESET}*%
X498810000Y18019250D03*
%TO.P,J3,7,Pin_7_7*%
%TO.N,/~{M1}*%
X498810000Y15479250D03*
%TO.P,J3,8,Pin_8_8*%
%TO.N,/~{RFSH}*%
X498810000Y12939250D03*
%TO.P,J3,9,Pin_9_9*%
%TO.N,GND*%
X498810000Y10399250D03*
%TO.P,J3,10,Pin_10_10*%
%TO.N,/A0*%
X498810000Y7859250D03*
%TO.P,J3,11,Pin_11_11*%
%TO.N,/A1*%
X498810000Y5319250D03*
%TO.P,J3,12,Pin_12_12*%
%TO.N,/A2*%
X498810000Y2779250D03*
%TO.P,J3,13,Pin_13_13*%
%TO.N,/A3*%
X498810000Y239250D03*
%TO.P,J3,14,Pin_14_14*%
%TO.N,/A4*%
X498810000Y-2300750D03*
%TO.P,J3,15,Pin_15_15*%
%TO.N,/A5*%
X498810000Y-4840750D03*
%TO.P,J3,16,Pin_16_16*%
%TO.N,/A6*%
X498810000Y-7380750D03*
%TO.P,J3,17,Pin_17_17*%
%TO.N,/A7*%
X498810000Y-9920750D03*
%TO.P,J3,18,Pin_18_18*%
%TO.N,/A8*%
X498810000Y-12460750D03*
%TO.P,J3,19,Pin_19_19*%
%TO.N,/A9*%
X498810000Y-15000750D03*
%TO.P,J3,20,Pin_20_20*%
%TO.N,/A10*%
X498810000Y-17540750D03*
%TD*%
D14*
%TO.P,J2,1,Pin_1_1*%
%TO.N,/A11*%
X477210000Y-17760750D03*
D15*
%TO.P,J2,2,Pin_2_2*%
%TO.N,/A12*%
X477210000Y-15220750D03*
%TO.P,J2,3,Pin_3_3*%
%TO.N,/A13*%
X477210000Y-12680750D03*
%TO.P,J2,4,Pin_4_4*%
%TO.N,/A14*%
X477210000Y-10140750D03*
%TO.P,J2,5,Pin_5_5*%
%TO.N,/A15*%
X477210000Y-7600750D03*
%TO.P,J2,6,Pin_6_6*%
%TO.N,/CLK*%
X477210000Y-5060750D03*
%TO.P,J2,7,Pin_7_7*%
%TO.N,/D4*%
X477210000Y-2520750D03*
%TO.P,J2,8,Pin_8_8*%
%TO.N,/D3*%
X477210000Y19250D03*
%TO.P,J2,9,Pin_9_9*%
%TO.N,/D5*%
X477210000Y2559250D03*
%TO.P,J2,10,Pin_10_10*%
%TO.N,/D6*%
X477210000Y5099250D03*
%TO.P,J2,11,Pin_11_11*%
%TO.N,+5V*%
X477210000Y7639250D03*
%TO.P,J2,12,Pin_12_12*%
%TO.N,/D2*%
X477210000Y10179250D03*
%TO.P,J2,13,Pin_13_13*%
%TO.N,/D7*%
X477210000Y12719250D03*
%TO.P,J2,14,Pin_14_14*%
%TO.N,/D0*%
X477210000Y15259250D03*
%TO.P,J2,15,Pin_15_15*%
%TO.N,/D1*%
X477210000Y17799250D03*
%TO.P,J2,16,Pin_16_16*%
%TO.N,/~{INT}*%
X477210000Y20339250D03*
%TO.P,J2,17,Pin_17_17*%
%TO.N,/~{NMI}*%
X477210000Y22879250D03*
%TO.P,J2,18,Pin_18_18*%
%TO.N,/~{HALT}*%
X477210000Y25419250D03*
%TO.P,J2,19,Pin_19_19*%
%TO.N,/~{MREQ}*%
X477210000Y27959250D03*
%TO.P,J2,20,Pin_20_20*%
%TO.N,/~{IORQ}*%
X477210000Y30499250D03*
%TD*%
D10*
%TO.P,SW3,1,1_1*%
%TO.N,Net-(U2-PA1)*%
X425870000Y-4633607D03*
X432370000Y-4633607D03*
%TO.P,SW3,2,2_2*%
%TO.N,/Power*%
X425870000Y-9133607D03*
X432370000Y-9133607D03*
%TD*%
%TO.P,SW10,1,1_1*%
%TO.N,Net-(U2-PA6)*%
X466720000Y-1583607D03*
X473220000Y-1583607D03*
%TO.P,SW10,2,2_2*%
%TO.N,/Power*%
X466720000Y-6083607D03*
X473220000Y-6083607D03*
%TD*%
%TO.P,SW11,1,1_1*%
%TO.N,Net-(U2-PA7)*%
X466370000Y-10140750D03*
X472870000Y-10140750D03*
%TO.P,SW11,2,2_2*%
%TO.N,/Power*%
X466370000Y-14640750D03*
X472870000Y-14640750D03*
%TD*%
%TO.P,SW6,1,1_1*%
%TO.N,Net-(U2-PA2)*%
X445120000Y-4783607D03*
X451620000Y-4783607D03*
%TO.P,SW6,2,2_2*%
%TO.N,/Power*%
X445120000Y-9283607D03*
X451620000Y-9283607D03*
%TD*%
%TO.P,SW1,1,1_1*%
%TO.N,/~{RESET}*%
X465920000Y15409250D03*
X472420000Y15409250D03*
%TO.P,SW1,2,2_2*%
%TO.N,GND*%
X465920000Y10909250D03*
X472420000Y10909250D03*
%TD*%
D16*
%TO.P,Y1,1,NC_1*%
%TO.N,unconnected-(Y1-NC-Pad1)*%
X457170000Y14759250D03*
D17*
%TO.P,Y1,7,GND_7*%
%TO.N,GND*%
X457170000Y29999250D03*
%TO.P,Y1,8,OUT_8*%
%TO.N,/CLK*%
X449550000Y29999250D03*
%TO.P,Y1,14,Vcc_14*%
%TO.N,/Power*%
X449550000Y14759250D03*
%TD*%
%TO.P,R2,1*%
%TO.N,/~{RESET}*%
X473130000Y18709250D03*
D18*
%TO.P,R2,2*%
%TO.N,/Power*%
X465510000Y18709250D03*
%TD*%
D19*
%TO.P,DS1,1,VSS_1*%
%TO.N,GND*%
X428500000Y67116750D03*
D20*
%TO.P,DS1,2,VDD_2*%
%TO.N,/Power*%
X431040000Y67116750D03*
%TO.P,DS1,3,VO_3*%
%TO.N,Net-(DS1-VO)*%
X433580000Y67116750D03*
%TO.P,DS1,4,RS_4*%
%TO.N,/RS LCD*%
X436120000Y67116750D03*
%TO.P,DS1,5,R/W_5*%
%TO.N,/R{slash}W LCD*%
X438660000Y67116750D03*
%TO.P,DS1,6,E_6*%
%TO.N,/E LCD*%
X441200000Y67116750D03*
%TO.P,DS1,7,D0_7*%
%TO.N,GND*%
X443740000Y67116750D03*
%TO.P,DS1,8,D1_8*%
X446280000Y67116750D03*
%TO.P,DS1,9,D2_9*%
X448820000Y67116750D03*
%TO.P,DS1,10,D3_10*%
X451360000Y67116750D03*
%TO.P,DS1,11,D4_11*%
%TO.N,/LCD4*%
X453900000Y67116750D03*
%TO.P,DS1,12,D5_12*%
%TO.N,/LCD5*%
X456440000Y67116750D03*
%TO.P,DS1,13,D6_13*%
%TO.N,/LCD6*%
X458980000Y67116750D03*
%TO.P,DS1,14,D7_14*%
%TO.N,/LCD7*%
X461520000Y67116750D03*
%TO.P,DS1,15,LED(+)_15*%
%TO.N,Net-(DS1-LED(+))*%
X464060000Y67116750D03*
%TO.P,DS1,16,LED(-)_16*%
%TO.N,GND*%
X466600000Y67116750D03*
%TD*%
D21*
%TO.P,U7,1*%
%TO.N,Net-(U6-Pad4)*%
X465535000Y55796750D03*
%TO.P,U7,2*%
%TO.N,/~{MREQ}*%
X466485000Y55796750D03*
%TO.P,U7,3,GND_3*%
%TO.N,GND*%
X467435000Y55796750D03*
%TO.P,U7,4*%
%TO.N,Net-(U4-~{CS})*%
X467435000Y53096750D03*
%TO.P,U7,5,VCC_5*%
%TO.N,+5V*%
X465535000Y53096750D03*
%TD*%
D22*
%TO.P,RV1,1,1_1*%
%TO.N,GND*%
X422070000Y58109250D03*
D23*
%TO.P,RV1,2,2_2*%
%TO.N,Net-(DS1-VO)*%
X424570000Y63109250D03*
%TO.P,RV1,3,3_3*%
%TO.N,/Power*%
X427070000Y58109250D03*
%TD*%
D17*
%TO.P,R3,1*%
%TO.N,/~{WAIT}*%
X473170000Y28359250D03*
D18*
%TO.P,R3,2*%
%TO.N,/Power*%
X465550000Y28359250D03*
%TD*%
D24*
%TO.P,U6,1,NC_1*%
%TO.N,unconnected-(U6-NC-Pad1)*%
X467950000Y59746750D03*
%TO.P,U6,2*%
%TO.N,/A15*%
X467950000Y58796750D03*
%TO.P,U6,3,GND_3*%
%TO.N,GND*%
X467950000Y57846750D03*
%TO.P,U6,4*%
%TO.N,Net-(U6-Pad4)*%
X465250000Y57846750D03*
%TO.P,U6,5,VCC_5*%
%TO.N,+5V*%
X465250000Y59746750D03*
%TD*%
D25*
%TO.P,U2,1,D2_1*%
%TO.N,/D2*%
X445410000Y58899250D03*
%TO.P,U2,2,D7_2*%
%TO.N,/D7*%
X445410000Y56359250D03*
%TO.P,U2,3,D6_3*%
%TO.N,/D6*%
X445410000Y53819250D03*
%TO.P,U2,4,~{CE}_4*%
%TO.N,GND*%
X445410000Y51279250D03*
%TO.P,U2,5,C/~{D}_5*%
%TO.N,/A1*%
X445410000Y48739250D03*
%TO.P,U2,6,B/~{A}_6*%
%TO.N,/A0*%
X445410000Y46199250D03*
%TO.P,U2,7,PA7_7*%
%TO.N,Net-(U2-PA7)*%
X445410000Y43659250D03*
%TO.P,U2,8,PA6_8*%
%TO.N,Net-(U2-PA6)*%
X445410000Y41119250D03*
%TO.P,U2,9,PA5_9*%
%TO.N,Net-(U2-PA5)*%
X445410000Y38579250D03*
%TO.P,U2,10,PA4_10*%
%TO.N,Net-(U2-PA4)*%
X445410000Y36039250D03*
%TO.P,U2,11,GND_11*%
%TO.N,GND*%
X445410000Y33499250D03*
%TO.P,U2,12,PA3_12*%
%TO.N,Net-(U2-PA3)*%
X445410000Y30959250D03*
%TO.P,U2,13,PA2_13*%
%TO.N,Net-(U2-PA2)*%
X445410000Y28419250D03*
%TO.P,U2,14,PA1_14*%
%TO.N,Net-(U2-PA1)*%
X445410000Y25879250D03*
%TO.P,U2,15,PA0_15*%
%TO.N,Net-(U2-PA0)*%
X445410000Y23339250D03*
%TO.P,U2,16,~{ASTB}_16*%
%TO.N,/Power*%
X445410000Y20799250D03*
%TO.P,U2,17,~{BSTB}_17*%
%TO.N,unconnected-(U2-~{BSTB}-Pad17)*%
X445410000Y18259250D03*
%TO.P,U2,18,ARDY_18*%
%TO.N,unconnected-(U2-ARDY-Pad18)*%
X445410000Y15719250D03*
%TO.P,U2,19,D0_19*%
%TO.N,/D0*%
X445410000Y13179250D03*
%TO.P,U2,20,D1_20*%
%TO.N,/D1*%
X445410000Y10639250D03*
%TO.P,U2,21,BRDY_21*%
%TO.N,unconnected-(U2-BRDY-Pad21)*%
X430170000Y10639250D03*
%TO.P,U2,22,IEO_22*%
%TO.N,GND*%
X430170000Y13179250D03*
%TO.P,U2,23,~{INT}_23*%
%TO.N,/~{INT}*%
X430170000Y15719250D03*
%TO.P,U2,24,IEI_24*%
%TO.N,/Power*%
X430170000Y18259250D03*
%TO.P,U2,25,CLK_25*%
%TO.N,/CLK*%
X430170000Y20799250D03*
%TO.P,U2,26,VCC_26*%
%TO.N,/Power*%
X430170000Y23339250D03*
%TO.P,U2,27,PB0_27*%
%TO.N,/RS LCD*%
X430170000Y25879250D03*
%TO.P,U2,28,PB1_28*%
%TO.N,/R{slash}W LCD*%
X430170000Y28419250D03*
%TO.P,U2,29,PB2_29*%
%TO.N,/E LCD*%
X430170000Y30959250D03*
%TO.P,U2,30,PB3_30*%
%TO.N,/LCD4*%
X430170000Y33499250D03*
%TO.P,U2,31,PB4_31*%
%TO.N,/LCD5*%
X430170000Y36039250D03*
%TO.P,U2,32,PB5_32*%
%TO.N,/LCD6*%
X430170000Y38579250D03*
%TO.P,U2,33,PB6_33*%
%TO.N,/LCD7*%
X430170000Y41119250D03*
%TO.P,U2,34,PB7_34*%
%TO.N,unconnected-(U2-PB7-Pad34)*%
X430170000Y43659250D03*
%TO.P,U2,35,~{RD}_35*%
%TO.N,/~{RD}*%
X430170000Y46199250D03*
%TO.P,U2,36,~{IORQ}_36*%
%TO.N,/~{IORQ}*%
X430170000Y48739250D03*
%TO.P,U2,37,~{M1}_37*%
%TO.N,/~{M1}*%
X430170000Y51279250D03*
%TO.P,U2,38,D5_38*%
%TO.N,/D5*%
X430170000Y53819250D03*
%TO.P,U2,39,D4_39*%
%TO.N,/D4*%
X430170000Y56359250D03*
%TO.P,U2,40,D3_40*%
%TO.N,/D3*%
X430170000Y58899250D03*
%TD*%
D26*
%TO.P,U3,1,A14_1*%
%TO.N,/A14*%
X496855000Y35634250D03*
%TO.P,U3,2,A12_2*%
%TO.N,/A12*%
X495585000Y35634250D03*
%TO.P,U3,3,A7_3*%
%TO.N,/A7*%
X494315000Y35634250D03*
%TO.P,U3,4,A6_4*%
%TO.N,/A6*%
X493045000Y35634250D03*
%TO.P,U3,5,A5_5*%
%TO.N,/A5*%
X491775000Y35634250D03*
%TO.P,U3,6,A4_6*%
%TO.N,/A4*%
X490505000Y35634250D03*
%TO.P,U3,7,A3_7*%
%TO.N,/A3*%
X489235000Y35634250D03*
%TO.P,U3,8,A2_8*%
%TO.N,/A2*%
X487965000Y35634250D03*
%TO.P,U3,9,A1_9*%
%TO.N,/A1*%
X486695000Y35634250D03*
%TO.P,U3,10,A0_10*%
%TO.N,/A0*%
X485425000Y35634250D03*
%TO.P,U3,11,D0_11*%
%TO.N,/D0*%
X484155000Y35634250D03*
%TO.P,U3,12,D1_12*%
%TO.N,/D1*%
X482885000Y35634250D03*
%TO.P,U3,13,D2_13*%
%TO.N,/D2*%
X481615000Y35634250D03*
%TO.P,U3,14,GND_14*%
%TO.N,GND*%
X480345000Y35634250D03*
%TO.P,U3,15,D3_15*%
%TO.N,/D3*%
X480345000Y46759250D03*
%TO.P,U3,16,D4_16*%
%TO.N,/D4*%
X481615000Y46759250D03*
%TO.P,U3,17,D5_17*%
%TO.N,/D5*%
X482885000Y46759250D03*
%TO.P,U3,18,D6_18*%
%TO.N,/D6*%
X484155000Y46759250D03*
%TO.P,U3,19,D7_19*%
%TO.N,/D7*%
X485425000Y46759250D03*
%TO.P,U3,20,~{CS}_20*%
%TO.N,Net-(U3-~{CS})*%
X486695000Y46759250D03*
%TO.P,U3,21,A10_21*%
%TO.N,/A10*%
X487965000Y46759250D03*
%TO.P,U3,22,~{OE}_22*%
%TO.N,/~{RD}*%
X489235000Y46759250D03*
%TO.P,U3,23,A11_23*%
%TO.N,/A11*%
X490505000Y46759250D03*
%TO.P,U3,24,A9_24*%
%TO.N,/A9*%
X491775000Y46759250D03*
%TO.P,U3,25,A8_25*%
%TO.N,/A8*%
X493045000Y46759250D03*
%TO.P,U3,26,A13_26*%
%TO.N,/A13*%
X494315000Y46759250D03*
%TO.P,U3,27,~{WE}_27*%
%TO.N,/~{WR}*%
X495585000Y46759250D03*
%TO.P,U3,28,VCC_28*%
%TO.N,+5V*%
X496855000Y46759250D03*
%TD*%
D17*
%TO.P,R4,1*%
%TO.N,/~{NMI}*%
X473190000Y31559250D03*
D18*
%TO.P,R4,2*%
%TO.N,/Power*%
X465570000Y31559250D03*
%TD*%
D27*
%TO.P,U1,1,A_{11}_1*%
%TO.N,/A11*%
X480370000Y-17620750D03*
%TO.P,U1,2,A_{12}_2*%
%TO.N,/A12*%
X480370000Y-15080750D03*
%TO.P,U1,3,A_{13}_3*%
%TO.N,/A13*%
X480370000Y-12540750D03*
%TO.P,U1,4,A_{14}_4*%
%TO.N,/A14*%
X480370000Y-10000750D03*
%TO.P,U1,5,A_{15}_5*%
%TO.N,/A15*%
X480370000Y-7460750D03*
%TO.P,U1,6,CLK_6*%
%TO.N,/CLK*%
X480370000Y-4920750D03*
%TO.P,U1,7,D_{4}_7*%
%TO.N,/D4*%
X480370000Y-2380750D03*
%TO.P,U1,8,D_{3}_8*%
%TO.N,/D3*%
X480370000Y159250D03*
%TO.P,U1,9,D_{5}_9*%
%TO.N,/D5*%
X480370000Y2699250D03*
%TO.P,U1,10,D_{6}_10*%
%TO.N,/D6*%
X480370000Y5239250D03*
%TO.P,U1,11,V_{CC}_11*%
%TO.N,/Power*%
X480370000Y7779250D03*
%TO.P,U1,12,D_{2}_12*%
%TO.N,/D2*%
X480370000Y10319250D03*
%TO.P,U1,13,D_{7}_13*%
%TO.N,/D7*%
X480370000Y12859250D03*
%TO.P,U1,14,D_{0}_14*%
%TO.N,/D0*%
X480370000Y15399250D03*
%TO.P,U1,15,D_{1}_15*%
%TO.N,/D1*%
X480370000Y17939250D03*
%TO.P,U1,16,~{INT}_16*%
%TO.N,/~{INT}*%
X480370000Y20479250D03*
%TO.P,U1,17,~{NMI}_17*%
%TO.N,/~{NMI}*%
X480370000Y23019250D03*
%TO.P,U1,18,~{HALT}_18*%
%TO.N,/~{HALT}*%
X480370000Y25559250D03*
%TO.P,U1,19,~{MREQ}_19*%
%TO.N,/~{MREQ}*%
X480370000Y28099250D03*
%TO.P,U1,20,~{IORQ}_20*%
%TO.N,/~{IORQ}*%
X480370000Y30639250D03*
%TO.P,U1,21,~{RD}_21*%
%TO.N,/~{RD}*%
X495610000Y30639250D03*
%TO.P,U1,22,~{WR}_22*%
%TO.N,/~{WR}*%
X495610000Y28099250D03*
%TO.P,U1,23,~{BUSACK}_23*%
%TO.N,/~{BUSACK}*%
X495610000Y25559250D03*
%TO.P,U1,24,~{WAIT}_24*%
%TO.N,/~{WAIT}*%
X495610000Y23019250D03*
%TO.P,U1,25,~{BUSREQ}_25*%
%TO.N,/~{BUSREQ}*%
X495610000Y20479250D03*
%TO.P,U1,26,~{RESET}_26*%
%TO.N,/~{RESET}*%
X495610000Y17939250D03*
%TO.P,U1,27,~{M1}_27*%
%TO.N,/~{M1}*%
X495610000Y15399250D03*
%TO.P,U1,28,~{RFSH}_28*%
%TO.N,/~{RFSH}*%
X495610000Y12859250D03*
%TO.P,U1,29,GND_29*%
%TO.N,GND*%
X495610000Y10319250D03*
%TO.P,U1,30,A_{0}_30*%
%TO.N,/A0*%
X495610000Y7779250D03*
%TO.P,U1,31,A_{1}_31*%
%TO.N,/A1*%
X495610000Y5239250D03*
%TO.P,U1,32,A_{2}_32*%
%TO.N,/A2*%
X495610000Y2699250D03*
%TO.P,U1,33,A_{3}_33*%
%TO.N,/A3*%
X495610000Y159250D03*
%TO.P,U1,34,A_{4}_34*%
%TO.N,/A4*%
X495610000Y-2380750D03*
%TO.P,U1,35,A_{5}_35*%
%TO.N,/A5*%
X495610000Y-4920750D03*
%TO.P,U1,36,A_{6}_36*%
%TO.N,/A6*%
X495610000Y-7460750D03*
%TO.P,U1,37,A_{7}_37*%
%TO.N,/A7*%
X495610000Y-10000750D03*
%TO.P,U1,38,A_{8}_38*%
%TO.N,/A8*%
X495610000Y-12540750D03*
%TO.P,U1,39,A_{9}_39*%
%TO.N,/A9*%
X495610000Y-15080750D03*
%TO.P,U1,40,A_{10}_40*%
%TO.N,/A10*%
X495610000Y-17620750D03*
%TD*%
D26*
%TO.P,U4,1,A14_1*%
%TO.N,/A14*%
X477655000Y35634250D03*
%TO.P,U4,2,A12_2*%
%TO.N,/A12*%
X476385000Y35634250D03*
%TO.P,U4,3,A7_3*%
%TO.N,/A7*%
X475115000Y35634250D03*
%TO.P,U4,4,A6_4*%
%TO.N,/A6*%
X473845000Y35634250D03*
%TO.P,U4,5,A5_5*%
%TO.N,/A5*%
X472575000Y35634250D03*
%TO.P,U4,6,A4_6*%
%TO.N,/A4*%
X471305000Y35634250D03*
%TO.P,U4,7,A3_7*%
%TO.N,/A3*%
X470035000Y35634250D03*
%TO.P,U4,8,A2_8*%
%TO.N,/A2*%
X468765000Y35634250D03*
%TO.P,U4,9,A1_9*%
%TO.N,/A1*%
X467495000Y35634250D03*
%TO.P,U4,10,A0_10*%
%TO.N,/A0*%
X466225000Y35634250D03*
%TO.P,U4,11,Q0_11*%
%TO.N,/D0*%
X464955000Y35634250D03*
%TO.P,U4,12,Q1_12*%
%TO.N,/D1*%
X463685000Y35634250D03*
%TO.P,U4,13,Q2_13*%
%TO.N,/D2*%
X462415000Y35634250D03*
%TO.P,U4,14,GND_14*%
%TO.N,GND*%
X461145000Y35634250D03*
%TO.P,U4,15,Q3_15*%
%TO.N,/D3*%
X461145000Y46759250D03*
%TO.P,U4,16,Q4_16*%
%TO.N,/D4*%
X462415000Y46759250D03*
%TO.P,U4,17,Q5_17*%
%TO.N,/D5*%
X463685000Y46759250D03*
%TO.P,U4,18,Q6_18*%
%TO.N,/D6*%
X464955000Y46759250D03*
%TO.P,U4,19,Q7_19*%
%TO.N,/D7*%
X466225000Y46759250D03*
%TO.P,U4,20,~{CS}_20*%
%TO.N,Net-(U4-~{CS})*%
X467495000Y46759250D03*
%TO.P,U4,21,A10_21*%
%TO.N,/A10*%
X468765000Y46759250D03*
%TO.P,U4,22,~{OE}_22*%
%TO.N,/~{RD}*%
X470035000Y46759250D03*
%TO.P,U4,23,A11_23*%
%TO.N,/A11*%
X471305000Y46759250D03*
%TO.P,U4,24,A9_24*%
%TO.N,/A9*%
X472575000Y46759250D03*
%TO.P,U4,25,A8_25*%
%TO.N,/A8*%
X473845000Y46759250D03*
%TO.P,U4,26,A13_26*%
%TO.N,/A13*%
X475115000Y46759250D03*
%TO.P,U4,27,~{WE}_27*%
%TO.N,/~{WR}*%
X476385000Y46759250D03*
%TO.P,U4,28,VCC_28*%
%TO.N,/Power*%
X477655000Y46759250D03*
%TD*%
D17*
%TO.P,R5,1*%
%TO.N,/~{INT}*%
X473180000Y25159250D03*
D18*
%TO.P,R5,2*%
%TO.N,/Power*%
X465560000Y25159250D03*
%TD*%
D17*
%TO.P,R6,1*%
%TO.N,/Power*%
X430370000Y62559250D03*
D18*
%TO.P,R6,2*%
%TO.N,Net-(DS1-LED(+))*%
X437990000Y62559250D03*
%TD*%
D17*
%TO.P,R1,1*%
%TO.N,/~{BUSREQ}*%
X473170000Y21959250D03*
D18*
%TO.P,R1,2*%
%TO.N,/Power*%
X465550000Y21959250D03*
%TD*%
D21*
%TO.P,U5,1*%
%TO.N,/A15*%
X484715000Y55746750D03*
%TO.P,U5,2*%
%TO.N,/~{MREQ}*%
X485665000Y55746750D03*
%TO.P,U5,3,GND_3*%
%TO.N,GND*%
X486615000Y55746750D03*
%TO.P,U5,4*%
%TO.N,Net-(U3-~{CS})*%
X486615000Y53046750D03*
%TO.P,U5,5,VCC_5*%
%TO.N,+5V*%
X484715000Y53046750D03*
%TD*%
D28*
%TO.N,Net-(U2-PA3)*%
X445410000Y30959250D03*
%TO.N,/Power*%
X480370000Y7779250D03*
X477770000Y53596750D03*
%TO.N,Net-(U2-PA5)*%
X445410000Y38579250D03*
%TO.N,+5V*%
X500570000Y6559250D03*
%TO.N,GND*%
X461200000Y37196750D03*
X481870000Y10359250D03*
X470970000Y57959250D03*
X480345000Y35634250D03*
%TO.N,Net-(U2-PA4)*%
X445410000Y36039250D03*
%TO.N,Net-(U2-PA0)*%
X445410000Y23339250D03*
%TO.N,/~{RD}*%
X470000000Y51196750D03*
X489235000Y46759250D03*
X441570000Y51359250D03*
X488370000Y30559250D03*
%TO.N,/~{WR}*%
X492970000Y28159250D03*
X476385000Y53196750D03*
X495585000Y46759250D03*
%TO.N,/A0*%
X466225000Y38996750D03*
X485425000Y35634250D03*
X485370000Y7759250D03*
%TO.N,/A1*%
X486695000Y35634250D03*
X486370000Y5359250D03*
X467495000Y39396750D03*
%TO.N,/A2*%
X468765000Y39796750D03*
X487965000Y35634250D03*
X486970000Y2759250D03*
%TO.N,/A3*%
X487970000Y159250D03*
X470035000Y40196750D03*
X489235000Y35634250D03*
%TO.N,/A4*%
X488170000Y-2240750D03*
X471305000Y40596750D03*
X490505000Y35634250D03*
%TO.N,/A5*%
X491775000Y35634250D03*
X472575000Y40996750D03*
X489370000Y-4840750D03*
%TO.N,/A6*%
X473845000Y41396750D03*
X493045000Y35634250D03*
X490570000Y-7440750D03*
%TO.N,/A7*%
X494315000Y35634250D03*
X491370000Y-9840750D03*
X475115000Y41796750D03*
%TO.N,/A8*%
X473845000Y52396750D03*
X493045000Y46759250D03*
X490770000Y-12440750D03*
%TO.N,/A9*%
X491775000Y46759250D03*
X490170000Y-15040750D03*
X472575000Y51996750D03*
%TO.N,/A10*%
X468765000Y50796750D03*
X487370000Y-17540750D03*
X487965000Y46759250D03*
%TO.N,/A11*%
X471305000Y51596750D03*
X488770000Y-16940750D03*
X490505000Y46759250D03*
%TO.N,/A12*%
X476385000Y42196750D03*
X490770000Y-15640750D03*
X495585000Y35634250D03*
%TO.N,/A13*%
X490770000Y-13240750D03*
X475115000Y52796750D03*
X494315000Y46759250D03*
%TO.N,/A14*%
X477655000Y42596750D03*
X499970000Y-11240750D03*
X496855000Y35634250D03*
%TO.N,/A15*%
X484715000Y55746750D03*
%TO.N,/CLK*%
X491370000Y26559250D03*
X491570000Y-3440750D03*
X467062892Y29052142D03*
%TO.N,/D4*%
X483170000Y-2520750D03*
X462400000Y49196750D03*
X442770000Y49224892D03*
X481615000Y46759250D03*
%TO.N,/D3*%
X480345000Y46759250D03*
X482170000Y19250D03*
X461200000Y48596750D03*
X443370000Y48559250D03*
%TO.N,/D5*%
X442170000Y49821957D03*
X482885000Y46759250D03*
X463685000Y49596750D03*
X483770000Y2559250D03*
%TO.N,/D6*%
X484155000Y46759250D03*
X484370000Y5359250D03*
X464955000Y49996750D03*
%TO.N,/D2*%
X462400000Y37796750D03*
X481615000Y35634250D03*
X482943405Y9742091D03*
%TO.N,/D7*%
X485425000Y46759250D03*
X466225000Y50396750D03*
X485770000Y12759250D03*
%TO.N,/D0*%
X464955000Y38596750D03*
X484370000Y15359250D03*
X484155000Y35634250D03*
%TO.N,/D1*%
X483670000Y17799250D03*
X482885000Y35634250D03*
X463800000Y38196750D03*
%TO.N,/~{IORQ}*%
X479758166Y33259250D03*
X443370000Y47759250D03*
%TO.N,Net-(U2-PA1)*%
X445410000Y25879250D03*
%TO.N,Net-(U2-PA6)*%
X445410000Y41119250D03*
%TO.N,Net-(U2-PA7)*%
X445410000Y43659250D03*
%TO.N,Net-(U2-PA2)*%
X445410000Y28419250D03*
%TO.N,/RS LCD*%
X436170000Y25959250D03*
%TO.N,/R{slash}W LCD*%
X436720000Y28559250D03*
%TO.N,/E LCD*%
X439170000Y30959250D03*
%TO.N,/LCD4*%
X439690000Y33559250D03*
%TO.N,/LCD5*%
X440090000Y36159250D03*
%TO.N,/LCD6*%
X440490000Y38559250D03*
%TO.N,/LCD7*%
X440890000Y41159250D03*
%TD*%
%TO.N,Net-(U2-PA3)*%
D29*
X442020000Y-12583607D02*
X435520000Y-12583607D01*
%TO.N,/Power*%
X425457220Y65516750D02*
X429840000Y65516750D01*
X474220000Y-13290750D02*
X472870000Y-14640750D01*
X474192499Y42159250D02*
X470370000Y42159250D01*
X477655000Y46759250D02*
X477655000Y45621751D01*
X455980000Y-5819321D02*
X452515714Y-9283607D01*
X428870000Y22039250D02*
X430170000Y23339250D01*
X445410000Y20799250D02*
X449550000Y16659250D01*
X427070000Y58109250D02*
X430370000Y61409250D01*
X452515714Y-9283607D02*
X451620000Y-9283607D01*
X435520000Y-17083607D02*
X442020000Y-17083607D01*
X445120000Y-9283607D02*
X441970000Y-6133607D01*
X477655000Y53481750D02*
X477655000Y46759250D01*
X444410000Y20799250D02*
X441870000Y18259250D01*
X472870000Y-14640750D02*
X455994286Y-14640750D01*
X477770000Y53596750D02*
X477655000Y53481750D01*
X479080000Y6489250D02*
X476973654Y6489250D01*
X435470000Y-6033607D02*
X432370000Y-9133607D01*
X430370000Y62559250D02*
X429570001Y61759251D01*
X474220000Y-7083607D02*
X474220000Y-13290750D01*
X469365000Y34456198D02*
X466468052Y31559250D01*
X445120000Y-9283607D02*
X451620000Y-9283607D01*
X423495000Y63554530D02*
X425457220Y65516750D01*
X455980000Y-5819321D02*
X472955714Y-5819321D01*
X435470000Y-1333607D02*
X435470000Y-6033607D01*
X453500000Y18709250D02*
X465510000Y18709250D01*
X445120000Y-9283607D02*
X445120000Y-13983607D01*
X441870000Y18259250D02*
X430170000Y18259250D01*
X476060000Y5575596D02*
X476060000Y-3243607D01*
X445120000Y-13983607D02*
X442020000Y-17083607D01*
X472955714Y-5819321D02*
X473220000Y-6083607D01*
X466468052Y31559250D02*
X465570000Y31559250D01*
X430370000Y61409250D02*
X430370000Y62559250D01*
X445410000Y20799250D02*
X444410000Y20799250D01*
X470370000Y42159250D02*
X469365000Y41154250D01*
X441970000Y-6133607D02*
X441970000Y-1333607D01*
X476973654Y6489250D02*
X476060000Y5575596D01*
X428870000Y19559250D02*
X428870000Y22039250D01*
X431040000Y66716750D02*
X431040000Y67116750D01*
X429840000Y65516750D02*
X431040000Y66716750D01*
X449550000Y16659250D02*
X449550000Y14759250D01*
X477655000Y45621751D02*
X474192499Y42159250D01*
X449550000Y14759250D02*
X453500000Y18709250D01*
X476060000Y-3243607D02*
X473220000Y-6083607D01*
X423495000Y62663970D02*
X423495000Y63554530D01*
X432370000Y-9133607D02*
X425870000Y-9133607D01*
X430170000Y18259250D02*
X428870000Y19559250D01*
X435470000Y-1333607D02*
X441970000Y-1333607D01*
X455994286Y-14640750D02*
X455980000Y-14626464D01*
X424399719Y61759251D02*
X423495000Y62663970D01*
X480370000Y7779250D02*
X479080000Y6489250D01*
X469365000Y41154250D02*
X469365000Y34456198D01*
X429570001Y61759251D02*
X424399719Y61759251D01*
X473220000Y-6083607D02*
X474220000Y-7083607D01*
%TO.N,Net-(U2-PA5)*%
X462480000Y-10126464D02*
X455980000Y-10126464D01*
%TO.N,+5V*%
X497570000Y33294936D02*
X498595686Y32269250D01*
X486600000Y57396750D02*
X487240000Y56756750D01*
X497570000Y46044250D02*
X497570000Y33294936D01*
X487240000Y54666750D02*
X487140000Y54666750D01*
X459770000Y6809250D02*
X459770000Y5359250D01*
X469400000Y60796750D02*
X472800000Y57396750D01*
X500125686Y32269250D02*
X500370000Y32024936D01*
X467370000Y6809250D02*
X466770000Y7409250D01*
X496855000Y47267302D02*
X496855000Y46759250D01*
X464170000Y58666750D02*
X465250000Y59746750D01*
X464170000Y54461750D02*
X464170000Y58666750D01*
X460370000Y7409250D02*
X459770000Y6809250D01*
X467370000Y5359250D02*
X467370000Y6809250D01*
X500370000Y32024936D02*
X500370000Y6759250D01*
X487240000Y56756750D02*
X487240000Y54666750D01*
X487240000Y56756750D02*
X487365552Y56756750D01*
X465535000Y53096750D02*
X464170000Y54461750D01*
X465250000Y59746750D02*
X466300000Y60796750D01*
X486600000Y54126750D02*
X485795000Y54126750D01*
X487365552Y56756750D02*
X496855000Y47267302D01*
X498595686Y32269250D02*
X500125686Y32269250D01*
X466300000Y60796750D02*
X469400000Y60796750D01*
X487140000Y54666750D02*
X486600000Y54126750D01*
X500370000Y6759250D02*
X500570000Y6559250D01*
X466770000Y7409250D02*
X460370000Y7409250D01*
X472800000Y57396750D02*
X486600000Y57396750D01*
X496855000Y46759250D02*
X497570000Y46044250D01*
X485795000Y54126750D02*
X484715000Y53046750D01*
%TO.N,/~{BUSREQ}*%
X495610000Y20479250D02*
X498730000Y20479250D01*
X498730000Y20479250D02*
X498810000Y20559250D01*
X461420000Y9609250D02*
X466458478Y9609250D01*
X471120000Y19909250D02*
X473170000Y21959250D01*
X457770000Y5959250D02*
X461420000Y9609250D01*
X457770000Y5359250D02*
X457770000Y5959250D01*
X466458478Y9609250D02*
X471120000Y14270772D01*
X471120000Y14270772D02*
X471120000Y19909250D01*
%TO.N,GND*%
X470970000Y56996750D02*
X470315686Y56996750D01*
X461320000Y10909250D02*
X455770000Y5359250D01*
X469430000Y58637435D02*
X469195685Y58871750D01*
X467435000Y57331750D02*
X467950000Y57846750D01*
X470970000Y57959250D02*
X470970000Y56996750D01*
X443970000Y34939250D02*
X443970000Y49839250D01*
X466870000Y59421750D02*
X466870000Y59121750D01*
X452960000Y68716750D02*
X465000000Y68716750D01*
X457170000Y29999250D02*
X453670000Y33499250D01*
X469030000Y60371750D02*
X466870000Y60371750D01*
X430170000Y13179250D02*
X435940000Y7409250D01*
X480345000Y35634250D02*
X480345000Y33384250D01*
X443740000Y67116750D02*
X451360000Y67116750D01*
X469195685Y58871750D02*
X469030000Y58871750D01*
X486345000Y56996750D02*
X470970000Y56996750D01*
X481870000Y31859250D02*
X481870000Y10359250D01*
X469430000Y57882436D02*
X469430000Y58637435D01*
X435940000Y7409250D02*
X454249899Y7409250D01*
X467195000Y57846750D02*
X467950000Y57846750D01*
X461145000Y35634250D02*
X461145000Y37141750D01*
X469030000Y59421750D02*
X469030000Y60371750D01*
X466870000Y59121750D02*
X466870000Y58171750D01*
X480345000Y33384250D02*
X481870000Y31859250D01*
X467435000Y55796750D02*
X467435000Y57331750D01*
X443970000Y49839250D02*
X445410000Y51279250D01*
X470315686Y56996750D02*
X469430000Y57882436D01*
X461145000Y37141750D02*
X461200000Y37196750D01*
X445410000Y51279250D02*
X436890000Y59799250D01*
X495610000Y10319250D02*
X498730000Y10319250D01*
X465920000Y10909250D02*
X461320000Y10909250D01*
X430100000Y68716750D02*
X442140000Y68716750D01*
X436890000Y59799250D02*
X436890000Y63014885D01*
X498730000Y10319250D02*
X498810000Y10399250D01*
X453670000Y33499250D02*
X445410000Y33499250D01*
X422070000Y63640265D02*
X425546485Y67116750D01*
X486615000Y55746750D02*
X486615000Y56726750D01*
X455770000Y5889149D02*
X455770000Y5359250D01*
X466870000Y58171750D02*
X467195000Y57846750D01*
X454249899Y7409250D02*
X455770000Y5889149D01*
X469030000Y58871750D02*
X469030000Y59121750D01*
X439391865Y65516750D02*
X442140000Y65516750D01*
X486615000Y56726750D02*
X486345000Y56996750D01*
X469030000Y59121750D02*
X469030000Y59421750D01*
X428500000Y67116750D02*
X430100000Y68716750D01*
X425546485Y67116750D02*
X428500000Y67116750D01*
X436890000Y63014885D02*
X439391865Y65516750D01*
X422070000Y58109250D02*
X422070000Y63640265D01*
X442140000Y65516750D02*
X443740000Y67116750D01*
X445410000Y33499250D02*
X443970000Y34939250D01*
X451360000Y67116750D02*
X452960000Y68716750D01*
X466870000Y60371750D02*
X466870000Y59421750D01*
X442140000Y68716750D02*
X443740000Y67116750D01*
X465000000Y68716750D02*
X466600000Y67116750D01*
%TO.N,Net-(U2-PA4)*%
X462480000Y-1319321D02*
X455980000Y-1319321D01*
%TO.N,Net-(U2-PA0)*%
X441970000Y3166393D02*
X435470000Y3166393D01*
%TO.N,/~{RD}*%
X428870000Y47499250D02*
X428870000Y49613994D01*
X440300000Y50089250D02*
X441570000Y51359250D01*
X488370000Y30559250D02*
X488170000Y30759250D01*
X430170000Y46199250D02*
X428870000Y47499250D01*
X470000000Y46794250D02*
X470035000Y46759250D01*
X489835000Y33424250D02*
X489835000Y46159250D01*
X489835000Y46159250D02*
X489235000Y46759250D01*
X488170000Y30759250D02*
X488170000Y31759250D01*
X488170000Y31759250D02*
X489835000Y33424250D01*
X428870000Y49613994D02*
X429345256Y50089250D01*
X429345256Y50089250D02*
X440300000Y50089250D01*
X498810000Y30719250D02*
X495690000Y30719250D01*
X495690000Y30719250D02*
X495610000Y30639250D01*
X470000000Y51196750D02*
X470000000Y46794250D01*
%TO.N,/~{WR}*%
X498730000Y28099250D02*
X498810000Y28179250D01*
X496185000Y46159250D02*
X495585000Y46759250D01*
X494775000Y32438768D02*
X494775000Y32598564D01*
X495610000Y28099250D02*
X498730000Y28099250D01*
X476385000Y53196750D02*
X476385000Y46759250D01*
X492770000Y30433764D02*
X494775000Y32438768D01*
X492970000Y28159250D02*
X492770000Y28359250D01*
X494775000Y32598564D02*
X495550686Y33374250D01*
X496185000Y33374250D02*
X496185000Y46159250D01*
X492770000Y28359250D02*
X492770000Y30433764D01*
X495550686Y33374250D02*
X496185000Y33374250D01*
%TO.N,/~{BUSACK}*%
X495610000Y25559250D02*
X498730000Y25559250D01*
X498730000Y25559250D02*
X498810000Y25639250D01*
%TO.N,/~{WAIT}*%
X498730000Y23019250D02*
X498810000Y23099250D01*
X495610000Y23019250D02*
X498730000Y23019250D01*
%TO.N,/~{RESET}*%
X498730000Y17939250D02*
X498810000Y18019250D01*
X495610000Y17939250D02*
X498730000Y17939250D01*
%TO.N,/~{M1}*%
X494310000Y14099250D02*
X495610000Y15399250D01*
X430170000Y51279250D02*
X427290000Y51279250D01*
X498730000Y15399250D02*
X498810000Y15479250D01*
X494310000Y-12949279D02*
X494310000Y14099250D01*
X421970000Y-14040750D02*
X426840000Y-18910750D01*
X425370000Y49359250D02*
X425370000Y35359250D01*
X495610000Y15399250D02*
X498730000Y15399250D01*
X427290000Y51279250D02*
X425370000Y49359250D01*
X488348529Y-18910750D02*
X494310000Y-12949279D01*
X426840000Y-18910750D02*
X488348529Y-18910750D01*
X421970000Y31959250D02*
X421970000Y-14040750D01*
X425370000Y35359250D02*
X421970000Y31959250D01*
%TO.N,/~{RFSH}*%
X498730000Y12859250D02*
X498810000Y12939250D01*
X495610000Y12859250D02*
X498730000Y12859250D01*
%TO.N,/A0*%
X466225000Y38996750D02*
X466225000Y35634250D01*
X495610000Y7779250D02*
X498730000Y7779250D01*
X485170000Y33193565D02*
X485170000Y18844835D01*
X485470000Y17053663D02*
X485370000Y16953663D01*
X485425000Y35634250D02*
X485425000Y33448564D01*
X485370000Y16953663D02*
X485370000Y14945035D01*
X498730000Y7779250D02*
X498810000Y7859250D01*
X445410000Y46199250D02*
X459022500Y46199250D01*
X459022500Y46199250D02*
X466225000Y38996750D01*
X485470000Y18544834D02*
X485470000Y17053663D01*
X485370000Y14945035D02*
X485170000Y14745035D01*
X485170000Y14745035D02*
X485170000Y7959250D01*
X485170000Y18844835D02*
X485470000Y18544834D01*
X485170000Y7959250D02*
X485370000Y7759250D01*
X485425000Y33448564D02*
X485170000Y33193565D01*
%TO.N,/A1*%
X486270000Y18876204D02*
X485970000Y19176205D01*
X498730000Y5239250D02*
X498810000Y5319250D01*
X486018529Y12159250D02*
X486370000Y12510721D01*
X485970000Y5759250D02*
X485970000Y12159250D01*
X486695000Y33559250D02*
X486695000Y33434250D01*
X486370000Y12510721D02*
X486370000Y13007779D01*
X466729448Y39396750D02*
X457386948Y48739250D01*
X486370000Y5359250D02*
X485970000Y5759250D01*
X485970000Y32559250D02*
X486695000Y33284250D01*
X457386948Y48739250D02*
X445410000Y48739250D01*
X486370000Y13007779D02*
X486170000Y13207779D01*
X467495000Y39396750D02*
X466729448Y39396750D01*
X486170000Y13207779D02*
X486170000Y16622291D01*
X485970000Y12159250D02*
X486018529Y12159250D01*
X467495000Y39396750D02*
X467495000Y35634250D01*
X486695000Y35634250D02*
X486695000Y33559250D01*
X486270000Y16722291D02*
X486270000Y18876204D01*
X495610000Y5239250D02*
X498730000Y5239250D01*
X486695000Y33284250D02*
X486695000Y33559250D01*
X486170000Y16622291D02*
X486270000Y16722291D01*
X485970000Y19176205D02*
X485970000Y32559250D01*
%TO.N,/A2*%
X487295000Y34964250D02*
X487965000Y35634250D01*
X487295000Y34456198D02*
X487295000Y34964250D01*
X498730000Y2699250D02*
X498810000Y2779250D01*
X487095000Y34256198D02*
X487295000Y34456198D01*
X486970000Y32993565D02*
X487095000Y33118564D01*
X487095000Y33118564D02*
X487095000Y34256198D01*
X468765000Y39796750D02*
X468765000Y35634250D01*
X486970000Y2759250D02*
X486970000Y32993565D01*
X495610000Y2699250D02*
X498730000Y2699250D01*
%TO.N,/A3*%
X495610000Y159250D02*
X498730000Y159250D01*
X487970000Y3173464D02*
X487770000Y3373465D01*
X487770000Y3373465D02*
X487770000Y31959250D01*
X489235000Y33424250D02*
X489235000Y35634250D01*
X498730000Y159250D02*
X498810000Y239250D01*
X470035000Y40196750D02*
X470035000Y35634250D01*
X487770000Y31959250D02*
X489235000Y33424250D01*
X487970000Y159250D02*
X487970000Y3173464D01*
%TO.N,/A4*%
X488570000Y407779D02*
X488370000Y607779D01*
X488170000Y-2240750D02*
X488170000Y-440750D01*
X488218529Y-440750D02*
X488570000Y-89279D01*
X488618529Y31159250D02*
X488570000Y31159250D01*
X488570000Y31324936D02*
X490505000Y33259936D01*
X488970000Y30807779D02*
X488618529Y31159250D01*
X488170000Y29959250D02*
X488618529Y29959250D01*
X471305000Y40596750D02*
X471305000Y35634250D01*
X488170000Y-440750D02*
X488218529Y-440750D01*
X490505000Y33259936D02*
X490505000Y35634250D01*
X488618529Y29959250D02*
X488970000Y30310721D01*
X488170000Y3539149D02*
X488170000Y29959250D01*
X488370000Y607779D02*
X488370000Y3339149D01*
X488970000Y30310721D02*
X488970000Y30807779D01*
X498730000Y-2380750D02*
X498810000Y-2300750D01*
X488370000Y3339149D02*
X488170000Y3539149D01*
X488570000Y-89279D02*
X488570000Y407779D01*
X488570000Y31159250D02*
X488570000Y31324936D01*
X495610000Y-2380750D02*
X498730000Y-2380750D01*
%TO.N,/A5*%
X489370000Y739151D02*
X489170000Y939151D01*
X491570000Y35429250D02*
X491775000Y35634250D01*
X488970000Y3870521D02*
X488970000Y28984351D01*
X489170000Y939151D02*
X489170000Y3670521D01*
X495610000Y-4920750D02*
X498730000Y-4920750D01*
X489770000Y31393565D02*
X491570000Y33193565D01*
X491570000Y33193565D02*
X491570000Y35429250D01*
X472575000Y40996750D02*
X472575000Y35634250D01*
X489770000Y29784351D02*
X489770000Y31393565D01*
X498730000Y-4920750D02*
X498810000Y-4840750D01*
X489170000Y3670521D02*
X488970000Y3870521D01*
X488970000Y28984351D02*
X489770000Y29784351D01*
X489370000Y-4840750D02*
X489370000Y739151D01*
%TO.N,/A6*%
X490570000Y29452981D02*
X490570000Y31062192D01*
X495610000Y-7460750D02*
X498730000Y-7460750D01*
X489970000Y4001893D02*
X489770000Y4201893D01*
X490370000Y-4426535D02*
X490170000Y-4226536D01*
X489970000Y1270523D02*
X489970000Y4001893D01*
X489770000Y28652981D02*
X490570000Y29452981D01*
X473845000Y41396750D02*
X473845000Y35634250D01*
X490570000Y31062192D02*
X492775000Y33267193D01*
X492775000Y35364250D02*
X493045000Y35634250D01*
X490370000Y-7240750D02*
X490370000Y-4426535D01*
X490170000Y-4226536D02*
X490170000Y1070523D01*
X498730000Y-7460750D02*
X498810000Y-7380750D01*
X492775000Y33267193D02*
X492775000Y35364250D01*
X490570000Y-7440750D02*
X490370000Y-7240750D01*
X490170000Y1070523D02*
X489970000Y1270523D01*
X489770000Y4201893D02*
X489770000Y28652981D01*
%TO.N,/A7*%
X491169999Y-4095163D02*
X490970000Y-3895164D01*
X490570000Y28321609D02*
X491370000Y29121611D01*
X491370000Y-9840750D02*
X491170000Y-9640750D01*
X498730000Y-10000750D02*
X498810000Y-9920750D01*
X490770000Y4333265D02*
X490570000Y4533265D01*
X490770000Y1601895D02*
X490770000Y4333265D01*
X491170000Y-6626536D02*
X491169999Y-4095163D01*
X494315000Y33904250D02*
X494315000Y35634250D01*
X491570000Y-7026535D02*
X491170000Y-6626536D01*
X493575000Y33164250D02*
X494315000Y33904250D01*
X490970000Y1401895D02*
X490770000Y1601895D01*
X491370000Y30730820D02*
X493575000Y32935823D01*
X475115000Y41796750D02*
X475115000Y35634250D01*
X491370000Y29121611D02*
X491370000Y30730820D01*
X490970000Y-3895164D02*
X490970000Y1401895D01*
X491170000Y-9640750D02*
X491170000Y-8254964D01*
X490570000Y4533265D02*
X490570000Y28321609D01*
X491170000Y-8254964D02*
X491570000Y-7854964D01*
X495610000Y-10000750D02*
X498730000Y-10000750D01*
X491570000Y-7854964D02*
X491570000Y-7026535D01*
X493575000Y32935823D02*
X493575000Y33164250D01*
%TO.N,/A8*%
X490970000Y30896506D02*
X493175000Y33101508D01*
X473845000Y52396750D02*
X473845000Y46759250D01*
X490570000Y1236209D02*
X490370000Y1436209D01*
X490370000Y4167579D02*
X490170000Y4367579D01*
X493715000Y33904250D02*
X493715000Y46089250D01*
X498730000Y-12540750D02*
X498810000Y-12460750D01*
X490570000Y-4060850D02*
X490570000Y1236209D01*
X495610000Y-12540750D02*
X498730000Y-12540750D01*
X493175000Y33101508D02*
X493175000Y33364250D01*
X493715000Y46089250D02*
X493045000Y46759250D01*
X490770000Y-12440750D02*
X490770000Y-8040750D01*
X490818529Y-8040750D02*
X491170000Y-7689279D01*
X490170000Y28487295D02*
X490970000Y29287296D01*
X490170000Y4367579D02*
X490170000Y28487295D01*
X490370000Y1436209D02*
X490370000Y4167579D01*
X491170000Y-7689279D02*
X491170000Y-7192221D01*
X490770000Y-6840750D02*
X490769999Y-4260849D01*
X490770000Y-8040750D02*
X490818529Y-8040750D01*
X490818529Y-6840750D02*
X490770000Y-6840750D01*
X490769999Y-4260849D02*
X490570000Y-4060850D01*
X491170000Y-7192221D02*
X490818529Y-6840750D01*
X490970000Y29287296D02*
X490970000Y30896506D01*
X493175000Y33364250D02*
X493715000Y33904250D01*
%TO.N,/A9*%
X489770000Y-4392221D02*
X489770000Y904837D01*
X489770000Y904837D02*
X489570000Y1104837D01*
X489570000Y1104837D02*
X489570000Y3836207D01*
X472575000Y51996750D02*
X472575000Y46759250D01*
X489970000Y-14840750D02*
X489970000Y-4592221D01*
X490170000Y29618666D02*
X490170000Y31227880D01*
X498810000Y-15000750D02*
X495690000Y-15000750D01*
X492375000Y46159250D02*
X491775000Y46759250D01*
X495690000Y-15000750D02*
X495610000Y-15080750D01*
X489370000Y4036207D02*
X489370000Y28818666D01*
X489970000Y-4592221D02*
X489770000Y-4392221D01*
X489570000Y3836207D02*
X489370000Y4036207D01*
X490170000Y-15040750D02*
X489970000Y-14840750D01*
X490170000Y31227880D02*
X492375000Y33432878D01*
X489370000Y28818666D02*
X490170000Y29618666D01*
X492375000Y33432878D02*
X492375000Y46159250D01*
%TO.N,/A10*%
X488635000Y46089250D02*
X487965000Y46759250D01*
X487370000Y-17540750D02*
X487370000Y2310721D01*
X487370000Y3207779D02*
X487370000Y32159250D01*
X495690000Y-17540750D02*
X495610000Y-17620750D01*
X488635000Y33424250D02*
X488635000Y46089250D01*
X498810000Y-17540750D02*
X495690000Y-17540750D01*
X487570000Y3007779D02*
X487370000Y3207779D01*
X487370000Y32159250D02*
X488635000Y33424250D01*
X487370000Y2310721D02*
X487570000Y2510721D01*
X468765000Y50796750D02*
X468765000Y46759250D01*
X487570000Y2510721D02*
X487570000Y3007779D01*
%TO.N,/A11*%
X488784215Y29559250D02*
X489370000Y30145036D01*
X491170000Y46094250D02*
X490505000Y46759250D01*
X488970000Y573465D02*
X488770000Y773465D01*
X471305000Y51596750D02*
X471305000Y46759250D01*
X491170000Y33359250D02*
X491170000Y46094250D01*
X489370000Y30973465D02*
X489077108Y31266358D01*
X488770000Y-454964D02*
X488970000Y-254964D01*
X488970000Y-254964D02*
X488970000Y573465D01*
X477210000Y-17760750D02*
X480230000Y-17760750D01*
X488770000Y3504835D02*
X488570000Y3704835D01*
X489077108Y31266358D02*
X491170000Y33359250D01*
X488770000Y773465D02*
X488770000Y3504835D01*
X488770000Y-16940750D02*
X488770000Y-454964D01*
X480230000Y-17760750D02*
X480370000Y-17620750D01*
X488570000Y3704835D02*
X488570000Y29559250D01*
X488570000Y29559250D02*
X488784215Y29559250D01*
X489370000Y30145036D02*
X489370000Y30973465D01*
%TO.N,/A12*%
X493170000Y31399453D02*
X494375000Y32604453D01*
X494375000Y32604453D02*
X494375000Y32764250D01*
X493170000Y-13240750D02*
X493170000Y27559250D01*
X493170000Y27559250D02*
X492721471Y27559250D01*
X492370000Y30599449D02*
X493170000Y31399450D01*
X492370000Y27910721D02*
X492370000Y30599449D01*
X494375000Y32764250D02*
X495585000Y33974250D01*
X490770000Y-15640750D02*
X493170000Y-13240750D01*
X493170000Y31399450D02*
X493170000Y31399453D01*
X480230000Y-15220750D02*
X480370000Y-15080750D01*
X477210000Y-15220750D02*
X480230000Y-15220750D01*
X495585000Y33974250D02*
X495585000Y35634250D01*
X476385000Y42196750D02*
X476385000Y35634250D01*
X492721471Y27559250D02*
X492370000Y27910721D01*
%TO.N,/A13*%
X492770000Y31565136D02*
X492770000Y31565139D01*
X492555785Y27159250D02*
X491970000Y27745036D01*
X494970000Y46104250D02*
X494315000Y46759250D01*
X475115000Y52796750D02*
X475115000Y46759250D01*
X492770000Y31565139D02*
X493975000Y32770138D01*
X477210000Y-12680750D02*
X480230000Y-12680750D01*
X493975000Y32770138D02*
X493975000Y32964250D01*
X493975000Y32964250D02*
X494970000Y33959250D01*
X492770000Y27159250D02*
X492555785Y27159250D01*
X480230000Y-12680750D02*
X480370000Y-12540750D01*
X491970000Y30765135D02*
X492770000Y31565136D01*
X494970000Y33959250D02*
X494970000Y46104250D01*
X490770000Y-13240750D02*
X490970000Y-13240750D01*
X492770000Y-11440750D02*
X492770000Y27159250D01*
X491970000Y27745036D02*
X491970000Y30765135D01*
X490970000Y-13240750D02*
X492770000Y-11440750D01*
%TO.N,/A14*%
X477210000Y-10140750D02*
X480230000Y-10140750D01*
X496855000Y33444250D02*
X498430000Y31869250D01*
X480230000Y-10140750D02*
X480370000Y-10000750D01*
X499970000Y31859250D02*
X499970000Y-11240750D01*
X496855000Y35634250D02*
X496855000Y33444250D01*
X477655000Y42596750D02*
X477655000Y35634250D01*
X498430000Y31869250D02*
X499960000Y31869250D01*
X499960000Y31869250D02*
X499970000Y31859250D01*
%TO.N,/A15*%
X468275000Y58471750D02*
X469030000Y58471750D01*
X484665000Y55796750D02*
X484715000Y55746750D01*
X480230000Y-7600750D02*
X480370000Y-7460750D01*
X469030000Y57716750D02*
X470950000Y55796750D01*
X470950000Y55796750D02*
X484665000Y55796750D01*
X467950000Y58796750D02*
X468275000Y58471750D01*
X477210000Y-7600750D02*
X480230000Y-7600750D01*
X469030000Y58471750D02*
X469030000Y57716750D01*
%TO.N,/CLK*%
X467062892Y29052142D02*
X466477108Y29052142D01*
X441370000Y27759250D02*
X434410000Y20799250D01*
X491370000Y-3240750D02*
X491570000Y-3440750D01*
X491370000Y26559250D02*
X491370000Y-3240750D01*
X464704315Y29459250D02*
X464144315Y28899250D01*
X466477108Y29052142D02*
X466070000Y29459250D01*
X434410000Y20799250D02*
X430170000Y20799250D01*
X449550000Y29999250D02*
X447400000Y32149250D01*
X466070000Y29459250D02*
X464704315Y29459250D01*
X441370000Y31159250D02*
X441370000Y27759250D01*
X477210000Y-5060750D02*
X480230000Y-5060750D01*
X464144315Y28899250D02*
X450650000Y28899250D01*
X480230000Y-5060750D02*
X480370000Y-4920750D01*
X447400000Y32149250D02*
X442360000Y32149250D01*
X450650000Y28899250D02*
X449550000Y29999250D01*
X442360000Y32149250D02*
X441370000Y31159250D01*
%TO.N,/D4*%
X483270000Y10264025D02*
X483270000Y10939149D01*
X483070002Y32356300D02*
X483070000Y32356302D01*
X483170000Y-2520750D02*
X483170000Y9142091D01*
X477210000Y-2520750D02*
X480230000Y-2520750D01*
X430170000Y56359250D02*
X438915784Y56359250D01*
X462415000Y49181750D02*
X462400000Y49196750D01*
X442770000Y52505034D02*
X442770000Y49224892D01*
X483543405Y9990620D02*
X483270000Y10264025D01*
X462415000Y46759250D02*
X462415000Y49181750D01*
X438915784Y56359250D02*
X442770000Y52505034D01*
X483070000Y32356302D02*
X483070000Y32480622D01*
X483170000Y11059250D02*
X483070000Y11159250D01*
X482215000Y33335622D02*
X482215000Y46159250D01*
X483270000Y10939149D02*
X483170000Y11039149D01*
X483070000Y32480622D02*
X482215000Y33335622D01*
X482215000Y46159250D02*
X481615000Y46759250D01*
X483170000Y11039149D02*
X483170000Y11059250D01*
X483070000Y32190614D02*
X483070002Y32356300D01*
X480230000Y-2520750D02*
X480370000Y-2380750D01*
X483070000Y11159250D02*
X483070000Y32190614D01*
X483191934Y9142091D02*
X483543405Y9493562D01*
X483543405Y9493562D02*
X483543405Y9990620D01*
X483170000Y9142091D02*
X483191934Y9142091D01*
%TO.N,/D3*%
X482270000Y32024935D02*
X482170000Y32124936D01*
X436941470Y58899250D02*
X430170000Y58899250D01*
X481015000Y33404250D02*
X481015000Y46089250D01*
X480230000Y19250D02*
X480370000Y159250D01*
X482170000Y19250D02*
X482170000Y9810721D01*
X482470000Y10110721D02*
X482470000Y10607779D01*
X482170000Y9810721D02*
X482470000Y10110721D01*
X461145000Y48541750D02*
X461200000Y48596750D01*
X443370000Y52470720D02*
X436941470Y58899250D01*
X482270000Y10807779D02*
X482270000Y32024935D01*
X482470000Y10607779D02*
X482270000Y10807779D01*
X461145000Y46759250D02*
X461145000Y48541750D01*
X482170000Y32124936D02*
X482170000Y32249250D01*
X477210000Y19250D02*
X480230000Y19250D01*
X443370000Y48559250D02*
X443370000Y52470720D01*
X481015000Y46089250D02*
X480345000Y46759250D01*
X482170000Y32249250D02*
X481015000Y33404250D01*
%TO.N,/D5*%
X482885000Y46759250D02*
X483555000Y46089250D01*
X483555000Y33126996D02*
X483870000Y32811991D01*
X440890098Y53819250D02*
X442370000Y52339348D01*
X483770000Y10329711D02*
X483943405Y10156305D01*
X483870004Y32687660D02*
X483869998Y31693556D01*
X483770000Y9154472D02*
X483770000Y2559250D01*
X484270000Y18047779D02*
X484270000Y17550721D01*
X480230000Y2559250D02*
X480370000Y2699250D01*
X483869998Y31693556D02*
X483870000Y18399250D01*
X484270000Y17550721D02*
X483918529Y17199250D01*
X442370000Y50021957D02*
X442170000Y49821957D01*
X483870000Y18399250D02*
X483918529Y18399250D01*
X483943405Y10156305D02*
X483943405Y9327876D01*
X483943405Y9327876D02*
X483770000Y9154472D01*
X430170000Y53819250D02*
X440890098Y53819250D01*
X477210000Y2559250D02*
X480230000Y2559250D01*
X483918529Y18399250D02*
X484270000Y18047779D01*
X483918529Y17199250D02*
X483770000Y17199250D01*
X442370000Y52339348D02*
X442370000Y50021957D01*
X483870000Y32687670D02*
X483870004Y32687660D01*
X483555000Y46089250D02*
X483555000Y33126996D01*
X463685000Y49596750D02*
X463685000Y46759250D01*
X483870000Y32811991D02*
X483870000Y32687670D01*
X483770000Y17199250D02*
X483770000Y10329711D01*
%TO.N,/D6*%
X484970000Y17119349D02*
X484970000Y15110721D01*
X477210000Y5099250D02*
X480230000Y5099250D01*
X484770000Y14910721D02*
X484770000Y5759250D01*
X484970000Y15110721D02*
X484770000Y14910721D01*
X485070000Y18379149D02*
X485070000Y17219349D01*
X484155000Y46759250D02*
X484825000Y46089250D01*
X484825000Y33414250D02*
X484770000Y33359250D01*
X484770000Y33359250D02*
X484770000Y18679149D01*
X484770000Y5759250D02*
X484370000Y5359250D01*
X485070000Y17219349D02*
X484970000Y17119349D01*
X484825000Y46089250D02*
X484825000Y33414250D01*
X461132500Y53819250D02*
X445410000Y53819250D01*
X480230000Y5099250D02*
X480370000Y5239250D01*
X464955000Y49996750D02*
X464955000Y46759250D01*
X484770000Y18679149D02*
X485070000Y18379149D01*
X464955000Y49996750D02*
X461132500Y53819250D01*
%TO.N,/D2*%
X465555000Y43855279D02*
X468165000Y41245279D01*
X482670000Y32190618D02*
X482570000Y32290620D01*
X462415000Y34496751D02*
X462415000Y35634250D01*
X462715001Y34196750D02*
X462415000Y34496751D01*
X482870000Y9999250D02*
X482870000Y10773464D01*
X482870000Y10773464D02*
X482670000Y10973465D01*
X460631029Y55169250D02*
X465555000Y50245279D01*
X445410000Y58899250D02*
X444110000Y57599250D01*
X482570000Y32290620D02*
X482570000Y32414935D01*
X444110000Y57599250D02*
X444110000Y55484506D01*
X444425256Y55169250D02*
X460631029Y55169250D01*
X482943405Y9742091D02*
X482943405Y9925845D01*
X462415000Y37781750D02*
X462400000Y37796750D01*
X468165000Y41245279D02*
X468165000Y34526198D01*
X482943405Y9925845D02*
X482870000Y9999250D01*
X480230000Y10179250D02*
X480370000Y10319250D01*
X482570000Y32414935D02*
X481615000Y33369936D01*
X462415000Y35634250D02*
X462415000Y37781750D01*
X444110000Y55484506D02*
X444425256Y55169250D01*
X477210000Y10179250D02*
X480230000Y10179250D01*
X467835552Y34196750D02*
X462715001Y34196750D01*
X465555000Y50245279D02*
X465555000Y43855279D01*
X481615000Y33369936D02*
X481615000Y35634250D01*
X482670000Y10973465D02*
X482670000Y32190618D01*
X468165000Y34526198D02*
X467835552Y34196750D01*
%TO.N,/D7*%
X485570000Y32724935D02*
X485570000Y19010520D01*
X485570000Y12959250D02*
X485770000Y12759250D01*
X485425000Y46759250D02*
X486095000Y46089250D01*
X466225000Y50396750D02*
X466225000Y46759250D01*
X445410000Y56359250D02*
X460262500Y56359250D01*
X485570000Y19010520D02*
X485870000Y18710519D01*
X460262500Y56359250D02*
X466225000Y50396750D01*
X477210000Y12719250D02*
X480230000Y12719250D01*
X485870000Y16887977D02*
X485770000Y16787977D01*
X485770000Y14779349D02*
X485570000Y14579349D01*
X485770000Y16787977D02*
X485770000Y14779349D01*
X486095000Y33249936D02*
X485570000Y32724935D01*
X480230000Y12719250D02*
X480370000Y12859250D01*
X485570000Y14579349D02*
X485570000Y12959250D01*
X486095000Y46089250D02*
X486095000Y33249936D01*
X485870000Y18710519D02*
X485870000Y16887977D01*
%TO.N,/D0*%
X484170000Y33077678D02*
X484370000Y32877678D01*
X484155000Y35634250D02*
X484155000Y33092681D01*
X462113971Y38959250D02*
X460545000Y37390279D01*
X460545000Y34384250D02*
X464970000Y29959250D01*
X453390000Y13179250D02*
X445410000Y13179250D01*
X484670000Y17385035D02*
X484170000Y16885035D01*
X484155000Y33092681D02*
X484170000Y33077681D01*
X464592500Y38959250D02*
X462113971Y38959250D01*
X457320000Y17109250D02*
X453390000Y13179250D01*
X484170000Y16885035D02*
X484170000Y15559250D01*
X484170000Y33077681D02*
X484170000Y33077678D01*
X464955000Y38596750D02*
X464955000Y35634250D01*
X466754314Y17109250D02*
X457320000Y17109250D01*
X467004314Y29959250D02*
X467770000Y29193564D01*
X484670000Y18213463D02*
X484670000Y17385035D01*
X467770000Y29193564D02*
X467770000Y18124936D01*
X477210000Y15259250D02*
X480230000Y15259250D01*
X467770000Y18124936D02*
X466754314Y17109250D01*
X484370000Y32877678D02*
X484370000Y18513463D01*
X464970000Y29959250D02*
X467004314Y29959250D01*
X480230000Y15259250D02*
X480370000Y15399250D01*
X484170000Y15559250D02*
X484370000Y15359250D01*
X484370000Y18513463D02*
X484670000Y18213463D01*
X464955000Y38596750D02*
X464592500Y38959250D01*
X460545000Y37390279D02*
X460545000Y34384250D01*
%TO.N,/D1*%
X445410000Y10639250D02*
X455250000Y10639250D01*
X483670000Y17799250D02*
X483470000Y17999250D01*
X462151471Y38396750D02*
X463600000Y38396750D01*
X461800000Y38045279D02*
X462151471Y38396750D01*
X466920000Y16709250D02*
X468170000Y17959250D01*
X467170000Y30359250D02*
X465214365Y30359250D01*
X463600000Y38396750D02*
X463800000Y38196750D01*
X463685000Y35634250D02*
X463685000Y38081750D01*
X468170000Y29359250D02*
X467170000Y30359250D01*
X483470000Y32190612D02*
X483470002Y32190614D01*
X483470004Y32521980D02*
X483470000Y32521988D01*
X483470002Y32190614D02*
X483470004Y32521980D01*
X455250000Y10639250D02*
X461320000Y16709250D01*
X483470000Y32646308D02*
X482885000Y33231308D01*
X483470000Y32521988D02*
X483470000Y32646308D01*
X483470000Y17999250D02*
X483470000Y32190612D01*
X461800000Y33773615D02*
X461800000Y38045279D01*
X477210000Y17799250D02*
X480230000Y17799250D01*
X465214365Y30359250D02*
X461800000Y33773615D01*
X480230000Y17799250D02*
X480370000Y17939250D01*
X482885000Y33231308D02*
X482885000Y35634250D01*
X468170000Y17959250D02*
X468170000Y29359250D01*
X463685000Y38081750D02*
X463800000Y38196750D01*
X461320000Y16709250D02*
X466920000Y16709250D01*
%TO.N,/~{INT}*%
X477210000Y20339250D02*
X480230000Y20339250D01*
X480230000Y20339250D02*
X480370000Y20479250D01*
X431625256Y7009250D02*
X449390101Y7009250D01*
X453440101Y2959250D02*
X474770000Y2959250D01*
X449390101Y7009250D02*
X453440101Y2959250D01*
X430170000Y15719250D02*
X428870000Y14419250D01*
X428870000Y14419250D02*
X428870000Y9764506D01*
X428870000Y9764506D02*
X431625256Y7009250D01*
X474970000Y18099250D02*
X477210000Y20339250D01*
X474970000Y3159250D02*
X474970000Y18099250D01*
X474770000Y2959250D02*
X474970000Y3159250D01*
%TO.N,/~{NMI}*%
X477210000Y22879250D02*
X480230000Y22879250D01*
X480230000Y22879250D02*
X480370000Y23019250D01*
%TO.N,/~{HALT}*%
X480230000Y25419250D02*
X480370000Y25559250D01*
X477210000Y25419250D02*
X480230000Y25419250D01*
%TO.N,/~{MREQ}*%
X485565000Y54666750D02*
X479170000Y54666750D01*
X485665000Y54766750D02*
X485565000Y54666750D01*
X466485000Y55041750D02*
X466485000Y55796750D01*
X477210000Y27959250D02*
X480230000Y27959250D01*
X485665000Y55746750D02*
X485665000Y54766750D01*
X479170000Y54666750D02*
X466860000Y54666750D01*
X480230000Y27959250D02*
X480370000Y28099250D01*
X479170000Y34085596D02*
X479170000Y54666750D01*
X466860000Y54666750D02*
X466485000Y55041750D01*
X476060000Y29109250D02*
X476060000Y30975596D01*
X477210000Y27959250D02*
X476060000Y29109250D01*
X476060000Y30975596D02*
X479170000Y34085596D01*
%TO.N,/~{IORQ}*%
X480370000Y32647416D02*
X480370000Y30639250D01*
X431150000Y47759250D02*
X443370000Y47759250D01*
X480230000Y30499250D02*
X480370000Y30639250D01*
X430170000Y48739250D02*
X431150000Y47759250D01*
X479758166Y33259250D02*
X480370000Y32647416D01*
X477210000Y30499250D02*
X480230000Y30499250D01*
%TO.N,Net-(U2-PA1)*%
X432370000Y-4633607D02*
X425870000Y-4633607D01*
%TO.N,Net-(U2-PA6)*%
X473220000Y-1583607D02*
X466720000Y-1583607D01*
%TO.N,Net-(U2-PA7)*%
X472870000Y-10140750D02*
X466370000Y-10140750D01*
%TO.N,Net-(U2-PA2)*%
X445120000Y-4783607D02*
X451620000Y-4783607D01*
%TO.N,Net-(DS1-VO)*%
X424570000Y63109250D02*
X425345000Y63884250D01*
X425345000Y63884250D02*
X430347500Y63884250D01*
X430347500Y63884250D02*
X433580000Y67116750D01*
%TO.N,/RS LCD*%
X436090000Y25879250D02*
X430170000Y25879250D01*
X436170000Y25959250D02*
X436090000Y25879250D01*
%TO.N,/R{slash}W LCD*%
X436030000Y28419250D02*
X430170000Y28419250D01*
X436720000Y28559250D02*
X436170000Y28559250D01*
X436170000Y28559250D02*
X436030000Y28419250D01*
%TO.N,/E LCD*%
X439170000Y30959250D02*
X430170000Y30959250D01*
%TO.N,/LCD4*%
X439630000Y33499250D02*
X430170000Y33499250D01*
X439690000Y33559250D02*
X439630000Y33499250D01*
%TO.N,/LCD5*%
X439970000Y36039250D02*
X430170000Y36039250D01*
X440090000Y36159250D02*
X439970000Y36039250D01*
%TO.N,/LCD6*%
X440170000Y38559250D02*
X440150000Y38579250D01*
X440490000Y38559250D02*
X440170000Y38559250D01*
X440150000Y38579250D02*
X430170000Y38579250D01*
%TO.N,/LCD7*%
X440330000Y41119250D02*
X430170000Y41119250D01*
X440370000Y41159250D02*
X440330000Y41119250D01*
X440890000Y41159250D02*
X440370000Y41159250D01*
%TO.N,Net-(DS1-LED(+))*%
X459502500Y62559250D02*
X437990000Y62559250D01*
X464060000Y67116750D02*
X459502500Y62559250D01*
%TO.N,Net-(U6-Pad4)*%
X465250000Y56081750D02*
X465535000Y55796750D01*
X465250000Y57846750D02*
X465250000Y56081750D01*
%TO.N,Net-(U4-~{CS})*%
X467435000Y46819250D02*
X467495000Y46759250D01*
X467435000Y53096750D02*
X467435000Y46819250D01*
%TO.N,Net-(U3-~{CS})*%
X486615000Y53046750D02*
X486615000Y46839250D01*
X486615000Y46839250D02*
X486695000Y46759250D01*
%TD*%
M02*
