%TF.GenerationSoftware,KiCad,Pcbnew,10.0.1*%
%TF.CreationDate,2026-08-15T10:22:26+08:00*%
%TF.ProjectId,z80badgev2,7a383062-6164-4676-9576-322e6b696361,rev?*%
%TF.SameCoordinates,Original*%
%TF.FileFunction,Legend,Bot*%
%TF.FilePolarity,Positive*%
%FSLAX46Y46*%
G04 Gerber Fmt 4.6, Leading zero omitted, Abs format (unit mm)*
G04 Created by KiCad (PCBNEW 10.0.1) date 2026-08-15 10:22:26*
%MOMM*%
%LPD*%
G01*
G04 APERTURE LIST*
%ADD10C,0.150000*%
%ADD11C,0.187500*%
%ADD12C,0.120000*%
%ADD13C,0.200000*%
G04 APERTURE END LIST*
D10*
G36*
X501728491Y67481500D02*
G01*
X501728491Y67551983D01*
X501272130Y67551983D01*
X501272130Y67481500D01*
X501728491Y67481500D01*
G37*
G36*
X501128729Y67481500D02*
G01*
X501128729Y67551983D01*
X500672367Y67551983D01*
X500672367Y67481500D01*
X501128729Y67481500D01*
G37*
G36*
X500528966Y67481500D02*
G01*
X500528966Y67551983D01*
X500072604Y67551983D01*
X500072604Y67481500D01*
X500528966Y67481500D01*
G37*
G36*
X499929203Y67481500D02*
G01*
X499929203Y67551983D01*
X499472841Y67551983D01*
X499472841Y67481500D01*
X499929203Y67481500D01*
G37*
G36*
X499329440Y67481500D02*
G01*
X499329440Y67551983D01*
X498873079Y67551983D01*
X498873079Y67481500D01*
X499329440Y67481500D01*
G37*
G36*
X498729678Y67481500D02*
G01*
X498729678Y67551983D01*
X498273316Y67551983D01*
X498273316Y67481500D01*
X498729678Y67481500D01*
G37*
G36*
X498129915Y67481500D02*
G01*
X498129915Y67551983D01*
X497673553Y67551983D01*
X497673553Y67481500D01*
X498129915Y67481500D01*
G37*
G36*
X497530152Y67481500D02*
G01*
X497530152Y67551983D01*
X497073790Y67551983D01*
X497073790Y67481500D01*
X497530152Y67481500D01*
G37*
G36*
X496930389Y67481500D02*
G01*
X496930389Y67551983D01*
X496474028Y67551983D01*
X496474028Y67481500D01*
X496930389Y67481500D01*
G37*
G36*
X496330627Y67481500D02*
G01*
X496330627Y67551983D01*
X495874265Y67551983D01*
X495874265Y67481500D01*
X496330627Y67481500D01*
G37*
G36*
X495502704Y67585279D02*
G01*
X495528216Y67590339D01*
X495550704Y67605838D01*
X495566204Y67628327D01*
X495571263Y67653838D01*
X495566137Y67680136D01*
X495550704Y67702308D01*
X495528252Y67717438D01*
X495502704Y67722397D01*
X495476370Y67717373D01*
X495454234Y67702308D01*
X495439170Y67680172D01*
X495434146Y67653838D01*
X495439105Y67628291D01*
X495454234Y67605838D01*
X495476407Y67590405D01*
X495502704Y67585279D01*
G37*
G36*
X495131101Y67481500D02*
G01*
X495131101Y67551983D01*
X494674740Y67551983D01*
X494674740Y67481500D01*
X495131101Y67481500D01*
G37*
G36*
X494531338Y67481500D02*
G01*
X494531338Y67551983D01*
X494074977Y67551983D01*
X494074977Y67481500D01*
X494531338Y67481500D01*
G37*
G36*
X493703416Y67585279D02*
G01*
X493728928Y67590339D01*
X493751416Y67605838D01*
X493766915Y67628327D01*
X493771975Y67653838D01*
X493766849Y67680136D01*
X493751416Y67702308D01*
X493728964Y67717438D01*
X493703416Y67722397D01*
X493677082Y67717373D01*
X493654946Y67702308D01*
X493639882Y67680172D01*
X493634857Y67653838D01*
X493639816Y67628291D01*
X493654946Y67605838D01*
X493677119Y67590405D01*
X493703416Y67585279D01*
G37*
G36*
X493331813Y67481500D02*
G01*
X493331813Y67551983D01*
X492875451Y67551983D01*
X492875451Y67481500D01*
X493331813Y67481500D01*
G37*
G36*
X492732050Y67481500D02*
G01*
X492732050Y67551983D01*
X492275689Y67551983D01*
X492275689Y67481500D01*
X492732050Y67481500D01*
G37*
G36*
X483135846Y67481500D02*
G01*
X483135846Y67551983D01*
X482679485Y67551983D01*
X482679485Y67481500D01*
X483135846Y67481500D01*
G37*
G36*
X482536084Y67481500D02*
G01*
X482536084Y67551983D01*
X482079722Y67551983D01*
X482079722Y67481500D01*
X482536084Y67481500D01*
G37*
G36*
X481936321Y67481500D02*
G01*
X481936321Y67551983D01*
X481479959Y67551983D01*
X481479959Y67481500D01*
X481936321Y67481500D01*
G37*
G36*
X481336558Y67481500D02*
G01*
X481336558Y67551983D01*
X480880197Y67551983D01*
X480880197Y67481500D01*
X481336558Y67481500D01*
G37*
G36*
X480736796Y67481500D02*
G01*
X480736796Y67551983D01*
X480280434Y67551983D01*
X480280434Y67481500D01*
X480736796Y67481500D01*
G37*
G36*
X480137033Y67481500D02*
G01*
X480137033Y67551983D01*
X479680671Y67551983D01*
X479680671Y67481500D01*
X480137033Y67481500D01*
G37*
G36*
X479537270Y67481500D02*
G01*
X479537270Y67551983D01*
X479080908Y67551983D01*
X479080908Y67481500D01*
X479537270Y67481500D01*
G37*
G36*
X478937507Y67481500D02*
G01*
X478937507Y67551983D01*
X478481146Y67551983D01*
X478481146Y67481500D01*
X478937507Y67481500D01*
G37*
G36*
X478337745Y67481500D02*
G01*
X478337745Y67551983D01*
X477881383Y67551983D01*
X477881383Y67481500D01*
X478337745Y67481500D01*
G37*
G36*
X477737982Y67481500D02*
G01*
X477737982Y67551983D01*
X477281620Y67551983D01*
X477281620Y67481500D01*
X477737982Y67481500D01*
G37*
G36*
X476538456Y67481500D02*
G01*
X476538456Y67551983D01*
X476082095Y67551983D01*
X476082095Y67481500D01*
X476538456Y67481500D01*
G37*
G36*
X475938694Y67481500D02*
G01*
X475938694Y67551983D01*
X475482332Y67551983D01*
X475482332Y67481500D01*
X475938694Y67481500D01*
G37*
G36*
X475338931Y67481500D02*
G01*
X475338931Y67551983D01*
X474882569Y67551983D01*
X474882569Y67481500D01*
X475338931Y67481500D01*
G37*
G36*
X474739168Y67481500D02*
G01*
X474739168Y67551983D01*
X474282807Y67551983D01*
X474282807Y67481500D01*
X474739168Y67481500D01*
G37*
G36*
X474139405Y67481500D02*
G01*
X474139405Y67551983D01*
X473683044Y67551983D01*
X473683044Y67481500D01*
X474139405Y67481500D01*
G37*
G36*
X473539643Y67481500D02*
G01*
X473539643Y67551983D01*
X473083281Y67551983D01*
X473083281Y67481500D01*
X473539643Y67481500D01*
G37*
G36*
X472340117Y67481500D02*
G01*
X472340117Y67551983D01*
X471883756Y67551983D01*
X471883756Y67481500D01*
X472340117Y67481500D01*
G37*
G36*
X471740355Y67481500D02*
G01*
X471740355Y67551983D01*
X471283993Y67551983D01*
X471283993Y67481500D01*
X471740355Y67481500D01*
G37*
G36*
X471140592Y67481500D02*
G01*
X471140592Y67551983D01*
X470684230Y67551983D01*
X470684230Y67481500D01*
X471140592Y67481500D01*
G37*
G36*
X470540829Y67481500D02*
G01*
X470540829Y67551983D01*
X470084467Y67551983D01*
X470084467Y67481500D01*
X470540829Y67481500D01*
G37*
G36*
X469941066Y67481500D02*
G01*
X469941066Y67551983D01*
X469484705Y67551983D01*
X469484705Y67481500D01*
X469941066Y67481500D01*
G37*
G36*
X469341304Y67481500D02*
G01*
X469341304Y67551983D01*
X468884942Y67551983D01*
X468884942Y67481500D01*
X469341304Y67481500D01*
G37*
G36*
X468741541Y67481500D02*
G01*
X468741541Y67551983D01*
X468285179Y67551983D01*
X468285179Y67481500D01*
X468741541Y67481500D01*
G37*
G36*
X501392621Y66319178D02*
G01*
X501677585Y67190783D01*
X501609026Y67212325D01*
X501323079Y66340720D01*
X501392621Y66319178D01*
G37*
G36*
X501128729Y66305500D02*
G01*
X501128729Y66375983D01*
X500672367Y66375983D01*
X500672367Y66305500D01*
X501128729Y66305500D01*
G37*
G36*
X500528966Y66305500D02*
G01*
X500528966Y66375983D01*
X500072604Y66375983D01*
X500072604Y66305500D01*
X500528966Y66305500D01*
G37*
G36*
X499929203Y66305500D02*
G01*
X499929203Y66375983D01*
X499472841Y66375983D01*
X499472841Y66305500D01*
X499929203Y66305500D01*
G37*
G36*
X499329440Y66305500D02*
G01*
X499329440Y66375983D01*
X498873079Y66375983D01*
X498873079Y66305500D01*
X499329440Y66305500D01*
G37*
G36*
X496210178Y66319178D02*
G01*
X496279720Y66340720D01*
X495993773Y67212325D01*
X495925214Y67190783D01*
X496210178Y66319178D01*
G37*
G36*
X495537967Y66270238D02*
G01*
X495537967Y67261308D01*
X495467442Y67261308D01*
X495467442Y66270238D01*
X495537967Y66270238D01*
G37*
G36*
X495131101Y66305500D02*
G01*
X495131101Y66375983D01*
X494674740Y66375983D01*
X494674740Y66305500D01*
X495131101Y66305500D01*
G37*
G36*
X494531338Y66305500D02*
G01*
X494531338Y66375983D01*
X494074977Y66375983D01*
X494074977Y66305500D01*
X494531338Y66305500D01*
G37*
G36*
X493738679Y66270238D02*
G01*
X493738679Y67261308D01*
X493668154Y67261308D01*
X493668154Y66270238D01*
X493738679Y66270238D01*
G37*
G36*
X491939391Y66270238D02*
G01*
X491939391Y67261308D01*
X491868866Y67261308D01*
X491868866Y66270238D01*
X491939391Y66270238D01*
G37*
G36*
X489733237Y66305500D02*
G01*
X489733237Y66375983D01*
X489276875Y66375983D01*
X489276875Y66305500D01*
X489733237Y66305500D01*
G37*
G36*
X489133474Y66305500D02*
G01*
X489133474Y66375983D01*
X488677112Y66375983D01*
X488677112Y66305500D01*
X489133474Y66305500D01*
G37*
G36*
X488533711Y66305500D02*
G01*
X488533711Y66375983D01*
X488077349Y66375983D01*
X488077349Y66305500D01*
X488533711Y66305500D01*
G37*
G36*
X487933948Y66305500D02*
G01*
X487933948Y66375983D01*
X487477587Y66375983D01*
X487477587Y66305500D01*
X487933948Y66305500D01*
G37*
G36*
X485534897Y66305500D02*
G01*
X485534897Y66375983D01*
X485078536Y66375983D01*
X485078536Y66305500D01*
X485534897Y66305500D01*
G37*
G36*
X484935135Y66305500D02*
G01*
X484935135Y66375983D01*
X484478773Y66375983D01*
X484478773Y66305500D01*
X484935135Y66305500D01*
G37*
G36*
X484335372Y66305500D02*
G01*
X484335372Y66375983D01*
X483879010Y66375983D01*
X483879010Y66305500D01*
X484335372Y66305500D01*
G37*
G36*
X483735609Y66305500D02*
G01*
X483735609Y66375983D01*
X483279248Y66375983D01*
X483279248Y66305500D01*
X483735609Y66305500D01*
G37*
G36*
X482799976Y66319178D02*
G01*
X483084940Y67190783D01*
X483016381Y67212325D01*
X482730434Y66340720D01*
X482799976Y66319178D01*
G37*
G36*
X482536084Y66305500D02*
G01*
X482536084Y66375983D01*
X482079722Y66375983D01*
X482079722Y66305500D01*
X482536084Y66305500D01*
G37*
G36*
X481936321Y66305500D02*
G01*
X481936321Y66375983D01*
X481479959Y66375983D01*
X481479959Y66305500D01*
X481936321Y66305500D01*
G37*
G36*
X481336558Y66305500D02*
G01*
X481336558Y66375983D01*
X480880197Y66375983D01*
X480880197Y66305500D01*
X481336558Y66305500D01*
G37*
G36*
X480736796Y66305500D02*
G01*
X480736796Y66375983D01*
X480280434Y66375983D01*
X480280434Y66305500D01*
X480736796Y66305500D01*
G37*
G36*
X477617534Y66319178D02*
G01*
X477687076Y66340720D01*
X477401128Y67212325D01*
X477332569Y67190783D01*
X477617534Y66319178D01*
G37*
G36*
X477017771Y66319178D02*
G01*
X477087313Y66340720D01*
X476801366Y67212325D01*
X476732807Y67190783D01*
X477017771Y66319178D01*
G37*
G36*
X475338931Y66305500D02*
G01*
X475338931Y66375983D01*
X474882569Y66375983D01*
X474882569Y66305500D01*
X475338931Y66305500D01*
G37*
G36*
X474739168Y66305500D02*
G01*
X474739168Y66375983D01*
X474282807Y66375983D01*
X474282807Y66305500D01*
X474739168Y66305500D01*
G37*
G36*
X472604009Y66319178D02*
G01*
X472888974Y67190783D01*
X472820415Y67212325D01*
X472534467Y66340720D01*
X472604009Y66319178D01*
G37*
G36*
X472004247Y66319178D02*
G01*
X472289211Y67190783D01*
X472220652Y67212325D01*
X471934705Y66340720D01*
X472004247Y66319178D01*
G37*
G36*
X469941066Y66305500D02*
G01*
X469941066Y66375983D01*
X469484705Y66375983D01*
X469484705Y66305500D01*
X469941066Y66305500D01*
G37*
G36*
X467805908Y66319178D02*
G01*
X468090872Y67190783D01*
X468022313Y67212325D01*
X467736366Y66340720D01*
X467805908Y66319178D01*
G37*
G36*
X500408517Y65143178D02*
G01*
X500478060Y65164720D01*
X500192112Y66036325D01*
X500123553Y66014783D01*
X500408517Y65143178D01*
G37*
G36*
X496809941Y65143178D02*
G01*
X496879483Y65164720D01*
X496593536Y66036325D01*
X496524977Y66014783D01*
X496809941Y65143178D01*
G37*
G36*
X495537967Y65094238D02*
G01*
X495537967Y66085308D01*
X495467442Y66085308D01*
X495467442Y65094238D01*
X495537967Y65094238D01*
G37*
G36*
X493738679Y65094238D02*
G01*
X493738679Y66085308D01*
X493668154Y66085308D01*
X493668154Y65094238D01*
X493738679Y65094238D01*
G37*
G36*
X491939391Y65094238D02*
G01*
X491939391Y66085308D01*
X491868866Y66085308D01*
X491868866Y65094238D01*
X491939391Y65094238D01*
G37*
G36*
X490212551Y65143178D02*
G01*
X490282093Y65164720D01*
X489996146Y66036325D01*
X489927587Y66014783D01*
X490212551Y65143178D01*
G37*
G36*
X488533711Y65129500D02*
G01*
X488533711Y65199983D01*
X488077349Y65199983D01*
X488077349Y65129500D01*
X488533711Y65129500D01*
G37*
G36*
X486998315Y65143178D02*
G01*
X487283279Y66014783D01*
X487214720Y66036325D01*
X486928773Y65164720D01*
X486998315Y65143178D01*
G37*
G36*
X486014212Y65143178D02*
G01*
X486083754Y65164720D01*
X485797807Y66036325D01*
X485729248Y66014783D01*
X486014212Y65143178D01*
G37*
G36*
X484935135Y65129500D02*
G01*
X484935135Y65199983D01*
X484478773Y65199983D01*
X484478773Y65129500D01*
X484935135Y65129500D01*
G37*
G36*
X484335372Y65129500D02*
G01*
X484335372Y65199983D01*
X483879010Y65199983D01*
X483879010Y65129500D01*
X484335372Y65129500D01*
G37*
G36*
X483735609Y65129500D02*
G01*
X483735609Y65199983D01*
X483279248Y65199983D01*
X483279248Y65129500D01*
X483735609Y65129500D01*
G37*
G36*
X482799976Y65143178D02*
G01*
X483084940Y66014783D01*
X483016381Y66036325D01*
X482730434Y65164720D01*
X482799976Y65143178D01*
G37*
G36*
X481815873Y65143178D02*
G01*
X481885415Y65164720D01*
X481599467Y66036325D01*
X481530908Y66014783D01*
X481815873Y65143178D01*
G37*
G36*
X478217296Y65143178D02*
G01*
X478286838Y65164720D01*
X478000891Y66036325D01*
X477932332Y66014783D01*
X478217296Y65143178D01*
G37*
G36*
X477114754Y65374329D02*
G01*
X477114754Y65456566D01*
X476734773Y65583896D01*
X476734773Y65595650D01*
X477114754Y65722937D01*
X477114754Y65805217D01*
X476705366Y65664209D01*
X476705366Y65515337D01*
X477114754Y65374329D01*
G37*
G36*
X472507027Y65374329D02*
G01*
X472916414Y65515337D01*
X472916414Y65664209D01*
X472507027Y65805217D01*
X472507027Y65722937D01*
X472887008Y65595650D01*
X472887008Y65583896D01*
X472507027Y65456566D01*
X472507027Y65374329D01*
G37*
G36*
X472219669Y65143178D02*
G01*
X472289211Y65164720D01*
X472003264Y66036325D01*
X471934705Y66014783D01*
X472219669Y65143178D01*
G37*
G36*
X470420381Y65143178D02*
G01*
X470489923Y65164720D01*
X470203975Y66036325D01*
X470135416Y66014783D01*
X470420381Y65143178D01*
G37*
G36*
X469941066Y65129500D02*
G01*
X469941066Y65199983D01*
X469484705Y65199983D01*
X469484705Y65129500D01*
X469941066Y65129500D01*
G37*
G36*
X469005433Y65143178D02*
G01*
X469290397Y66014783D01*
X469221838Y66036325D01*
X468935891Y65164720D01*
X469005433Y65143178D01*
G37*
G36*
X467206145Y65143178D02*
G01*
X467491109Y66014783D01*
X467422550Y66036325D01*
X467136603Y65164720D01*
X467206145Y65143178D01*
G37*
G36*
X501008280Y63967178D02*
G01*
X501077822Y63988720D01*
X500791875Y64860325D01*
X500723316Y64838783D01*
X501008280Y63967178D01*
G37*
G36*
X497409704Y63967178D02*
G01*
X497479246Y63988720D01*
X497193299Y64860325D01*
X497124740Y64838783D01*
X497409704Y63967178D01*
G37*
G36*
X496930389Y63953500D02*
G01*
X496930389Y64023983D01*
X496474028Y64023983D01*
X496474028Y63953500D01*
X496930389Y63953500D01*
G37*
G36*
X495537967Y63918238D02*
G01*
X495537967Y64909308D01*
X495467442Y64909308D01*
X495467442Y63918238D01*
X495537967Y63918238D01*
G37*
G36*
X493738679Y63918238D02*
G01*
X493738679Y64909308D01*
X493668154Y64909308D01*
X493668154Y63918238D01*
X493738679Y63918238D01*
G37*
G36*
X491939391Y63918238D02*
G01*
X491939391Y64909308D01*
X491868866Y64909308D01*
X491868866Y63918238D01*
X491939391Y63918238D01*
G37*
G36*
X491532525Y63953500D02*
G01*
X491532525Y64023983D01*
X491076163Y64023983D01*
X491076163Y63953500D01*
X491532525Y63953500D01*
G37*
G36*
X490504824Y63918238D02*
G01*
X490550025Y63921094D01*
X490593486Y63929581D01*
X490635573Y63943712D01*
X490675439Y63963186D01*
X490712232Y63987735D01*
X490746234Y64017614D01*
X490775972Y64051752D01*
X490801592Y64090744D01*
X490823128Y64135113D01*
X490838613Y64181953D01*
X490848195Y64233463D01*
X490851509Y64290354D01*
X490851509Y64537149D01*
X490848175Y64594705D01*
X490838574Y64646347D01*
X490823128Y64692860D01*
X490801615Y64736924D01*
X490775998Y64775768D01*
X490746234Y64809889D01*
X490712233Y64839772D01*
X490675441Y64864335D01*
X490635573Y64883834D01*
X490593486Y64897965D01*
X490550025Y64906452D01*
X490504824Y64909308D01*
X490469562Y64909308D01*
X490469562Y64836817D01*
X490504824Y64836817D01*
X490550845Y64832740D01*
X490594689Y64820588D01*
X490637027Y64800101D01*
X490675129Y64772495D01*
X490708332Y64737830D01*
X490736916Y64695296D01*
X490757653Y64648514D01*
X490770591Y64594933D01*
X490775128Y64533217D01*
X490775128Y64294286D01*
X490770591Y64232570D01*
X490757653Y64178989D01*
X490736916Y64132207D01*
X490708334Y64089700D01*
X490675132Y64055048D01*
X490637027Y64027445D01*
X490594686Y64006933D01*
X490550843Y63994768D01*
X490504824Y63990686D01*
X490469562Y63990686D01*
X490469562Y63918238D01*
X490504824Y63918238D01*
G37*
G36*
X488700621Y64198329D02*
G01*
X489110008Y64339337D01*
X489110008Y64488209D01*
X488700621Y64629217D01*
X488700621Y64546937D01*
X489080601Y64419650D01*
X489080601Y64407896D01*
X488700621Y64280566D01*
X488700621Y64198329D01*
G37*
G36*
X488533711Y63953500D02*
G01*
X488533711Y64023983D01*
X488077349Y64023983D01*
X488077349Y63953500D01*
X488533711Y63953500D01*
G37*
G36*
X487910483Y64198329D02*
G01*
X487910483Y64280566D01*
X487530502Y64407896D01*
X487530502Y64419650D01*
X487910483Y64546937D01*
X487910483Y64629217D01*
X487501095Y64488209D01*
X487501095Y64339337D01*
X487910483Y64198329D01*
G37*
G36*
X486741304Y63918238D02*
G01*
X486741304Y63990686D01*
X486706042Y63990686D01*
X486660023Y63994768D01*
X486616180Y64006933D01*
X486573839Y64027445D01*
X486535711Y64055053D01*
X486502509Y64089705D01*
X486473950Y64132207D01*
X486453213Y64178989D01*
X486440275Y64232570D01*
X486435738Y64294286D01*
X486435738Y64533217D01*
X486440275Y64594933D01*
X486453213Y64648514D01*
X486473950Y64695296D01*
X486502511Y64737825D01*
X486535713Y64772491D01*
X486573839Y64800101D01*
X486616178Y64820588D01*
X486660021Y64832740D01*
X486706042Y64836817D01*
X486741304Y64836817D01*
X486741304Y64909308D01*
X486706042Y64909308D01*
X486660841Y64906452D01*
X486617380Y64897965D01*
X486575293Y64883834D01*
X486535426Y64864335D01*
X486498633Y64839772D01*
X486464632Y64809889D01*
X486434872Y64775766D01*
X486409269Y64736923D01*
X486387781Y64692860D01*
X486372311Y64646345D01*
X486362696Y64594703D01*
X486359357Y64537149D01*
X486359357Y64290354D01*
X486362676Y64233465D01*
X486372272Y64181955D01*
X486387781Y64135113D01*
X486409292Y64090745D01*
X486434898Y64051753D01*
X486464632Y64017614D01*
X486498634Y63987735D01*
X486535427Y63963186D01*
X486575293Y63943712D01*
X486617380Y63929581D01*
X486660841Y63921094D01*
X486706042Y63918238D01*
X486741304Y63918238D01*
G37*
G36*
X485414449Y63967178D02*
G01*
X485483991Y63988720D01*
X485198044Y64860325D01*
X485129485Y64838783D01*
X485414449Y63967178D01*
G37*
G36*
X484935135Y63953500D02*
G01*
X484935135Y64023983D01*
X484478773Y64023983D01*
X484478773Y63953500D01*
X484935135Y63953500D01*
G37*
G36*
X484214924Y63967178D02*
G01*
X484284466Y63988720D01*
X483998518Y64860325D01*
X483929959Y64838783D01*
X484214924Y63967178D01*
G37*
G36*
X482512618Y64198329D02*
G01*
X482512618Y64280566D01*
X482132637Y64407896D01*
X482132637Y64419650D01*
X482512618Y64546937D01*
X482512618Y64629217D01*
X482103230Y64488209D01*
X482103230Y64339337D01*
X482512618Y64198329D01*
G37*
G36*
X478817059Y63967178D02*
G01*
X478886601Y63988720D01*
X478600654Y64860325D01*
X478532095Y64838783D01*
X478817059Y63967178D01*
G37*
G36*
X478337745Y63953500D02*
G01*
X478337745Y64023983D01*
X477881383Y64023983D01*
X477881383Y63953500D01*
X478337745Y63953500D01*
G37*
G36*
X477617534Y63967178D02*
G01*
X477687076Y63988720D01*
X477401128Y64860325D01*
X477332569Y64838783D01*
X477617534Y63967178D01*
G37*
G36*
X475257677Y64290354D02*
G01*
X475257677Y64360879D01*
X474963866Y64360879D01*
X474963866Y64290354D01*
X475257677Y64290354D01*
G37*
G36*
X474657915Y64290354D02*
G01*
X474657915Y64360879D01*
X474364103Y64360879D01*
X474364103Y64290354D01*
X474657915Y64290354D01*
G37*
G36*
X472004247Y63967178D02*
G01*
X472289211Y64838783D01*
X472220652Y64860325D01*
X471934705Y63988720D01*
X472004247Y63967178D01*
G37*
G36*
X470204959Y63967178D02*
G01*
X470489923Y64838783D01*
X470421364Y64860325D01*
X470135416Y63988720D01*
X470204959Y63967178D01*
G37*
G36*
X469941066Y63953500D02*
G01*
X469941066Y64023983D01*
X469484705Y64023983D01*
X469484705Y63953500D01*
X469941066Y63953500D01*
G37*
G36*
X469220855Y63967178D02*
G01*
X469290397Y63988720D01*
X469004450Y64860325D01*
X468935891Y64838783D01*
X469220855Y63967178D01*
G37*
G36*
X466606382Y63967178D02*
G01*
X466891346Y64838783D01*
X466822787Y64860325D01*
X466536840Y63988720D01*
X466606382Y63967178D01*
G37*
G36*
X501608043Y62791178D02*
G01*
X501677585Y62812720D01*
X501391638Y63684325D01*
X501323079Y63662783D01*
X501608043Y62791178D01*
G37*
G36*
X501128729Y62777500D02*
G01*
X501128729Y62847983D01*
X500672367Y62847983D01*
X500672367Y62777500D01*
X501128729Y62777500D01*
G37*
G36*
X500528966Y62777500D02*
G01*
X500528966Y62847983D01*
X500072604Y62847983D01*
X500072604Y62777500D01*
X500528966Y62777500D01*
G37*
G36*
X499929203Y62777500D02*
G01*
X499929203Y62847983D01*
X499472841Y62847983D01*
X499472841Y62777500D01*
X499929203Y62777500D01*
G37*
G36*
X499329440Y62777500D02*
G01*
X499329440Y62847983D01*
X498873079Y62847983D01*
X498873079Y62777500D01*
X499329440Y62777500D01*
G37*
G36*
X498729678Y62777500D02*
G01*
X498729678Y62847983D01*
X498273316Y62847983D01*
X498273316Y62777500D01*
X498729678Y62777500D01*
G37*
G36*
X498129915Y62777500D02*
G01*
X498129915Y62847983D01*
X497673553Y62847983D01*
X497673553Y62777500D01*
X498129915Y62777500D01*
G37*
G36*
X497530152Y62777500D02*
G01*
X497530152Y62847983D01*
X497073790Y62847983D01*
X497073790Y62777500D01*
X497530152Y62777500D01*
G37*
G36*
X495994756Y62791178D02*
G01*
X496279720Y63662783D01*
X496211161Y63684325D01*
X495925214Y62812720D01*
X495994756Y62791178D01*
G37*
G36*
X495537967Y62742238D02*
G01*
X495537967Y63733308D01*
X495467442Y63733308D01*
X495467442Y62742238D01*
X495537967Y62742238D01*
G37*
G36*
X495131101Y62777500D02*
G01*
X495131101Y62847983D01*
X494674740Y62847983D01*
X494674740Y62777500D01*
X495131101Y62777500D01*
G37*
G36*
X494531338Y62777500D02*
G01*
X494531338Y62847983D01*
X494074977Y62847983D01*
X494074977Y62777500D01*
X494531338Y62777500D01*
G37*
G36*
X493738679Y62742238D02*
G01*
X493738679Y63733308D01*
X493668154Y63733308D01*
X493668154Y62742238D01*
X493738679Y62742238D01*
G37*
G36*
X493331813Y62777500D02*
G01*
X493331813Y62847983D01*
X492875451Y62847983D01*
X492875451Y62777500D01*
X493331813Y62777500D01*
G37*
G36*
X492732050Y62777500D02*
G01*
X492732050Y62847983D01*
X492275689Y62847983D01*
X492275689Y62777500D01*
X492732050Y62777500D01*
G37*
G36*
X492132288Y62777500D02*
G01*
X492132288Y62847983D01*
X491675926Y62847983D01*
X491675926Y62777500D01*
X492132288Y62777500D01*
G37*
G36*
X491532525Y62777500D02*
G01*
X491532525Y62847983D01*
X491076163Y62847983D01*
X491076163Y62777500D01*
X491532525Y62777500D01*
G37*
G36*
X490812314Y62791178D02*
G01*
X490881856Y62812720D01*
X490595908Y63684325D01*
X490527349Y63662783D01*
X490812314Y62791178D01*
G37*
G36*
X489997129Y62791178D02*
G01*
X490282093Y63662783D01*
X490213534Y63684325D01*
X489927587Y62812720D01*
X489997129Y62791178D01*
G37*
G36*
X489733237Y62777500D02*
G01*
X489733237Y62847983D01*
X489276875Y62847983D01*
X489276875Y62777500D01*
X489733237Y62777500D01*
G37*
G36*
X489133474Y62777500D02*
G01*
X489133474Y62847983D01*
X488677112Y62847983D01*
X488677112Y62777500D01*
X489133474Y62777500D01*
G37*
G36*
X488533711Y62777500D02*
G01*
X488533711Y62847983D01*
X488077349Y62847983D01*
X488077349Y62777500D01*
X488533711Y62777500D01*
G37*
G36*
X487933948Y62777500D02*
G01*
X487933948Y62847983D01*
X487477587Y62847983D01*
X487477587Y62777500D01*
X487933948Y62777500D01*
G37*
G36*
X487213737Y62791178D02*
G01*
X487283279Y62812720D01*
X486997332Y63684325D01*
X486928773Y63662783D01*
X487213737Y62791178D01*
G37*
G36*
X486398552Y62791178D02*
G01*
X486683517Y63662783D01*
X486614958Y63684325D01*
X486329010Y62812720D01*
X486398552Y62791178D01*
G37*
G36*
X486134660Y62777500D02*
G01*
X486134660Y62847983D01*
X485678299Y62847983D01*
X485678299Y62777500D01*
X486134660Y62777500D01*
G37*
G36*
X485534897Y62777500D02*
G01*
X485534897Y62847983D01*
X485078536Y62847983D01*
X485078536Y62777500D01*
X485534897Y62777500D01*
G37*
G36*
X484935135Y62777500D02*
G01*
X484935135Y62847983D01*
X484478773Y62847983D01*
X484478773Y62777500D01*
X484935135Y62777500D01*
G37*
G36*
X483015398Y62791178D02*
G01*
X483084940Y62812720D01*
X482798993Y63684325D01*
X482730434Y63662783D01*
X483015398Y62791178D01*
G37*
G36*
X482536084Y62777500D02*
G01*
X482536084Y62847983D01*
X482079722Y62847983D01*
X482079722Y62777500D01*
X482536084Y62777500D01*
G37*
G36*
X481936321Y62777500D02*
G01*
X481936321Y62847983D01*
X481479959Y62847983D01*
X481479959Y62777500D01*
X481936321Y62777500D01*
G37*
G36*
X481336558Y62777500D02*
G01*
X481336558Y62847983D01*
X480880197Y62847983D01*
X480880197Y62777500D01*
X481336558Y62777500D01*
G37*
G36*
X480736796Y62777500D02*
G01*
X480736796Y62847983D01*
X480280434Y62847983D01*
X480280434Y62777500D01*
X480736796Y62777500D01*
G37*
G36*
X480137033Y62777500D02*
G01*
X480137033Y62847983D01*
X479680671Y62847983D01*
X479680671Y62777500D01*
X480137033Y62777500D01*
G37*
G36*
X479537270Y62777500D02*
G01*
X479537270Y62847983D01*
X479080908Y62847983D01*
X479080908Y62777500D01*
X479537270Y62777500D01*
G37*
G36*
X478937507Y62777500D02*
G01*
X478937507Y62847983D01*
X478481146Y62847983D01*
X478481146Y62777500D01*
X478937507Y62777500D01*
G37*
G36*
X477402111Y62791178D02*
G01*
X477687076Y63662783D01*
X477618517Y63684325D01*
X477332569Y62812720D01*
X477402111Y62791178D01*
G37*
G36*
X477138219Y62777500D02*
G01*
X477138219Y62847983D01*
X476681857Y62847983D01*
X476681857Y62777500D01*
X477138219Y62777500D01*
G37*
G36*
X476538456Y62777500D02*
G01*
X476538456Y62847983D01*
X476082095Y62847983D01*
X476082095Y62777500D01*
X476538456Y62777500D01*
G37*
G36*
X475938694Y62777500D02*
G01*
X475938694Y62847983D01*
X475482332Y62847983D01*
X475482332Y62777500D01*
X475938694Y62777500D01*
G37*
G36*
X475338931Y62777500D02*
G01*
X475338931Y62847983D01*
X474882569Y62847983D01*
X474882569Y62777500D01*
X475338931Y62777500D01*
G37*
G36*
X474739168Y62777500D02*
G01*
X474739168Y62847983D01*
X474282807Y62847983D01*
X474282807Y62777500D01*
X474739168Y62777500D01*
G37*
G36*
X474139405Y62777500D02*
G01*
X474139405Y62847983D01*
X473683044Y62847983D01*
X473683044Y62777500D01*
X474139405Y62777500D01*
G37*
G36*
X472219669Y62791178D02*
G01*
X472289211Y62812720D01*
X472003264Y63684325D01*
X471934705Y63662783D01*
X472219669Y62791178D01*
G37*
G36*
X471404484Y62791178D02*
G01*
X471689448Y63662783D01*
X471620889Y63684325D01*
X471334942Y62812720D01*
X471404484Y62791178D01*
G37*
G36*
X471140592Y62777500D02*
G01*
X471140592Y62847983D01*
X470684230Y62847983D01*
X470684230Y62777500D01*
X471140592Y62777500D01*
G37*
G36*
X470540829Y62777500D02*
G01*
X470540829Y62847983D01*
X470084467Y62847983D01*
X470084467Y62777500D01*
X470540829Y62777500D01*
G37*
G36*
X469941066Y62777500D02*
G01*
X469941066Y62847983D01*
X469484705Y62847983D01*
X469484705Y62777500D01*
X469941066Y62777500D01*
G37*
G36*
X469341304Y62777500D02*
G01*
X469341304Y62847983D01*
X468884942Y62847983D01*
X468884942Y62777500D01*
X469341304Y62777500D01*
G37*
G36*
X468741541Y62777500D02*
G01*
X468741541Y62847983D01*
X468285179Y62847983D01*
X468285179Y62777500D01*
X468741541Y62777500D01*
G37*
G36*
X466821804Y62791178D02*
G01*
X466891346Y62812720D01*
X466605399Y63684325D01*
X466536840Y63662783D01*
X466821804Y62791178D01*
G37*
G36*
X496594519Y61615178D02*
G01*
X496879483Y62486783D01*
X496810924Y62508325D01*
X496524977Y61636720D01*
X496594519Y61615178D01*
G37*
G36*
X496210178Y61615178D02*
G01*
X496279720Y61636720D01*
X495993773Y62508325D01*
X495925214Y62486783D01*
X496210178Y61615178D01*
G37*
G36*
X487213737Y61615178D02*
G01*
X487283279Y61636720D01*
X486997332Y62508325D01*
X486928773Y62486783D01*
X487213737Y61615178D01*
G37*
G36*
X486734423Y61601500D02*
G01*
X486734423Y61671983D01*
X486278061Y61671983D01*
X486278061Y61601500D01*
X486734423Y61601500D01*
G37*
G36*
X486134660Y61601500D02*
G01*
X486134660Y61671983D01*
X485678299Y61671983D01*
X485678299Y61601500D01*
X486134660Y61601500D01*
G37*
G36*
X485534897Y61601500D02*
G01*
X485534897Y61671983D01*
X485078536Y61671983D01*
X485078536Y61601500D01*
X485534897Y61601500D01*
G37*
G36*
X484935135Y61601500D02*
G01*
X484935135Y61671983D01*
X484478773Y61671983D01*
X484478773Y61601500D01*
X484935135Y61601500D01*
G37*
G36*
X484335372Y61601500D02*
G01*
X484335372Y61671983D01*
X483879010Y61671983D01*
X483879010Y61601500D01*
X484335372Y61601500D01*
G37*
G36*
X483615161Y61615178D02*
G01*
X483684703Y61636720D01*
X483398756Y62508325D01*
X483330197Y62486783D01*
X483615161Y61615178D01*
G37*
G36*
X478001874Y61615178D02*
G01*
X478286838Y62486783D01*
X478218279Y62508325D01*
X477932332Y61636720D01*
X478001874Y61615178D01*
G37*
G36*
X477617534Y61615178D02*
G01*
X477687076Y61636720D01*
X477401128Y62508325D01*
X477332569Y62486783D01*
X477617534Y61615178D01*
G37*
G36*
X473203772Y61615178D02*
G01*
X473488736Y62486783D01*
X473420177Y62508325D01*
X473134230Y61636720D01*
X473203772Y61615178D01*
G37*
G36*
X472819432Y61615178D02*
G01*
X472888974Y61636720D01*
X472603026Y62508325D01*
X472534467Y62486783D01*
X472819432Y61615178D01*
G37*
G36*
X467805908Y61615178D02*
G01*
X468090872Y62486783D01*
X468022313Y62508325D01*
X467736366Y61636720D01*
X467805908Y61615178D01*
G37*
G36*
X467421567Y61615178D02*
G01*
X467491109Y61636720D01*
X467205162Y62508325D01*
X467136603Y62486783D01*
X467421567Y61615178D01*
G37*
D11*
G36*
X488506677Y59192892D02*
G01*
X488938071Y59192892D01*
X488938071Y59480213D01*
X488942738Y59593979D01*
X488951901Y59636559D01*
X488972667Y59659175D01*
X489012901Y59667700D01*
X489045899Y59662902D01*
X489067355Y59650207D01*
X489080587Y59629781D01*
X489090219Y59581069D01*
X489094875Y59465925D01*
X489094875Y58695827D01*
X489090235Y58585310D01*
X489080587Y58538016D01*
X489067559Y58518079D01*
X489046986Y58505797D01*
X489015923Y58501196D01*
X488986295Y58505747D01*
X488966144Y58518071D01*
X488952909Y58538382D01*
X488943000Y58587969D01*
X488938071Y58713230D01*
X488938071Y58923248D01*
X488506677Y58923248D01*
X488506677Y58858310D01*
X488511931Y58683225D01*
X488525155Y58565667D01*
X488543039Y58491030D01*
X488575286Y58424567D01*
X488627586Y58361579D01*
X488703964Y58301253D01*
X488790389Y58257157D01*
X488891579Y58229568D01*
X489010794Y58219829D01*
X489135743Y58228302D01*
X489238629Y58251858D01*
X489323303Y58288522D01*
X489397402Y58341422D01*
X489450858Y58404343D01*
X489486243Y58478665D01*
X489506396Y58561359D01*
X489520678Y58679896D01*
X489526177Y58844113D01*
X489526177Y59328905D01*
X489522572Y59497022D01*
X489513904Y59597999D01*
X489500669Y59655921D01*
X489476587Y59713240D01*
X489440631Y59770648D01*
X489395759Y59821136D01*
X489339920Y59864660D01*
X489271554Y59901349D01*
X489198059Y59927280D01*
X489115707Y59943438D01*
X489023067Y59949068D01*
X488897752Y59940037D01*
X488794200Y59914851D01*
X488708544Y59875429D01*
X488632721Y59820018D01*
X488579587Y59759162D01*
X488545603Y59692063D01*
X488526091Y59616993D01*
X488512110Y59506538D01*
X488506677Y59350245D01*
X488506677Y59192892D01*
G37*
G36*
X487950170Y59913897D02*
G01*
X487950170Y59538740D01*
X487894069Y59582738D01*
X487834856Y59613478D01*
X487771129Y59632077D01*
X487702141Y59638391D01*
X487631522Y59631901D01*
X487570502Y59613304D01*
X487517219Y59583070D01*
X487471187Y59542483D01*
X487440949Y59500244D01*
X487423979Y59455575D01*
X487412317Y59368566D01*
X487407035Y59191976D01*
X487407035Y58255000D01*
X487821026Y58255000D01*
X487821026Y59211668D01*
X487824918Y59320023D01*
X487832841Y59364259D01*
X487851368Y59389265D01*
X487885598Y59398056D01*
X487917442Y59389313D01*
X487936889Y59363251D01*
X487945938Y59319908D01*
X487950170Y59224949D01*
X487950170Y58255000D01*
X488364070Y58255000D01*
X488364070Y59913897D01*
X487950170Y59913897D01*
G37*
G36*
X486838712Y59913897D02*
G01*
X486838712Y59697009D01*
X487264977Y59697009D01*
X487264977Y59913897D01*
X486838712Y59913897D01*
G37*
G36*
X486838712Y59614944D02*
G01*
X486838712Y58255000D01*
X487264977Y58255000D01*
X487264977Y59614944D01*
X486838712Y59614944D01*
G37*
G36*
X486085338Y59629282D02*
G01*
X486154710Y59602304D01*
X486217010Y59558343D01*
X486276618Y59493219D01*
X486269382Y59614944D01*
X486690518Y59614944D01*
X486690518Y58061559D01*
X486276618Y58061559D01*
X486276618Y58375167D01*
X486218139Y58311476D01*
X486156725Y58267731D01*
X486088554Y58240654D01*
X486014301Y58231552D01*
X485951500Y58237030D01*
X485897196Y58252703D01*
X485849803Y58278080D01*
X485809251Y58312945D01*
X485779505Y58354205D01*
X485759678Y58402919D01*
X485744328Y58494560D01*
X485737604Y58666427D01*
X485737604Y59218995D01*
X486151596Y59218995D01*
X486151596Y58636659D01*
X486154878Y58538009D01*
X486161396Y58500006D01*
X486177606Y58479535D01*
X486211038Y58471887D01*
X486245646Y58480035D01*
X486264344Y58502570D01*
X486272478Y58544496D01*
X486276618Y58656077D01*
X486276618Y59218995D01*
X486272694Y59326051D01*
X486264894Y59367373D01*
X486246613Y59389886D01*
X486212046Y59398056D01*
X486176753Y59390588D01*
X486160846Y59371403D01*
X486154815Y59332918D01*
X486151596Y59218995D01*
X485737604Y59218995D01*
X485737604Y59238321D01*
X485742919Y59388241D01*
X485755006Y59467482D01*
X485771701Y59509375D01*
X485800216Y59548906D01*
X485842659Y59586734D01*
X485891651Y59615129D01*
X485946646Y59632413D01*
X486009172Y59638391D01*
X486085338Y59629282D01*
G37*
G36*
X484306127Y59409780D02*
G01*
X484706747Y59409780D01*
X484706747Y59533611D01*
X484711795Y59612222D01*
X484722134Y59643978D01*
X484741806Y59661381D01*
X484773333Y59667700D01*
X484807777Y59659745D01*
X484832318Y59636284D01*
X484846546Y59600224D01*
X484852285Y59541121D01*
X484845796Y59464773D01*
X484829754Y59417565D01*
X484795611Y59377459D01*
X484707846Y59315716D01*
X484516803Y59190835D01*
X484403803Y59098967D01*
X484345054Y59032424D01*
X484315620Y58977375D01*
X484292103Y58903398D01*
X484276171Y58805734D01*
X484270224Y58678883D01*
X484275953Y58560027D01*
X484290761Y58475609D01*
X484311714Y58417574D01*
X484345532Y58367351D01*
X484397518Y58320447D01*
X484472090Y58276707D01*
X484553196Y58245826D01*
X484644821Y58226559D01*
X484748787Y58219829D01*
X484862673Y58227681D01*
X484960324Y58249918D01*
X485044351Y58285225D01*
X485119610Y58335289D01*
X485171732Y58390583D01*
X485204727Y58451737D01*
X485224161Y58520494D01*
X485237574Y58614128D01*
X485242646Y58738784D01*
X485242646Y58847044D01*
X484842027Y58847044D01*
X484842027Y58646643D01*
X484836543Y58562595D01*
X484825174Y58527666D01*
X484802988Y58508398D01*
X484765182Y58501196D01*
X484727299Y58509810D01*
X484701160Y58534902D01*
X484686105Y58573502D01*
X484680094Y58635286D01*
X484686109Y58733624D01*
X484700689Y58793214D01*
X484720027Y58826619D01*
X484777501Y58876615D01*
X484921986Y58977470D01*
X485068134Y59078736D01*
X485135118Y59132442D01*
X485181443Y59187661D01*
X485221672Y59265615D01*
X485246587Y59357283D01*
X485256018Y59482869D01*
X485249289Y59610483D01*
X485231940Y59700349D01*
X485207383Y59761581D01*
X485169387Y59814787D01*
X485117714Y59860601D01*
X485050030Y59899334D01*
X484975985Y59926046D01*
X484889290Y59943037D01*
X484787713Y59949068D01*
X484676640Y59942442D01*
X484581999Y59923788D01*
X484501308Y59894480D01*
X484427254Y59852128D01*
X484376615Y59806389D01*
X484344596Y59757093D01*
X484325598Y59699660D01*
X484311661Y59609657D01*
X484306127Y59475634D01*
X484306127Y59409780D01*
G37*
G36*
X483794465Y59631973D02*
G01*
X483877968Y59613487D01*
X483952861Y59583620D01*
X484020122Y59541017D01*
X484072119Y59488803D01*
X484110672Y59426083D01*
X484135751Y59355705D01*
X484152591Y59263783D01*
X484158849Y59145265D01*
X484158849Y58749225D01*
X484152584Y58606840D01*
X484137325Y58518507D01*
X484107480Y58443035D01*
X484060022Y58373244D01*
X484019428Y58333682D01*
X483967957Y58299004D01*
X483903768Y58269379D01*
X483798554Y58241495D01*
X483672134Y58231552D01*
X483582348Y58236330D01*
X483508188Y58249563D01*
X483447186Y58269929D01*
X483390659Y58299977D01*
X483341571Y58338217D01*
X483299175Y58385150D01*
X483249811Y58462783D01*
X483224895Y58529590D01*
X483213575Y58604475D01*
X483208958Y58723213D01*
X483208958Y58823597D01*
X483601426Y58823597D01*
X483601426Y58644170D01*
X483606458Y58550923D01*
X483617363Y58507241D01*
X483640151Y58481222D01*
X483680286Y58471887D01*
X483712927Y58479008D01*
X483731577Y58498540D01*
X483740513Y58533372D01*
X483744857Y58617425D01*
X483744857Y58911524D01*
X483208958Y58911524D01*
X483208958Y59091409D01*
X483215009Y59223440D01*
X483216489Y59232643D01*
X483623957Y59232643D01*
X483623957Y59134274D01*
X483744857Y59134274D01*
X483744857Y59232643D01*
X483741337Y59335672D01*
X483734599Y59372136D01*
X483717789Y59390734D01*
X483681293Y59398056D01*
X483652147Y59390280D01*
X483635223Y59367556D01*
X483627651Y59328026D01*
X483623957Y59232643D01*
X483216489Y59232643D01*
X483231085Y59323391D01*
X483254570Y59397598D01*
X483291872Y59464567D01*
X483344143Y59522566D01*
X483413389Y59572445D01*
X483491551Y59607716D01*
X483586178Y59630290D01*
X483700802Y59638391D01*
X483794465Y59631973D01*
G37*
G36*
X482647505Y59913897D02*
G01*
X482647505Y58255000D01*
X483073770Y58255000D01*
X483073770Y59913897D01*
X482647505Y59913897D01*
G37*
G36*
X482147291Y59631973D02*
G01*
X482230794Y59613487D01*
X482305687Y59583620D01*
X482372948Y59541017D01*
X482424945Y59488803D01*
X482463498Y59426083D01*
X482488577Y59355705D01*
X482505418Y59263783D01*
X482511675Y59145265D01*
X482511675Y58749225D01*
X482505410Y58606840D01*
X482490151Y58518507D01*
X482460306Y58443035D01*
X482412848Y58373244D01*
X482372254Y58333682D01*
X482320783Y58299004D01*
X482256594Y58269379D01*
X482151380Y58241495D01*
X482024960Y58231552D01*
X481935174Y58236330D01*
X481861015Y58249563D01*
X481800013Y58269929D01*
X481743485Y58299977D01*
X481694398Y58338217D01*
X481652001Y58385150D01*
X481602637Y58462783D01*
X481577721Y58529590D01*
X481566401Y58604475D01*
X481561784Y58723213D01*
X481561784Y58823597D01*
X481954252Y58823597D01*
X481954252Y58644170D01*
X481959284Y58550923D01*
X481970189Y58507241D01*
X481992977Y58481222D01*
X482033112Y58471887D01*
X482065753Y58479008D01*
X482084403Y58498540D01*
X482093339Y58533372D01*
X482097684Y58617425D01*
X482097684Y58911524D01*
X481561784Y58911524D01*
X481561784Y59091409D01*
X481567835Y59223440D01*
X481569315Y59232643D01*
X481976783Y59232643D01*
X481976783Y59134274D01*
X482097684Y59134274D01*
X482097684Y59232643D01*
X482094163Y59335672D01*
X482087425Y59372136D01*
X482070616Y59390734D01*
X482034119Y59398056D01*
X482004973Y59390280D01*
X481988049Y59367556D01*
X481980477Y59328026D01*
X481976783Y59232643D01*
X481569315Y59232643D01*
X481583911Y59323391D01*
X481607397Y59397598D01*
X481644698Y59464567D01*
X481696970Y59522566D01*
X481766215Y59572445D01*
X481844377Y59607716D01*
X481939004Y59630290D01*
X482053628Y59638391D01*
X482147291Y59631973D01*
G37*
G36*
X480511601Y59099103D02*
G01*
X480901962Y59099103D01*
X480901962Y59256823D01*
X480906163Y59332566D01*
X480915334Y59368655D01*
X480933899Y59390481D01*
X480964519Y59398056D01*
X480995243Y59391223D01*
X481012696Y59372411D01*
X481020946Y59338966D01*
X481024969Y59257830D01*
X481024969Y58617242D01*
X481019629Y58549457D01*
X481006559Y58508157D01*
X480983241Y58480632D01*
X480952246Y58471887D01*
X480916901Y58481506D01*
X480895368Y58510081D01*
X480885195Y58556783D01*
X480880530Y58654611D01*
X480880530Y58817735D01*
X480511601Y58817735D01*
X480515569Y58664562D01*
X480523416Y58572454D01*
X480544943Y58492057D01*
X480592018Y58404751D01*
X480634703Y58352057D01*
X480684850Y58309121D01*
X480743235Y58275241D01*
X480806881Y58251903D01*
X480882951Y58236918D01*
X480973770Y58231552D01*
X481089587Y58239172D01*
X481180544Y58259896D01*
X481251474Y58291361D01*
X481313524Y58337024D01*
X481361412Y58392541D01*
X481396462Y58459156D01*
X481418266Y58532681D01*
X481433286Y58632646D01*
X481438961Y58765620D01*
X481438961Y59151401D01*
X481434215Y59267514D01*
X481421826Y59352221D01*
X481404156Y59412253D01*
X481374351Y59465829D01*
X481326260Y59518007D01*
X481255595Y59569331D01*
X481177002Y59606730D01*
X481085658Y59630141D01*
X480978899Y59638391D01*
X480872805Y59630197D01*
X480781413Y59606877D01*
X480702202Y59569515D01*
X480632131Y59517740D01*
X480582210Y59460146D01*
X480549520Y59395949D01*
X480530090Y59324772D01*
X480516673Y59227917D01*
X480511601Y59099103D01*
G37*
G36*
X479952621Y59796660D02*
G01*
X479952621Y59579773D01*
X479840880Y59579773D01*
X479840880Y59362885D01*
X479952621Y59362885D01*
X479952621Y58636568D01*
X479947388Y58516598D01*
X479938790Y58487183D01*
X479913968Y58477444D01*
X479823477Y58471887D01*
X479823477Y58255000D01*
X479990539Y58255000D01*
X480121829Y58258561D01*
X480192406Y58266723D01*
X480249167Y58286058D01*
X480299018Y58320853D01*
X480336805Y58367016D01*
X480356354Y58417848D01*
X480363872Y58490540D01*
X480367620Y58674670D01*
X480367620Y59362885D01*
X480456738Y59362885D01*
X480456738Y59579773D01*
X480367620Y59579773D01*
X480367620Y59796660D01*
X479952621Y59796660D01*
G37*
G36*
X479323848Y59913897D02*
G01*
X479323848Y59697009D01*
X479750113Y59697009D01*
X479750113Y59913897D01*
X479323848Y59913897D01*
G37*
G36*
X479323848Y59614944D02*
G01*
X479323848Y58255000D01*
X479750113Y58255000D01*
X479750113Y59614944D01*
X479323848Y59614944D01*
G37*
G36*
X478836016Y59630461D02*
G01*
X478925736Y59608390D01*
X478999524Y59573911D01*
X479064315Y59525283D01*
X479112895Y59468632D01*
X479147077Y59403002D01*
X479168178Y59330717D01*
X479182602Y59234085D01*
X479188019Y59107346D01*
X479188019Y58759483D01*
X479181392Y58597359D01*
X479165487Y58500097D01*
X479134919Y58419086D01*
X479090199Y58352727D01*
X479051747Y58316717D01*
X479003001Y58286297D01*
X478942096Y58261686D01*
X478841101Y58239728D01*
X478709455Y58231552D01*
X478590889Y58240808D01*
X478491743Y58266815D01*
X478431712Y58295076D01*
X478380296Y58331483D01*
X478336496Y58376358D01*
X478286113Y58454240D01*
X478257636Y58535909D01*
X478244656Y58633579D01*
X478239135Y58804546D01*
X478239135Y59137021D01*
X478243606Y59239420D01*
X478653127Y59239420D01*
X478653127Y58613121D01*
X478656964Y58532726D01*
X478664942Y58498449D01*
X478682138Y58478990D01*
X478713577Y58471887D01*
X478744010Y58479436D01*
X478761754Y58501013D01*
X478770041Y58538530D01*
X478774027Y58626401D01*
X478774027Y59239420D01*
X478769922Y59334334D01*
X478761754Y59370945D01*
X478744067Y59390857D01*
X478712569Y59398056D01*
X478681286Y59390826D01*
X478664392Y59370945D01*
X478656898Y59334364D01*
X478653127Y59239420D01*
X478243606Y59239420D01*
X478245032Y59272068D01*
X478259102Y59351894D01*
X478286932Y59420139D01*
X478333382Y59489006D01*
X478372964Y59529120D01*
X478423743Y59565134D01*
X478487622Y59596900D01*
X478555482Y59619174D01*
X478634606Y59633359D01*
X478726857Y59638391D01*
X478836016Y59630461D01*
G37*
G36*
X477681803Y59614944D02*
G01*
X477689039Y59490380D01*
X477637975Y59556148D01*
X477578947Y59601388D01*
X477510024Y59628844D01*
X477428737Y59638391D01*
X477359313Y59632312D01*
X477302069Y59615267D01*
X477254623Y59588199D01*
X477214321Y59551218D01*
X477185659Y59509353D01*
X477167520Y59461712D01*
X477153940Y59372782D01*
X477148011Y59207272D01*
X477148011Y58255000D01*
X477561911Y58255000D01*
X477561911Y59196281D01*
X477565111Y59323410D01*
X477571161Y59367281D01*
X477587532Y59389736D01*
X477622361Y59398056D01*
X477658990Y59388760D01*
X477677773Y59362702D01*
X477685179Y59313058D01*
X477689039Y59173750D01*
X477689039Y58255000D01*
X478102939Y58255000D01*
X478102939Y59614944D01*
X477681803Y59614944D01*
G37*
G36*
X476192349Y59913897D02*
G01*
X476192349Y58589124D01*
X475930033Y58589124D01*
X475930033Y58255000D01*
X476623743Y58255000D01*
X476623743Y59913897D01*
X476192349Y59913897D01*
G37*
G36*
X475497705Y59630461D02*
G01*
X475587424Y59608390D01*
X475661213Y59573911D01*
X475726004Y59525283D01*
X475774583Y59468632D01*
X475808766Y59403002D01*
X475829867Y59330717D01*
X475844291Y59234085D01*
X475849707Y59107346D01*
X475849707Y58759483D01*
X475843081Y58597359D01*
X475827176Y58500097D01*
X475796608Y58419086D01*
X475751888Y58352727D01*
X475713436Y58316717D01*
X475664690Y58286297D01*
X475603785Y58261686D01*
X475502790Y58239728D01*
X475371144Y58231552D01*
X475252578Y58240808D01*
X475153432Y58266815D01*
X475093401Y58295076D01*
X475041985Y58331483D01*
X474998185Y58376358D01*
X474947802Y58454240D01*
X474919325Y58535909D01*
X474906345Y58633579D01*
X474900824Y58804546D01*
X474900824Y59137021D01*
X474905295Y59239420D01*
X475314815Y59239420D01*
X475314815Y58613121D01*
X475318653Y58532726D01*
X475326631Y58498449D01*
X475343827Y58478990D01*
X475375266Y58471887D01*
X475405698Y58479436D01*
X475423442Y58501013D01*
X475431729Y58538530D01*
X475435716Y58626401D01*
X475435716Y59239420D01*
X475431611Y59334334D01*
X475423442Y59370945D01*
X475405756Y59390857D01*
X475374258Y59398056D01*
X475342974Y59390826D01*
X475326081Y59370945D01*
X475318586Y59334364D01*
X475314815Y59239420D01*
X474905295Y59239420D01*
X474906721Y59272068D01*
X474920791Y59351894D01*
X474948621Y59420139D01*
X474995071Y59489006D01*
X475034653Y59529120D01*
X475085432Y59565134D01*
X475149310Y59596900D01*
X475217171Y59619174D01*
X475296295Y59633359D01*
X475388546Y59638391D01*
X475497705Y59630461D01*
G37*
G36*
X474565782Y59632366D02*
G01*
X474623039Y59615605D01*
X474669579Y59589241D01*
X474707292Y59553211D01*
X474742955Y59492087D01*
X474767522Y59402387D01*
X474776993Y59274225D01*
X474776993Y58779816D01*
X474769322Y58652345D01*
X474750340Y58570989D01*
X474727812Y58525722D01*
X474695284Y58486474D01*
X474651513Y58452561D01*
X474601407Y58428354D01*
X474540844Y58412931D01*
X474467506Y58407407D01*
X474404277Y58413628D01*
X474344042Y58432228D01*
X474287380Y58462436D01*
X474231843Y58505593D01*
X474231843Y58403652D01*
X474236778Y58323565D01*
X474247230Y58288339D01*
X474268807Y58268526D01*
X474309695Y58260861D01*
X474345074Y58269943D01*
X474366611Y58296489D01*
X474375274Y58348789D01*
X474776993Y58348789D01*
X474766138Y58251954D01*
X474740818Y58179486D01*
X474703187Y58125770D01*
X474652978Y58087113D01*
X474570308Y58051956D01*
X474466070Y58028938D01*
X474335341Y58020526D01*
X474228021Y58025107D01*
X474140000Y58037713D01*
X474068353Y58056888D01*
X474000582Y58085970D01*
X473946098Y58121235D01*
X473902939Y58162493D01*
X473854264Y58233045D01*
X473833788Y58293559D01*
X473827201Y58373990D01*
X473823988Y58567691D01*
X473823988Y59252976D01*
X474238987Y59252976D01*
X474238987Y58829917D01*
X474243061Y58723842D01*
X474251352Y58680623D01*
X474270202Y58656333D01*
X474304566Y58647742D01*
X474334966Y58654953D01*
X474351735Y58675036D01*
X474359327Y58710284D01*
X474363001Y58793921D01*
X474363001Y59252976D01*
X474358303Y59332107D01*
X474348163Y59368655D01*
X474328305Y59390535D01*
X474297422Y59398056D01*
X474266111Y59391093D01*
X474249795Y59372319D01*
X474242565Y59338229D01*
X474238987Y59252976D01*
X473823988Y59252976D01*
X473823988Y59614944D01*
X474209311Y59614944D01*
X474238987Y59510713D01*
X474293550Y59567304D01*
X474353292Y59606426D01*
X474420037Y59630233D01*
X474495167Y59638391D01*
X474565782Y59632366D01*
G37*
G36*
X473249528Y59913897D02*
G01*
X473249528Y59697009D01*
X473675793Y59697009D01*
X473675793Y59913897D01*
X473249528Y59913897D01*
G37*
G36*
X473249528Y59614944D02*
G01*
X473249528Y58255000D01*
X473675793Y58255000D01*
X473675793Y59614944D01*
X473249528Y59614944D01*
G37*
G36*
X472186339Y59099103D02*
G01*
X472576700Y59099103D01*
X472576700Y59256823D01*
X472580901Y59332566D01*
X472590073Y59368655D01*
X472608638Y59390481D01*
X472639257Y59398056D01*
X472669981Y59391223D01*
X472687434Y59372411D01*
X472695684Y59338966D01*
X472699707Y59257830D01*
X472699707Y58617242D01*
X472694368Y58549457D01*
X472681297Y58508157D01*
X472657980Y58480632D01*
X472626984Y58471887D01*
X472591639Y58481506D01*
X472570106Y58510081D01*
X472559934Y58556783D01*
X472555268Y58654611D01*
X472555268Y58817735D01*
X472186339Y58817735D01*
X472190308Y58664562D01*
X472198155Y58572454D01*
X472219681Y58492057D01*
X472266756Y58404751D01*
X472309442Y58352057D01*
X472359588Y58309121D01*
X472417973Y58275241D01*
X472481619Y58251903D01*
X472557689Y58236918D01*
X472648508Y58231552D01*
X472764325Y58239172D01*
X472855282Y58259896D01*
X472926212Y58291361D01*
X472988262Y58337024D01*
X473036150Y58392541D01*
X473071201Y58459156D01*
X473093004Y58532681D01*
X473108024Y58632646D01*
X473113699Y58765620D01*
X473113699Y59151401D01*
X473108954Y59267514D01*
X473096564Y59352221D01*
X473078894Y59412253D01*
X473049090Y59465829D01*
X473000998Y59518007D01*
X472930334Y59569331D01*
X472851740Y59606730D01*
X472760397Y59630141D01*
X472653637Y59638391D01*
X472547543Y59630197D01*
X472456151Y59606877D01*
X472376940Y59569515D01*
X472306869Y59517740D01*
X472256948Y59460146D01*
X472224258Y59395949D01*
X472204828Y59324772D01*
X472191411Y59227917D01*
X472186339Y59099103D01*
G37*
G36*
X457590219Y49199917D02*
G01*
X457590219Y49600536D01*
X457466388Y49600536D01*
X457387777Y49605584D01*
X457356021Y49615923D01*
X457338618Y49635596D01*
X457332299Y49667123D01*
X457340254Y49701566D01*
X457363715Y49726107D01*
X457399775Y49740336D01*
X457458878Y49746074D01*
X457535226Y49739586D01*
X457582434Y49723543D01*
X457622540Y49689400D01*
X457684283Y49601635D01*
X457809164Y49410592D01*
X457901032Y49297592D01*
X457967575Y49238843D01*
X458022624Y49209409D01*
X458096601Y49185892D01*
X458194265Y49169960D01*
X458321116Y49164013D01*
X458439972Y49169742D01*
X458524390Y49184551D01*
X458582425Y49205504D01*
X458632648Y49239322D01*
X458679552Y49291307D01*
X458723292Y49365880D01*
X458754173Y49446985D01*
X458773440Y49538611D01*
X458780170Y49642576D01*
X458772318Y49756463D01*
X458750081Y49854114D01*
X458714774Y49938141D01*
X458664710Y50013400D01*
X458609416Y50065522D01*
X458548262Y50098517D01*
X458479505Y50117950D01*
X458385871Y50131363D01*
X458261215Y50136435D01*
X458152955Y50136435D01*
X458152955Y49735816D01*
X458353356Y49735816D01*
X458437404Y49730332D01*
X458472333Y49718963D01*
X458491601Y49696778D01*
X458498803Y49658971D01*
X458490189Y49621089D01*
X458465097Y49594949D01*
X458426497Y49579894D01*
X458364713Y49573883D01*
X458266375Y49579898D01*
X458206785Y49594478D01*
X458173380Y49613817D01*
X458123384Y49671291D01*
X458022529Y49815775D01*
X457921263Y49961924D01*
X457867557Y50028907D01*
X457812338Y50075233D01*
X457734384Y50115461D01*
X457642716Y50140376D01*
X457517130Y50149808D01*
X457389516Y50143079D01*
X457299650Y50125730D01*
X457238418Y50101173D01*
X457185212Y50063176D01*
X457139398Y50011503D01*
X457100665Y49943819D01*
X457073953Y49869774D01*
X457056962Y49783080D01*
X457050931Y49681502D01*
X457057557Y49570429D01*
X457076211Y49475788D01*
X457105519Y49395097D01*
X457147871Y49321043D01*
X457193610Y49270404D01*
X457242906Y49238385D01*
X457300339Y49219387D01*
X457390342Y49205450D01*
X457524365Y49199917D01*
X457590219Y49199917D01*
G37*
G36*
X458745000Y48596606D02*
G01*
X457994685Y48596606D01*
X457999503Y48537610D01*
X458011020Y48503933D01*
X458026559Y48486514D01*
X458071225Y48472544D01*
X458192064Y48465448D01*
X458745000Y48465448D01*
X458745000Y48064829D01*
X458306370Y48064829D01*
X458123895Y48068558D01*
X458060356Y48075636D01*
X458016126Y48093233D01*
X457962262Y48130408D01*
X457932511Y48163885D01*
X457903770Y48218656D01*
X457876991Y48302507D01*
X457859975Y48210952D01*
X457832640Y48150706D01*
X457797307Y48113005D01*
X457749403Y48089539D01*
X457667778Y48071981D01*
X457537738Y48064829D01*
X457397268Y48074114D01*
X457297998Y48098214D01*
X457229717Y48132972D01*
X457172637Y48183736D01*
X457133204Y48241975D01*
X457109641Y48309193D01*
X457093534Y48441765D01*
X457089437Y48596606D01*
X457367470Y48596606D01*
X457374839Y48528729D01*
X457392108Y48493658D01*
X457425172Y48474016D01*
X457495697Y48465448D01*
X457587014Y48465448D01*
X457661145Y48470234D01*
X457699656Y48481127D01*
X457716798Y48494665D01*
X457730763Y48529942D01*
X457736765Y48596606D01*
X457367470Y48596606D01*
X457089437Y48596606D01*
X457086102Y48722636D01*
X457086102Y49028000D01*
X458745000Y49028000D01*
X458745000Y48596606D01*
G37*
G36*
X458745000Y47549720D02*
G01*
X458446046Y47524166D01*
X458446046Y47369378D01*
X458745000Y47347945D01*
X458745000Y46906293D01*
X457086102Y47153223D01*
X457086102Y47447322D01*
X457451184Y47447322D01*
X457853204Y47412960D01*
X458152955Y47381742D01*
X458152955Y47529296D01*
X457900306Y47504404D01*
X457451184Y47447322D01*
X457086102Y47447322D01*
X457086102Y47777233D01*
X458745000Y47996502D01*
X458745000Y47549720D01*
G37*
G36*
X457086102Y45501744D02*
G01*
X458745000Y45501744D01*
X458745000Y45878825D01*
X457625024Y45878825D01*
X458745000Y46029400D01*
X458745000Y46296846D01*
X457648471Y46455665D01*
X458745000Y46455665D01*
X458745000Y46832745D01*
X457086102Y46832745D01*
X457086102Y46274315D01*
X457438728Y46222016D01*
X457860688Y46162665D01*
X457086102Y46064296D01*
X457086102Y45501744D01*
G37*
G36*
X457912620Y44600854D02*
G01*
X457770104Y44600854D01*
X457666788Y44597363D01*
X457629146Y44590596D01*
X457609488Y44573784D01*
X457601943Y44538389D01*
X457610082Y44506653D01*
X457634275Y44485633D01*
X457675833Y44474865D01*
X457773218Y44469696D01*
X458099099Y44469696D01*
X458377994Y44469696D01*
X458470560Y44473717D01*
X458504115Y44481511D01*
X458521455Y44498703D01*
X458528112Y44532161D01*
X458520022Y44567169D01*
X458497520Y44587024D01*
X458457593Y44596330D01*
X458361599Y44600854D01*
X458275078Y44596267D01*
X458220641Y44585009D01*
X458191018Y44569305D01*
X458151604Y44533994D01*
X458099099Y44469696D01*
X457773218Y44469696D01*
X457851033Y44474286D01*
X457885967Y44484076D01*
X457914612Y44522504D01*
X457993403Y44702337D01*
X458048411Y44830036D01*
X458090482Y44903732D01*
X458122272Y44941024D01*
X458162616Y44964990D01*
X458228280Y44982283D01*
X458329817Y44989200D01*
X458441284Y44989200D01*
X458547158Y44981754D01*
X458622019Y44962370D01*
X458673573Y44934234D01*
X458707630Y44898525D01*
X458741526Y44835822D01*
X458761658Y44769806D01*
X458768447Y44699223D01*
X458758921Y44620509D01*
X458731902Y44556341D01*
X458687310Y44502845D01*
X458622267Y44458430D01*
X458745000Y44458430D01*
X458745000Y44055704D01*
X458063012Y44055704D01*
X457754419Y44062634D01*
X457618155Y44077228D01*
X457551339Y44100280D01*
X457491044Y44141991D01*
X457435888Y44205364D01*
X457397356Y44280320D01*
X457371389Y44383110D01*
X457361608Y44521903D01*
X457369755Y44637321D01*
X457392280Y44730967D01*
X457427187Y44806843D01*
X457475908Y44875100D01*
X457526107Y44922503D01*
X457578221Y44952839D01*
X457636619Y44971519D01*
X457715947Y44984354D01*
X457821487Y44989200D01*
X457912620Y44989200D01*
X457912620Y44600854D01*
G37*
G36*
X457385055Y43491503D02*
G01*
X457509619Y43498739D01*
X457443851Y43447675D01*
X457398611Y43388647D01*
X457371155Y43319724D01*
X457361608Y43238437D01*
X457367687Y43169013D01*
X457384732Y43111769D01*
X457411800Y43064323D01*
X457448781Y43024021D01*
X457490646Y42995359D01*
X457538287Y42977219D01*
X457627217Y42963640D01*
X457792727Y42957711D01*
X458745000Y42957711D01*
X458745000Y43371611D01*
X457803718Y43371611D01*
X457676589Y43374811D01*
X457632718Y43380861D01*
X457610263Y43397232D01*
X457601943Y43432061D01*
X457611239Y43468690D01*
X457637297Y43487473D01*
X457686941Y43494879D01*
X457826250Y43498739D01*
X458745000Y43498739D01*
X458745000Y43912639D01*
X457385055Y43912639D01*
X457385055Y43491503D01*
G37*
G36*
X458523674Y42821352D02*
G01*
X458600652Y42807410D01*
X458641817Y42789299D01*
X458680680Y42759751D01*
X458717797Y42716734D01*
X458745629Y42667462D01*
X458762584Y42612268D01*
X458768447Y42549672D01*
X458760750Y42479579D01*
X458737581Y42412377D01*
X458699895Y42349640D01*
X458644890Y42287356D01*
X458745000Y42287356D01*
X458745000Y41873364D01*
X457086102Y41873364D01*
X457086102Y42287356D01*
X457473532Y42287356D01*
X457424104Y42343242D01*
X457419725Y42350920D01*
X457601943Y42350920D01*
X457608869Y42318286D01*
X457627588Y42300178D01*
X457659370Y42291409D01*
X457727789Y42287356D01*
X458356195Y42287356D01*
X458459404Y42291835D01*
X458498986Y42300728D01*
X458520366Y42319843D01*
X458528112Y42353942D01*
X458521230Y42383814D01*
X458502008Y42401112D01*
X458468800Y42409433D01*
X458393015Y42413385D01*
X457727789Y42413385D01*
X457655168Y42409199D01*
X457625024Y42400562D01*
X457608261Y42382880D01*
X457601943Y42350920D01*
X457419725Y42350920D01*
X457389635Y42403676D01*
X457368779Y42470085D01*
X457361608Y42544543D01*
X457367404Y42609236D01*
X457384077Y42665780D01*
X457411250Y42715727D01*
X457447784Y42759436D01*
X457485979Y42789264D01*
X457526380Y42807410D01*
X457603160Y42821280D01*
X457748397Y42827377D01*
X458383764Y42827377D01*
X458523674Y42821352D01*
G37*
G36*
X457086102Y41343143D02*
G01*
X457086102Y40623879D01*
X457420226Y40623879D01*
X457420226Y40911749D01*
X457730903Y40911749D01*
X457730903Y40642288D01*
X458047442Y40642288D01*
X458047442Y40911749D01*
X458410875Y40911749D01*
X458410875Y40595119D01*
X458745000Y40595119D01*
X458745000Y41343143D01*
X457086102Y41343143D01*
G37*
G36*
X457086102Y40471196D02*
G01*
X457086102Y39751932D01*
X457420226Y39751932D01*
X457420226Y40039802D01*
X457730903Y40039802D01*
X457730903Y39770341D01*
X458047442Y39770341D01*
X458047442Y40039802D01*
X458410875Y40039802D01*
X458410875Y39723172D01*
X458745000Y39723172D01*
X458745000Y40471196D01*
X457086102Y40471196D01*
G37*
G36*
X458745000Y39167855D02*
G01*
X458076751Y39167855D01*
X458076751Y39052084D01*
X458071798Y38958052D01*
X458058281Y38882813D01*
X458037825Y38823107D01*
X458006890Y38769084D01*
X457969811Y38729720D01*
X457926175Y38702664D01*
X457876070Y38686241D01*
X457801465Y38674469D01*
X457694633Y38669875D01*
X457550194Y38669875D01*
X457404660Y38674908D01*
X457320209Y38686819D01*
X457250869Y38711684D01*
X457193722Y38751391D01*
X457149326Y38807747D01*
X457113763Y38893815D01*
X457094105Y38998770D01*
X457086102Y39164833D01*
X457086102Y39167855D01*
X457367470Y39167855D01*
X457375463Y39092254D01*
X457393390Y39057213D01*
X457428138Y39038832D01*
X457505314Y39030560D01*
X457643067Y39030560D01*
X457727634Y39037821D01*
X457765891Y39053641D01*
X457787049Y39083175D01*
X457795383Y39136073D01*
X457794376Y39167855D01*
X457367470Y39167855D01*
X457086102Y39167855D01*
X457086102Y39599249D01*
X458745000Y39599249D01*
X458745000Y39167855D01*
G37*
G36*
X458745000Y38114192D02*
G01*
X457994685Y38114192D01*
X457999503Y38055196D01*
X458011020Y38021518D01*
X458026559Y38004099D01*
X458071225Y37990129D01*
X458192064Y37983033D01*
X458745000Y37983033D01*
X458745000Y37582414D01*
X458306370Y37582414D01*
X458123895Y37586144D01*
X458060356Y37593222D01*
X458016126Y37610818D01*
X457962262Y37647993D01*
X457932511Y37681471D01*
X457903770Y37736242D01*
X457876991Y37820093D01*
X457859975Y37728538D01*
X457832640Y37668292D01*
X457797307Y37630591D01*
X457749403Y37607125D01*
X457667778Y37589567D01*
X457537738Y37582414D01*
X457397268Y37591699D01*
X457297998Y37615799D01*
X457229717Y37650558D01*
X457172637Y37701321D01*
X457133204Y37759560D01*
X457109641Y37826779D01*
X457093534Y37959350D01*
X457089437Y38114192D01*
X457367470Y38114192D01*
X457374839Y38046315D01*
X457392108Y38011243D01*
X457425172Y37991601D01*
X457495697Y37983033D01*
X457587014Y37983033D01*
X457661145Y37987820D01*
X457699656Y37998713D01*
X457716798Y38012251D01*
X457730763Y38047527D01*
X457736765Y38114192D01*
X457367470Y38114192D01*
X457089437Y38114192D01*
X457086102Y38240221D01*
X457086102Y38545586D01*
X458745000Y38545586D01*
X458745000Y38114192D01*
G37*
G36*
X458294547Y37424214D02*
G01*
X458416279Y37415718D01*
X458482533Y37401839D01*
X458545482Y37376443D01*
X458605964Y37338873D01*
X458658882Y37291558D01*
X458702304Y37235068D01*
X458736665Y37168239D01*
X458760379Y37096313D01*
X458775079Y37016944D01*
X458780170Y36929003D01*
X458774687Y36836277D01*
X458759040Y36754827D01*
X458734100Y36683081D01*
X458698248Y36616596D01*
X458654272Y36561176D01*
X458601843Y36515561D01*
X458542173Y36479674D01*
X458479083Y36455237D01*
X458411700Y36441830D01*
X458289337Y36433622D01*
X458057517Y36430015D01*
X457773585Y36430015D01*
X457536555Y36433793D01*
X457414822Y36442288D01*
X457348571Y36456170D01*
X457285653Y36481567D01*
X457225229Y36519133D01*
X457172263Y36566458D01*
X457128842Y36622947D01*
X457094528Y36689767D01*
X457070763Y36761698D01*
X457056032Y36841067D01*
X457051048Y36926988D01*
X457332299Y36926988D01*
X457340688Y36893302D01*
X457364539Y36874232D01*
X457407050Y36865647D01*
X457512550Y36861409D01*
X458274496Y36861409D01*
X458407817Y36865535D01*
X458459877Y36873774D01*
X458481529Y36885511D01*
X458494203Y36903570D01*
X458498803Y36930102D01*
X458489893Y36966073D01*
X458465006Y36984965D01*
X458417810Y36992685D01*
X458286769Y36996689D01*
X457512550Y36996689D01*
X457397132Y36990469D01*
X457358402Y36978737D01*
X457338939Y36957049D01*
X457332299Y36926988D01*
X457051048Y36926988D01*
X457050931Y36929003D01*
X457056425Y37021725D01*
X457072102Y37103174D01*
X457097093Y37174925D01*
X457132892Y37241408D01*
X457176837Y37296827D01*
X457229259Y37342445D01*
X457288927Y37378342D01*
X457352018Y37402810D01*
X457419402Y37416268D01*
X457541765Y37424412D01*
X457773585Y37427991D01*
X458057517Y37427991D01*
X458294547Y37424214D01*
G37*
G36*
X457086102Y34937264D02*
G01*
X458745000Y34937264D01*
X458745000Y35314344D01*
X457625024Y35314344D01*
X458745000Y35464920D01*
X458745000Y35732366D01*
X457648471Y35891185D01*
X458745000Y35891185D01*
X458745000Y36268265D01*
X457086102Y36268265D01*
X457086102Y35709835D01*
X457438728Y35657536D01*
X457860688Y35598185D01*
X457086102Y35499816D01*
X457086102Y34937264D01*
G37*
%TO.C,U7*%
D12*
X464707000Y52033750D02*
X464707000Y56351750D01*
X465215000Y56859750D02*
X468263000Y56859750D01*
X468263000Y56859750D02*
X468263000Y52033750D01*
X468263000Y52033750D02*
X464707000Y52033750D01*
D13*
X464961000Y56669250D02*
G75*
G02*
X464834000Y56669250I-63500J0D01*
G01*
X464834000Y56669250D02*
G75*
G02*
X464961000Y56669250I63500J0D01*
G01*
%TO.C,RV1*%
D12*
X421260000Y62609250D02*
X421260000Y59069250D01*
X421260000Y56899250D02*
X421260000Y57149250D01*
X421360000Y56899250D02*
X421260000Y56899250D01*
X421360000Y56699250D02*
X421360000Y56899250D01*
X421360000Y56699250D02*
X422780000Y56699250D01*
X422070000Y60109250D02*
X422070000Y59359250D01*
X422780000Y56899250D02*
X422780000Y56699250D01*
X422780000Y56899250D02*
X426360000Y56899250D01*
X422820000Y60109250D02*
X422070000Y60109250D01*
X424060000Y63919250D02*
X422570000Y63919250D01*
X424570000Y60859250D02*
X424570000Y61859250D01*
X426320000Y60109250D02*
X427070000Y60109250D01*
X426360000Y56899250D02*
X426360000Y56699250D01*
X426360000Y56699250D02*
X427780000Y56699250D01*
X426570000Y63919250D02*
X425080000Y63919250D01*
X427070000Y60109250D02*
X427070000Y59359250D01*
X427780000Y56899250D02*
X427880000Y56899250D01*
X427780000Y56699250D02*
X427780000Y56899250D01*
X427880000Y58629250D02*
X427880000Y62609250D01*
X427880000Y56899250D02*
X427880000Y57589250D01*
X422820000Y60859250D02*
X426320000Y60859250D01*
X426320000Y59359250D01*
X422820000Y59359250D01*
X422820000Y60859250D01*
X421260000Y62609250D02*
G75*
G02*
X422570000Y63919250I1310000J0D01*
G01*
X426570000Y63919250D02*
G75*
G02*
X427880000Y62609250I0J-1310000D01*
G01*
X424570000Y60859250D02*
X424320000Y61359250D01*
X424820000Y61359250D01*
X424570000Y60859250D01*
G36*
X424570000Y60859250D02*
G01*
X424320000Y61359250D01*
X424820000Y61359250D01*
X424570000Y60859250D01*
G37*
%TO.C,R3*%
X466185000Y29248250D02*
X466566000Y29629250D01*
X466185000Y27470250D02*
X466566000Y27089250D01*
X466566000Y29629250D02*
X467963000Y29629250D01*
X466566000Y27089250D02*
X467963000Y27089250D01*
X467963000Y29629250D02*
X468090000Y29502250D01*
X467963000Y27089250D02*
X468090000Y27216250D01*
X468090000Y29502250D02*
X469360000Y29502250D01*
X468090000Y27216250D02*
X469360000Y27216250D01*
X470630000Y29502250D02*
X469360000Y29502250D01*
X470630000Y27216250D02*
X469360000Y27216250D01*
X470757000Y29629250D02*
X470630000Y29502250D01*
X470757000Y27089250D02*
X470630000Y27216250D01*
X472154000Y29629250D02*
X470757000Y29629250D01*
X472154000Y27089250D02*
X470757000Y27089250D01*
X472535000Y29248250D02*
X472154000Y29629250D01*
X472535000Y27470250D02*
X472154000Y27089250D01*
%TO.C,U6*%
X464187000Y60574750D02*
X468505000Y60574750D01*
X464187000Y57018750D02*
X464187000Y60574750D01*
X469013000Y60066750D02*
X469013000Y57018750D01*
X469013000Y57018750D02*
X464187000Y57018750D01*
D13*
X468886000Y60384250D02*
G75*
G02*
X468759000Y60384250I-63500J0D01*
G01*
X468759000Y60384250D02*
G75*
G02*
X468886000Y60384250I63500J0D01*
G01*
%TO.C,U2*%
D12*
X431530000Y60229250D02*
X436790000Y60229250D01*
X431530000Y9309250D02*
X431530000Y60229250D01*
X438790000Y60229250D02*
X444050000Y60229250D01*
X444050000Y60229250D02*
X444050000Y9309250D01*
X444050000Y9309250D02*
X431530000Y9309250D01*
X438790000Y60229250D02*
G75*
G02*
X436790000Y60229250I-1000000J0D01*
G01*
%TO.C,U3*%
X479410000Y45506750D02*
X479410000Y36886750D01*
X479410000Y36886750D02*
X479785000Y36886750D01*
X479785000Y45506750D02*
X479410000Y45506750D01*
X497415000Y36886750D02*
X497790000Y36886750D01*
X497790000Y45506750D02*
X497415000Y45506750D01*
X497790000Y36886750D02*
X497790000Y45506750D01*
X497890000Y35286750D02*
X497420000Y35626750D01*
X497890000Y35966750D01*
X497890000Y35286750D01*
G36*
X497890000Y35286750D02*
G01*
X497420000Y35626750D01*
X497890000Y35966750D01*
X497890000Y35286750D01*
G37*
%TO.C,R4*%
X466205000Y32448250D02*
X466586000Y32829250D01*
X466205000Y30670250D02*
X466586000Y30289250D01*
X466586000Y32829250D02*
X467983000Y32829250D01*
X466586000Y30289250D02*
X467983000Y30289250D01*
X467983000Y32829250D02*
X468110000Y32702250D01*
X467983000Y30289250D02*
X468110000Y30416250D01*
X468110000Y32702250D02*
X469380000Y32702250D01*
X468110000Y30416250D02*
X469380000Y30416250D01*
X470650000Y32702250D02*
X469380000Y32702250D01*
X470650000Y30416250D02*
X469380000Y30416250D01*
X470777000Y32829250D02*
X470650000Y32702250D01*
X470777000Y30289250D02*
X470650000Y30416250D01*
X472174000Y32829250D02*
X470777000Y32829250D01*
X472174000Y30289250D02*
X470777000Y30289250D01*
X472555000Y32448250D02*
X472174000Y32829250D01*
X472555000Y30670250D02*
X472174000Y30289250D01*
%TO.C,U1*%
X481730000Y31969250D02*
X494250000Y31969250D01*
X481730000Y-18950750D02*
X481730000Y31969250D01*
X486990000Y-18950750D02*
X481730000Y-18950750D01*
X494250000Y31969250D02*
X494250000Y-18950750D01*
X494250000Y-18950750D02*
X488990000Y-18950750D01*
X486990000Y-18950750D02*
G75*
G02*
X488990000Y-18950750I1000000J0D01*
G01*
%TO.C,U4*%
X460210000Y45506750D02*
X460210000Y36886750D01*
X460210000Y36886750D02*
X460585000Y36886750D01*
X460585000Y45506750D02*
X460210000Y45506750D01*
X478215000Y36886750D02*
X478590000Y36886750D01*
X478590000Y45506750D02*
X478215000Y45506750D01*
X478590000Y36886750D02*
X478590000Y45506750D01*
X478690000Y35286750D02*
X478220000Y35626750D01*
X478690000Y35966750D01*
X478690000Y35286750D01*
G36*
X478690000Y35286750D02*
G01*
X478220000Y35626750D01*
X478690000Y35966750D01*
X478690000Y35286750D01*
G37*
%TO.C,R5*%
X466195000Y26048250D02*
X466576000Y26429250D01*
X466195000Y24270250D02*
X466576000Y23889250D01*
X466576000Y26429250D02*
X467973000Y26429250D01*
X466576000Y23889250D02*
X467973000Y23889250D01*
X467973000Y26429250D02*
X468100000Y26302250D01*
X467973000Y23889250D02*
X468100000Y24016250D01*
X468100000Y26302250D02*
X469370000Y26302250D01*
X468100000Y24016250D02*
X469370000Y24016250D01*
X470640000Y26302250D02*
X469370000Y26302250D01*
X470640000Y24016250D02*
X469370000Y24016250D01*
X470767000Y26429250D02*
X470640000Y26302250D01*
X470767000Y23889250D02*
X470640000Y24016250D01*
X472164000Y26429250D02*
X470767000Y26429250D01*
X472164000Y23889250D02*
X470767000Y23889250D01*
X472545000Y26048250D02*
X472164000Y26429250D01*
X472545000Y24270250D02*
X472164000Y23889250D01*
%TO.C,R6*%
X431005000Y63448250D02*
X431386000Y63829250D01*
X431005000Y61670250D02*
X431386000Y61289250D01*
X431386000Y63829250D02*
X432783000Y63829250D01*
X431386000Y61289250D02*
X432783000Y61289250D01*
X432783000Y63829250D02*
X432910000Y63702250D01*
X432783000Y61289250D02*
X432910000Y61416250D01*
X432910000Y63702250D02*
X434180000Y63702250D01*
X432910000Y61416250D02*
X434180000Y61416250D01*
X435450000Y63702250D02*
X434180000Y63702250D01*
X435450000Y61416250D02*
X434180000Y61416250D01*
X435577000Y63829250D02*
X435450000Y63702250D01*
X435577000Y61289250D02*
X435450000Y61416250D01*
X436974000Y63829250D02*
X435577000Y63829250D01*
X436974000Y61289250D02*
X435577000Y61289250D01*
X437355000Y63448250D02*
X436974000Y63829250D01*
X437355000Y61670250D02*
X436974000Y61289250D01*
%TO.C,R1*%
X466185000Y22848250D02*
X466566000Y23229250D01*
X466185000Y21070250D02*
X466566000Y20689250D01*
X466566000Y23229250D02*
X467963000Y23229250D01*
X466566000Y20689250D02*
X467963000Y20689250D01*
X467963000Y23229250D02*
X468090000Y23102250D01*
X467963000Y20689250D02*
X468090000Y20816250D01*
X468090000Y23102250D02*
X469360000Y23102250D01*
X468090000Y20816250D02*
X469360000Y20816250D01*
X470630000Y23102250D02*
X469360000Y23102250D01*
X470630000Y20816250D02*
X469360000Y20816250D01*
X470757000Y23229250D02*
X470630000Y23102250D01*
X470757000Y20689250D02*
X470630000Y20816250D01*
X472154000Y23229250D02*
X470757000Y23229250D01*
X472154000Y20689250D02*
X470757000Y20689250D01*
X472535000Y22848250D02*
X472154000Y23229250D01*
X472535000Y21070250D02*
X472154000Y20689250D01*
%TO.C,U5*%
X483887000Y51983750D02*
X483887000Y56301750D01*
X484395000Y56809750D02*
X487443000Y56809750D01*
X487443000Y56809750D02*
X487443000Y51983750D01*
X487443000Y51983750D02*
X483887000Y51983750D01*
D13*
X484141000Y56619250D02*
G75*
G02*
X484014000Y56619250I-63500J0D01*
G01*
X484014000Y56619250D02*
G75*
G02*
X484141000Y56619250I63500J0D01*
G01*
%TD*%
M02*
