M48
; DRILL file KiCad 10.0.1 date 2026-08-15T10:22:25
; FORMAT={-:-/ absolute / metric / decimal}
; #@! TF.CreationDate,2026-08-15T10:22:25+08:00
; #@! TF.GenerationSoftware,Kicad,Pcbnew,10.0.1
; #@! TF.FileFunction,Plated,1,2,PTH
FMAT,2
METRIC
; #@! TA.AperFunction,Plated,PTH,ViaDrill
T1C0.300
; #@! TA.AperFunction,Plated,PTH,ComponentDrill
T2C0.800
; #@! TA.AperFunction,Plated,PTH,ComponentDrill
T3C1.000
; #@! TA.AperFunction,Plated,PTH,ComponentDrill
T4C1.100
; #@! TA.AperFunction,Plated,PTH,ComponentDrill
T5C1.200
; #@! TA.AperFunction,Plated,PTH,ComponentDrill
T6C1.500
%
G90
G05
T1
X436.17Y25.959
X436.72Y28.559
X439.17Y30.959
X439.69Y33.559
X440.09Y36.159
X440.49Y38.559
X440.89Y41.159
X441.57Y51.359
X442.17Y49.822
X442.77Y49.225
X443.37Y48.559
X443.37Y47.759
X445.41Y43.659
X445.41Y41.119
X445.41Y38.579
X445.41Y36.039
X445.41Y30.959
X445.41Y28.419
X445.41Y25.879
X445.41Y23.339
X461.2Y48.597
X461.2Y37.197
X462.4Y49.197
X462.4Y37.797
X463.685Y49.597
X463.8Y38.197
X464.955Y49.997
X464.955Y38.597
X466.225Y50.397
X466.225Y38.997
X467.063Y29.052
X467.495Y39.397
X468.765Y50.797
X468.765Y39.797
X470.0Y51.197
X470.035Y40.197
X470.97Y57.959
X471.305Y51.597
X471.305Y40.597
X472.575Y51.997
X472.575Y40.997
X473.845Y52.397
X473.845Y41.397
X475.115Y52.797
X475.115Y41.797
X476.385Y53.197
X476.385Y42.197
X477.655Y42.597
X477.77Y53.597
X479.758Y33.259
X480.345Y46.759
X480.345Y35.634
X480.37Y7.779
X481.615Y46.759
X481.615Y35.634
X481.87Y10.359
X482.17Y0.019
X482.885Y46.759
X482.885Y35.634
X482.943Y9.742
X483.17Y-2.521
X483.67Y17.799
X483.77Y2.559
X484.155Y46.759
X484.155Y35.634
X484.37Y15.359
X484.37Y5.359
X484.715Y55.747
X485.37Y7.759
X485.425Y46.759
X485.425Y35.634
X485.77Y12.759
X486.37Y5.359
X486.695Y35.634
X486.97Y2.759
X487.37Y-17.541
X487.965Y46.759
X487.965Y35.634
X487.97Y0.159
X488.17Y-2.241
X488.37Y30.559
X488.77Y-16.941
X489.235Y46.759
X489.235Y35.634
X489.37Y-4.841
X490.17Y-15.041
X490.505Y46.759
X490.505Y35.634
X490.57Y-7.441
X490.77Y-12.441
X490.77Y-13.241
X490.77Y-15.641
X491.37Y26.559
X491.37Y-9.841
X491.57Y-3.441
X491.775Y46.759
X491.775Y35.634
X492.97Y28.159
X493.045Y46.759
X493.045Y35.634
X494.315Y46.759
X494.315Y35.634
X495.585Y46.759
X495.585Y35.634
X496.855Y35.634
X499.97Y-11.241
X500.57Y6.559
T2
X430.37Y62.559
X437.99Y62.559
X449.55Y29.999
X449.55Y14.759
X455.77Y5.359
X457.17Y29.999
X457.17Y14.759
X457.77Y5.359
X459.77Y5.359
X465.51Y18.709
X465.55Y28.359
X465.55Y21.959
X465.56Y25.159
X465.57Y31.559
X467.37Y5.359
X469.37Y5.359
X471.37Y5.359
X473.13Y18.709
X473.17Y28.359
X473.17Y21.959
X473.18Y25.159
X473.19Y31.559
T3
X422.07Y58.109
X424.57Y63.109
X427.07Y58.109
X477.21Y30.499
X477.21Y27.959
X477.21Y25.419
X477.21Y22.879
X477.21Y20.339
X477.21Y17.799
X477.21Y15.259
X477.21Y12.719
X477.21Y10.179
X477.21Y7.639
X477.21Y5.099
X477.21Y2.559
X477.21Y0.019
X477.21Y-2.521
X477.21Y-5.061
X477.21Y-7.601
X477.21Y-10.141
X477.21Y-12.681
X477.21Y-15.221
X477.21Y-17.761
X498.81Y30.719
X498.81Y28.179
X498.81Y25.639
X498.81Y23.099
X498.81Y20.559
X498.81Y18.019
X498.81Y15.479
X498.81Y12.939
X498.81Y10.399
X498.81Y7.859
X498.81Y5.319
X498.81Y2.779
X498.81Y0.239
X498.81Y-2.301
X498.81Y-4.841
X498.81Y-7.381
X498.81Y-9.921
X498.81Y-12.461
X498.81Y-15.001
X498.81Y-17.541
T4
X425.87Y-4.634
X425.87Y-9.134
X432.37Y-4.634
X432.37Y-9.134
X435.47Y3.166
X435.47Y-1.334
X435.52Y-12.584
X435.52Y-17.084
X441.97Y3.166
X441.97Y-1.334
X442.02Y-12.584
X442.02Y-17.084
X445.12Y-4.784
X445.12Y-9.284
X451.62Y-4.784
X451.62Y-9.284
X455.98Y-1.319
X455.98Y-5.819
X455.98Y-10.126
X455.98Y-14.626
X462.48Y-1.319
X462.48Y-5.819
X462.48Y-10.126
X462.48Y-14.626
X465.92Y15.409
X465.92Y10.909
X466.37Y-10.141
X466.37Y-14.641
X466.72Y-1.584
X466.72Y-6.084
X472.42Y15.409
X472.42Y10.909
X472.87Y-10.141
X472.87Y-14.641
X473.22Y-1.584
X473.22Y-6.084
T5
X428.5Y67.117
X431.04Y67.117
X433.58Y67.117
X436.12Y67.117
X438.66Y67.117
X441.2Y67.117
X443.74Y67.117
X446.28Y67.117
X448.82Y67.117
X451.36Y67.117
X453.9Y67.117
X456.44Y67.117
X458.98Y67.117
X461.52Y67.117
X464.06Y67.117
X466.6Y67.117
T6
X453.67Y5.359
X461.87Y5.359
X465.27Y5.359
X473.47Y5.359
M30
