%TF.GenerationSoftware,KiCad,Pcbnew,10.0.1*%
%TF.CreationDate,2026-08-15T10:22:26+08:00*%
%TF.ProjectId,z80badgev2,7a383062-6164-4676-9576-322e6b696361,rev?*%
%TF.SameCoordinates,Original*%
%TF.FileFunction,Copper,L1,Top*%
%TF.FilePolarity,Positive*%
%FSLAX46Y46*%
G04 Gerber Fmt 4.6, Leading zero omitted, Abs format (unit mm)*
G04 Created by KiCad (PCBNEW 10.0.1) date 2026-08-15 10:22:26*
%MOMM*%
%LPD*%
G01*
G04 APERTURE LIST*
%TA.AperFunction,ComponentPad*%
%ADD10C,2.000000*%
%TD*%
%TA.AperFunction,ComponentPad*%
%ADD11O,2.200000X3.500000*%
%TD*%
%TA.AperFunction,ComponentPad*%
%ADD12R,1.500000X2.500000*%
%TD*%
%TA.AperFunction,ComponentPad*%
%ADD13O,1.500000X2.500000*%
%TD*%
%TA.AperFunction,ComponentPad*%
%ADD14R,1.700000X1.700000*%
%TD*%
%TA.AperFunction,ComponentPad*%
%ADD15C,1.700000*%
%TD*%
%TA.AperFunction,ComponentPad*%
%ADD16R,1.600000X1.600000*%
%TD*%
%TA.AperFunction,ComponentPad*%
%ADD17C,1.600000*%
%TD*%
%TA.AperFunction,ComponentPad*%
%ADD18O,1.600000X1.600000*%
%TD*%
%TA.AperFunction,ComponentPad*%
%ADD19R,1.800000X2.600000*%
%TD*%
%TA.AperFunction,ComponentPad*%
%ADD20O,1.800000X2.600000*%
%TD*%
%TA.AperFunction,ComponentPad*%
%ADD21R,1.550000X1.550000*%
%TD*%
%TA.AperFunction,ComponentPad*%
%ADD22C,1.550000*%
%TD*%
%TA.AperFunction,ViaPad*%
%ADD23C,0.600000*%
%TD*%
%TA.AperFunction,Conductor*%
%ADD24C,0.200000*%
%TD*%
G04 APERTURE END LIST*
D10*
%TO.P,SW7,1,1_1*%
%TO.N,Net-(U2-PA3)*%
X435520000Y-12583607D03*
X442020000Y-12583607D03*
%TO.P,SW7,2,2_2*%
%TO.N,/Power*%
X435520000Y-17083607D03*
X442020000Y-17083607D03*
%TD*%
%TO.P,SW9,1,1_1*%
%TO.N,Net-(U2-PA5)*%
X455980000Y-10126464D03*
X462480000Y-10126464D03*
%TO.P,SW9,2,2_2*%
%TO.N,/Power*%
X455980000Y-14626464D03*
X462480000Y-14626464D03*
%TD*%
D11*
%TO.P,SW4,*%
%TO.N,*%
X461870000Y5359250D03*
X453670000Y5359250D03*
D12*
%TO.P,SW4,1,A_1*%
%TO.N,+5V*%
X459770000Y5359250D03*
D13*
%TO.P,SW4,2,B_2*%
%TO.N,/~{BUSREQ}*%
X457770000Y5359250D03*
%TO.P,SW4,3,C_3*%
%TO.N,GND*%
X455770000Y5359250D03*
%TD*%
D11*
%TO.P,SW5,*%
%TO.N,*%
X465270000Y5359250D03*
X473470000Y5359250D03*
D12*
%TO.P,SW5,1,A_1*%
%TO.N,+5V*%
X467370000Y5359250D03*
D13*
%TO.P,SW5,2,B_2*%
%TO.N,/Power*%
X469370000Y5359250D03*
%TO.P,SW5,3,C_3*%
%TO.N,unconnected-(SW5-C-Pad3)*%
X471370000Y5359250D03*
%TD*%
D10*
%TO.P,SW8,1,1_1*%
%TO.N,Net-(U2-PA4)*%
X455980000Y-1319321D03*
X462480000Y-1319321D03*
%TO.P,SW8,2,2_2*%
%TO.N,/Power*%
X455980000Y-5819321D03*
X462480000Y-5819321D03*
%TD*%
%TO.P,SW2,1,1_1*%
%TO.N,Net-(U2-PA0)*%
X435470000Y3166393D03*
X441970000Y3166393D03*
%TO.P,SW2,2,2_2*%
%TO.N,/Power*%
X435470000Y-1333607D03*
X441970000Y-1333607D03*
%TD*%
D14*
%TO.P,J3,1,Pin_1_1*%
%TO.N,/~{RD}*%
X498810000Y30719250D03*
D15*
%TO.P,J3,2,Pin_2_2*%
%TO.N,/~{WR}*%
X498810000Y28179250D03*
%TO.P,J3,3,Pin_3_3*%
%TO.N,/~{BUSACK}*%
X498810000Y25639250D03*
%TO.P,J3,4,Pin_4_4*%
%TO.N,/~{WAIT}*%
X498810000Y23099250D03*
%TO.P,J3,5,Pin_5_5*%
%TO.N,/~{BUSREQ}*%
X498810000Y20559250D03*
%TO.P,J3,6,Pin_6_6*%
%TO.N,/~{RESET}*%
X498810000Y18019250D03*
%TO.P,J3,7,Pin_7_7*%
%TO.N,/~{M1}*%
X498810000Y15479250D03*
%TO.P,J3,8,Pin_8_8*%
%TO.N,/~{RFSH}*%
X498810000Y12939250D03*
%TO.P,J3,9,Pin_9_9*%
%TO.N,GND*%
X498810000Y10399250D03*
%TO.P,J3,10,Pin_10_10*%
%TO.N,/A0*%
X498810000Y7859250D03*
%TO.P,J3,11,Pin_11_11*%
%TO.N,/A1*%
X498810000Y5319250D03*
%TO.P,J3,12,Pin_12_12*%
%TO.N,/A2*%
X498810000Y2779250D03*
%TO.P,J3,13,Pin_13_13*%
%TO.N,/A3*%
X498810000Y239250D03*
%TO.P,J3,14,Pin_14_14*%
%TO.N,/A4*%
X498810000Y-2300750D03*
%TO.P,J3,15,Pin_15_15*%
%TO.N,/A5*%
X498810000Y-4840750D03*
%TO.P,J3,16,Pin_16_16*%
%TO.N,/A6*%
X498810000Y-7380750D03*
%TO.P,J3,17,Pin_17_17*%
%TO.N,/A7*%
X498810000Y-9920750D03*
%TO.P,J3,18,Pin_18_18*%
%TO.N,/A8*%
X498810000Y-12460750D03*
%TO.P,J3,19,Pin_19_19*%
%TO.N,/A9*%
X498810000Y-15000750D03*
%TO.P,J3,20,Pin_20_20*%
%TO.N,/A10*%
X498810000Y-17540750D03*
%TD*%
D14*
%TO.P,J2,1,Pin_1_1*%
%TO.N,/A11*%
X477210000Y-17760750D03*
D15*
%TO.P,J2,2,Pin_2_2*%
%TO.N,/A12*%
X477210000Y-15220750D03*
%TO.P,J2,3,Pin_3_3*%
%TO.N,/A13*%
X477210000Y-12680750D03*
%TO.P,J2,4,Pin_4_4*%
%TO.N,/A14*%
X477210000Y-10140750D03*
%TO.P,J2,5,Pin_5_5*%
%TO.N,/A15*%
X477210000Y-7600750D03*
%TO.P,J2,6,Pin_6_6*%
%TO.N,/CLK*%
X477210000Y-5060750D03*
%TO.P,J2,7,Pin_7_7*%
%TO.N,/D4*%
X477210000Y-2520750D03*
%TO.P,J2,8,Pin_8_8*%
%TO.N,/D3*%
X477210000Y19250D03*
%TO.P,J2,9,Pin_9_9*%
%TO.N,/D5*%
X477210000Y2559250D03*
%TO.P,J2,10,Pin_10_10*%
%TO.N,/D6*%
X477210000Y5099250D03*
%TO.P,J2,11,Pin_11_11*%
%TO.N,+5V*%
X477210000Y7639250D03*
%TO.P,J2,12,Pin_12_12*%
%TO.N,/D2*%
X477210000Y10179250D03*
%TO.P,J2,13,Pin_13_13*%
%TO.N,/D7*%
X477210000Y12719250D03*
%TO.P,J2,14,Pin_14_14*%
%TO.N,/D0*%
X477210000Y15259250D03*
%TO.P,J2,15,Pin_15_15*%
%TO.N,/D1*%
X477210000Y17799250D03*
%TO.P,J2,16,Pin_16_16*%
%TO.N,/~{INT}*%
X477210000Y20339250D03*
%TO.P,J2,17,Pin_17_17*%
%TO.N,/~{NMI}*%
X477210000Y22879250D03*
%TO.P,J2,18,Pin_18_18*%
%TO.N,/~{HALT}*%
X477210000Y25419250D03*
%TO.P,J2,19,Pin_19_19*%
%TO.N,/~{MREQ}*%
X477210000Y27959250D03*
%TO.P,J2,20,Pin_20_20*%
%TO.N,/~{IORQ}*%
X477210000Y30499250D03*
%TD*%
D10*
%TO.P,SW3,1,1_1*%
%TO.N,Net-(U2-PA1)*%
X425870000Y-4633607D03*
X432370000Y-4633607D03*
%TO.P,SW3,2,2_2*%
%TO.N,/Power*%
X425870000Y-9133607D03*
X432370000Y-9133607D03*
%TD*%
%TO.P,SW10,1,1_1*%
%TO.N,Net-(U2-PA6)*%
X466720000Y-1583607D03*
X473220000Y-1583607D03*
%TO.P,SW10,2,2_2*%
%TO.N,/Power*%
X466720000Y-6083607D03*
X473220000Y-6083607D03*
%TD*%
%TO.P,SW11,1,1_1*%
%TO.N,Net-(U2-PA7)*%
X466370000Y-10140750D03*
X472870000Y-10140750D03*
%TO.P,SW11,2,2_2*%
%TO.N,/Power*%
X466370000Y-14640750D03*
X472870000Y-14640750D03*
%TD*%
%TO.P,SW6,1,1_1*%
%TO.N,Net-(U2-PA2)*%
X445120000Y-4783607D03*
X451620000Y-4783607D03*
%TO.P,SW6,2,2_2*%
%TO.N,/Power*%
X445120000Y-9283607D03*
X451620000Y-9283607D03*
%TD*%
%TO.P,SW1,1,1_1*%
%TO.N,/~{RESET}*%
X465920000Y15409250D03*
X472420000Y15409250D03*
%TO.P,SW1,2,2_2*%
%TO.N,GND*%
X465920000Y10909250D03*
X472420000Y10909250D03*
%TD*%
D16*
%TO.P,Y1,1,NC_1*%
%TO.N,unconnected-(Y1-NC-Pad1)*%
X457170000Y14759250D03*
D17*
%TO.P,Y1,7,GND_7*%
%TO.N,GND*%
X457170000Y29999250D03*
%TO.P,Y1,8,OUT_8*%
%TO.N,/CLK*%
X449550000Y29999250D03*
%TO.P,Y1,14,Vcc_14*%
%TO.N,/Power*%
X449550000Y14759250D03*
%TD*%
%TO.P,R2,1*%
%TO.N,/~{RESET}*%
X473130000Y18709250D03*
D18*
%TO.P,R2,2*%
%TO.N,/Power*%
X465510000Y18709250D03*
%TD*%
D19*
%TO.P,DS1,1,VSS_1*%
%TO.N,GND*%
X428500000Y67116750D03*
D20*
%TO.P,DS1,2,VDD_2*%
%TO.N,/Power*%
X431040000Y67116750D03*
%TO.P,DS1,3,VO_3*%
%TO.N,Net-(DS1-VO)*%
X433580000Y67116750D03*
%TO.P,DS1,4,RS_4*%
%TO.N,/RS LCD*%
X436120000Y67116750D03*
%TO.P,DS1,5,R/W_5*%
%TO.N,/R{slash}W LCD*%
X438660000Y67116750D03*
%TO.P,DS1,6,E_6*%
%TO.N,/E LCD*%
X441200000Y67116750D03*
%TO.P,DS1,7,D0_7*%
%TO.N,GND*%
X443740000Y67116750D03*
%TO.P,DS1,8,D1_8*%
X446280000Y67116750D03*
%TO.P,DS1,9,D2_9*%
X448820000Y67116750D03*
%TO.P,DS1,10,D3_10*%
X451360000Y67116750D03*
%TO.P,DS1,11,D4_11*%
%TO.N,/LCD4*%
X453900000Y67116750D03*
%TO.P,DS1,12,D5_12*%
%TO.N,/LCD5*%
X456440000Y67116750D03*
%TO.P,DS1,13,D6_13*%
%TO.N,/LCD6*%
X458980000Y67116750D03*
%TO.P,DS1,14,D7_14*%
%TO.N,/LCD7*%
X461520000Y67116750D03*
%TO.P,DS1,15,LED(+)_15*%
%TO.N,Net-(DS1-LED(+))*%
X464060000Y67116750D03*
%TO.P,DS1,16,LED(-)_16*%
%TO.N,GND*%
X466600000Y67116750D03*
%TD*%
D21*
%TO.P,RV1,1,1_1*%
%TO.N,GND*%
X422070000Y58109250D03*
D22*
%TO.P,RV1,2,2_2*%
%TO.N,Net-(DS1-VO)*%
X424570000Y63109250D03*
%TO.P,RV1,3,3_3*%
%TO.N,/Power*%
X427070000Y58109250D03*
%TD*%
D17*
%TO.P,R3,1*%
%TO.N,/~{WAIT}*%
X473170000Y28359250D03*
D18*
%TO.P,R3,2*%
%TO.N,/Power*%
X465550000Y28359250D03*
%TD*%
D17*
%TO.P,R4,1*%
%TO.N,/~{NMI}*%
X473190000Y31559250D03*
D18*
%TO.P,R4,2*%
%TO.N,/Power*%
X465570000Y31559250D03*
%TD*%
D17*
%TO.P,R5,1*%
%TO.N,/~{INT}*%
X473180000Y25159250D03*
D18*
%TO.P,R5,2*%
%TO.N,/Power*%
X465560000Y25159250D03*
%TD*%
D17*
%TO.P,R6,1*%
%TO.N,/Power*%
X430370000Y62559250D03*
D18*
%TO.P,R6,2*%
%TO.N,Net-(DS1-LED(+))*%
X437990000Y62559250D03*
%TD*%
D17*
%TO.P,R1,1*%
%TO.N,/~{BUSREQ}*%
X473170000Y21959250D03*
D18*
%TO.P,R1,2*%
%TO.N,/Power*%
X465550000Y21959250D03*
%TD*%
D23*
%TO.N,Net-(U2-PA3)*%
X445410000Y30959250D03*
%TO.N,/Power*%
X480370000Y7779250D03*
X477770000Y53596750D03*
%TO.N,Net-(U2-PA5)*%
X445410000Y38579250D03*
%TO.N,+5V*%
X500570000Y6559250D03*
%TO.N,GND*%
X461200000Y37196750D03*
X481870000Y10359250D03*
X470970000Y57959250D03*
X480345000Y35634250D03*
%TO.N,Net-(U2-PA4)*%
X445410000Y36039250D03*
%TO.N,Net-(U2-PA0)*%
X445410000Y23339250D03*
%TO.N,/~{RD}*%
X470000000Y51196750D03*
X489235000Y46759250D03*
X441570000Y51359250D03*
X488370000Y30559250D03*
%TO.N,/~{WR}*%
X492970000Y28159250D03*
X476385000Y53196750D03*
X495585000Y46759250D03*
%TO.N,/A0*%
X466225000Y38996750D03*
X485425000Y35634250D03*
X485370000Y7759250D03*
%TO.N,/A1*%
X486695000Y35634250D03*
X486370000Y5359250D03*
X467495000Y39396750D03*
%TO.N,/A2*%
X468765000Y39796750D03*
X487965000Y35634250D03*
X486970000Y2759250D03*
%TO.N,/A3*%
X487970000Y159250D03*
X470035000Y40196750D03*
X489235000Y35634250D03*
%TO.N,/A4*%
X488170000Y-2240750D03*
X471305000Y40596750D03*
X490505000Y35634250D03*
%TO.N,/A5*%
X491775000Y35634250D03*
X472575000Y40996750D03*
X489370000Y-4840750D03*
%TO.N,/A6*%
X473845000Y41396750D03*
X493045000Y35634250D03*
X490570000Y-7440750D03*
%TO.N,/A7*%
X494315000Y35634250D03*
X491370000Y-9840750D03*
X475115000Y41796750D03*
%TO.N,/A8*%
X473845000Y52396750D03*
X493045000Y46759250D03*
X490770000Y-12440750D03*
%TO.N,/A9*%
X491775000Y46759250D03*
X490170000Y-15040750D03*
X472575000Y51996750D03*
%TO.N,/A10*%
X468765000Y50796750D03*
X487370000Y-17540750D03*
X487965000Y46759250D03*
%TO.N,/A11*%
X471305000Y51596750D03*
X488770000Y-16940750D03*
X490505000Y46759250D03*
%TO.N,/A12*%
X476385000Y42196750D03*
X490770000Y-15640750D03*
X495585000Y35634250D03*
%TO.N,/A13*%
X490770000Y-13240750D03*
X475115000Y52796750D03*
X494315000Y46759250D03*
%TO.N,/A14*%
X477655000Y42596750D03*
X499970000Y-11240750D03*
X496855000Y35634250D03*
%TO.N,/A15*%
X484715000Y55746750D03*
%TO.N,/CLK*%
X491370000Y26559250D03*
X491570000Y-3440750D03*
X467062892Y29052142D03*
%TO.N,/D4*%
X483170000Y-2520750D03*
X462400000Y49196750D03*
X442770000Y49224892D03*
X481615000Y46759250D03*
%TO.N,/D3*%
X480345000Y46759250D03*
X482170000Y19250D03*
X461200000Y48596750D03*
X443370000Y48559250D03*
%TO.N,/D5*%
X442170000Y49821957D03*
X482885000Y46759250D03*
X463685000Y49596750D03*
X483770000Y2559250D03*
%TO.N,/D6*%
X484155000Y46759250D03*
X484370000Y5359250D03*
X464955000Y49996750D03*
%TO.N,/D2*%
X462400000Y37796750D03*
X481615000Y35634250D03*
X482943405Y9742091D03*
%TO.N,/D7*%
X485425000Y46759250D03*
X466225000Y50396750D03*
X485770000Y12759250D03*
%TO.N,/D0*%
X464955000Y38596750D03*
X484370000Y15359250D03*
X484155000Y35634250D03*
%TO.N,/D1*%
X483670000Y17799250D03*
X482885000Y35634250D03*
X463800000Y38196750D03*
%TO.N,/~{IORQ}*%
X479758166Y33259250D03*
X443370000Y47759250D03*
%TO.N,Net-(U2-PA1)*%
X445410000Y25879250D03*
%TO.N,Net-(U2-PA6)*%
X445410000Y41119250D03*
%TO.N,Net-(U2-PA7)*%
X445410000Y43659250D03*
%TO.N,Net-(U2-PA2)*%
X445410000Y28419250D03*
%TO.N,/RS LCD*%
X436170000Y25959250D03*
%TO.N,/R{slash}W LCD*%
X436720000Y28559250D03*
%TO.N,/E LCD*%
X439170000Y30959250D03*
%TO.N,/LCD4*%
X439690000Y33559250D03*
%TO.N,/LCD5*%
X440090000Y36159250D03*
%TO.N,/LCD6*%
X440490000Y38559250D03*
%TO.N,/LCD7*%
X440890000Y41159250D03*
%TD*%
%TO.N,Net-(U2-PA3)*%
D24*
X444810000Y30359250D02*
X445410000Y30959250D01*
X442020000Y-12583607D02*
X442020000Y-6045129D01*
X444810000Y27859250D02*
X444810000Y30359250D01*
X442020000Y-6045129D02*
X450770000Y2704871D01*
X450770000Y2704871D02*
X450770000Y21899250D01*
X450770000Y21899250D02*
X444810000Y27859250D01*
%TO.N,/Power*%
X477570000Y53796750D02*
X477770000Y53596750D01*
X465570000Y31559250D02*
X465570000Y21979250D01*
X465510000Y18709250D02*
X464620000Y17819250D01*
X431040000Y67116750D02*
X432640000Y68716750D01*
X466201522Y8789250D02*
X472800000Y8789250D01*
X465370000Y68043806D02*
X465370000Y61904250D01*
X469370000Y5359250D02*
X472800000Y8789250D01*
X472800000Y8789250D02*
X479360000Y8789250D01*
X464620000Y17819250D02*
X464620000Y10370772D01*
X465510000Y21919250D02*
X465550000Y21959250D01*
X465570000Y21979250D02*
X465550000Y21959250D01*
X432640000Y68716750D02*
X464697056Y68716750D01*
X465370000Y61904250D02*
X473477500Y53796750D01*
X464697056Y68716750D02*
X465370000Y68043806D01*
X473477500Y53796750D02*
X477570000Y53796750D01*
X479360000Y8789250D02*
X480370000Y7779250D01*
X464620000Y10370772D02*
X466201522Y8789250D01*
X465510000Y18709250D02*
X465510000Y21919250D01*
%TO.N,Net-(U2-PA5)*%
X447829999Y34499251D02*
X446101470Y34499251D01*
X451570000Y2524994D02*
X451570000Y30759250D01*
X446101470Y34499251D02*
X444810000Y35790721D01*
X454680000Y-585006D02*
X451570000Y2524994D01*
X451570000Y30759250D02*
X447829999Y34499251D01*
X444810000Y35790721D02*
X444810000Y37979250D01*
X454680000Y-8826464D02*
X454680000Y-585006D01*
X455980000Y-10126464D02*
X454680000Y-8826464D01*
X444810000Y37979250D02*
X445410000Y38579250D01*
%TO.N,+5V*%
X475800000Y6229250D02*
X477210000Y7639250D01*
X478290000Y6559250D02*
X477210000Y7639250D01*
X467370000Y5359250D02*
X469420000Y3309250D01*
X469420000Y3309250D02*
X474049899Y3309250D01*
X500570000Y6559250D02*
X478290000Y6559250D01*
X474049899Y3309250D02*
X475800000Y5059351D01*
X475800000Y5059351D02*
X475800000Y6229250D01*
%TO.N,/~{BUSREQ}*%
X497200000Y18949250D02*
X498810000Y20559250D01*
X476180000Y18949250D02*
X497200000Y18949250D01*
X473170000Y21959250D02*
X476180000Y18949250D01*
%TO.N,GND*%
X472420000Y10909250D02*
X472840000Y11329250D01*
X481870000Y10359250D02*
X481910000Y10399250D01*
X455770000Y20759250D02*
X457170000Y22159250D01*
X472840000Y11329250D02*
X480900000Y11329250D01*
X472420000Y10909250D02*
X465920000Y10909250D01*
X455770000Y5359250D02*
X455770000Y20759250D01*
X466600000Y67116750D02*
X466600000Y62329250D01*
X461200000Y37196750D02*
X478782500Y37196750D01*
X481910000Y10399250D02*
X498810000Y10399250D01*
X466600000Y62329250D02*
X470970000Y57959250D01*
X457170000Y22159250D02*
X457170000Y29999250D01*
X480900000Y11329250D02*
X481870000Y10359250D01*
X478782500Y37196750D02*
X480345000Y35634250D01*
%TO.N,Net-(U2-PA4)*%
X451970000Y31559250D02*
X447490000Y36039250D01*
X455980000Y-1319321D02*
X451970000Y2690679D01*
X447490000Y36039250D02*
X445410000Y36039250D01*
X451970000Y2690679D02*
X451970000Y31559250D01*
%TO.N,Net-(U2-PA0)*%
X441970000Y3166393D02*
X445410000Y6606393D01*
X445410000Y6606393D02*
X445410000Y23339250D01*
%TO.N,/~{RD}*%
X488370000Y30559250D02*
X494570000Y30559250D01*
X494730000Y30719250D02*
X498810000Y30719250D01*
X470000000Y51196750D02*
X470200000Y50996750D01*
X469800000Y51396750D02*
X441607500Y51396750D01*
X470200000Y50996750D02*
X484997500Y50996750D01*
X494570000Y30559250D02*
X494730000Y30719250D01*
X470000000Y51196750D02*
X469800000Y51396750D01*
X484997500Y50996750D02*
X489235000Y46759250D01*
X441607500Y51396750D02*
X441570000Y51359250D01*
%TO.N,/~{WR}*%
X476585000Y52996750D02*
X489347500Y52996750D01*
X489347500Y52996750D02*
X495585000Y46759250D01*
X476385000Y53196750D02*
X476585000Y52996750D01*
X498790000Y28159250D02*
X498810000Y28179250D01*
X492970000Y28159250D02*
X498790000Y28159250D01*
%TO.N,/~{WAIT}*%
X473170000Y28359250D02*
X475660000Y25869250D01*
X475660000Y22802904D02*
X476733654Y21729250D01*
X497440000Y21729250D02*
X498810000Y23099250D01*
X476733654Y21729250D02*
X497440000Y21729250D01*
X475660000Y25869250D02*
X475660000Y22802904D01*
%TO.N,/~{RESET}*%
X472420000Y15409250D02*
X472420000Y17999250D01*
X472420000Y17999250D02*
X473130000Y18709250D01*
X472420000Y15409250D02*
X465920000Y15409250D01*
X497350000Y16559250D02*
X498810000Y18019250D01*
X473130000Y18709250D02*
X475280000Y16559250D01*
X475280000Y16559250D02*
X497350000Y16559250D01*
%TO.N,/A0*%
X466400000Y38996750D02*
X466600000Y38796750D01*
X482262500Y38796750D02*
X485425000Y35634250D01*
X466600000Y38796750D02*
X482262500Y38796750D01*
X485370000Y7759250D02*
X485470000Y7859250D01*
X485470000Y7859250D02*
X498810000Y7859250D01*
X466225000Y38996750D02*
X466400000Y38996750D01*
%TO.N,/A1*%
X467495000Y39396750D02*
X467695000Y39196750D01*
X467695000Y39196750D02*
X483132500Y39196750D01*
X487210000Y5319250D02*
X498810000Y5319250D01*
X487170000Y5359250D02*
X487210000Y5319250D01*
X483132500Y39196750D02*
X486695000Y35634250D01*
X486370000Y5359250D02*
X487170000Y5359250D01*
%TO.N,/A2*%
X486990000Y2779250D02*
X498810000Y2779250D01*
X468765000Y39796750D02*
X468965000Y39596750D01*
X486970000Y2759250D02*
X486990000Y2779250D01*
X468965000Y39596750D02*
X484002500Y39596750D01*
X484002500Y39596750D02*
X487965000Y35634250D01*
%TO.N,/A3*%
X470235000Y39996750D02*
X484872500Y39996750D01*
X487970000Y159250D02*
X498730000Y159250D01*
X498730000Y159250D02*
X498810000Y239250D01*
X484872500Y39996750D02*
X489235000Y35634250D01*
X470035000Y40196750D02*
X470235000Y39996750D01*
%TO.N,/A4*%
X485742500Y40396750D02*
X490505000Y35634250D01*
X471505000Y40396750D02*
X485742500Y40396750D01*
X471305000Y40596750D02*
X471505000Y40396750D01*
X488170000Y-2240750D02*
X498750000Y-2240750D01*
X498750000Y-2240750D02*
X498810000Y-2300750D01*
%TO.N,/A5*%
X472775000Y40796750D02*
X486612500Y40796750D01*
X472575000Y40996750D02*
X472775000Y40796750D01*
X486612500Y40796750D02*
X491775000Y35634250D01*
X489370000Y-4840750D02*
X498810000Y-4840750D01*
%TO.N,/A6*%
X490570000Y-7440750D02*
X498750000Y-7440750D01*
X474045000Y41196750D02*
X487482500Y41196750D01*
X487482500Y41196750D02*
X493045000Y35634250D01*
X473845000Y41396750D02*
X474045000Y41196750D01*
X498750000Y-7440750D02*
X498810000Y-7380750D01*
%TO.N,/A7*%
X498730000Y-9840750D02*
X498810000Y-9920750D01*
X488352500Y41596750D02*
X494315000Y35634250D01*
X475115000Y41796750D02*
X475315000Y41596750D01*
X491370000Y-9840750D02*
X498730000Y-9840750D01*
X475315000Y41596750D02*
X488352500Y41596750D01*
%TO.N,/A8*%
X492370000Y-12440750D02*
X492390000Y-12460750D01*
X487607500Y52196750D02*
X493045000Y46759250D01*
X492390000Y-12460750D02*
X498810000Y-12460750D01*
X473845000Y52396750D02*
X474045000Y52196750D01*
X490770000Y-12440750D02*
X492370000Y-12440750D01*
X474045000Y52196750D02*
X487607500Y52196750D01*
%TO.N,/A9*%
X486737500Y51796750D02*
X491775000Y46759250D01*
X472575000Y51996750D02*
X472775000Y51796750D01*
X472775000Y51796750D02*
X486737500Y51796750D01*
X490210000Y-15000750D02*
X498810000Y-15000750D01*
X490170000Y-15040750D02*
X490210000Y-15000750D01*
%TO.N,/A10*%
X487370000Y-17540750D02*
X498810000Y-17540750D01*
X468765000Y50796750D02*
X468965000Y50596750D01*
X484127500Y50596750D02*
X487965000Y46759250D01*
X468965000Y50596750D02*
X484127500Y50596750D01*
%TO.N,/A11*%
X488770000Y-16940750D02*
X478030000Y-16940750D01*
X478030000Y-16940750D02*
X477210000Y-17760750D01*
X485867500Y51396750D02*
X490505000Y46759250D01*
X471505000Y51396750D02*
X485867500Y51396750D01*
X471305000Y51596750D02*
X471505000Y51396750D01*
%TO.N,/A12*%
X476585000Y41996750D02*
X489222500Y41996750D01*
X477630000Y-15640750D02*
X477210000Y-15220750D01*
X490770000Y-15640750D02*
X477630000Y-15640750D01*
X489222500Y41996750D02*
X495585000Y35634250D01*
X476385000Y42196750D02*
X476585000Y41996750D01*
%TO.N,/A13*%
X475315000Y52596750D02*
X488477500Y52596750D01*
X479210000Y-12680750D02*
X477210000Y-12680750D01*
X490770000Y-13240750D02*
X479770000Y-13240750D01*
X488477500Y52596750D02*
X494315000Y46759250D01*
X479770000Y-13240750D02*
X479210000Y-12680750D01*
X475115000Y52796750D02*
X475315000Y52596750D01*
%TO.N,/A14*%
X478310000Y-11240750D02*
X477210000Y-10140750D01*
X477855000Y42396750D02*
X490092500Y42396750D01*
X477655000Y42596750D02*
X477855000Y42396750D01*
X499970000Y-11240750D02*
X478310000Y-11240750D01*
X490092500Y42396750D02*
X496855000Y35634250D01*
%TO.N,/A15*%
X476060000Y-18910750D02*
X476190000Y-19040750D01*
X487446029Y55746750D02*
X484715000Y55746750D01*
X498936346Y-19040750D02*
X501170000Y-16807096D01*
X476060000Y-8750750D02*
X476060000Y-18910750D01*
X501170000Y-16807096D02*
X501170000Y42022779D01*
X476190000Y-19040750D02*
X498936346Y-19040750D01*
X501170000Y42022779D02*
X487446029Y55746750D01*
X477210000Y-7600750D02*
X476060000Y-8750750D01*
%TO.N,/CLK*%
X485270000Y32659250D02*
X491370000Y26559250D01*
X471470000Y32659250D02*
X485270000Y32659250D01*
X467862892Y29052142D02*
X471470000Y32659250D01*
X491570000Y-3440750D02*
X478830000Y-3440750D01*
X478830000Y-3440750D02*
X477210000Y-5060750D01*
X467062892Y29052142D02*
X467862892Y29052142D01*
%TO.N,/D4*%
X462600000Y48996750D02*
X479377500Y48996750D01*
X442798142Y49196750D02*
X462400000Y49196750D01*
X479377500Y48996750D02*
X481615000Y46759250D01*
X442770000Y49224892D02*
X442798142Y49196750D01*
X483170000Y-2520750D02*
X477210000Y-2520750D01*
X462400000Y49196750D02*
X462600000Y48996750D01*
%TO.N,/D3*%
X461200000Y48596750D02*
X478507500Y48596750D01*
X461162500Y48559250D02*
X461200000Y48596750D01*
X478507500Y48596750D02*
X480345000Y46759250D01*
X443370000Y48559250D02*
X461162500Y48559250D01*
X482170000Y19250D02*
X477210000Y19250D01*
%TO.N,/D5*%
X463685000Y49596750D02*
X463885000Y49396750D01*
X463456858Y49824892D02*
X463685000Y49596750D01*
X483770000Y2559250D02*
X477210000Y2559250D01*
X463885000Y49396750D02*
X480247500Y49396750D01*
X442170000Y49821957D02*
X442172935Y49824892D01*
X480247500Y49396750D02*
X482885000Y46759250D01*
X442172935Y49824892D02*
X463456858Y49824892D01*
%TO.N,/D6*%
X464955000Y49996750D02*
X465155000Y49796750D01*
X481117500Y49796750D02*
X484155000Y46759250D01*
X484370000Y5359250D02*
X484110000Y5099250D01*
X484110000Y5099250D02*
X477210000Y5099250D01*
X465155000Y49796750D02*
X481117500Y49796750D01*
%TO.N,/D2*%
X462400000Y37796750D02*
X462600000Y37596750D01*
X462600000Y37596750D02*
X479652500Y37596750D01*
X479652500Y37596750D02*
X481615000Y35634250D01*
X482943405Y9742091D02*
X482926246Y9759250D01*
X482926246Y9759250D02*
X477630000Y9759250D01*
X477630000Y9759250D02*
X477210000Y10179250D01*
%TO.N,/D7*%
X466225000Y50396750D02*
X466425000Y50196750D01*
X485770000Y12759250D02*
X485730000Y12719250D01*
X481987500Y50196750D02*
X485425000Y46759250D01*
X485730000Y12719250D02*
X477210000Y12719250D01*
X466425000Y50196750D02*
X481987500Y50196750D01*
%TO.N,/D0*%
X481392500Y38396750D02*
X484155000Y35634250D01*
X465200000Y38396750D02*
X481392500Y38396750D01*
X484370000Y15359250D02*
X484270000Y15259250D01*
X464955000Y38596750D02*
X465000000Y38596750D01*
X465000000Y38596750D02*
X465200000Y38396750D01*
X484270000Y15259250D02*
X477210000Y15259250D01*
%TO.N,/D1*%
X463800000Y38196750D02*
X464000000Y37996750D01*
X483670000Y17799250D02*
X477210000Y17799250D01*
X464000000Y37996750D02*
X480522500Y37996750D01*
X480522500Y37996750D02*
X482885000Y35634250D01*
%TO.N,/~{INT}*%
X473180000Y25159250D02*
X473180000Y24369250D01*
X473180000Y24369250D02*
X477210000Y20339250D01*
%TO.N,/~{NMI}*%
X476060000Y24029250D02*
X477210000Y22879250D01*
X476060000Y28689250D02*
X476060000Y24029250D01*
X473190000Y31559250D02*
X476060000Y28689250D01*
%TO.N,/~{IORQ}*%
X443370000Y47759250D02*
X458070000Y33059250D01*
X458070000Y33059250D02*
X479558166Y33059250D01*
X479558166Y33059250D02*
X479758166Y33259250D01*
%TO.N,Net-(U2-PA1)*%
X432370000Y12839250D02*
X445410000Y25879250D01*
X432370000Y-4633607D02*
X432370000Y12839250D01*
%TO.N,Net-(U2-PA6)*%
X463870000Y1266393D02*
X463870000Y31259250D01*
X447605635Y41119250D02*
X445410000Y41119250D01*
X466720000Y-1583607D02*
X463870000Y1266393D01*
X462570000Y32559250D02*
X456165635Y32559250D01*
X463870000Y31259250D02*
X462570000Y32559250D01*
X456165635Y32559250D02*
X447605635Y41119250D01*
%TO.N,Net-(U2-PA7)*%
X462404314Y32159250D02*
X453521471Y32159250D01*
X463470000Y31093564D02*
X462404314Y32159250D01*
X453521471Y32159250D02*
X444810000Y40870721D01*
X463470000Y-172085D02*
X463470000Y31093564D01*
X468020000Y-4722085D02*
X463470000Y-172085D01*
X468020000Y-8490750D02*
X468020000Y-4722085D01*
X444810000Y43059250D02*
X445410000Y43659250D01*
X444810000Y40870721D02*
X444810000Y43059250D01*
X466370000Y-10140750D02*
X468020000Y-8490750D01*
%TO.N,Net-(U2-PA2)*%
X451620000Y-4783607D02*
X451370000Y-4533607D01*
X451170000Y25559250D02*
X448310000Y28419250D01*
X451170000Y2359309D02*
X451170000Y25559250D01*
X451370000Y2159308D02*
X451170000Y2359309D01*
X451370000Y-4533607D02*
X451370000Y2159308D01*
X448310000Y28419250D02*
X445410000Y28419250D01*
%TO.N,/RS LCD*%
X436120000Y67116750D02*
X436120000Y26009250D01*
X436120000Y26009250D02*
X436170000Y25959250D01*
%TO.N,/R{slash}W LCD*%
X438660000Y67116750D02*
X436720000Y65176750D01*
X436720000Y65176750D02*
X436720000Y28559250D01*
%TO.N,/E LCD*%
X441200000Y67116750D02*
X441200000Y66989250D01*
X439090000Y64879250D02*
X439090000Y31039250D01*
X439090000Y31039250D02*
X439170000Y30959250D01*
X441200000Y66989250D02*
X439090000Y64879250D01*
%TO.N,/LCD4*%
X439490000Y64713564D02*
X439490000Y33759250D01*
X452142500Y65359250D02*
X440135686Y65359250D01*
X439490000Y33759250D02*
X439690000Y33559250D01*
X440135686Y65359250D02*
X439490000Y64713564D01*
X453900000Y67116750D02*
X452142500Y65359250D01*
%TO.N,/LCD5*%
X454282500Y64959250D02*
X440301372Y64959250D01*
X439890000Y36359250D02*
X440090000Y36159250D01*
X439890000Y64547878D02*
X439890000Y36359250D01*
X456440000Y67116750D02*
X454282500Y64959250D01*
X440301372Y64959250D02*
X439890000Y64547878D01*
%TO.N,/LCD6*%
X456422500Y64559250D02*
X440467058Y64559250D01*
X440290000Y64382192D02*
X440290000Y38759250D01*
X440290000Y38759250D02*
X440490000Y38559250D01*
X458980000Y67116750D02*
X456422500Y64559250D01*
X440467058Y64559250D02*
X440290000Y64382192D01*
%TO.N,/LCD7*%
X461520000Y67116750D02*
X458562500Y64159250D01*
X440690000Y64159250D02*
X440890000Y63959250D01*
X440890000Y63959250D02*
X440890000Y41159250D01*
X458562500Y64159250D02*
X440690000Y64159250D01*
%TD*%
M02*
